<svg width="652" height="133" viewBox="0 0 652 133" fill="none" xmlns="http://www.w3.org/2000/svg">
<path d="M128.79 48.2423C132.16 48.1518 135.208 46.7038 138.346 45.6781C139.401 52.8698 136.062 59.959 131.178 65.0812C128.457 67.7419 124.918 70.0527 120.955 69.8898C116.211 69.9742 110.721 68.2065 108.558 63.6513C106.297 58.0464 109.079 50.6435 114.902 48.4776C119.392 46.746 124.179 48.9482 128.79 48.2423ZM28.8622 13.8826C34.031 11.7951 39.6542 10.7875 45.2351 10.9745C54.9668 11.0711 64.3591 15.0108 71.9335 20.9657C80.1321 27.3912 87.1128 35.4939 91.7847 44.8093C92.9481 46.9753 93.3662 49.5756 95.1901 51.3494C94.5478 47.5424 92.627 44.1275 90.803 40.7791C84.6768 30.269 76.0419 21.1225 65.571 14.8238C73.8726 13.599 82.4226 12.8871 90.7303 14.4437C95.4144 15.2642 99.4743 17.8887 103.304 20.5494C112.199 26.8964 119.422 36.1032 121.834 46.8787C118.695 45.0627 115.259 43.3794 111.509 43.8319C114.023 44.2482 116.52 44.8274 118.78 46.0461C117.459 46.3719 116.132 46.6555 114.835 47.0597C106.758 49.4067 103.104 61.1475 109.03 67.3136C112.369 70.843 117.447 71.5851 122.07 71.923C121.186 77.184 119.119 82.2882 115.72 86.4391C113.751 88.6111 111.151 90.0652 108.697 91.6097C103.425 94.7229 97.9897 97.5706 92.427 100.135C92.5906 97.643 92.9784 95.1754 93.2632 92.7017C91.7301 95.5253 91.5605 98.8074 91.4272 101.945C91.0272 111.176 94.2509 120.22 99.2137 127.912C96.493 130.392 93.1905 132.419 89.4639 132.847C86.0402 133.39 82.6287 132.419 79.5141 131.068C77.8962 126.349 77.4962 121.33 77.4296 116.376C77.3508 109.529 77.3084 102.651 78.1628 95.839C79.4656 83.5854 83.0589 71.742 85.1192 59.6271C86.0887 53.9618 86.422 47.8079 83.4952 42.6253C78.6718 33.883 69.7945 28.2177 60.8142 24.3504C53.664 21.4785 45.7744 19.0893 38.0242 20.7424C35.0793 21.4302 31.9707 22.2025 29.6863 24.3081C32.7948 23.3911 35.7155 21.8103 38.9635 21.382C45.6411 20.483 52.5308 21.756 58.5904 24.64C52.961 25.3881 47.0711 26.3534 42.2538 29.5631C40.2057 31.1378 37.188 30.438 35.3217 32.3505C32.1222 35.4155 30.4679 39.7112 29.2984 43.8922C27.832 43.8138 27.3473 42.2452 26.6565 41.2195C23.1116 35.0836 20.9605 27.6928 22.8632 20.6761C23.6752 17.6232 25.9233 15.0651 28.8622 13.8826ZM59.1539 0.585167C60.0629 -0.313796 61.7414 -0.187097 62.2928 1.0437C64.6075 4.91105 65.8316 9.31536 67.9766 13.2792C66.08 13.424 64.0076 14.1239 62.2079 13.1767C59.0994 11.6804 55.7848 10.703 52.452 9.85233C54.2638 6.50384 56.209 3.08899 59.1539 0.585167Z" fill="white"/>
<path d="M0.182368 72.3635C-0.714448 69.7511 1.87905 67.0723 4.52708 67.736C6.28435 68.3755 7.29024 70.1131 8.6294 71.3137C13.6043 75.7362 18.252 80.5145 22.8027 85.3533C20.2516 81.323 16.4705 78.2702 13.5316 74.5355C18.2156 74.4873 22.9785 73.9503 27.3171 72.0981C30.5166 70.7104 34.7885 70.7466 37.3578 73.359C40.1573 76.0499 42.7266 78.97 45.4594 81.7272C47.2531 83.5071 48.8407 85.7334 51.3554 86.5358C56.4273 88.201 61.8506 88.4061 66.9588 89.9144C69.0554 90.6565 71.5822 91.7244 72.17 94.1136C72.6305 97.263 69.9219 99.6884 67.6496 101.426C62.7534 104.714 57.518 107.477 52.3189 110.253C47.1985 113.04 43.1386 117.36 38.0668 120.208C36.1762 121.354 33.8311 120.908 32.0557 119.773C28.4563 117.607 25.5174 114.428 23.2572 110.922C22.6755 109.022 23.9965 107.242 24.6085 105.517C25.8083 103.049 25.4508 100.243 25.5477 97.5948C26.6021 98.162 27.6504 98.7472 28.6987 99.3385C28.8805 102.79 26.9596 105.746 26.2021 108.98C28.0806 113.016 32.3284 116.998 37.2003 116.057C41.2541 115.122 44.7747 112.666 47.8833 109.993C53.4278 104.678 59.6388 100.099 65.8196 95.5556C68.0313 95.2298 66.9588 98.2042 67.4678 99.5436C68.5464 97.4319 67.6738 94.8256 65.8317 93.4439C64.1593 91.8873 61.79 91.6219 59.6085 91.6882C60.0872 92.6355 61.2143 92.551 62.1051 92.7803C63.6745 92.9492 64.9652 93.8904 66.2437 94.729C62.9958 96.4063 59.7661 98.3007 56.1667 99.1092C47.7742 101.643 38.3213 102.289 30.0803 98.892C23.8086 95.628 18.1672 90.9823 14.2284 85.0818C11.435 80.8403 7.92649 77.0937 4.01807 73.8477C4.12714 74.5476 4.10291 75.3621 4.76946 75.8086C6.25405 77.1902 7.79924 78.5296 8.95056 80.2189C5.40571 78.5115 1.72756 76.1404 0.182368 72.3635Z" fill="white"/>
<path d="M622.11 62.2478V99.7486H613.957V52.0683H621.669L622.11 62.2478ZM620.171 74.1017L616.778 73.9695C616.807 70.7086 617.292 67.6974 618.232 64.9359C619.172 62.145 620.494 59.7213 622.198 57.6648C623.902 55.6084 625.929 54.022 628.279 52.9056C630.659 51.7599 633.288 51.187 636.167 51.187C638.517 51.187 640.632 51.5102 642.513 52.1565C644.393 52.7734 645.994 53.7723 647.316 55.153C648.667 56.5338 649.695 58.3258 650.401 60.5292C651.106 62.7031 651.458 65.3618 651.458 68.5053V99.7486H643.262V68.4171C643.262 65.92 642.894 63.9223 642.16 62.424C641.426 60.8964 640.353 59.7947 638.943 59.119C637.533 58.414 635.8 58.0614 633.743 58.0614C631.716 58.0614 629.865 58.4874 628.191 59.3394C626.546 60.1913 625.121 61.3664 623.916 62.8647C622.741 64.363 621.816 66.0816 621.14 68.0205C620.494 69.9301 620.171 71.9572 620.171 74.1017Z" fill="white"/>
<path d="M600.87 52.0684V99.7487H592.673V52.0684H600.87ZM592.056 39.4212C592.056 38.0992 592.453 36.9829 593.246 36.0721C594.069 35.1614 595.273 34.7061 596.859 34.7061C598.416 34.7061 599.606 35.1614 600.429 36.0721C601.281 36.9829 601.707 38.0992 601.707 39.4212C601.707 40.6845 601.281 41.7714 600.429 42.6822C599.606 43.5635 598.416 44.0042 596.859 44.0042C595.273 44.0042 594.069 43.5635 593.246 42.6822C592.453 41.7714 592.056 40.6845 592.056 39.4212Z" fill="white"/>
<path d="M536.223 91.2878L548.473 52.0684H553.85L552.792 59.8682L540.321 99.7486H535.077L536.223 91.2878ZM527.982 52.0684L538.426 91.7285L539.175 99.7486H533.667L519.83 52.0684H527.982ZM565.571 91.42L575.53 52.0684H583.639L569.802 99.7486H564.338L565.571 91.42ZM555.039 52.0684L567.026 90.6268L568.392 99.7486H563.192L550.368 59.78L549.311 52.0684H555.039Z" fill="white"/>
<path d="M500.925 59.5597V99.7486H492.773V52.0683H500.705L500.925 59.5597ZM515.82 51.8039L515.776 59.3834C515.1 59.2365 514.454 59.1484 513.837 59.119C513.249 59.0603 512.574 59.0309 511.81 59.0309C509.93 59.0309 508.27 59.3247 506.83 59.9122C505.391 60.4998 504.172 61.3224 503.173 62.38C502.174 63.4376 501.381 64.7008 500.793 66.1697C500.235 67.6092 499.868 69.1956 499.691 70.9289L497.4 72.2509C497.4 69.3719 497.679 66.6691 498.237 64.1427C498.825 61.6162 499.721 59.3834 500.925 57.4445C502.13 55.4762 503.657 53.9485 505.508 52.8615C507.388 51.7452 509.621 51.187 512.206 51.187C512.794 51.187 513.47 51.2605 514.233 51.4073C514.997 51.5249 515.526 51.6571 515.82 51.8039Z" fill="white"/>
<path d="M471.797 91.5963V67.0511C471.797 65.1709 471.415 63.5404 470.651 62.1596C469.917 60.7495 468.8 59.6625 467.302 58.8987C465.804 58.1349 463.953 57.753 461.75 57.753C459.693 57.753 457.887 58.1055 456.33 58.8106C454.802 59.5156 453.597 60.441 452.716 61.5868C451.864 62.7325 451.438 63.9664 451.438 65.2884H443.286C443.286 63.5845 443.726 61.8952 444.608 60.2207C445.489 58.5462 446.752 57.0332 448.398 55.6818C450.072 54.3011 452.07 53.2141 454.391 52.4209C456.741 51.5983 459.355 51.187 462.234 51.187C465.701 51.187 468.756 51.7746 471.4 52.9497C474.074 54.1248 476.16 55.9022 477.658 58.2818C479.186 60.632 479.949 63.5845 479.949 67.1392V89.3489C479.949 90.9353 480.082 92.6245 480.346 94.4165C480.64 96.2086 481.066 97.7509 481.624 99.0436V99.7486H473.119C472.708 98.8085 472.385 97.56 472.15 96.0029C471.914 94.4165 471.797 92.9476 471.797 91.5963ZM473.207 70.8408L473.295 76.5695H465.055C462.734 76.5695 460.663 76.7604 458.841 77.1424C457.02 77.4949 455.492 78.0384 454.258 78.7728C453.025 79.5073 452.084 80.4327 451.438 81.549C450.792 82.636 450.469 83.914 450.469 85.3828C450.469 86.8811 450.806 88.2472 451.482 89.4811C452.158 90.7149 453.171 91.6991 454.523 92.4335C455.904 93.1386 457.593 93.4911 459.59 93.4911C462.088 93.4911 464.291 92.9623 466.2 91.9047C468.11 90.8471 469.623 89.5545 470.739 88.0269C471.885 86.4992 472.502 85.0156 472.59 83.5761L476.071 87.4981C475.866 88.7319 475.308 90.098 474.397 91.5963C473.486 93.0945 472.267 94.5341 470.739 95.9148C469.241 97.2662 467.449 98.3972 465.363 99.308C463.307 100.189 460.986 100.63 458.401 100.63C455.169 100.63 452.334 99.9983 449.896 98.7351C447.487 97.4718 445.607 95.7826 444.255 93.6674C442.933 91.5228 442.272 89.1285 442.272 86.4845C442.272 83.9286 442.772 81.6812 443.771 79.7423C444.769 77.774 446.209 76.1435 448.089 74.8509C449.969 73.5289 452.231 72.53 454.875 71.8543C457.519 71.1786 460.472 70.8408 463.733 70.8408H473.207Z" fill="white"/>
<path d="M403.054 99.7487H389.657L389.746 92.8302H403.054C407.637 92.8302 411.456 91.8754 414.511 89.9658C417.566 88.0269 419.858 85.3241 421.385 81.8576C422.943 78.3616 423.721 74.2781 423.721 69.607V65.685C423.721 62.0128 423.28 58.7519 422.399 55.9022C421.518 53.0232 420.225 50.5995 418.521 48.6312C416.817 46.6335 414.731 45.1205 412.264 44.0923C409.825 43.0641 407.02 42.55 403.847 42.55H389.393V35.5874H403.847C408.048 35.5874 411.882 36.2925 415.348 37.7026C418.815 39.0834 421.797 41.0958 424.294 43.7398C426.82 46.3544 428.759 49.5272 430.111 53.2582C431.462 56.9598 432.138 61.1315 432.138 65.7732V69.607C432.138 74.2487 431.462 78.435 430.111 82.166C428.759 85.8676 426.806 89.0258 424.25 91.6404C421.723 94.255 418.668 96.2674 415.084 97.6775C411.529 99.0583 407.519 99.7487 403.054 99.7487ZM394.196 35.5874V99.7487H385.691V35.5874H394.196Z" fill="white"/>
<path d="M356.387 100.63C353.067 100.63 350.056 100.072 347.353 98.9554C344.68 97.8097 342.374 96.2086 340.435 94.1521C338.525 92.0957 337.056 89.6573 336.028 86.837C335 84.0168 334.486 80.9321 334.486 77.583V75.7322C334.486 71.8543 335.058 68.4024 336.204 65.3765C337.35 62.3212 338.907 59.736 340.875 57.6208C342.844 55.5056 345.076 53.9045 347.573 52.8175C350.071 51.7305 352.656 51.187 355.329 51.187C358.737 51.187 361.675 51.7746 364.143 52.9497C366.64 54.1248 368.681 55.77 370.268 57.8852C371.854 59.971 373.029 62.4387 373.793 65.2884C374.557 68.1087 374.939 71.1933 374.939 74.5424V78.2H339.333V71.5459H366.787V70.9289C366.669 68.8137 366.228 66.7573 365.465 64.7596C364.73 62.7619 363.555 61.1167 361.939 59.8241C360.323 58.5315 358.12 57.8852 355.329 57.8852C353.478 57.8852 351.774 58.2818 350.217 59.075C348.66 59.8388 347.324 60.9845 346.207 62.5122C345.091 64.0398 344.224 65.9053 343.607 68.1087C342.99 70.312 342.682 72.8532 342.682 75.7322V77.583C342.682 79.8451 342.99 81.975 343.607 83.9727C344.254 85.941 345.179 87.6743 346.384 89.1726C347.618 90.6709 349.101 91.846 350.834 92.6979C352.597 93.5499 354.595 93.9759 356.827 93.9759C359.707 93.9759 362.145 93.3883 364.143 92.2132C366.14 91.0381 367.888 89.4664 369.387 87.4981L374.322 91.42C373.294 92.977 371.986 94.4606 370.4 95.8707C368.814 97.2809 366.86 98.4266 364.539 99.308C362.248 100.189 359.53 100.63 356.387 100.63Z" fill="white"/>
<path d="M315.052 59.5597V99.7486H306.899V52.0683H314.831L315.052 59.5597ZM329.946 51.8039L329.902 59.3834C329.227 59.2365 328.58 59.1484 327.963 59.119C327.376 59.0603 326.7 59.0309 325.936 59.0309C324.056 59.0309 322.396 59.3247 320.957 59.9122C319.517 60.4998 318.298 61.3224 317.299 62.38C316.3 63.4376 315.507 64.7008 314.92 66.1697C314.361 67.6092 313.994 69.1956 313.818 70.9289L311.526 72.2509C311.526 69.3719 311.806 66.6691 312.364 64.1427C312.951 61.6162 313.847 59.3834 315.052 57.4445C316.256 55.4762 317.784 53.9485 319.635 52.8615C321.515 51.7452 323.748 51.187 326.333 51.187C326.92 51.187 327.596 51.2605 328.36 51.4073C329.124 51.5249 329.653 51.6571 329.946 51.8039Z" fill="white"/>
<path d="M286.276 88.7319V52.0684H294.473V99.7486H286.673L286.276 88.7319ZM287.819 78.6847L291.212 78.5966C291.212 81.7694 290.874 84.7072 290.198 87.4099C289.552 90.0833 288.494 92.4042 287.025 94.3725C285.556 96.3408 283.632 97.8831 281.253 98.9995C278.873 100.086 275.979 100.63 272.571 100.63C270.251 100.63 268.121 100.292 266.182 99.6164C264.272 98.9407 262.627 97.8978 261.246 96.4877C259.866 95.0776 258.793 93.2414 258.029 90.9793C257.295 88.7172 256.928 85.9998 256.928 82.827V52.0684H265.08V82.9151C265.08 85.0597 265.315 86.8371 265.785 88.2472C266.285 89.628 266.946 90.7296 267.768 91.5522C268.62 92.3454 269.56 92.9036 270.588 93.2267C271.646 93.5499 272.733 93.7115 273.849 93.7115C277.316 93.7115 280.063 93.0505 282.09 91.7285C284.117 90.3771 285.571 88.5704 286.452 86.3083C287.363 84.0168 287.819 81.4756 287.819 78.6847Z" fill="white"/>
<path d="M225.067 74.5865H207.925V67.668H225.067C228.387 67.668 231.075 67.1392 233.132 66.0816C235.188 65.024 236.686 63.5551 237.626 61.675C238.596 59.7948 239.081 57.6502 239.081 55.2412C239.081 53.0379 238.596 50.9667 237.626 49.0278C236.686 47.0889 235.188 45.5318 233.132 44.3567C231.075 43.1522 228.387 42.55 225.067 42.55H209.908V99.7487H201.404V35.5874H225.067C229.915 35.5874 234.013 36.4247 237.362 38.0992C240.711 39.7738 243.252 42.0946 244.986 45.0618C246.719 47.9996 247.586 51.3633 247.586 55.1531C247.586 59.266 246.719 62.7766 244.986 65.685C243.252 68.5935 240.711 70.8115 237.362 72.3391C234.013 73.8374 229.915 74.5865 225.067 74.5865Z" fill="white"/>
</svg>
