<?xml version="1.0" encoding="utf-8"?>
<!-- Generator: Adobe Illustrator 28.2.0, SVG Export Plug-In . SVG Version: 6.00 Build 0)  -->
<svg version="1.1" id="Layer_1" xmlns="http://www.w3.org/2000/svg" xmlns:xlink="http://www.w3.org/1999/xlink" x="0px" y="0px"
	 viewBox="0 0 1137.4 194.2" style="enable-background:new 0 0 1137.4 194.2;" xml:space="preserve">
<style type="text/css">
	.st0{fill:#1B1B1B;}
</style>
<g>
	<path class="st0" d="M1135.4,84.6c-1.3-4.3-3.3-7.8-5.9-10.5c-2.5-2.7-5.6-4.6-9.1-5.8c-3.5-1.2-7.5-1.8-11.8-1.8
		c-5.4,0-10.4,1.1-14.8,3.2c-4.4,2.1-8.2,5-11.4,8.9c-0.1,0.2-0.3,0.4-0.4,0.6l-0.7-11h-19.1V159h20.2V94.5c0.7-1.3,1.4-2.5,2.2-3.6
		c1.9-2.5,4.2-4.5,7-6c2.7-1.5,5.8-2.2,9.3-2.2c3.5,0,6.5,0.6,8.8,1.7c2.4,1.1,4.2,2.9,5.5,5.5c1.3,2.5,1.9,6,1.9,10.3V159h20.3
		v-58.7C1137.4,94.1,1136.7,88.9,1135.4,84.6z"/>
	<rect x="1019.9" y="68.2" class="st0" width="20.3" height="90.8"/>
	<path class="st0" d="M1030.1,33.6c-3.6,0-6.5,1-8.6,3.1c-2,2-3,4.6-3,7.6c0,3,1,5.5,3,7.6c2.1,2,4.9,3,8.6,3c3.6,0,6.4-1,8.5-3
		c2.1-2,3.1-4.5,3.1-7.6c0-3.1-1-5.6-3.1-7.6C1036.5,34.6,1033.7,33.6,1030.1,33.6z"/>
	<polygon class="st0" points="970.7,131.9 951.7,68.2 949.6,68.2 938.6,68.2 936.6,68.2 917.9,131.4 903.3,68.2 883.5,68.2 
		908.1,159 913.3,159 921,159 924.9,159 944.1,95.8 963.5,159 967.4,159 975.1,159 980.3,159 1004.8,68.2 985.1,68.2 	"/>
	<path class="st0" d="M869.6,66.5c-4.5,0-8.5,1-12,3.1c-3.4,2.1-6.3,5-8.6,8.6c-0.1,0.2-0.2,0.4-0.4,0.6l-0.6-10.7h-19.3V159H849V97
		c0.9-2.1,2.1-4,3.6-5.6c1.8-1.8,4-3.2,6.6-4.2c2.6-1,5.7-1.5,9.1-1.5c1.4,0,2.8,0.1,4.2,0.2c1.5,0.1,2.8,0.3,4,0.5l0.2-18.8
		c-0.7-0.3-1.8-0.5-3.3-0.8C872.1,66.6,870.8,66.5,869.6,66.5z"/>
	<path class="st0" d="M807.6,138V97.6c0-6.9-1.5-12.7-4.6-17.3c-3-4.6-7.2-8.1-12.5-10.4c-5.3-2.3-11.3-3.4-18.1-3.4
		c-5.7,0-10.9,0.8-15.4,2.3c-4.6,1.5-8.5,3.6-11.8,6.2c-3.3,2.6-5.8,5.6-7.6,9c-1.7,3.4-2.6,6.8-2.6,10.4H755c0-2.4,0.7-4.6,2-6.5
		c1.3-1.9,3.2-3.4,5.6-4.5c2.4-1.1,5.3-1.7,8.6-1.7c3.6,0,6.5,0.6,8.9,1.9c2.4,1.3,4.2,3.1,5.4,5.5c1.2,2.3,1.8,5.1,1.8,8.4v6.3
		h-12.9c-6.6,0-12.5,0.7-17.6,2c-5.1,1.3-9.5,3.2-13.1,5.7c-3.5,2.5-6.2,5.7-8.1,9.4c-1.8,3.7-2.7,7.9-2.7,12.8
		c0,5.1,1.3,9.8,3.9,13.8c2.6,4,6.3,7.2,10.9,9.7c4.6,2.4,9.9,3.5,15.9,3.5c4.7,0,8.8-0.8,12.4-2.3c3.6-1.5,6.7-3.4,9.3-5.8
		c0.9-0.9,1.8-1.7,2.6-2.6c0,0.2,0.1,0.5,0.1,0.7c0.6,3.4,1.3,6.1,2.3,8.3H811v-1.3c-1.1-2.4-2-5.2-2.6-8.5
		C807.8,145.9,807.6,142.1,807.6,138z M785.7,135.8c-1.8,2.5-4.2,4.6-7.4,6.3c-3.1,1.7-6.7,2.5-10.8,2.5c-3.1,0-5.7-0.6-7.9-1.7
		c-2.1-1.1-3.7-2.7-4.9-4.6c-1.1-2-1.7-4.2-1.7-6.6c0-2.4,0.5-4.6,1.4-6.5c0.9-1.9,2.4-3.5,4.3-4.9c1.9-1.3,4.3-2.3,7.1-3
		c2.9-0.7,6.2-1.1,9.9-1.1h11.4v17.1C786.8,134.2,786.3,135,785.7,135.8z"/>
	<path class="st0" d="M701.6,52.6c-4.9-5.1-10.7-9-17.4-11.7c-6.7-2.7-14.1-4.1-22.2-4.1h-15.2h-12.2h-8.9V159h9.4h11.7h14.4
		c8.4,0,16-1.3,22.7-4c6.8-2.7,12.7-6.6,17.6-11.7c4.9-5.1,8.7-11.2,11.3-18.3c2.6-7.1,3.9-15.1,3.9-23.8v-6.5
		c0-8.8-1.3-16.7-3.9-23.8C710.3,63.8,706.6,57.7,701.6,52.6z M695.8,101.2c0,8.5-1.3,15.8-3.9,22c-2.6,6.2-6.4,10.9-11.6,14.2
		c-5.1,3.3-11.4,5-19,5h-14.4V53.6H662c5.4,0,10.2,0.9,14.4,2.7c4.2,1.8,7.7,4.4,10.6,7.9c2.9,3.5,5.1,7.7,6.5,12.8
		c1.5,5.1,2.3,10.9,2.3,17.5V101.2z"/>
	<path class="st0" d="M598.3,79c-3.2-4-7.2-7-12.1-9.2c-4.9-2.2-10.5-3.3-17-3.3c-5.9,0-11.3,1.1-16.4,3.3c-5,2.2-9.4,5.3-13.1,9.5
		c-3.7,4.1-6.6,9-8.6,14.8c-2.1,5.8-3.1,12.2-3.1,19.3v3.4c0,6.2,1,12,3,17.4c2,5.4,4.9,10,8.6,14c3.8,4,8.4,7.1,13.8,9.3
		c5.4,2.2,11.5,3.3,18.2,3.3c5.9,0,11.1-0.8,15.6-2.4c4.5-1.6,8.4-3.7,11.5-6.3c3.1-2.6,5.7-5.4,7.6-8.2l-10.7-10.3
		c-2.8,3.6-6.1,6.4-9.9,8.3c-3.8,2-8.1,2.9-13,2.9c-3.9,0-7.3-0.7-10.3-2.1c-3-1.5-5.6-3.4-7.7-6c-2.1-2.5-3.7-5.5-4.9-8.8
		c-0.8-2.6-1.3-5.3-1.5-8.1H608V111c0-6.5-0.8-12.5-2.4-18C604,87.6,601.6,82.9,598.3,79z M588,105.1h-39.2c0.2-1.5,0.5-3,0.8-4.4
		c0.9-3.8,2.3-7,4-9.7c1.7-2.7,3.9-4.7,6.5-6.1c2.6-1.5,5.6-2.2,9-2.2c4.5,0,8.1,1,10.7,2.9c2.7,2,4.7,4.5,6,7.7
		c1.3,3.2,2.1,6.6,2.2,10.2V105.1z"/>
	<path class="st0" d="M513.4,66.5c-4.5,0-8.5,1-12,3.1c-3.4,2.1-6.3,5-8.6,8.6c-0.1,0.2-0.2,0.4-0.3,0.6l-0.6-10.7h-19.3V159h20.2
		V97c0.9-2.1,2.1-4,3.6-5.6c1.8-1.8,4-3.2,6.6-4.2c2.6-1,5.7-1.5,9.1-1.5c1.4,0,2.8,0.1,4.2,0.2c1.5,0.1,2.8,0.3,4,0.5l0.2-18.8
		c-0.7-0.3-1.8-0.5-3.3-0.8C515.9,66.6,514.6,66.5,513.4,66.5z"/>
	<path class="st0" d="M431.5,133.3c-1.4,3.1-3.6,5.7-6.5,7.6c-3.3,2.2-7.8,3.4-13.6,3.4c-2,0-3.9-0.3-5.7-0.8
		c-1.8-0.6-3.4-1.5-4.7-2.9c-1.3-1.3-2.4-3.1-3.2-5.3c-0.8-2.2-1.2-5-1.2-8.3V68.2h-20.2v58.7c0,6,0.7,11.1,2.2,15.4
		c1.5,4.3,3.5,7.8,6.1,10.5c2.7,2.7,5.9,4.7,9.6,6c3.7,1.3,7.7,1.9,12.2,1.9c6.1,0,11.3-1,15.7-3.1c4-1.9,7.3-4.6,10-7.9l0.5,9.3
		h19.1V68.2h-20.3V133.3z"/>
	<path class="st0" d="M339.6,41.8c-6.6-3.4-14.6-5-24.1-5h-46.4V159h21.1v-45.6h25.3c9.5,0,17.5-1.5,24.1-4.5
		c6.7-3,11.7-7.4,15.2-13c3.5-5.7,5.2-12.4,5.2-20.3c0-7.5-1.7-14.2-5.2-20C351.3,49.7,346.2,45.1,339.6,41.8z M336.4,86.6
		c-1.6,3.1-4.1,5.6-7.5,7.4c-3.4,1.8-7.9,2.7-13.4,2.7h-25.3V53.6h25.3c5.5,0,10,1,13.4,3.1c3.4,2.1,5.9,4.8,7.5,8.2
		c1.6,3.4,2.4,7,2.4,10.8C338.8,79.8,338,83.5,336.4,86.6z"/>
	<path class="st0" d="M99.3,19.4C96.1,13.6,94.3,7.2,91,1.5c-0.8-1.8-3.3-2-4.6-0.7c-4.3,3.7-7.1,8.6-9.8,13.5
		c4.9,1.2,9.7,2.7,14.2,4.9C93.5,20.6,96.5,19.6,99.3,19.4z"/>
	<path class="st0" d="M167.7,68.7c1.9-0.6,3.8-1,5.8-1.5c-3.3-1.8-6.9-2.6-10.6-3.2c5.5-0.7,10.5,1.8,15.1,4.4
		c-3.5-15.7-14.1-29.2-27.1-38.4c-5.6-3.9-11.5-7.7-18.4-8.9c-12.1-2.3-24.6-1.2-36.7,0.6c15.3,9.2,27.9,22.6,36.8,37.9
		c2.7,4.9,5.5,9.9,6.4,15.4c-2.7-2.6-3.3-6.4-5-9.6c-6.8-13.6-17-25.4-29-34.8C94,21.9,80.3,16.2,66.1,16
		c-8.2-0.3-16.4,1.2-23.9,4.2c-4.3,1.7-7.6,5.5-8.8,9.9c-2.8,10.2,0.4,21,5.5,30c1,1.5,1.7,3.8,3.9,3.9c1.7-6.1,4.1-12.4,8.8-16.9
		c2.7-2.8,7.1-1.8,10.1-4.1c7-4.7,15.6-6.1,23.9-7.2c-8.8-4.2-18.9-6.1-28.7-4.8c-4.7,0.6-9,2.9-13.5,4.3c3.3-3.1,7.9-4.2,12.2-5.2
		c11.3-2.4,22.8,1.1,33.3,5.3c13.1,5.6,26.1,13.9,33.1,26.7c4.3,7.6,3.8,16.6,2.4,24.8c-3,17.7-8.3,35-10.2,52.9
		c-1.2,9.9-1.2,20-1.1,30c0.1,7.2,0.7,14.6,3,21.5c4.5,2,9.5,3.4,14.5,2.6c5.4-0.6,10.3-3.6,14.2-7.2c-7.2-11.2-12-24.4-11.4-37.9
		c0.2-4.6,0.4-9.4,2.7-13.5c-0.4,3.6-1,7.2-1.2,10.9c8.1-3.7,16.1-7.9,23.8-12.4c3.6-2.3,7.4-4.4,10.3-7.6c5-6.1,8-13.5,9.3-21.2
		c-6.8-0.5-14.2-1.6-19-6.7C150.6,89.3,155.9,72.2,167.7,68.7z"/>
	<path class="st0" d="M188.1,70.4c-6.7,1-13.7-2.2-20.3,0.3c-8.5,3.2-12.6,14-9.3,22.2c3.2,6.7,11.2,9.2,18.1,9.1
		c5.8,0.2,11-3.1,14.9-7c7.1-7.5,12-17.8,10.5-28.3C197.4,68.2,193,70.3,188.1,70.4z"/>
	<path class="st0" d="M97.8,131.3c-7.5-2.2-15.4-2.5-22.8-4.9c-3.7-1.2-6-4.4-8.6-7c-4-4-7.7-8.3-11.8-12.2
		c-3.8-3.8-10-3.9-14.7-1.8c-6.3,2.7-13.3,3.5-20.1,3.6c4.3,5.5,9.8,9.9,13.5,15.8c-6.6-7.1-13.4-14-20.7-20.5c-2-1.8-3.4-4.3-6-5.2
		c-3.9-1-7.7,2.9-6.3,6.8c2.3,5.5,7.6,9,12.8,11.5c-1.7-2.5-3.9-4.4-6.1-6.4c-1-0.7-0.9-1.8-1.1-2.9c5.7,4.7,10.8,10.2,14.9,16.4
		c5.8,8.6,14,15.4,23.1,20.2c12,5,25.8,4,38.1,0.3c5.3-1.2,10-3.9,14.7-6.4c-1.9-1.2-3.8-2.6-6-2.8c-1.3-0.3-2.9-0.2-3.6-1.6
		c3.2-0.1,6.6,0.3,9.1,2.6c2.7,2,4,5.8,2.4,8.9c-0.7-2,0.8-6.3-2.4-5.8c-9,6.6-18.1,13.3-26.2,21.1c-4.5,3.9-9.7,7.5-15.6,8.9
		c-7.1,1.4-13.3-4.4-16.1-10.3c1.1-4.7,3.9-9,3.6-14.1c-1.5-0.9-3.1-1.7-4.6-2.5c-0.1,3.9,0.4,8-1.4,11.6c-0.9,2.5-2.8,5.1-2,7.9
		c3.3,5.1,7.6,9.8,12.8,12.9c2.6,1.7,6,2.3,8.8,0.6c7.4-4.2,13.3-10.5,20.8-14.5c7.6-4.1,15.2-8.1,22.4-12.9
		c3.3-2.5,7.3-6.1,6.6-10.7C104.5,133.9,100.8,132.4,97.8,131.3z"/>
</g>
</svg>
