<?xml version="1.0" encoding="utf-8"?>
<!-- Generator: Adobe Illustrator 28.2.0, SVG Export Plug-In . SVG Version: 6.00 Build 0)  -->
<svg version="1.1" id="Layer_1" xmlns="http://www.w3.org/2000/svg" xmlns:xlink="http://www.w3.org/1999/xlink" x="0px" y="0px"
	 viewBox="0 0 874 120" style="enable-background:new 0 0 874 120;" xml:space="preserve">
<style type="text/css">
	.st0{fill:url(#SVGID_1_);}
	.st1{fill:url(#SVGID_00000110435779971101711120000013409041100457461642_);}
	.st2{opacity:0.2981;fill:#FFFFFF;enable-background:new    ;}
	.st3{clip-path:url(#SVGID_00000121987818846775575310000012649610866220118155_);}
	.st4{fill:url(#SVGID_00000109730665699337991940000008515277485987878333_);stroke:#227B3D;stroke-width:0.4099;}
	.st5{fill:url(#SVGID_00000132779906179690899190000003690011731551628461_);stroke:#227B3D;stroke-width:0.4099;}
	
		.st6{opacity:0.9801;fill:url(#SVGID_00000001622223015854037080000007440763922317067139_);stroke:#227B3D;stroke-width:0.4099;enable-background:new    ;}
	.st7{fill:none;stroke:url(#SVGID_00000065791230086874311800000017873287189224572567_);stroke-width:0.7083;}
	.st8{fill:url(#SVGID_00000062877599539783601780000005000752295805182596_);}
	
		.st9{fill:url(#SVGID_00000106144895242533588130000005504964077199246224_);stroke:url(#SVGID_00000015321035230633204440000013964540588593752749_);stroke-width:3.2295;stroke-miterlimit:18.7097;}
	.st10{fill:#F37F81;}
	
		.st11{clip-path:url(#SVGID_00000075850615695695269420000009218895589805606059_);fill:url(#SVGID_00000054253252513425325910000002015755043413929893_);}
	.st12{fill:#ED2224;}
	.st13{fill:#911D1D;stroke:#E32130;stroke-width:0.6977;stroke-linejoin:round;stroke-miterlimit:18.7097;}
	.st14{fill:#F6BBBB;stroke:#F6BBBB;stroke-width:0.5582;stroke-linecap:round;stroke-linejoin:round;stroke-miterlimit:23.1427;}
	.st15{fill:url(#SVGID_00000169533941186521199990000014000476052810249126_);}
	.st16{fill:#F08621;}
</style>
<g>
	<g transform="matrix(.97968 0 0 .97 -8.1511978 -.33456336)">
		
			<radialGradient id="SVGID_1_" cx="-135.2683" cy="634.6558" r="7.3961" gradientTransform="matrix(5.0497 -2.949909e-02 -2.662113e-02 -4.6973 790.0134 3042.7754)" gradientUnits="userSpaceOnUse">
			<stop  offset="0" style="stop-color:#010101;stop-opacity:0.3118"/>
			<stop  offset="0.88" style="stop-color:#010101;stop-opacity:0.6057"/>
			<stop  offset="1" style="stop-color:#010101;stop-opacity:0"/>
		</radialGradient>
		<circle class="st0" cx="91.9" cy="62.2" r="42.7"/>
		
			<radialGradient id="SVGID_00000180330769061759279350000016394038116369643689_" cx="-136.3863" cy="698.1935" r="7.4798" gradientTransform="matrix(1.895 5.8786 4.8635 -1.5213 -3064.5024 1913.3547)" gradientUnits="userSpaceOnUse">
			<stop  offset="0" style="stop-color:#DAEAF8"/>
			<stop  offset="1" style="stop-color:#67A3D8"/>
		</radialGradient>
		
			<ellipse style="fill:url(#SVGID_00000180330769061759279350000016394038116369643689_);" cx="88.6" cy="60.7" rx="36.4" ry="36.1"/>
		<ellipse class="st2" cx="88.6" cy="60.7" rx="36.4" ry="36.1"/>
		<g>
			<defs>
				<path id="SVGID_00000127037351568723347280000008774823811058838660_" d="M124.6,60.8c0,19.8-16.1,35.9-35.9,35.9
					c-19.8,0-35.9-16.1-35.9-35.9c0-19.8,16.1-35.9,35.9-35.9C108.5,24.9,124.6,40.9,124.6,60.8z"/>
			</defs>
			<clipPath id="SVGID_00000072238578625700369630000008741282622534125996_">
				<use xlink:href="#SVGID_00000127037351568723347280000008774823811058838660_"  style="overflow:visible;"/>
			</clipPath>
			
				<g transform="matrix(.43205 0 0 .43202 3.412307 2.889638)" style="clip-path:url(#SVGID_00000072238578625700369630000008741282622534125996_);">
				
					<radialGradient id="SVGID_00000140727267826671517710000009591233434778334629_" cx="-148.0464" cy="1259.8749" r="15.0952" gradientTransform="matrix(1.9798 0 0 -1.9273 477.9256 2548.4448)" gradientUnits="userSpaceOnUse">
					<stop  offset="0" style="stop-color:#54B848"/>
					<stop  offset="1" style="stop-color:#249446"/>
				</radialGradient>
				<path style="fill:url(#SVGID_00000140727267826671517710000009591233434778334629_);stroke:#227B3D;stroke-width:0.4099;" d="
					M120.3,130.9c1.3,0.1,2.6,0.4,3.8,1.2c1.6,1.1,2.1,3.1,2.5,4.9c1.1,4.2,0.4,8.8,1.7,13c0.7,2.1,1.2,4,2.2,5.9
					c1,1.8,2.3,3.4,3.5,5c1.5,2,4.5,4.7,7,2.9c2.3-1.6,2.1-6,2.1-8.5c0-2.4,0.4-4.8,1.1-7.1c0.4-1.3,0.6-2.6,1-3.9
					c0.5-2.1,1.4-3.7,2.6-5.4c3-4,8.4-5.6,13-4.1c2.6,0.9,5.2,2.1,7.6,3.5c2,1.2,3.4,3.3,5.1,5c1.2,1.2,2.4,2.3,4.1,2.5
					c1.8,0.2,3,0,4.6,1.1c0.6,0.4,1.3,0.9,1.7,1.6c0.4,0.7,0.1,1.5,0.4,2.2c0.8,1.8,3.1,1.5,4.7,1.6c3.2,0,7.2-2,8.1-5.6
					c0.3-1.3-0.7-2.4,0-3.7c0.7-1.4,2.8-2.4,4-3.4c2.7-2.2,6.2-7,4.9-10.9c-0.6-1.7-1.8-3.7-3.1-4.9c-1.4-1.3-3.3-2-3.8-3.9
					c-0.7-2.4-1.2-5.4-0.1-7.7c0.6-1.2,1.7-2.3,2.5-3.4c1-1.3,1.7-2.8,2.6-4c1.3-1.8,3.3-2.6,5.1-3.7c1.7-1.1,3.2-3,3.9-5
					c0.7-1.9,0.7-3.4,2.2-5c1.8-1.9,4.5-2.5,6.3-4.3c1.6-1.6,2-3,2.6-5c0.7-2.2,2.8-4.5,4.9-5.3c4-1.7,8.7-1.5,12.6,0.3
					c3,1.4,6.8,3.4,10.1,2.1c4.7-1.8,1.9-5.8,0.2-8.8c-1.4-2.6-3.5-5-5.7-6.9c-2.9-2.6-6-4.7-9.5-6.5c-3-1.5-5.7-2.8-8.9-3.7
					c-1.1-0.3-1.8-0.9-2.8-1.4c-1.4-0.7-2.9-1.1-4.4-1.5c-7.7-2.3-15.9-1.6-23.7-1.7c-8.8,0-17.8,2.5-26,5.5c-6,2.2-12.3,3.9-18,7
					c-5.5,3-11,6.7-15.5,11.1c-3.9,3.9-7.6,8.2-10.7,12.7c-1.6,2.3-3.5,4.6-4.9,7c-1.1,1.8-1.4,3.6-2.9,5.2c-1.5,1.5-2.3,3.4-3,5.4
					c-0.5,1.4-1.1,2.5-1.7,3.8c-0.6,1.2-0.7,2.5-1.2,3.7c-1.5,3.7-2.5,8.5-2,12.5c0.3,2.2,0.7,4.6,2.1,6.4c0.6,0.8,1.4,1.6,2.4,2
					c1,0.4,1.9,0.2,3,0.3C119.1,130.8,119.7,130.8,120.3,130.9z"/>
				
					<radialGradient id="SVGID_00000152236114663897825280000005690945811448762248_" cx="-148.0464" cy="1259.8749" r="15.0952" gradientTransform="matrix(1.9798 0 0 -1.9273 477.9256 2548.4448)" gradientUnits="userSpaceOnUse">
					<stop  offset="0" style="stop-color:#54B848"/>
					<stop  offset="1" style="stop-color:#249446"/>
				</radialGradient>
				<path style="fill:url(#SVGID_00000152236114663897825280000005690945811448762248_);stroke:#227B3D;stroke-width:0.4099;" d="
					M217.3,107.6c-0.7,0.9-1.6,1.6-2.3,2.6c-0.6,0.8-0.7,1.5-1,2.5c-0.9,3.1-3.5,1.3-5.6,2.4c-1.8,1-2.1,4.5-2.2,6.3
					c-0.1,3,2.3,4.2,4.3,1.9c0.9-1,1.1-1.5,2.5-1.5c1.4,0,2.4,0,3.7-0.7c1-0.6,1.6-1.2,1.6-2.4c0-0.7-0.6-1.3-0.5-1.9
					c0.1-1.1,0.2-0.5,1-1.1c1.5-1,2.5-2.7,3.2-4.4c0.5-1.4,0.2-4.1,1.4-5.1c0.8-0.7,2.1-0.5,2.7-1.2c1.9-2.1-1-9.4-4.3-7.9
					c-1.6,0.7-4.7,2.3-5.1,4.2c-0.2,1.4,1.3,2.2,1.6,3.5C218.7,105.8,218.1,106.7,217.3,107.6L217.3,107.6z M207.9,149.6
					c-2,0-5.1-0.4-6.6,1.2c-4,4.3,4.3,4.1,6.5,4.1c2,0,3.7,0.2,5.7,0.6c1.7,0.3,3.3,0.6,4.3-1.2c1.2-2.2-0.6-4-2.6-4.5
					C212.7,149,210.4,149.6,207.9,149.6L207.9,149.6z M222,151.8c1.2,0.7,4.4,1.1,5.6,0.4c1.1-0.7,1.1-2.5,0.4-3.4
					c-1.4-1.9-5.2-2-7.2-1.1c-1.1,0.5-1.6,0.7-1,1.9C220.2,150.4,221.3,151.4,222,151.8z M215,164.8c-2.9-2.1-3.4-3.6-7.5-1.2
					c-2.8,1.6-5.1,3.2-7.5,5.3c-2.3,2-5.2,3.7-5.6,7c-0.3,2.5,0.1,4.4,2.1,6c2.3,1.9,4.6,1.9,7.5,1.9c2,0,4-0.2,6,0
					c1.9,0.2,3.4,1.3,4.9,2.3c2.8,1.6,5.9,1.8,9,2.5c3.7,0.8,7.6,0.1,10.3-2.6c3.3-3.3,3.8-9.8,2.3-14c-1-3-2.4-6-4.9-7.9
					c-3.1-2.3-5.4-0.1-7.9,1.4c-2.3,1.4-5.9,1.4-8.2-0.1C215.4,165.1,215.2,165,215,164.8z"/>
				
					<radialGradient id="SVGID_00000146475412372223460430000015894797099160178060_" cx="-148.0464" cy="1259.8749" r="15.0952" gradientTransform="matrix(1.9798 0 0 -1.9273 477.9256 2548.4448)" gradientUnits="userSpaceOnUse">
					<stop  offset="0" style="stop-color:#54B848"/>
					<stop  offset="1" style="stop-color:#249446"/>
				</radialGradient>
				
					<path style="opacity:0.9801;fill:url(#SVGID_00000146475412372223460430000015894797099160178060_);stroke:#227B3D;stroke-width:0.4099;enable-background:new    ;" d="
					M150.2,160.2c4.1,1.5,0.2,6.6-2.6,6.9c-1.9,0.2-2-2.1-1.8-3.5C146.1,161.5,147.9,159.4,150.2,160.2z"/>
			</g>
		</g>
		
			<linearGradient id="SVGID_00000075876700599018857430000008162862788015004859_" gradientUnits="userSpaceOnUse" x1="-127.7545" y1="632.1895" x2="-140.567" y2="639.5867" gradientTransform="matrix(4.9882 0 0 -5.0139 759.2782 3250.2207)">
			<stop  offset="0" style="stop-color:#4578BC"/>
			<stop  offset="1" style="stop-color:#58A1D8"/>
		</linearGradient>
		
			<ellipse style="fill:none;stroke:url(#SVGID_00000075876700599018857430000008162862788015004859_);stroke-width:0.7083;" cx="88.7" cy="61" rx="35.9" ry="36.1"/>
	</g>
	
		<radialGradient id="SVGID_00000036945018453294039460000003816741886528163717_" cx="-151.9041" cy="616.3193" r="7.3961" gradientTransform="matrix(3.7498 0 0 -3.7499 681.2736 2384.2847)" gradientUnits="userSpaceOnUse">
		<stop  offset="0" style="stop-color:#C1C0C0"/>
		<stop  offset="0.88" style="stop-color:#C1C0C0"/>
		<stop  offset="1" style="stop-color:#C1C0C0;stop-opacity:0"/>
	</radialGradient>
	
		<ellipse style="fill:url(#SVGID_00000036945018453294039460000003816741886528163717_);" cx="111.7" cy="73.2" rx="27.7" ry="27.7"/>
	
		<linearGradient id="SVGID_00000156562684198215911440000017293770351697330321_" gradientUnits="userSpaceOnUse" x1="-145.5358" y1="623.8066" x2="-154.1218" y2="605.6024" gradientTransform="matrix(3.5216 0 0 -3.5216 643.3782 2224.6729)">
		<stop  offset="0" style="stop-color:#FCD8D8"/>
		<stop  offset="1" style="stop-color:#F05253"/>
	</linearGradient>
	
		<linearGradient id="SVGID_00000183222763714074781060000013645842396214044053_" gradientUnits="userSpaceOnUse" x1="-145.182" y1="607.9108" x2="-157.731" y2="614.8688" gradientTransform="matrix(3.5216 0 0 -3.5216 643.3782 2224.6729)">
		<stop  offset="0" style="stop-color:#B12625"/>
		<stop  offset="1" style="stop-color:#F05348"/>
	</linearGradient>
	
		<circle style="fill:url(#SVGID_00000156562684198215911440000017293770351697330321_);stroke:url(#SVGID_00000183222763714074781060000013645842396214044053_);stroke-width:3.2295;stroke-miterlimit:18.7097;" cx="110.2" cy="71.7" r="25.4"/>
	<circle class="st10" cx="110.2" cy="71.7" r="22.9"/>
	<g>
		<defs>
			<circle id="SVGID_00000129917534494488276100000003754036352746236335_" cx="110.1" cy="71.5" r="22.2"/>
		</defs>
		<clipPath id="SVGID_00000176746893823414573690000005587626280990903713_">
			<use xlink:href="#SVGID_00000129917534494488276100000003754036352746236335_"  style="overflow:visible;"/>
		</clipPath>
		
			<linearGradient id="SVGID_00000039125729233718455200000014497142597695241348_" gradientUnits="userSpaceOnUse" x1="-100.1661" y1="1360.4191" x2="-100.1661" y2="1388.6077" gradientTransform="matrix(1.5471 0 0 1.5471 265.1118 -2054.2351)">
			<stop  offset="0" style="stop-color:#FFFFFF"/>
			<stop  offset="0.1478" style="stop-color:#FDE1E1"/>
			<stop  offset="0.2363" style="stop-color:#FBD3D4"/>
			<stop  offset="0.3505" style="stop-color:#FDE2E2"/>
			<stop  offset="0.5264" style="stop-color:#FEF3F3"/>
			<stop  offset="0.7262" style="stop-color:#FFFCFD"/>
			<stop  offset="1" style="stop-color:#FFFFFF"/>
		</linearGradient>
		
			<circle style="clip-path:url(#SVGID_00000176746893823414573690000005587626280990903713_);fill:url(#SVGID_00000039125729233718455200000014497142597695241348_);" cx="110.1" cy="72.4" r="22.2"/>
	</g>
	<g id="y" transform="rotate(30 46.394132 39.301801)">
		<path id="x" class="st12" d="M120.4,53.4l0.5,0.3l-1.5,2.7l-0.5-0.3L120.4,53.4z"/>
	</g>
	<g id="z" transform="rotate(60 46.39413 39.301805)">
		<path id="x_00000120558362471993302270000009324863894583213458_" class="st12" d="M128.1,61l0.3,0.5l-2.7,1.5l-0.3-0.5L128.1,61z
			"/>
	</g>
	<g transform="rotate(60 46.394127 39.301803)">
		<g id="y_00000116202624706060237000000011462088157985270917_" transform="rotate(30 46.394132 39.301801)">
			<path id="x_00000038389077830955375060000013593530315046902416_" class="st12" d="M131.1,71.4V72H128v-0.6H131.1z"/>
		</g>
	</g>
	<g transform="rotate(60 46.394127 39.301803)">
		<g id="z_00000141435543943654698240000007648818678862401702_" transform="rotate(60 46.39413 39.301805)">
			<path id="x_00000056418647532834030310000015328465069930721433_" class="st12" d="M128.5,81.9l-0.3,0.5l-2.7-1.5l0.3-0.5
				L128.5,81.9z"/>
		</g>
	</g>
	<g transform="rotate(150 46.394131 39.301801)">
		<path id="x_00000113325792877262153010000011446386419256373412_" class="st12" d="M120.9,89.6l-0.5,0.3l-1.5-2.7l0.5-0.3
			L120.9,89.6z"/>
	</g>
	<g transform="rotate(180 46.394129 39.301801)">
		<path id="x_00000074431961813407787490000015004050751794275229_" class="st12" d="M110.5,92.6h-0.6v-3.1h0.6V92.6z"/>
	</g>
	<g transform="rotate(180 46.394129 39.301799)">
		<g id="y_00000005232705766615976550000011453118348749636023_" transform="rotate(30 46.394132 39.301801)">
			<path id="x_00000170267026222061782210000001557208586888863882_" class="st12" d="M100,90l-0.5-0.3L101,87l0.5,0.3L100,90z"/>
		</g>
	</g>
	<g transform="rotate(180 46.394129 39.301799)">
		<g id="z_00000141443914933147904680000000798923090809194926_" transform="rotate(60 46.39413 39.301805)">
			<path id="x_00000156551499803079634550000006445573452223586462_" class="st12" d="M92.2,82.4l-0.3-0.5l2.7-1.5l0.3,0.5
				L92.2,82.4z"/>
		</g>
	</g>
	<g transform="rotate(-90 46.394135 39.301794)">
		<path id="x_00000009567298047875943210000007515383943191587460_" class="st12" d="M89.3,72v-0.6h3.1V72H89.3z"/>
	</g>
	<g transform="rotate(-90 46.394136 39.301793)">
		<g id="y_00000003102058914192485130000006880077807584437939_" transform="rotate(30 46.394132 39.301801)">
			<path id="x_00000008138222864000398270000003561874722120866694_" class="st12" d="M91.9,61.5l0.3-0.5l2.7,1.5L94.6,63L91.9,61.5
				z"/>
		</g>
	</g>
	<g transform="rotate(-90 46.394136 39.301793)">
		<g id="z_00000046337251831614598450000003694969897737353109_" transform="rotate(60 46.39413 39.301805)">
			<path id="x_00000112590764938946317800000011996341404269032855_" class="st12" d="M99.5,53.7l0.5-0.3l1.5,2.7l-0.5,0.3
				L99.5,53.7z"/>
		</g>
	</g>
	<path id="x_00000041991253346228801360000017559990918629432705_" class="st12" d="M109.9,50.8h0.6v3.1h-0.6V50.8z"/>
	<circle id="A" class="st12" cx="112.3" cy="51.8" r="0.5"/>
	<g transform="rotate(6 46.39415 39.301812)">
		<circle id="A_00000023960586774693672430000012549394672256284059_" class="st12" cx="114.3" cy="52.1" r="0.5"/>
	</g>
	<g transform="rotate(12 46.39415 39.30181)">
		<circle id="A_00000176750808680091930150000013339694425226750629_" class="st12" cx="116.4" cy="52.7" r="0.5"/>
	</g>
	<g transform="rotate(18 46.394146 39.301816)">
		<circle id="A_00000013904574270989560680000003517904216492472962_" class="st12" cx="118.3" cy="53.4" r="0.5"/>
	</g>
	<g transform="rotate(30 46.394144 39.301815)">
		<circle id="A_00000056409563802943722030000013548747396395439002_" class="st12" cx="121.9" cy="55.5" r="0.5"/>
	</g>
	<g transform="rotate(36 46.394146 39.301813)">
		<circle id="A_00000072969485046486110050000005643182179470726551_" class="st12" cx="123.6" cy="56.8" r="0.5"/>
	</g>
	<g transform="rotate(42 46.394145 39.301811)">
		<circle id="A_00000183952369190445092130000006468885773310307748_" class="st12" cx="125" cy="58.3" r="0.5"/>
	</g>
	<g transform="rotate(48 46.394146 39.301812)">
		<circle id="A_00000109718058951021129640000015864449850719108275_" class="st12" cx="126.4" cy="59.9" r="0.5"/>
	</g>
	<g transform="rotate(60 46.394143 39.30182)">
		<circle id="A_00000054262374147954111610000007397456831700664456_" class="st12" cx="128.4" cy="63.6" r="0.5"/>
	</g>
	<g transform="rotate(66 46.394145 39.30182)">
		<circle id="A_00000154402117081004144800000012362458207881133448_" class="st12" cx="129.2" cy="65.5" r="0.5"/>
	</g>
	<g transform="rotate(72 46.394145 39.301818)">
		<circle id="A_00000130647031160270606800000009449251444858144131_" class="st12" cx="129.7" cy="67.5" r="0.5"/>
	</g>
	<g transform="rotate(78 46.394146 39.301816)">
		<circle id="A_00000055702972320874335480000005096937842248018569_" class="st12" cx="130.1" cy="69.6" r="0.5"/>
	</g>
	<g transform="rotate(90 46.394149 39.301819)">
		<circle id="A_00000094606392131988578560000004278751044390282113_" class="st12" cx="130.1" cy="73.8" r="0.5"/>
	</g>
	<g transform="rotate(96 46.39415 39.30182)">
		<circle id="A_00000179610984938291874810000000792158280470867102_" class="st12" cx="129.7" cy="75.8" r="0.5"/>
	</g>
	<g transform="rotate(102 46.39415 39.301818)">
		<circle id="A_00000104706411430517334920000012917683694789846703_" class="st12" cx="129.2" cy="77.9" r="0.5"/>
	</g>
	<g transform="rotate(108 46.39415 39.301818)">
		<circle id="A_00000031188235315876235150000003759188052267071893_" class="st12" cx="128.4" cy="79.8" r="0.5"/>
	</g>
	<g transform="rotate(120 46.394147 39.30182)">
		<circle id="A_00000118373522417018021050000016230503084689709731_" class="st12" cx="126.4" cy="83.4" r="0.5"/>
	</g>
	<g transform="rotate(126 46.394148 39.30182)">
		<circle id="A_00000088123368509524883730000010850276652853096116_" class="st12" cx="125" cy="85.1" r="0.5"/>
	</g>
	<g transform="rotate(132 46.394146 39.301818)">
		<circle id="A_00000166671336534382228680000008668046436252801723_" class="st12" cx="123.6" cy="86.5" r="0.5"/>
	</g>
	<g transform="rotate(138 46.394148 39.301818)">
		<circle id="A_00000039105958905054902370000006777931857580461758_" class="st12" cx="121.9" cy="87.9" r="0.5"/>
	</g>
	<g transform="rotate(150 46.394152 39.301817)">
		<circle id="A_00000047027076264968257300000011326168568646563982_" class="st12" cx="118.3" cy="89.9" r="0.5"/>
	</g>
	<g transform="rotate(156 46.394153 39.301817)">
		<circle id="A_00000050644530802869927710000000555597874778096032_" class="st12" cx="116.4" cy="90.7" r="0.5"/>
	</g>
	<g transform="rotate(162 46.394153 39.301816)">
		<circle id="A_00000103964815258215162440000016560607040475426740_" class="st12" cx="114.3" cy="91.2" r="0.5"/>
	</g>
	<g transform="rotate(168 46.394154 39.301816)">
		<circle id="A_00000113343324932958081630000009007039083354205119_" class="st12" cx="112.3" cy="91.6" r="0.5"/>
	</g>
	<g transform="rotate(180 46.39415 39.301815)">
		<circle id="A_00000072256591677363739300000012645564609160940690_" class="st12" cx="108.1" cy="91.6" r="0.5"/>
	</g>
	<g transform="rotate(-174 46.394151 39.301816)">
		<circle id="A_00000062871179869897806830000006613718230046557057_" class="st12" cx="106" cy="91.2" r="0.5"/>
	</g>
	<g transform="rotate(-168 46.394151 39.301816)">
		<circle id="A_00000065763547779881285910000008447840944241294259_" class="st12" cx="104" cy="90.7" r="0.5"/>
	</g>
	<g transform="rotate(-162 46.394152 39.301815)">
		<circle id="A_00000047049139706722836000000003322705381750229141_" class="st12" cx="102.1" cy="89.9" r="0.5"/>
	</g>
	<g transform="rotate(-150 46.394152 39.301817)">
		<circle id="A_00000169555469459586383370000015595384307033017780_" class="st12" cx="98.4" cy="87.9" r="0.5"/>
	</g>
	<g transform="rotate(-144 46.394152 39.301818)">
		<circle id="A_00000080176058201343431410000015434021196994183580_" class="st12" cx="96.8" cy="86.5" r="0.5"/>
	</g>
	<g transform="rotate(-138 46.394153 39.301816)">
		<circle id="A_00000005252951048857986000000007166904685743987377_" class="st12" cx="95.3" cy="85.1" r="0.5"/>
	</g>
	<g transform="rotate(-132 46.394153 39.301817)">
		<circle id="A_00000018216523033030422300000004998869038242717594_" class="st12" cx="94" cy="83.4" r="0.5"/>
	</g>
	<g transform="rotate(-120 46.394149 39.301815)">
		<circle id="A_00000032631194293880884720000005069293252556682422_" class="st12" cx="91.9" cy="79.8" r="0.5"/>
	</g>
	<g transform="rotate(-114 46.39415 39.301816)">
		<circle id="A_00000181074534654805158740000013675347976676871567_" class="st12" cx="91.2" cy="77.9" r="0.5"/>
	</g>
	<g transform="rotate(-108 46.39415 39.301812)">
		<circle id="A_00000135689954043493134480000016079528244203899804_" class="st12" cx="90.6" cy="75.8" r="0.5"/>
	</g>
	<g transform="rotate(-102 46.394152 39.301814)">
		<circle id="A_00000179645815401790923720000002777266066325358765_" class="st12" cx="90.3" cy="73.8" r="0.5"/>
	</g>
	<g transform="rotate(-90 46.394156 39.301813)">
		<circle id="A_00000101813068285847158230000014312676533983843502_" class="st12" cx="90.3" cy="69.6" r="0.5"/>
	</g>
	<g transform="rotate(-84 46.394156 39.301815)">
		<circle id="A_00000005984447049897528280000000236412266488861868_" class="st12" cx="90.6" cy="67.5" r="0.5"/>
	</g>
	<g transform="rotate(-78 46.394157 39.301814)">
		<circle id="A_00000134958420776677976710000015005595969205123246_" class="st12" cx="91.2" cy="65.5" r="0.5"/>
	</g>
	<g transform="rotate(-72 46.394159 39.301813)">
		<circle id="A_00000181802663698831867780000012273723812804524962_" class="st12" cx="91.9" cy="63.6" r="0.5"/>
	</g>
	<g transform="rotate(-60 46.394156 39.301815)">
		<circle id="A_00000056409113662006402590000003873259995169308052_" class="st12" cx="94" cy="59.9" r="0.5"/>
	</g>
	<g transform="rotate(-54 46.394157 39.301816)">
		<circle id="A_00000003797386577825894560000013264388803764278680_" class="st12" cx="95.3" cy="58.3" r="0.5"/>
	</g>
	<g transform="rotate(-48 46.394161 39.301814)">
		<circle id="A_00000048501969312901421310000010016199344396510644_" class="st12" cx="96.8" cy="56.8" r="0.5"/>
	</g>
	<g transform="rotate(-42 46.394161 39.301814)">
		<circle id="A_00000111900037839047197860000000764664423099882933_" class="st12" cx="98.4" cy="55.5" r="0.5"/>
	</g>
	<g transform="rotate(-30 46.39416 39.301799)">
		<circle id="A_00000125588361456828261990000002356176618962821782_" class="st12" cx="102.1" cy="53.4" r="0.5"/>
	</g>
	<g transform="rotate(-24 46.394159 39.3018)">
		<circle id="A_00000098933935932258211190000017857532738556174763_" class="st12" cx="104" cy="52.7" r="0.5"/>
	</g>
	<g transform="rotate(-18 46.394177 39.301778)">
		<circle id="A_00000026879228883090765790000006485354712833509298_" class="st12" cx="106" cy="52.1" r="0.5"/>
	</g>
	<g transform="rotate(-12 46.394187 39.301778)">
		<circle id="A_00000127037236356415327480000009338145284994271130_" class="st12" cx="108.1" cy="51.8" r="0.5"/>
	</g>
	<path class="st13" d="M99.1,77.2L99.1,77.2c-0.1-0.2,0-0.5,0.2-0.6l13-6.4c0.2-0.1,0.5,0,0.6,0.2v0c0.1,0.2,0,0.5-0.2,0.6l-13,6.4
		C99.5,77.5,99.2,77.4,99.1,77.2z"/>
	<path class="st13" d="M124.4,56.6l0.6,0.6l-17.1,17.4l-0.6-0.6L124.4,56.6z"/>
	<g transform="rotate(-90 46.394159 39.301821)">
		<g id="B" transform="rotate(150 51.01861695 41.45881796) scale(1.23694)">
			<rect x="-4.7" y="-11.8" class="st14" width="19.3" height="0.4"/>
			<rect x="13.9" y="-12.4" class="st14" width="3.6" height="1.6"/>
		</g>
	</g>
	<g transform="rotate(-60 46.394158 39.301819)">
		<g id="B_00000090264984313064703460000017395091522802875294_" transform="rotate(150 51.01861695 41.45881796) scale(1.23694)">
			<rect x="-3.8" y="-15.3" transform="matrix(0.866 0.5 -0.5 0.866 -6.7735 -4.9625)" class="st14" width="19.3" height="0.4"/>
			<rect x="13.4" y="-10.5" transform="matrix(0.866 0.5 -0.5 0.866 -2.8275 -8.9085)" class="st14" width="3.6" height="1.6"/>
		</g>
	</g>
	<g transform="rotate(-30 46.394156 39.301815)">
		<g id="B_00000050652286789873574920000012276952552543404451_" transform="rotate(150 51.01861695 41.45881796) scale(1.23694)">
			<rect x="8.3" y="-27.4" transform="matrix(0.866 -0.5 0.5 0.866 9.9996 1.8648)" class="st14" width="0.4" height="19.3"/>
			<rect x="13.1" y="-10.2" transform="matrix(0.866 -0.5 0.5 0.866 6.0536 5.8108)" class="st14" width="1.6" height="3.6"/>
		</g>
	</g>
	<g id="B_00000006683848486346799210000008925236000945972367_" transform="rotate(150 51.01861695 41.45881796) scale(1.23694)">
		<rect x="11.8" y="-28.3" class="st14" width="0.4" height="19.3"/>
		<rect x="11.2" y="-9.7" class="st14" width="1.6" height="3.6"/>
	</g>
	
		<linearGradient id="SVGID_00000096016911856788422030000007360248235995105947_" gradientUnits="userSpaceOnUse" x1="-99.4591" y1="1371.951" x2="-99.4591" y2="1374.236" gradientTransform="matrix(1.5471 0 0 1.5471 264.0623 -2052.7788)">
		<stop  offset="0" style="stop-color:#8BA4D5"/>
		<stop  offset="1" style="stop-color:#25459D"/>
	</linearGradient>
	<circle style="fill:url(#SVGID_00000096016911856788422030000007360248235995105947_);" cx="110.2" cy="71.7" r="1.9"/>
</g>
<path class="st16" d="M0,0v120h874V0H0z M869,115H28.6V5H869V115z"/>
<g>
	<path d="M172.5,33h-4.6v12.4h-3.1V33h-4.5v-2.5h12.2V33z"/>
	<path d="M176.9,35.5c0.8-0.9,1.8-1.4,3-1.4c2.4,0,3.6,1.4,3.7,4.2v7.1h-3v-7c0-0.6-0.1-1.1-0.4-1.4s-0.7-0.5-1.4-0.5
		c-0.9,0-1.5,0.3-1.9,1v7.9h-3V29.7h3V35.5z"/>
	<path d="M185.8,31.4c0-0.4,0.1-0.8,0.4-1.1c0.3-0.3,0.7-0.4,1.2-0.4c0.5,0,0.9,0.1,1.2,0.4s0.5,0.7,0.5,1.1c0,0.5-0.2,0.8-0.5,1.1
		s-0.7,0.4-1.2,0.4s-0.9-0.1-1.2-0.4C185.9,32.3,185.8,31.9,185.8,31.4z M188.9,45.4h-3V34.3h3V45.4z"/>
	<path d="M197.4,42.3c0-0.4-0.2-0.6-0.5-0.9c-0.4-0.2-0.9-0.4-1.7-0.6c-2.6-0.6-4-1.7-4-3.4c0-1,0.4-1.8,1.2-2.5
		c0.8-0.7,1.9-1,3.2-1c1.4,0,2.5,0.3,3.4,1c0.8,0.7,1.3,1.5,1.3,2.6h-3c0-0.4-0.1-0.8-0.4-1.1c-0.3-0.3-0.7-0.4-1.3-0.4
		c-0.5,0-0.9,0.1-1.2,0.3s-0.4,0.5-0.4,0.9c0,0.3,0.2,0.6,0.5,0.8c0.3,0.2,0.8,0.4,1.6,0.5s1.4,0.3,1.9,0.5c1.6,0.6,2.3,1.6,2.3,3
		c0,1-0.4,1.8-1.3,2.5c-0.9,0.6-2,0.9-3.4,0.9c-0.9,0-1.8-0.2-2.5-0.5c-0.7-0.3-1.3-0.8-1.7-1.4c-0.4-0.6-0.6-1.2-0.6-1.9h2.8
		c0,0.5,0.2,0.9,0.6,1.2s0.8,0.4,1.5,0.4c0.6,0,1-0.1,1.3-0.3C197.2,43,197.4,42.7,197.4,42.3z"/>
	<path d="M213.8,45.4c-0.1-0.3-0.2-0.6-0.3-1c-0.7,0.8-1.7,1.2-2.8,1.2c-1.1,0-2-0.3-2.7-0.9s-1.1-1.4-1.1-2.4
		c0-1.2,0.4-2.1,1.3-2.7c0.9-0.6,2.1-0.9,3.8-1h1.4V38c0-0.5-0.1-0.9-0.4-1.2s-0.7-0.5-1.2-0.5c-0.5,0-0.9,0.1-1.2,0.4
		s-0.4,0.6-0.4,1h-3c0-0.6,0.2-1.2,0.6-1.8s1-1,1.7-1.3s1.5-0.5,2.4-0.5c1.4,0,2.5,0.3,3.3,1c0.8,0.7,1.2,1.7,1.2,2.9v4.8
		c0,1.1,0.2,1.8,0.4,2.4v0.2H213.8z M211.4,43.4c0.4,0,0.8-0.1,1.2-0.3c0.4-0.2,0.6-0.5,0.8-0.8v-1.9h-1.1c-1.5,0-2.3,0.5-2.4,1.5
		l0,0.2c0,0.4,0.1,0.7,0.4,0.9S210.9,43.4,211.4,43.4z"/>
	<path d="M224.9,37.1c-0.4-0.1-0.8-0.1-1.1-0.1c-1.1,0-1.9,0.4-2.2,1.1v7.3h-3V34.3h2.8l0.1,1.3c0.6-1,1.4-1.5,2.5-1.5
		c0.3,0,0.6,0,0.9,0.1L224.9,37.1z"/>
	<path d="M230.4,31.6v2.7h1.9v2.2h-1.9V42c0,0.4,0.1,0.7,0.2,0.9s0.5,0.3,0.9,0.3c0.3,0,0.6,0,0.9-0.1v2.2c-0.6,0.2-1.2,0.3-1.8,0.3
		c-2.1,0-3.1-1-3.2-3.1v-6h-1.6v-2.2h1.6v-2.7H230.4z"/>
	<path d="M233.9,31.4c0-0.4,0.1-0.8,0.4-1.1c0.3-0.3,0.7-0.4,1.2-0.4c0.5,0,0.9,0.1,1.2,0.4s0.5,0.7,0.5,1.1c0,0.5-0.2,0.8-0.5,1.1
		S236,33,235.5,33s-0.9-0.1-1.2-0.4C234,32.3,233.9,31.9,233.9,31.4z M237,45.4h-3V34.3h3V45.4z"/>
	<path d="M244.1,43.2c0.5,0,1-0.2,1.3-0.5s0.5-0.7,0.5-1.2h2.8c0,0.8-0.2,1.4-0.6,2.1c-0.4,0.6-1,1.1-1.7,1.5
		c-0.7,0.3-1.5,0.5-2.3,0.5c-1.6,0-2.8-0.5-3.8-1.5c-0.9-1-1.4-2.4-1.4-4.2v-0.2c0-1.7,0.5-3.1,1.4-4.1s2.2-1.5,3.7-1.5
		c1.4,0,2.5,0.4,3.3,1.2c0.8,0.8,1.3,1.8,1.3,3.2H246c0-0.6-0.2-1-0.5-1.4s-0.8-0.5-1.4-0.5c-0.7,0-1.2,0.3-1.6,0.8
		c-0.4,0.5-0.5,1.3-0.5,2.4V40c0,1.1,0.2,2,0.5,2.5C242.9,43,243.4,43.2,244.1,43.2z"/>
	<path d="M253.6,45.4h-3V29.7h3V45.4z"/>
	<path d="M261.1,45.6c-1.6,0-3-0.5-4-1.5c-1-1-1.5-2.3-1.5-4v-0.3c0-1.1,0.2-2.1,0.6-3s1-1.6,1.8-2c0.8-0.5,1.7-0.7,2.7-0.7
		c1.5,0,2.7,0.5,3.6,1.4c0.9,1,1.3,2.3,1.3,4.1v1.2h-7.1c0.1,0.7,0.4,1.3,0.9,1.7c0.5,0.4,1.1,0.7,1.8,0.7c1.1,0,2-0.4,2.7-1.2
		l1.5,1.6c-0.4,0.6-1,1.1-1.8,1.5C262.9,45.4,262,45.6,261.1,45.6z M260.8,36.5c-0.6,0-1.1,0.2-1.4,0.6c-0.4,0.4-0.6,1-0.7,1.7h4.1
		v-0.2c0-0.7-0.2-1.2-0.5-1.5C261.9,36.7,261.4,36.5,260.8,36.5z"/>
	<path d="M272.6,31.4c0-0.4,0.1-0.8,0.4-1.1c0.3-0.3,0.7-0.4,1.2-0.4c0.5,0,0.9,0.1,1.2,0.4s0.5,0.7,0.5,1.1c0,0.5-0.2,0.8-0.5,1.1
		s-0.7,0.4-1.2,0.4s-0.9-0.1-1.2-0.4C272.7,32.3,272.6,31.9,272.6,31.4z M275.7,45.4h-3V34.3h3V45.4z"/>
	<path d="M284.2,42.3c0-0.4-0.2-0.6-0.5-0.9c-0.4-0.2-0.9-0.4-1.7-0.6c-2.6-0.6-4-1.7-4-3.4c0-1,0.4-1.8,1.2-2.5
		c0.8-0.7,1.9-1,3.2-1c1.4,0,2.5,0.3,3.4,1c0.8,0.7,1.3,1.5,1.3,2.6h-3c0-0.4-0.1-0.8-0.4-1.1c-0.3-0.3-0.7-0.4-1.3-0.4
		c-0.5,0-0.9,0.1-1.2,0.3s-0.4,0.5-0.4,0.9c0,0.3,0.2,0.6,0.5,0.8c0.3,0.2,0.8,0.4,1.6,0.5s1.4,0.3,1.9,0.5c1.6,0.6,2.3,1.6,2.3,3
		c0,1-0.4,1.8-1.3,2.5c-0.9,0.6-2,0.9-3.4,0.9c-0.9,0-1.8-0.2-2.5-0.5c-0.7-0.3-1.3-0.8-1.7-1.4c-0.4-0.6-0.6-1.2-0.6-1.9h2.8
		c0,0.5,0.2,0.9,0.6,1.2s0.8,0.4,1.5,0.4c0.6,0,1-0.1,1.3-0.3C284,43,284.2,42.7,284.2,42.3z"/>
	<path d="M293.7,39.8c0-1.1,0.2-2.1,0.6-2.9s1-1.5,1.8-2s1.7-0.7,2.8-0.7c1.5,0,2.7,0.5,3.7,1.4s1.5,2.2,1.6,3.7l0,0.8
		c0,1.7-0.5,3.1-1.4,4.1s-2.2,1.5-3.8,1.5s-2.9-0.5-3.8-1.5c-1-1-1.4-2.4-1.4-4.2V39.8z M296.7,40c0,1.1,0.2,1.9,0.6,2.4
		s1,0.8,1.7,0.8c0.7,0,1.3-0.3,1.7-0.8s0.6-1.4,0.6-2.6c0-1-0.2-1.8-0.6-2.4c-0.4-0.6-1-0.9-1.7-0.9c-0.7,0-1.3,0.3-1.7,0.8
		S296.7,38.8,296.7,40z"/>
	<path d="M312.7,44.3c-0.7,0.9-1.7,1.3-3,1.3c-1.2,0-2.1-0.3-2.7-1c-0.6-0.7-0.9-1.7-1-3v-7.3h3v7.2c0,1.2,0.5,1.7,1.6,1.7
		c1,0,1.7-0.3,2.1-1v-7.9h3v11.1h-2.8L312.7,44.3z"/>
	<path d="M321.3,31.6v2.7h1.9v2.2h-1.9V42c0,0.4,0.1,0.7,0.2,0.9s0.5,0.3,0.9,0.3c0.3,0,0.6,0,0.9-0.1v2.2c-0.6,0.2-1.2,0.3-1.8,0.3
		c-2.1,0-3.1-1-3.2-3.1v-6h-1.6v-2.2h1.6v-2.7H321.3z"/>
	<path d="M324.4,39.8c0-1.7,0.4-3.1,1.2-4.1c0.8-1,1.8-1.5,3.2-1.5c1.1,0,2,0.4,2.7,1.2v-5.7h3v15.8h-2.7l-0.1-1.2
		c-0.7,0.9-1.7,1.4-2.9,1.4c-1.3,0-2.4-0.5-3.1-1.5C324.8,43,324.4,41.6,324.4,39.8z M327.4,40c0,1,0.2,1.8,0.5,2.4
		c0.4,0.6,0.9,0.8,1.6,0.8c0.9,0,1.6-0.4,1.9-1.2v-4.4c-0.4-0.8-1-1.2-1.9-1.2C328.1,36.5,327.4,37.7,327.4,40z"/>
	<path d="M343.2,45.4c-0.1-0.3-0.2-0.6-0.3-1c-0.7,0.8-1.7,1.2-2.8,1.2c-1.1,0-2-0.3-2.7-0.9s-1.1-1.4-1.1-2.4
		c0-1.2,0.4-2.1,1.3-2.7c0.9-0.6,2.1-0.9,3.8-1h1.4V38c0-0.5-0.1-0.9-0.4-1.2s-0.7-0.5-1.2-0.5c-0.5,0-0.9,0.1-1.2,0.4
		s-0.4,0.6-0.4,1h-3c0-0.6,0.2-1.2,0.6-1.8s1-1,1.7-1.3s1.5-0.5,2.4-0.5c1.4,0,2.5,0.3,3.3,1c0.8,0.7,1.2,1.7,1.2,2.9v4.8
		c0,1.1,0.2,1.8,0.4,2.4v0.2H343.2z M340.7,43.4c0.4,0,0.8-0.1,1.2-0.3c0.4-0.2,0.6-0.5,0.8-0.8v-1.9h-1.1c-1.5,0-2.3,0.5-2.4,1.5
		l0,0.2c0,0.4,0.1,0.7,0.4,0.9S340.3,43.4,340.7,43.4z"/>
	<path d="M351.5,31.6v2.7h1.9v2.2h-1.9V42c0,0.4,0.1,0.7,0.2,0.9s0.5,0.3,0.9,0.3c0.3,0,0.6,0,0.9-0.1v2.2c-0.6,0.2-1.2,0.3-1.8,0.3
		c-2.1,0-3.1-1-3.2-3.1v-6h-1.6v-2.2h1.6v-2.7H351.5z"/>
	<path d="M360.2,45.6c-1.6,0-3-0.5-4-1.5c-1-1-1.5-2.3-1.5-4v-0.3c0-1.1,0.2-2.1,0.6-3s1-1.6,1.8-2c0.8-0.5,1.7-0.7,2.7-0.7
		c1.5,0,2.7,0.5,3.6,1.4c0.9,1,1.3,2.3,1.3,4.1v1.2h-7.1c0.1,0.7,0.4,1.3,0.9,1.7c0.5,0.4,1.1,0.7,1.8,0.7c1.1,0,2-0.4,2.7-1.2
		l1.5,1.6c-0.4,0.6-1,1.1-1.8,1.5C361.9,45.4,361.1,45.6,360.2,45.6z M359.8,36.5c-0.6,0-1.1,0.2-1.4,0.6c-0.4,0.4-0.6,1-0.7,1.7
		h4.1v-0.2c0-0.7-0.2-1.2-0.5-1.5C361,36.7,360.5,36.5,359.8,36.5z"/>
	<path d="M366,39.8c0-1.7,0.4-3.1,1.2-4.1c0.8-1,1.8-1.5,3.2-1.5c1.1,0,2,0.4,2.7,1.2v-5.7h3v15.8h-2.7l-0.1-1.2
		c-0.7,0.9-1.7,1.4-2.9,1.4c-1.3,0-2.4-0.5-3.1-1.5C366.4,43,366,41.6,366,39.8z M368.9,40c0,1,0.2,1.8,0.5,2.4
		c0.4,0.6,0.9,0.8,1.6,0.8c0.9,0,1.6-0.4,1.9-1.2v-4.4c-0.4-0.8-1-1.2-1.9-1.2C369.6,36.5,368.9,37.7,368.9,40z"/>
	<path d="M389.9,45.4c-0.1-0.3-0.2-0.6-0.3-1c-0.7,0.8-1.7,1.2-2.8,1.2c-1.1,0-2-0.3-2.7-0.9c-0.7-0.6-1.1-1.4-1.1-2.4
		c0-1.2,0.4-2.1,1.3-2.7c0.9-0.6,2.1-0.9,3.8-1h1.4V38c0-0.5-0.1-0.9-0.4-1.2c-0.3-0.3-0.7-0.5-1.2-0.5c-0.5,0-0.9,0.1-1.2,0.4
		c-0.3,0.2-0.4,0.6-0.4,1h-3c0-0.6,0.2-1.2,0.6-1.8s1-1,1.7-1.3s1.5-0.5,2.4-0.5c1.4,0,2.5,0.3,3.3,1c0.8,0.7,1.2,1.7,1.2,2.9v4.8
		c0,1.1,0.2,1.8,0.4,2.4v0.2H389.9z M387.5,43.4c0.4,0,0.8-0.1,1.2-0.3c0.4-0.2,0.6-0.5,0.8-0.8v-1.9h-1.1c-1.5,0-2.3,0.5-2.4,1.5
		l0,0.2c0,0.4,0.1,0.7,0.4,0.9C386.7,43.2,387,43.4,387.5,43.4z"/>
	<path d="M397.5,34.3l0.1,1.3c0.8-1,1.9-1.5,3.2-1.5c1.2,0,2.1,0.3,2.6,1s0.9,1.7,0.9,3.1v7.2h-3v-7.1c0-0.6-0.1-1.1-0.4-1.4
		c-0.3-0.3-0.7-0.4-1.4-0.4c-0.8,0-1.5,0.4-1.9,1.1v7.8h-3V34.3H397.5z"/>
	<path d="M406.1,39.8c0-1.7,0.4-3.1,1.2-4.1c0.8-1,1.8-1.5,3.2-1.5c1.1,0,2,0.4,2.7,1.2v-5.7h3v15.8h-2.7l-0.1-1.2
		c-0.7,0.9-1.7,1.4-2.9,1.4c-1.3,0-2.4-0.5-3.1-1.5C406.4,43,406.1,41.6,406.1,39.8z M409,40c0,1,0.2,1.8,0.5,2.4
		c0.4,0.6,0.9,0.8,1.6,0.8c0.9,0,1.6-0.4,1.9-1.2v-4.4c-0.4-0.8-1-1.2-1.9-1.2C409.7,36.5,409,37.7,409,40z"/>
	<path d="M423.6,31.4c0-0.4,0.1-0.8,0.4-1.1c0.3-0.3,0.7-0.4,1.2-0.4c0.5,0,0.9,0.1,1.2,0.4s0.5,0.7,0.5,1.1c0,0.5-0.2,0.8-0.5,1.1
		c-0.3,0.3-0.7,0.4-1.2,0.4c-0.5,0-0.9-0.1-1.2-0.4C423.7,32.3,423.6,31.9,423.6,31.4z M426.7,45.4h-3V34.3h3V45.4z"/>
	<path d="M432.7,31.6v2.7h1.9v2.2h-1.9V42c0,0.4,0.1,0.7,0.2,0.9s0.5,0.3,0.9,0.3c0.3,0,0.6,0,0.9-0.1v2.2c-0.6,0.2-1.2,0.3-1.8,0.3
		c-2.1,0-3.1-1-3.2-3.1v-6h-1.6v-2.2h1.6v-2.7H432.7z"/>
	<path d="M442.2,42.3c0-0.4-0.2-0.6-0.5-0.9c-0.4-0.2-0.9-0.4-1.7-0.6c-2.6-0.6-4-1.7-4-3.4c0-1,0.4-1.8,1.2-2.5
		c0.8-0.7,1.9-1,3.2-1c1.4,0,2.5,0.3,3.4,1c0.8,0.7,1.3,1.5,1.3,2.6h-3c0-0.4-0.1-0.8-0.4-1.1c-0.3-0.3-0.7-0.4-1.3-0.4
		c-0.5,0-0.9,0.1-1.2,0.3s-0.4,0.5-0.4,0.9c0,0.3,0.2,0.6,0.5,0.8c0.3,0.2,0.8,0.4,1.6,0.5s1.4,0.3,1.9,0.5c1.6,0.6,2.3,1.6,2.3,3
		c0,1-0.4,1.8-1.3,2.5c-0.9,0.6-2,0.9-3.4,0.9c-0.9,0-1.8-0.2-2.5-0.5c-0.7-0.3-1.3-0.8-1.7-1.4c-0.4-0.6-0.6-1.2-0.6-1.9h2.8
		c0,0.5,0.2,0.9,0.6,1.2c0.4,0.3,0.8,0.4,1.5,0.4c0.6,0,1-0.1,1.3-0.3C442.1,43,442.2,42.7,442.2,42.3z"/>
	<path d="M452.2,31.4c0-0.4,0.1-0.8,0.4-1.1c0.3-0.3,0.7-0.4,1.2-0.4c0.5,0,0.9,0.1,1.2,0.4s0.5,0.7,0.5,1.1c0,0.5-0.2,0.8-0.5,1.1
		c-0.3,0.3-0.7,0.4-1.2,0.4c-0.5,0-0.9-0.1-1.2-0.4C452.4,32.3,452.2,31.9,452.2,31.4z M455.4,45.4h-3V34.3h3V45.4z"/>
	<path d="M460.6,34.3l0.1,1.3c0.8-1,1.9-1.5,3.2-1.5c1.2,0,2.1,0.3,2.6,1s0.9,1.7,0.9,3.1v7.2h-3v-7.1c0-0.6-0.1-1.1-0.4-1.4
		c-0.3-0.3-0.7-0.4-1.4-0.4c-0.8,0-1.5,0.4-1.9,1.1v7.8h-3V34.3H460.6z"/>
	<path d="M470.4,45.4v-8.9h-1.7v-2.2h1.7v-0.9c0-1.2,0.4-2.2,1.1-2.9c0.7-0.7,1.7-1,3-1c0.4,0,0.9,0.1,1.5,0.2l0,2.3
		c-0.2-0.1-0.5-0.1-0.9-0.1c-1.1,0-1.7,0.5-1.7,1.6v0.9h2.2v2.2h-2.2v8.9H470.4z"/>
	<path d="M476.7,39.8c0-1.1,0.2-2.1,0.6-2.9s1-1.5,1.8-2c0.8-0.5,1.7-0.7,2.8-0.7c1.5,0,2.7,0.5,3.7,1.4c0.9,0.9,1.5,2.2,1.6,3.7
		l0,0.8c0,1.7-0.5,3.1-1.4,4.1s-2.2,1.5-3.8,1.5s-2.9-0.5-3.8-1.5c-1-1-1.4-2.4-1.4-4.2V39.8z M479.6,40c0,1.1,0.2,1.9,0.6,2.4
		s1,0.8,1.7,0.8c0.7,0,1.3-0.3,1.7-0.8c0.4-0.6,0.6-1.4,0.6-2.6c0-1-0.2-1.8-0.6-2.4c-0.4-0.6-1-0.9-1.7-0.9c-0.7,0-1.3,0.3-1.7,0.8
		S479.6,38.8,479.6,40z"/>
	<path d="M495.2,37.1c-0.4-0.1-0.8-0.1-1.1-0.1c-1.1,0-1.9,0.4-2.2,1.1v7.3h-3V34.3h2.8l0.1,1.3c0.6-1,1.4-1.5,2.5-1.5
		c0.3,0,0.6,0,0.9,0.1L495.2,37.1z"/>
	<path d="M499.4,34.3l0.1,1.2c0.8-1,1.8-1.4,3.2-1.4c1.4,0,2.4,0.6,2.9,1.7c0.8-1.1,1.9-1.7,3.3-1.7c1.2,0,2.1,0.4,2.7,1.1
		c0.6,0.7,0.9,1.8,0.9,3.2v7.1h-3v-7.1c0-0.6-0.1-1.1-0.4-1.4s-0.7-0.4-1.3-0.4c-0.9,0-1.5,0.4-1.8,1.3l0,7.6h-3v-7.1
		c0-0.6-0.1-1.1-0.4-1.4s-0.7-0.4-1.3-0.4c-0.8,0-1.4,0.3-1.8,1v7.8h-3V34.3H499.4z"/>
	<path d="M521.3,45.4c-0.1-0.3-0.2-0.6-0.3-1c-0.7,0.8-1.7,1.2-2.8,1.2c-1.1,0-2-0.3-2.7-0.9c-0.7-0.6-1.1-1.4-1.1-2.4
		c0-1.2,0.4-2.1,1.3-2.7c0.9-0.6,2.1-0.9,3.8-1h1.4V38c0-0.5-0.1-0.9-0.4-1.2c-0.3-0.3-0.7-0.5-1.2-0.5c-0.5,0-0.9,0.1-1.2,0.4
		c-0.3,0.2-0.4,0.6-0.4,1h-3c0-0.6,0.2-1.2,0.6-1.8s1-1,1.7-1.3s1.5-0.5,2.4-0.5c1.4,0,2.5,0.3,3.3,1c0.8,0.7,1.2,1.7,1.2,2.9v4.8
		c0,1.1,0.2,1.8,0.4,2.4v0.2H521.3z M518.8,43.4c0.4,0,0.8-0.1,1.2-0.3c0.4-0.2,0.6-0.5,0.8-0.8v-1.9h-1.1c-1.5,0-2.3,0.5-2.4,1.5
		l0,0.2c0,0.4,0.1,0.7,0.4,0.9C518,43.2,518.4,43.4,518.8,43.4z"/>
	<path d="M529.6,31.6v2.7h1.9v2.2h-1.9V42c0,0.4,0.1,0.7,0.2,0.9s0.5,0.3,0.9,0.3c0.3,0,0.6,0,0.9-0.1v2.2c-0.6,0.2-1.2,0.3-1.8,0.3
		c-2.1,0-3.1-1-3.2-3.1v-6h-1.6v-2.2h1.6v-2.7H529.6z"/>
	<path d="M533.2,31.4c0-0.4,0.1-0.8,0.4-1.1c0.3-0.3,0.7-0.4,1.2-0.4c0.5,0,0.9,0.1,1.2,0.4s0.5,0.7,0.5,1.1c0,0.5-0.2,0.8-0.5,1.1
		c-0.3,0.3-0.7,0.4-1.2,0.4c-0.5,0-0.9-0.1-1.2-0.4C533.3,32.3,533.2,31.9,533.2,31.4z M536.3,45.4h-3V34.3h3V45.4z"/>
	<path d="M538.3,39.8c0-1.1,0.2-2.1,0.6-2.9s1-1.5,1.8-2c0.8-0.5,1.7-0.7,2.8-0.7c1.5,0,2.7,0.5,3.7,1.4c0.9,0.9,1.5,2.2,1.6,3.7
		l0,0.8c0,1.7-0.5,3.1-1.4,4.1s-2.2,1.5-3.8,1.5s-2.9-0.5-3.8-1.5c-1-1-1.4-2.4-1.4-4.2V39.8z M541.3,40c0,1.1,0.2,1.9,0.6,2.4
		s1,0.8,1.7,0.8c0.7,0,1.3-0.3,1.7-0.8c0.4-0.6,0.6-1.4,0.6-2.6c0-1-0.2-1.8-0.6-2.4c-0.4-0.6-1-0.9-1.7-0.9c-0.7,0-1.3,0.3-1.7,0.8
		S541.3,38.8,541.3,40z"/>
	<path d="M553.4,34.3l0.1,1.3c0.8-1,1.9-1.5,3.2-1.5c1.2,0,2.1,0.3,2.6,1s0.9,1.7,0.9,3.1v7.2h-3v-7.1c0-0.6-0.1-1.1-0.4-1.4
		c-0.3-0.3-0.7-0.4-1.4-0.4c-0.8,0-1.5,0.4-1.9,1.1v7.8h-3V34.3H553.4z"/>
	<path d="M574.1,45.4c-0.1-0.3-0.2-0.6-0.3-1c-0.7,0.8-1.7,1.2-2.8,1.2c-1.1,0-2-0.3-2.7-0.9c-0.7-0.6-1.1-1.4-1.1-2.4
		c0-1.2,0.4-2.1,1.3-2.7c0.9-0.6,2.1-0.9,3.8-1h1.4V38c0-0.5-0.1-0.9-0.4-1.2c-0.3-0.3-0.7-0.5-1.2-0.5c-0.5,0-0.9,0.1-1.2,0.4
		c-0.3,0.2-0.4,0.6-0.4,1h-3c0-0.6,0.2-1.2,0.6-1.8s1-1,1.7-1.3s1.5-0.5,2.4-0.5c1.4,0,2.5,0.3,3.3,1c0.8,0.7,1.2,1.7,1.2,2.9v4.8
		c0,1.1,0.2,1.8,0.4,2.4v0.2H574.1z M571.6,43.4c0.4,0,0.8-0.1,1.2-0.3c0.4-0.2,0.6-0.5,0.8-0.8v-1.9h-1.1c-1.5,0-2.3,0.5-2.4,1.5
		l0,0.2c0,0.4,0.1,0.7,0.4,0.9C570.8,43.2,571.2,43.4,571.6,43.4z"/>
	<path d="M581.6,34.3l0.1,1.3c0.8-1,1.9-1.5,3.2-1.5c1.2,0,2.1,0.3,2.6,1s0.9,1.7,0.9,3.1v7.2h-3v-7.1c0-0.6-0.1-1.1-0.4-1.4
		c-0.3-0.3-0.7-0.4-1.4-0.4c-0.8,0-1.5,0.4-1.9,1.1v7.8h-3V34.3H581.6z"/>
	<path d="M590.2,39.8c0-1.7,0.4-3.1,1.2-4.1c0.8-1,1.8-1.5,3.2-1.5c1.1,0,2,0.4,2.7,1.2v-5.7h3v15.8h-2.7l-0.1-1.2
		c-0.7,0.9-1.7,1.4-2.9,1.4c-1.3,0-2.4-0.5-3.1-1.5C590.6,43,590.2,41.6,590.2,39.8z M593.1,40c0,1,0.2,1.8,0.5,2.4
		c0.4,0.6,0.9,0.8,1.6,0.8c0.9,0,1.6-0.4,1.9-1.2v-4.4c-0.4-0.8-1-1.2-1.9-1.2C593.9,36.5,593.1,37.7,593.1,40z"/>
	<path d="M610.5,34.3l0.1,1.2c0.8-1,1.8-1.4,3.2-1.4c1.4,0,2.4,0.6,2.9,1.7c0.8-1.1,1.9-1.7,3.3-1.7c1.2,0,2.1,0.4,2.7,1.1
		c0.6,0.7,0.9,1.8,0.9,3.2v7.1h-3v-7.1c0-0.6-0.1-1.1-0.4-1.4s-0.7-0.4-1.3-0.4c-0.9,0-1.5,0.4-1.8,1.3l0,7.6h-3v-7.1
		c0-0.6-0.1-1.1-0.4-1.4s-0.7-0.4-1.3-0.4c-0.8,0-1.4,0.3-1.8,1v7.8h-3V34.3H610.5z"/>
	<path d="M632.3,45.4c-0.1-0.3-0.2-0.6-0.3-1c-0.7,0.8-1.7,1.2-2.8,1.2c-1.1,0-2-0.3-2.7-0.9c-0.7-0.6-1.1-1.4-1.1-2.4
		c0-1.2,0.4-2.1,1.3-2.7c0.9-0.6,2.1-0.9,3.8-1h1.4V38c0-0.5-0.1-0.9-0.4-1.2c-0.3-0.3-0.7-0.5-1.2-0.5c-0.5,0-0.9,0.1-1.2,0.4
		c-0.3,0.2-0.4,0.6-0.4,1h-3c0-0.6,0.2-1.2,0.6-1.8s1-1,1.7-1.3s1.5-0.5,2.4-0.5c1.4,0,2.5,0.3,3.3,1c0.8,0.7,1.2,1.7,1.2,2.9v4.8
		c0,1.1,0.2,1.8,0.4,2.4v0.2H632.3z M629.9,43.4c0.4,0,0.8-0.1,1.2-0.3c0.4-0.2,0.6-0.5,0.8-0.8v-1.9h-1.1c-1.5,0-2.3,0.5-2.4,1.5
		l0,0.2c0,0.4,0.1,0.7,0.4,0.9C629.1,43.2,629.4,43.4,629.9,43.4z"/>
	<path d="M641.1,41.2l2.1-6.9h3.2l-4.5,12.8l-0.2,0.6c-0.7,1.4-1.8,2.2-3.3,2.2c-0.4,0-0.9-0.1-1.3-0.2v-2.2l0.5,0
		c0.6,0,1-0.1,1.3-0.3c0.3-0.2,0.5-0.5,0.7-0.9l0.3-0.9l-3.9-11.1h3.2L641.1,41.2z"/>
	<path d="M655.5,34.3l0.1,1.3c0.8-1,1.9-1.5,3.2-1.5c1.2,0,2.1,0.3,2.6,1s0.9,1.7,0.9,3.1v7.2h-3v-7.1c0-0.6-0.1-1.1-0.4-1.4
		c-0.3-0.3-0.7-0.4-1.4-0.4c-0.8,0-1.5,0.4-1.9,1.1v7.8h-3V34.3H655.5z"/>
	<path d="M664.1,39.8c0-1.1,0.2-2.1,0.6-2.9s1-1.5,1.8-2c0.8-0.5,1.7-0.7,2.8-0.7c1.5,0,2.7,0.5,3.7,1.4c0.9,0.9,1.5,2.2,1.6,3.7
		l0,0.8c0,1.7-0.5,3.1-1.4,4.1s-2.2,1.5-3.8,1.5s-2.9-0.5-3.8-1.5c-1-1-1.4-2.4-1.4-4.2V39.8z M667,40c0,1.1,0.2,1.9,0.6,2.4
		s1,0.8,1.7,0.8c0.7,0,1.3-0.3,1.7-0.8c0.4-0.6,0.6-1.4,0.6-2.6c0-1-0.2-1.8-0.6-2.4c-0.4-0.6-1-0.9-1.7-0.9c-0.7,0-1.3,0.3-1.7,0.8
		S667,38.8,667,40z"/>
	<path d="M684.8,45.4h-3V29.7h3V45.4z"/>
	<path d="M686.7,39.8c0-1.1,0.2-2.1,0.6-2.9s1-1.5,1.8-2c0.8-0.5,1.7-0.7,2.8-0.7c1.5,0,2.7,0.5,3.7,1.4c0.9,0.9,1.5,2.2,1.6,3.7
		l0,0.8c0,1.7-0.5,3.1-1.4,4.1s-2.2,1.5-3.8,1.5s-2.9-0.5-3.8-1.5c-1-1-1.4-2.4-1.4-4.2V39.8z M689.7,40c0,1.1,0.2,1.9,0.6,2.4
		s1,0.8,1.7,0.8c0.7,0,1.3-0.3,1.7-0.8c0.4-0.6,0.6-1.4,0.6-2.6c0-1-0.2-1.8-0.6-2.4c-0.4-0.6-1-0.9-1.7-0.9c-0.7,0-1.3,0.3-1.7,0.8
		S689.7,38.8,689.7,40z"/>
	<path d="M701.8,34.3l0.1,1.3c0.8-1,1.9-1.5,3.2-1.5c1.2,0,2.1,0.3,2.6,1s0.9,1.7,0.9,3.1v7.2h-3v-7.1c0-0.6-0.1-1.1-0.4-1.4
		c-0.3-0.3-0.7-0.4-1.4-0.4c-0.8,0-1.5,0.4-1.9,1.1v7.8h-3V34.3H701.8z"/>
	<path d="M710.4,39.8c0-1.7,0.4-3.1,1.2-4.1c0.8-1,1.9-1.6,3.3-1.6c1.2,0,2.2,0.4,2.8,1.3l0.1-1h2.7V45c0,1-0.2,1.8-0.7,2.5
		c-0.4,0.7-1.1,1.3-1.9,1.6s-1.7,0.6-2.8,0.6c-0.8,0-1.6-0.2-2.4-0.5s-1.4-0.7-1.8-1.3l1.3-1.8c0.7,0.8,1.6,1.2,2.7,1.2
		c0.8,0,1.4-0.2,1.8-0.6c0.4-0.4,0.7-1,0.7-1.8v-0.6c-0.7,0.8-1.6,1.2-2.7,1.2c-1.3,0-2.4-0.5-3.2-1.6c-0.8-1-1.2-2.4-1.2-4.1V39.8z
		 M713.4,40c0,1,0.2,1.8,0.6,2.4s1,0.9,1.7,0.9c0.9,0,1.5-0.3,1.9-1v-4.7c-0.4-0.7-1-1-1.9-1c-0.7,0-1.3,0.3-1.7,0.9
		C713.6,38,713.4,38.8,713.4,40z"/>
	<path d="M727.9,45.6c-1.6,0-3-0.5-4-1.5c-1-1-1.5-2.3-1.5-4v-0.3c0-1.1,0.2-2.1,0.6-3c0.4-0.9,1-1.6,1.8-2c0.8-0.5,1.7-0.7,2.7-0.7
		c1.5,0,2.7,0.5,3.6,1.4c0.9,1,1.3,2.3,1.3,4.1v1.2h-7.1c0.1,0.7,0.4,1.3,0.9,1.7c0.5,0.4,1.1,0.7,1.8,0.7c1.1,0,2-0.4,2.7-1.2
		l1.5,1.6c-0.4,0.6-1,1.1-1.8,1.5C729.7,45.4,728.8,45.6,727.9,45.6z M727.6,36.5c-0.6,0-1.1,0.2-1.4,0.6c-0.4,0.4-0.6,1-0.7,1.7
		h4.1v-0.2c0-0.7-0.2-1.2-0.5-1.5C728.7,36.7,728.2,36.5,727.6,36.5z"/>
	<path d="M740.4,37.1c-0.4-0.1-0.8-0.1-1.1-0.1c-1.1,0-1.9,0.4-2.2,1.1v7.3h-3V34.3h2.8l0.1,1.3c0.6-1,1.4-1.5,2.5-1.5
		c0.3,0,0.6,0,0.9,0.1L740.4,37.1z"/>
	<path d="M753.3,37.1c-0.4-0.1-0.8-0.1-1.1-0.1c-1.1,0-1.9,0.4-2.2,1.1v7.3h-3V34.3h2.8l0.1,1.3c0.6-1,1.4-1.5,2.5-1.5
		c0.3,0,0.6,0,0.9,0.1L753.3,37.1z"/>
	<path d="M759.6,45.6c-1.6,0-3-0.5-4-1.5c-1-1-1.5-2.3-1.5-4v-0.3c0-1.1,0.2-2.1,0.6-3c0.4-0.9,1-1.6,1.8-2c0.8-0.5,1.7-0.7,2.7-0.7
		c1.5,0,2.7,0.5,3.6,1.4c0.9,1,1.3,2.3,1.3,4.1v1.2h-7.1c0.1,0.7,0.4,1.3,0.9,1.7c0.5,0.4,1.1,0.7,1.8,0.7c1.1,0,2-0.4,2.7-1.2
		l1.5,1.6c-0.4,0.6-1,1.1-1.8,1.5C761.4,45.4,760.5,45.6,759.6,45.6z M759.3,36.5c-0.6,0-1.1,0.2-1.4,0.6c-0.4,0.4-0.6,1-0.7,1.7
		h4.1v-0.2c0-0.7-0.2-1.2-0.5-1.5C760.4,36.7,759.9,36.5,759.3,36.5z"/>
	<path d="M769,45.4h-3V29.7h3V45.4z"/>
	<path d="M776.5,45.6c-1.6,0-3-0.5-4-1.5c-1-1-1.5-2.3-1.5-4v-0.3c0-1.1,0.2-2.1,0.6-3c0.4-0.9,1-1.6,1.8-2c0.8-0.5,1.7-0.7,2.7-0.7
		c1.5,0,2.7,0.5,3.6,1.4c0.9,1,1.3,2.3,1.3,4.1v1.2H774c0.1,0.7,0.4,1.3,0.9,1.7c0.5,0.4,1.1,0.7,1.8,0.7c1.1,0,2-0.4,2.7-1.2
		l1.5,1.6c-0.4,0.6-1,1.1-1.8,1.5C778.3,45.4,777.5,45.6,776.5,45.6z M776.2,36.5c-0.6,0-1.1,0.2-1.4,0.6c-0.4,0.4-0.6,1-0.7,1.7
		h4.1v-0.2c0-0.7-0.2-1.2-0.5-1.5C777.3,36.7,776.8,36.5,776.2,36.5z"/>
	<path d="M786.8,41.8l2.1-7.5h3.1l-3.7,11.1h-2.8l-3.7-11.1h3.1L786.8,41.8z"/>
	<path d="M799.5,45.4c-0.1-0.3-0.2-0.6-0.3-1c-0.7,0.8-1.7,1.2-2.8,1.2c-1.1,0-2-0.3-2.7-0.9c-0.7-0.6-1.1-1.4-1.1-2.4
		c0-1.2,0.4-2.1,1.3-2.7c0.9-0.6,2.1-0.9,3.8-1h1.4V38c0-0.5-0.1-0.9-0.4-1.2c-0.3-0.3-0.7-0.5-1.2-0.5c-0.5,0-0.9,0.1-1.2,0.4
		c-0.3,0.2-0.4,0.6-0.4,1h-3c0-0.6,0.2-1.2,0.6-1.8s1-1,1.7-1.3s1.5-0.5,2.4-0.5c1.4,0,2.5,0.3,3.3,1c0.8,0.7,1.2,1.7,1.2,2.9v4.8
		c0,1.1,0.2,1.8,0.4,2.4v0.2H799.5z M797.1,43.4c0.4,0,0.8-0.1,1.2-0.3c0.4-0.2,0.6-0.5,0.8-0.8v-1.9H798c-1.5,0-2.3,0.5-2.4,1.5
		l0,0.2c0,0.4,0.1,0.7,0.4,0.9C796.3,43.2,796.6,43.4,797.1,43.4z"/>
	<path d="M807.1,34.3l0.1,1.3c0.8-1,1.9-1.5,3.2-1.5c1.2,0,2.1,0.3,2.6,1s0.9,1.7,0.9,3.1v7.2h-3v-7.1c0-0.6-0.1-1.1-0.4-1.4
		c-0.3-0.3-0.7-0.4-1.4-0.4c-0.8,0-1.5,0.4-1.9,1.1v7.8h-3V34.3H807.1z"/>
	<path d="M819.7,31.6v2.7h1.9v2.2h-1.9V42c0,0.4,0.1,0.7,0.2,0.9s0.5,0.3,0.9,0.3c0.3,0,0.6,0,0.9-0.1v2.2c-0.6,0.2-1.2,0.3-1.8,0.3
		c-2.1,0-3.1-1-3.2-3.1v-6h-1.6v-2.2h1.6v-2.7H819.7z"/>
	<path d="M823.4,44c0-0.5,0.2-0.9,0.5-1.1c0.3-0.3,0.7-0.4,1.2-0.4c0.5,0,0.9,0.1,1.2,0.4c0.3,0.3,0.5,0.7,0.5,1.1
		c0,0.5-0.2,0.8-0.5,1.1c-0.3,0.3-0.7,0.4-1.2,0.4c-0.5,0-0.9-0.1-1.2-0.4C823.5,44.8,823.4,44.4,823.4,44z"/>
</g>
<g>
	<path d="M165.6,65.2v5h-1.7V57.4h4.7c1.4,0,2.5,0.4,3.3,1.1s1.2,1.7,1.2,2.8c0,1.2-0.4,2.2-1.2,2.9s-1.9,1-3.3,1H165.6z
		 M165.6,63.8h3c0.9,0,1.6-0.2,2.1-0.6c0.5-0.4,0.7-1,0.7-1.8c0-0.8-0.2-1.4-0.7-1.8c-0.5-0.5-1.1-0.7-2-0.7h-3.1V63.8z"/>
	<path d="M176.8,70.2h-1.6V56.7h1.6V70.2z"/>
	<path d="M183.3,70.3c-1.3,0-2.3-0.4-3.1-1.3s-1.2-2-1.2-3.4v-0.3c0-0.9,0.2-1.8,0.5-2.5s0.9-1.3,1.5-1.7s1.3-0.6,2.1-0.6
		c1.2,0,2.2,0.4,2.9,1.2s1,2,1,3.5v0.7h-6.4c0,0.9,0.3,1.7,0.8,2.3s1.2,0.9,2,0.9c0.6,0,1.1-0.1,1.5-0.4s0.7-0.5,1-0.9l1,0.8
		C186.1,69.7,184.9,70.3,183.3,70.3z M183.1,61.8c-0.7,0-1.2,0.2-1.7,0.7s-0.7,1.1-0.8,2h4.8v-0.1c0-0.8-0.3-1.5-0.7-1.9
		S183.8,61.8,183.1,61.8z"/>
	<path d="M194.8,70.2c-0.1-0.2-0.2-0.5-0.2-1c-0.8,0.8-1.7,1.2-2.7,1.2c-0.9,0-1.7-0.3-2.3-0.8s-0.9-1.2-0.9-2c0-1,0.4-1.8,1.1-2.3
		s1.8-0.8,3.2-0.8h1.6v-0.7c0-0.6-0.2-1-0.5-1.4s-0.8-0.5-1.5-0.5c-0.6,0-1.1,0.1-1.5,0.4s-0.6,0.6-0.6,1.1h-1.6
		c0-0.5,0.2-0.9,0.5-1.4s0.8-0.8,1.4-1.1s1.2-0.4,1.9-0.4c1.1,0,2,0.3,2.6,0.8s0.9,1.3,1,2.3v4.4c0,0.9,0.1,1.6,0.3,2.1v0.1H194.8z
		 M192.1,68.9c0.5,0,1-0.1,1.5-0.4s0.8-0.6,1-1v-2h-1.3c-2,0-3,0.6-3,1.7c0,0.5,0.2,0.9,0.5,1.2S191.6,68.9,192.1,68.9z"/>
	<path d="M204.3,67.6c0-0.4-0.2-0.8-0.5-1s-0.9-0.5-1.7-0.6s-1.5-0.4-2-0.6s-0.8-0.5-1.1-0.9s-0.3-0.7-0.3-1.2c0-0.8,0.3-1.4,1-2
		s1.5-0.8,2.5-0.8c1.1,0,2,0.3,2.6,0.8s1,1.3,1,2.1h-1.6c0-0.4-0.2-0.8-0.6-1.2s-0.9-0.5-1.4-0.5c-0.6,0-1.1,0.1-1.4,0.4
		s-0.5,0.6-0.5,1c0,0.4,0.2,0.7,0.5,0.9s0.9,0.4,1.7,0.6s1.5,0.4,2,0.7s0.9,0.6,1.1,0.9s0.4,0.8,0.4,1.3c0,0.8-0.3,1.5-1,2
		s-1.6,0.8-2.6,0.8c-0.8,0-1.4-0.1-2-0.4s-1-0.6-1.4-1.1s-0.5-1-0.5-1.6h1.6c0,0.5,0.2,1,0.7,1.3s0.9,0.5,1.6,0.5
		c0.6,0,1.1-0.1,1.5-0.4S204.3,68.1,204.3,67.6z"/>
	<path d="M211.9,70.3c-1.3,0-2.3-0.4-3.1-1.3s-1.2-2-1.2-3.4v-0.3c0-0.9,0.2-1.8,0.5-2.5s0.9-1.3,1.5-1.7s1.3-0.6,2.1-0.6
		c1.2,0,2.2,0.4,2.9,1.2s1,2,1,3.5v0.7h-6.4c0,0.9,0.3,1.7,0.8,2.3s1.2,0.9,2,0.9c0.6,0,1.1-0.1,1.5-0.4s0.7-0.5,1-0.9l1,0.8
		C214.7,69.7,213.5,70.3,211.9,70.3z M211.7,61.8c-0.7,0-1.2,0.2-1.7,0.7s-0.7,1.1-0.8,2h4.8v-0.1c0-0.8-0.3-1.5-0.7-1.9
		S212.4,61.8,211.7,61.8z"/>
	<path d="M223.6,61.8c0.7-0.9,1.7-1.3,2.8-1.3c2,0,3,1.1,3,3.4v6.3h-1.6v-6.3c0-0.7-0.2-1.2-0.5-1.5s-0.8-0.5-1.4-0.5
		c-0.5,0-1,0.1-1.4,0.4s-0.7,0.7-0.9,1.1v6.8H222V56.7h1.6V61.8z"/>
	<path d="M235.9,70.3c-1.3,0-2.3-0.4-3.1-1.3s-1.2-2-1.2-3.4v-0.3c0-0.9,0.2-1.8,0.5-2.5s0.9-1.3,1.5-1.7s1.3-0.6,2.1-0.6
		c1.2,0,2.2,0.4,2.9,1.2s1,2,1,3.5v0.7h-6.4c0,0.9,0.3,1.7,0.8,2.3s1.2,0.9,2,0.9c0.6,0,1.1-0.1,1.5-0.4s0.7-0.5,1-0.9l1,0.8
		C238.6,69.7,237.4,70.3,235.9,70.3z M235.6,61.8c-0.7,0-1.2,0.2-1.7,0.7s-0.7,1.1-0.8,2h4.8v-0.1c0-0.8-0.3-1.5-0.7-1.9
		S236.3,61.8,235.6,61.8z"/>
	<path d="M243.2,70.2h-1.6V56.7h1.6V70.2z"/>
	<path d="M253.8,65.5c0,1.4-0.3,2.6-1,3.5s-1.6,1.3-2.7,1.3c-1.2,0-2.1-0.4-2.7-1.1v4.6h-1.6V60.7h1.5l0.1,1.1
		c0.7-0.8,1.6-1.2,2.8-1.2c1.1,0,2,0.4,2.7,1.3s1,2.1,1,3.6V65.5z M252.2,65.3c0-1.1-0.2-1.9-0.7-2.5s-1.1-0.9-1.9-0.9
		c-1,0-1.7,0.4-2.2,1.3v4.5c0.5,0.9,1.2,1.3,2.2,1.3c0.8,0,1.4-0.3,1.9-0.9S252.2,66.5,252.2,65.3z"/>
	<path d="M266.2,69.2c-0.6,0.7-1.6,1.1-2.8,1.1c-1,0-1.8-0.3-2.3-0.9s-0.8-1.5-0.8-2.6v-6.2h1.6v6.1c0,1.4,0.6,2.2,1.8,2.2
		c1.2,0,2.1-0.5,2.5-1.4v-6.9h1.6v9.5h-1.5L266.2,69.2z"/>
	<path d="M278.3,65.5c0,1.4-0.3,2.6-1,3.5s-1.6,1.3-2.7,1.3c-1.2,0-2.1-0.4-2.7-1.1v4.6h-1.6V60.7h1.5l0.1,1.1
		c0.7-0.8,1.6-1.2,2.8-1.2c1.1,0,2,0.4,2.7,1.3s1,2.1,1,3.6V65.5z M276.7,65.3c0-1.1-0.2-1.9-0.7-2.5s-1.1-0.9-1.9-0.9
		c-1,0-1.7,0.4-2.2,1.3v4.5c0.5,0.9,1.2,1.3,2.2,1.3c0.8,0,1.4-0.3,1.9-0.9S276.7,66.5,276.7,65.3z"/>
	<path d="M280,65.3c0-1.5,0.3-2.6,1-3.5s1.6-1.3,2.7-1.3c1.1,0,2,0.4,2.6,1.1v-5h1.6v13.5h-1.5l-0.1-1c-0.7,0.8-1.6,1.2-2.7,1.2
		c-1.1,0-2-0.5-2.7-1.4s-1-2.1-1-3.5V65.3z M281.6,65.5c0,1.1,0.2,1.9,0.7,2.5s1.1,0.9,1.8,0.9c1,0,1.8-0.5,2.3-1.4v-4.4
		c-0.5-0.9-1.2-1.3-2.2-1.3c-0.8,0-1.4,0.3-1.9,0.9S281.6,64.3,281.6,65.5z"/>
	<path d="M296.4,70.2c-0.1-0.2-0.2-0.5-0.2-1c-0.8,0.8-1.7,1.2-2.7,1.2c-0.9,0-1.7-0.3-2.3-0.8s-0.9-1.2-0.9-2c0-1,0.4-1.8,1.1-2.3
		s1.8-0.8,3.2-0.8h1.6v-0.7c0-0.6-0.2-1-0.5-1.4s-0.8-0.5-1.5-0.5c-0.6,0-1.1,0.1-1.5,0.4s-0.6,0.6-0.6,1.1h-1.6
		c0-0.5,0.2-0.9,0.5-1.4s0.8-0.8,1.4-1.1s1.2-0.4,1.9-0.4c1.1,0,2,0.3,2.6,0.8s0.9,1.3,1,2.3v4.4c0,0.9,0.1,1.6,0.3,2.1v0.1H296.4z
		 M293.7,68.9c0.5,0,1-0.1,1.5-0.4s0.8-0.6,1-1v-2h-1.3c-2,0-3,0.6-3,1.7c0,0.5,0.2,0.9,0.5,1.2S293.2,68.9,293.7,68.9z"/>
	<path d="M302.5,58.4v2.3h1.8v1.3h-1.8v5.9c0,0.4,0.1,0.7,0.2,0.9c0.2,0.2,0.4,0.3,0.8,0.3c0.2,0,0.4,0,0.8-0.1v1.3
		c-0.4,0.1-0.8,0.2-1.2,0.2c-0.7,0-1.3-0.2-1.6-0.7s-0.6-1.1-0.6-1.9v-5.9h-1.7v-1.3h1.7v-2.3H302.5z"/>
	<path d="M310.2,70.3c-1.3,0-2.3-0.4-3.1-1.3s-1.2-2-1.2-3.4v-0.3c0-0.9,0.2-1.8,0.5-2.5s0.9-1.3,1.5-1.7s1.3-0.6,2.1-0.6
		c1.2,0,2.2,0.4,2.9,1.2s1,2,1,3.5v0.7h-6.4c0,0.9,0.3,1.7,0.8,2.3s1.2,0.9,2,0.9c0.6,0,1.1-0.1,1.5-0.4s0.7-0.5,1-0.9l1,0.8
		C312.9,69.7,311.7,70.3,310.2,70.3z M310,61.8c-0.7,0-1.2,0.2-1.7,0.7s-0.7,1.1-0.8,2h4.8v-0.1c0-0.8-0.3-1.5-0.7-1.9
		S310.6,61.8,310,61.8z"/>
	<path d="M322.4,58.4v2.3h1.8v1.3h-1.8v5.9c0,0.4,0.1,0.7,0.2,0.9c0.2,0.2,0.4,0.3,0.8,0.3c0.2,0,0.4,0,0.8-0.1v1.3
		c-0.4,0.1-0.8,0.2-1.2,0.2c-0.7,0-1.3-0.2-1.6-0.7s-0.6-1.1-0.6-1.9v-5.9H319v-1.3h1.7v-2.3H322.4z"/>
	<path d="M327.7,61.8c0.7-0.9,1.7-1.3,2.8-1.3c2,0,3,1.1,3,3.4v6.3h-1.6v-6.3c0-0.7-0.2-1.2-0.5-1.5s-0.8-0.5-1.4-0.5
		c-0.5,0-1,0.1-1.4,0.4s-0.7,0.7-0.9,1.1v6.8h-1.6V56.7h1.6V61.8z"/>
	<path d="M336,58.1c0-0.3,0.1-0.5,0.2-0.7s0.4-0.3,0.7-0.3s0.6,0.1,0.7,0.3s0.2,0.4,0.2,0.7s-0.1,0.5-0.2,0.7s-0.4,0.3-0.7,0.3
		s-0.6-0.1-0.7-0.3S336,58.4,336,58.1z M337.8,70.2h-1.6v-9.5h1.6V70.2z"/>
	<path d="M345.9,67.6c0-0.4-0.2-0.8-0.5-1s-0.9-0.5-1.7-0.6s-1.5-0.4-2-0.6s-0.8-0.5-1.1-0.9s-0.3-0.7-0.3-1.2c0-0.8,0.3-1.4,1-2
		s1.5-0.8,2.5-0.8c1.1,0,2,0.3,2.6,0.8s1,1.3,1,2.1h-1.6c0-0.4-0.2-0.8-0.6-1.2s-0.9-0.5-1.4-0.5c-0.6,0-1.1,0.1-1.4,0.4
		s-0.5,0.6-0.5,1c0,0.4,0.2,0.7,0.5,0.9s0.9,0.4,1.7,0.6s1.5,0.4,2,0.7s0.9,0.6,1.1,0.9s0.4,0.8,0.4,1.3c0,0.8-0.3,1.5-1,2
		s-1.6,0.8-2.6,0.8c-0.8,0-1.4-0.1-2-0.4s-1-0.6-1.4-1.1s-0.5-1-0.5-1.6h1.6c0,0.5,0.2,1,0.7,1.3s0.9,0.5,1.6,0.5
		c0.6,0,1.1-0.1,1.5-0.4S345.9,68.1,345.9,67.6z"/>
	<path d="M361.4,66.8h-5.4l-1.2,3.3h-1.7l4.9-12.8h1.5l4.9,12.8h-1.7L361.4,66.8z M356.6,65.4h4.4l-2.2-6L356.6,65.4z"/>
	<path d="M370.4,62.1c-0.2,0-0.5-0.1-0.8-0.1c-1.1,0-1.8,0.5-2.2,1.4v6.8h-1.6v-9.5h1.6l0,1.1c0.5-0.8,1.3-1.3,2.3-1.3
		c0.3,0,0.6,0,0.7,0.1V62.1z"/>
	<path d="M374.6,58.4v2.3h1.8v1.3h-1.8v5.9c0,0.4,0.1,0.7,0.2,0.9c0.2,0.2,0.4,0.3,0.8,0.3c0.2,0,0.4,0,0.8-0.1v1.3
		c-0.4,0.1-0.8,0.2-1.2,0.2c-0.7,0-1.3-0.2-1.6-0.7s-0.6-1.1-0.6-1.9v-5.9h-1.7v-1.3h1.7v-2.3H374.6z"/>
	<path d="M378.3,58.1c0-0.3,0.1-0.5,0.2-0.7s0.4-0.3,0.7-0.3s0.6,0.1,0.7,0.3s0.2,0.4,0.2,0.7s-0.1,0.5-0.2,0.7s-0.4,0.3-0.7,0.3
		s-0.6-0.1-0.7-0.3S378.3,58.4,378.3,58.1z M380,70.2h-1.6v-9.5h1.6V70.2z"/>
	<path d="M386.4,69c0.6,0,1.1-0.2,1.5-0.5s0.7-0.8,0.7-1.3h1.5c0,0.5-0.2,1.1-0.6,1.6s-0.8,0.9-1.4,1.2s-1.2,0.4-1.8,0.4
		c-1.3,0-2.3-0.4-3.1-1.3s-1.1-2-1.1-3.5v-0.3c0-0.9,0.2-1.7,0.5-2.5s0.8-1.3,1.5-1.7s1.4-0.6,2.3-0.6c1.1,0,2,0.3,2.7,1
		s1.1,1.5,1.1,2.5h-1.5c0-0.6-0.3-1.1-0.7-1.5s-0.9-0.6-1.6-0.6c-0.8,0-1.5,0.3-1.9,0.9s-0.7,1.5-0.7,2.6v0.3c0,1.1,0.2,1.9,0.7,2.5
		S385.6,69,386.4,69z"/>
	<path d="M393.8,70.2h-1.6V56.7h1.6V70.2z"/>
	<path d="M400.4,70.3c-1.3,0-2.3-0.4-3.1-1.3s-1.2-2-1.2-3.4v-0.3c0-0.9,0.2-1.8,0.5-2.5s0.9-1.3,1.5-1.7s1.3-0.6,2.1-0.6
		c1.2,0,2.2,0.4,2.9,1.2s1,2,1,3.5v0.7h-6.4c0,0.9,0.3,1.7,0.8,2.3s1.2,0.9,2,0.9c0.6,0,1.1-0.1,1.5-0.4s0.7-0.5,1-0.9l1,0.8
		C403.1,69.7,401.9,70.3,400.4,70.3z M400.2,61.8c-0.7,0-1.2,0.2-1.7,0.7s-0.7,1.1-0.8,2h4.8v-0.1c0-0.8-0.3-1.5-0.7-1.9
		S400.8,61.8,400.2,61.8z"/>
	<path d="M412.6,58.4v2.3h1.8v1.3h-1.8v5.9c0,0.4,0.1,0.7,0.2,0.9c0.2,0.2,0.4,0.3,0.8,0.3c0.2,0,0.4,0,0.8-0.1v1.3
		c-0.4,0.1-0.8,0.2-1.2,0.2c-0.7,0-1.3-0.2-1.6-0.7s-0.6-1.1-0.6-1.9v-5.9h-1.7v-1.3h1.7v-2.3H412.6z"/>
	<path d="M415.7,65.3c0-0.9,0.2-1.8,0.5-2.5c0.4-0.7,0.9-1.3,1.5-1.7c0.7-0.4,1.4-0.6,2.2-0.6c1.3,0,2.3,0.4,3.1,1.3
		c0.8,0.9,1.2,2.1,1.2,3.6v0.1c0,0.9-0.2,1.8-0.5,2.5c-0.4,0.7-0.9,1.3-1.5,1.7c-0.7,0.4-1.4,0.6-2.3,0.6c-1.3,0-2.3-0.4-3.1-1.3
		c-0.8-0.9-1.2-2.1-1.2-3.6V65.3z M417.3,65.5c0,1.1,0.2,1.9,0.7,2.5s1.1,1,2,1c0.8,0,1.5-0.3,2-1s0.7-1.6,0.7-2.7
		c0-1-0.2-1.9-0.7-2.5s-1.2-1-2-1c-0.8,0-1.5,0.3-1.9,1S417.3,64.3,417.3,65.5z"/>
	<path d="M435.4,62.1c-0.2,0-0.5-0.1-0.8-0.1c-1.1,0-1.8,0.5-2.2,1.4v6.8h-1.6v-9.5h1.6l0,1.1c0.5-0.8,1.3-1.3,2.3-1.3
		c0.3,0,0.6,0,0.7,0.1V62.1z"/>
	<path d="M440.7,70.3c-1.3,0-2.3-0.4-3.1-1.3s-1.2-2-1.2-3.4v-0.3c0-0.9,0.2-1.8,0.5-2.5c0.4-0.7,0.9-1.3,1.5-1.7s1.3-0.6,2.1-0.6
		c1.2,0,2.2,0.4,2.9,1.2s1,2,1,3.5v0.7H438c0,0.9,0.3,1.7,0.8,2.3c0.5,0.6,1.2,0.9,2,0.9c0.6,0,1.1-0.1,1.5-0.4s0.7-0.5,1-0.9l1,0.8
		C443.5,69.7,442.3,70.3,440.7,70.3z M440.5,61.8c-0.7,0-1.2,0.2-1.7,0.7s-0.7,1.1-0.8,2h4.8v-0.1c0-0.8-0.3-1.5-0.7-1.9
		S441.2,61.8,440.5,61.8z"/>
	<path d="M447.1,70.2v-8.3h-1.5v-1.3h1.5v-1c0-1,0.3-1.8,0.8-2.4s1.3-0.8,2.3-0.8c0.4,0,0.7,0,1.1,0.1l-0.1,1.3
		c-0.3-0.1-0.6-0.1-0.9-0.1c-0.5,0-0.9,0.2-1.2,0.5s-0.4,0.8-0.4,1.3v1h2v1.3h-2v8.3H447.1z"/>
	<path d="M454.3,70.2h-1.6V56.7h1.6V70.2z"/>
	<path d="M460.9,70.3c-1.3,0-2.3-0.4-3.1-1.3s-1.2-2-1.2-3.4v-0.3c0-0.9,0.2-1.8,0.5-2.5c0.4-0.7,0.9-1.3,1.5-1.7s1.3-0.6,2.1-0.6
		c1.2,0,2.2,0.4,2.9,1.2s1,2,1,3.5v0.7h-6.4c0,0.9,0.3,1.7,0.8,2.3c0.5,0.6,1.2,0.9,2,0.9c0.6,0,1.1-0.1,1.5-0.4s0.7-0.5,1-0.9
		l1,0.8C463.6,69.7,462.4,70.3,460.9,70.3z M460.6,61.8c-0.7,0-1.2,0.2-1.7,0.7s-0.7,1.1-0.8,2h4.8v-0.1c0-0.8-0.3-1.5-0.7-1.9
		S461.3,61.8,460.6,61.8z"/>
	<path d="M470.3,69c0.6,0,1.1-0.2,1.5-0.5s0.7-0.8,0.7-1.3h1.5c0,0.5-0.2,1.1-0.6,1.6s-0.8,0.9-1.4,1.2s-1.2,0.4-1.8,0.4
		c-1.3,0-2.3-0.4-3.1-1.3c-0.8-0.9-1.1-2-1.1-3.5v-0.3c0-0.9,0.2-1.7,0.5-2.5s0.8-1.3,1.5-1.7s1.4-0.6,2.3-0.6c1.1,0,2,0.3,2.7,1
		c0.7,0.6,1.1,1.5,1.1,2.5h-1.5c0-0.6-0.3-1.1-0.7-1.5c-0.4-0.4-0.9-0.6-1.6-0.6c-0.8,0-1.5,0.3-1.9,0.9s-0.7,1.5-0.7,2.6v0.3
		c0,1.1,0.2,1.9,0.7,2.5S469.4,69,470.3,69z"/>
	<path d="M478.1,58.4v2.3h1.8v1.3h-1.8v5.9c0,0.4,0.1,0.7,0.2,0.9c0.2,0.2,0.4,0.3,0.8,0.3c0.2,0,0.4,0,0.8-0.1v1.3
		c-0.4,0.1-0.8,0.2-1.2,0.2c-0.7,0-1.3-0.2-1.6-0.7s-0.6-1.1-0.6-1.9v-5.9h-1.7v-1.3h1.7v-2.3H478.1z"/>
	<path d="M490.8,62.1c-0.2,0-0.5-0.1-0.8-0.1c-1.1,0-1.8,0.5-2.2,1.4v6.8h-1.6v-9.5h1.6l0,1.1c0.5-0.8,1.3-1.3,2.3-1.3
		c0.3,0,0.6,0,0.7,0.1V62.1z"/>
	<path d="M496.1,70.3c-1.3,0-2.3-0.4-3.1-1.3s-1.2-2-1.2-3.4v-0.3c0-0.9,0.2-1.8,0.5-2.5c0.4-0.7,0.9-1.3,1.5-1.7s1.3-0.6,2.1-0.6
		c1.2,0,2.2,0.4,2.9,1.2s1,2,1,3.5v0.7h-6.4c0,0.9,0.3,1.7,0.8,2.3c0.5,0.6,1.2,0.9,2,0.9c0.6,0,1.1-0.1,1.5-0.4s0.7-0.5,1-0.9
		l1,0.8C498.9,69.7,497.7,70.3,496.1,70.3z M495.9,61.8c-0.7,0-1.2,0.2-1.7,0.7s-0.7,1.1-0.8,2h4.8v-0.1c0-0.8-0.3-1.5-0.7-1.9
		S496.5,61.8,495.9,61.8z"/>
	<path d="M505.5,69c0.6,0,1.1-0.2,1.5-0.5s0.7-0.8,0.7-1.3h1.5c0,0.5-0.2,1.1-0.6,1.6s-0.8,0.9-1.4,1.2s-1.2,0.4-1.8,0.4
		c-1.3,0-2.3-0.4-3.1-1.3c-0.8-0.9-1.1-2-1.1-3.5v-0.3c0-0.9,0.2-1.7,0.5-2.5s0.8-1.3,1.5-1.7s1.4-0.6,2.3-0.6c1.1,0,2,0.3,2.7,1
		c0.7,0.6,1.1,1.5,1.1,2.5h-1.5c0-0.6-0.3-1.1-0.7-1.5c-0.4-0.4-0.9-0.6-1.6-0.6c-0.8,0-1.5,0.3-1.9,0.9s-0.7,1.5-0.7,2.6v0.3
		c0,1.1,0.2,1.9,0.7,2.5S504.6,69,505.5,69z"/>
	<path d="M515,70.3c-1.3,0-2.3-0.4-3.1-1.3s-1.2-2-1.2-3.4v-0.3c0-0.9,0.2-1.8,0.5-2.5c0.4-0.7,0.9-1.3,1.5-1.7s1.3-0.6,2.1-0.6
		c1.2,0,2.2,0.4,2.9,1.2s1,2,1,3.5v0.7h-6.4c0,0.9,0.3,1.7,0.8,2.3c0.5,0.6,1.2,0.9,2,0.9c0.6,0,1.1-0.1,1.5-0.4s0.7-0.5,1-0.9
		l1,0.8C517.8,69.7,516.6,70.3,515,70.3z M514.8,61.8c-0.7,0-1.2,0.2-1.7,0.7s-0.7,1.1-0.8,2h4.8v-0.1c0-0.8-0.3-1.5-0.7-1.9
		S515.5,61.8,514.8,61.8z"/>
	<path d="M522.2,60.7l0.1,1.2c0.7-0.9,1.7-1.4,2.8-1.4c2,0,3,1.1,3,3.4v6.3h-1.6v-6.3c0-0.7-0.2-1.2-0.5-1.5
		c-0.3-0.3-0.8-0.5-1.4-0.5c-0.5,0-1,0.1-1.4,0.4s-0.7,0.7-0.9,1.1v6.8h-1.6v-9.5H522.2z"/>
	<path d="M532.8,58.4v2.3h1.8v1.3h-1.8v5.9c0,0.4,0.1,0.7,0.2,0.9c0.2,0.2,0.4,0.3,0.8,0.3c0.2,0,0.4,0,0.8-0.1v1.3
		c-0.4,0.1-0.8,0.2-1.2,0.2c-0.7,0-1.3-0.2-1.6-0.7s-0.6-1.1-0.6-1.9v-5.9h-1.7v-1.3h1.7v-2.3H532.8z"/>
	<path d="M544.8,70.3c-1.3,0-2.3-0.4-3.1-1.3s-1.2-2-1.2-3.4v-0.3c0-0.9,0.2-1.8,0.5-2.5c0.4-0.7,0.9-1.3,1.5-1.7s1.3-0.6,2.1-0.6
		c1.2,0,2.2,0.4,2.9,1.2s1,2,1,3.5v0.7h-6.4c0,0.9,0.3,1.7,0.8,2.3c0.5,0.6,1.2,0.9,2,0.9c0.6,0,1.1-0.1,1.5-0.4s0.7-0.5,1-0.9
		l1,0.8C547.6,69.7,546.4,70.3,544.8,70.3z M544.6,61.8c-0.7,0-1.2,0.2-1.7,0.7s-0.7,1.1-0.8,2h4.8v-0.1c0-0.8-0.3-1.5-0.7-1.9
		S545.3,61.8,544.6,61.8z"/>
	<path d="M553.4,68l2.4-7.3h1.7l-3.4,9.5h-1.2l-3.4-9.5h1.7L553.4,68z"/>
	<path d="M562.9,70.3c-1.3,0-2.3-0.4-3.1-1.3s-1.2-2-1.2-3.4v-0.3c0-0.9,0.2-1.8,0.5-2.5c0.4-0.7,0.9-1.3,1.5-1.7s1.3-0.6,2.1-0.6
		c1.2,0,2.2,0.4,2.9,1.2s1,2,1,3.5v0.7h-6.4c0,0.9,0.3,1.7,0.8,2.3c0.5,0.6,1.2,0.9,2,0.9c0.6,0,1.1-0.1,1.5-0.4s0.7-0.5,1-0.9
		l1,0.8C565.6,69.7,564.5,70.3,562.9,70.3z M562.7,61.8c-0.7,0-1.2,0.2-1.7,0.7s-0.7,1.1-0.8,2h4.8v-0.1c0-0.8-0.3-1.5-0.7-1.9
		S563.3,61.8,562.7,61.8z"/>
	<path d="M570,60.7l0.1,1.2c0.7-0.9,1.7-1.4,2.8-1.4c2,0,3,1.1,3,3.4v6.3h-1.6v-6.3c0-0.7-0.2-1.2-0.5-1.5c-0.3-0.3-0.8-0.5-1.4-0.5
		c-0.5,0-1,0.1-1.4,0.4s-0.7,0.7-0.9,1.1v6.8h-1.6v-9.5H570z"/>
	<path d="M580.6,58.4v2.3h1.8v1.3h-1.8v5.9c0,0.4,0.1,0.7,0.2,0.9c0.2,0.2,0.4,0.3,0.8,0.3c0.2,0,0.4,0,0.8-0.1v1.3
		c-0.4,0.1-0.8,0.2-1.2,0.2c-0.7,0-1.3-0.2-1.6-0.7s-0.6-1.1-0.6-1.9v-5.9h-1.7v-1.3h1.7v-2.3H580.6z"/>
	<path d="M589.8,67.6c0-0.4-0.2-0.8-0.5-1c-0.3-0.2-0.9-0.5-1.7-0.6s-1.5-0.4-2-0.6c-0.5-0.2-0.8-0.5-1.1-0.9
		c-0.2-0.3-0.3-0.7-0.3-1.2c0-0.8,0.3-1.4,1-2c0.7-0.5,1.5-0.8,2.5-0.8c1.1,0,2,0.3,2.6,0.8s1,1.3,1,2.1h-1.6c0-0.4-0.2-0.8-0.6-1.2
		c-0.4-0.3-0.9-0.5-1.4-0.5c-0.6,0-1.1,0.1-1.4,0.4s-0.5,0.6-0.5,1c0,0.4,0.2,0.7,0.5,0.9s0.9,0.4,1.7,0.6c0.8,0.2,1.5,0.4,2,0.7
		s0.9,0.6,1.1,0.9c0.2,0.4,0.4,0.8,0.4,1.3c0,0.8-0.3,1.5-1,2s-1.6,0.8-2.6,0.8c-0.8,0-1.4-0.1-2-0.4s-1-0.6-1.4-1.1
		c-0.3-0.5-0.5-1-0.5-1.6h1.6c0,0.5,0.2,1,0.7,1.3s0.9,0.5,1.6,0.5c0.6,0,1.1-0.1,1.5-0.4S589.8,68.1,589.8,67.6z"/>
	<path d="M597.6,65.3c0-0.9,0.2-1.8,0.5-2.5c0.4-0.7,0.9-1.3,1.5-1.7c0.7-0.4,1.4-0.6,2.2-0.6c1.3,0,2.3,0.4,3.1,1.3
		c0.8,0.9,1.2,2.1,1.2,3.6v0.1c0,0.9-0.2,1.8-0.5,2.5c-0.4,0.7-0.9,1.3-1.5,1.7c-0.7,0.4-1.4,0.6-2.3,0.6c-1.3,0-2.3-0.4-3.1-1.3
		c-0.8-0.9-1.2-2.1-1.2-3.6V65.3z M599.2,65.5c0,1.1,0.2,1.9,0.7,2.5s1.1,1,2,1c0.8,0,1.5-0.3,2-1s0.7-1.6,0.7-2.7
		c0-1-0.2-1.9-0.7-2.5s-1.2-1-2-1c-0.8,0-1.5,0.3-1.9,1S599.2,64.3,599.2,65.5z"/>
	<path d="M612.9,62.1c-0.2,0-0.5-0.1-0.8-0.1c-1.1,0-1.8,0.5-2.2,1.4v6.8h-1.6v-9.5h1.6l0,1.1c0.5-0.8,1.3-1.3,2.3-1.3
		c0.3,0,0.6,0,0.7,0.1V62.1z"/>
	<path d="M620.3,60.7l0.1,1.2c0.7-0.9,1.7-1.4,2.8-1.4c2,0,3,1.1,3,3.4v6.3h-1.6v-6.3c0-0.7-0.2-1.2-0.5-1.5
		c-0.3-0.3-0.8-0.5-1.4-0.5c-0.5,0-1,0.1-1.4,0.4s-0.7,0.7-0.9,1.1v6.8h-1.6v-9.5H620.3z"/>
	<path d="M632.7,70.3c-1.3,0-2.3-0.4-3.1-1.3s-1.2-2-1.2-3.4v-0.3c0-0.9,0.2-1.8,0.5-2.5c0.4-0.7,0.9-1.3,1.5-1.7s1.3-0.6,2.1-0.6
		c1.2,0,2.2,0.4,2.9,1.2s1,2,1,3.5v0.7H630c0,0.9,0.3,1.7,0.8,2.3c0.5,0.6,1.2,0.9,2,0.9c0.6,0,1.1-0.1,1.5-0.4s0.7-0.5,1-0.9l1,0.8
		C635.5,69.7,634.3,70.3,632.7,70.3z M632.5,61.8c-0.7,0-1.2,0.2-1.7,0.7s-0.7,1.1-0.8,2h4.8v-0.1c0-0.8-0.3-1.5-0.7-1.9
		S633.2,61.8,632.5,61.8z"/>
	<path d="M646.7,67.9l1.8-7.3h1.6l-2.8,9.5h-1.3l-2.3-7.2l-2.2,7.2h-1.3l-2.8-9.5h1.6l1.9,7.1l2.2-7.1h1.3L646.7,67.9z"/>
	<path d="M653.6,70.2h-1.6V56.7h1.6V70.2z"/>
	<path d="M659.3,67.8l2.2-7.1h1.7l-3.8,11c-0.6,1.6-1.5,2.4-2.8,2.4l-0.3,0l-0.6-0.1v-1.3l0.4,0c0.6,0,1-0.1,1.3-0.3
		c0.3-0.2,0.6-0.6,0.8-1.2l0.4-1l-3.4-9.4h1.8L659.3,67.8z"/>
	<path d="M675,70.2c-0.1-0.2-0.2-0.5-0.2-1c-0.8,0.8-1.7,1.2-2.7,1.2c-0.9,0-1.7-0.3-2.3-0.8c-0.6-0.5-0.9-1.2-0.9-2
		c0-1,0.4-1.8,1.1-2.3c0.8-0.5,1.8-0.8,3.2-0.8h1.6v-0.7c0-0.6-0.2-1-0.5-1.4s-0.8-0.5-1.5-0.5c-0.6,0-1.1,0.1-1.5,0.4
		s-0.6,0.6-0.6,1.1h-1.6c0-0.5,0.2-0.9,0.5-1.4s0.8-0.8,1.4-1.1s1.2-0.4,1.9-0.4c1.1,0,2,0.3,2.6,0.8s0.9,1.3,1,2.3v4.4
		c0,0.9,0.1,1.6,0.3,2.1v0.1H675z M672.3,68.9c0.5,0,1-0.1,1.5-0.4s0.8-0.6,1-1v-2h-1.3c-2,0-3,0.6-3,1.7c0,0.5,0.2,0.9,0.5,1.2
		S671.8,68.9,672.3,68.9z"/>
	<path d="M681.9,68l2.4-7.3h1.7l-3.4,9.5h-1.2l-3.4-9.5h1.7L681.9,68z"/>
	<path d="M693.3,70.2c-0.1-0.2-0.2-0.5-0.2-1c-0.8,0.8-1.7,1.2-2.7,1.2c-0.9,0-1.7-0.3-2.3-0.8c-0.6-0.5-0.9-1.2-0.9-2
		c0-1,0.4-1.8,1.1-2.3c0.8-0.5,1.8-0.8,3.2-0.8h1.6v-0.7c0-0.6-0.2-1-0.5-1.4s-0.8-0.5-1.5-0.5c-0.6,0-1.1,0.1-1.5,0.4
		s-0.6,0.6-0.6,1.1h-1.6c0-0.5,0.2-0.9,0.5-1.4s0.8-0.8,1.4-1.1s1.2-0.4,1.9-0.4c1.1,0,2,0.3,2.6,0.8s0.9,1.3,1,2.3v4.4
		c0,0.9,0.1,1.6,0.3,2.1v0.1H693.3z M690.6,68.9c0.5,0,1-0.1,1.5-0.4s0.8-0.6,1-1v-2h-1.3c-2,0-3,0.6-3,1.7c0,0.5,0.2,0.9,0.5,1.2
		S690,68.9,690.6,68.9z"/>
	<path d="M697.2,58.1c0-0.3,0.1-0.5,0.2-0.7s0.4-0.3,0.7-0.3s0.6,0.1,0.7,0.3s0.2,0.4,0.2,0.7s-0.1,0.5-0.2,0.7s-0.4,0.3-0.7,0.3
		s-0.6-0.1-0.7-0.3S697.2,58.4,697.2,58.1z M698.9,70.2h-1.6v-9.5h1.6V70.2z"/>
	<path d="M703.3,70.2h-1.6V56.7h1.6V70.2z"/>
	<path d="M711.8,70.2c-0.1-0.2-0.2-0.5-0.2-1c-0.8,0.8-1.7,1.2-2.7,1.2c-0.9,0-1.7-0.3-2.3-0.8c-0.6-0.5-0.9-1.2-0.9-2
		c0-1,0.4-1.8,1.1-2.3c0.8-0.5,1.8-0.8,3.2-0.8h1.6v-0.7c0-0.6-0.2-1-0.5-1.4s-0.8-0.5-1.5-0.5c-0.6,0-1.1,0.1-1.5,0.4
		s-0.6,0.6-0.6,1.1h-1.6c0-0.5,0.2-0.9,0.5-1.4s0.8-0.8,1.4-1.1s1.2-0.4,1.9-0.4c1.1,0,2,0.3,2.6,0.8s0.9,1.3,1,2.3v4.4
		c0,0.9,0.1,1.6,0.3,2.1v0.1H711.8z M709.1,68.9c0.5,0,1-0.1,1.5-0.4s0.8-0.6,1-1v-2h-1.3c-2,0-3,0.6-3,1.7c0,0.5,0.2,0.9,0.5,1.2
		S708.6,68.9,709.1,68.9z"/>
	<path d="M723.8,65.5c0,1.5-0.3,2.6-1,3.5s-1.6,1.3-2.7,1.3c-1.2,0-2.1-0.4-2.8-1.3l-0.1,1.1h-1.5V56.7h1.6v5
		c0.7-0.8,1.6-1.2,2.7-1.2s2.1,0.4,2.7,1.3c0.7,0.9,1,2.1,1,3.6V65.5z M722.1,65.3c0-1.1-0.2-2-0.6-2.6s-1-0.9-1.8-0.9
		c-1.1,0-1.8,0.5-2.3,1.5v4.1c0.5,1,1.3,1.5,2.3,1.5c0.8,0,1.4-0.3,1.8-0.9S722.1,66.5,722.1,65.3z"/>
	<path d="M727.6,70.2h-1.6V56.7h1.6V70.2z"/>
	<path d="M734.1,70.3c-1.3,0-2.3-0.4-3.1-1.3s-1.2-2-1.2-3.4v-0.3c0-0.9,0.2-1.8,0.5-2.5c0.4-0.7,0.9-1.3,1.5-1.7s1.3-0.6,2.1-0.6
		c1.2,0,2.2,0.4,2.9,1.2s1,2,1,3.5v0.7h-6.4c0,0.9,0.3,1.7,0.8,2.3c0.5,0.6,1.2,0.9,2,0.9c0.6,0,1.1-0.1,1.5-0.4s0.7-0.5,1-0.9
		l1,0.8C736.9,69.7,735.7,70.3,734.1,70.3z M733.9,61.8c-0.7,0-1.2,0.2-1.7,0.7s-0.7,1.1-0.8,2h4.8v-0.1c0-0.8-0.3-1.5-0.7-1.9
		S734.6,61.8,733.9,61.8z"/>
	<path d="M744.2,58.1c0-0.3,0.1-0.5,0.2-0.7s0.4-0.3,0.7-0.3s0.6,0.1,0.7,0.3s0.2,0.4,0.2,0.7s-0.1,0.5-0.2,0.7s-0.4,0.3-0.7,0.3
		s-0.6-0.1-0.7-0.3S744.2,58.4,744.2,58.1z M745.9,70.2h-1.6v-9.5h1.6V70.2z"/>
	<path d="M750.1,60.7l0.1,1.2c0.7-0.9,1.7-1.4,2.8-1.4c2,0,3,1.1,3,3.4v6.3h-1.6v-6.3c0-0.7-0.2-1.2-0.5-1.5
		c-0.3-0.3-0.8-0.5-1.4-0.5c-0.5,0-1,0.1-1.4,0.4s-0.7,0.7-0.9,1.1v6.8h-1.6v-9.5H750.1z"/>
	<path d="M759.3,70.2v-8.3h-1.5v-1.3h1.5v-1c0-1,0.3-1.8,0.8-2.4s1.3-0.8,2.3-0.8c0.4,0,0.7,0,1.1,0.1l-0.1,1.3
		c-0.3-0.1-0.6-0.1-0.9-0.1c-0.5,0-0.9,0.2-1.2,0.5s-0.4,0.8-0.4,1.3v1h2v1.3h-2v8.3H759.3z"/>
	<path d="M764.3,65.3c0-0.9,0.2-1.8,0.5-2.5c0.4-0.7,0.9-1.3,1.5-1.7c0.7-0.4,1.4-0.6,2.2-0.6c1.3,0,2.3,0.4,3.1,1.3
		c0.8,0.9,1.2,2.1,1.2,3.6v0.1c0,0.9-0.2,1.8-0.5,2.5c-0.4,0.7-0.9,1.3-1.5,1.7c-0.7,0.4-1.4,0.6-2.3,0.6c-1.3,0-2.3-0.4-3.1-1.3
		c-0.8-0.9-1.2-2.1-1.2-3.6V65.3z M765.9,65.5c0,1.1,0.2,1.9,0.7,2.5s1.1,1,2,1c0.8,0,1.5-0.3,2-1s0.7-1.6,0.7-2.7
		c0-1-0.2-1.9-0.7-2.5s-1.2-1-2-1c-0.8,0-1.5,0.3-1.9,1S765.9,64.3,765.9,65.5z"/>
	<path d="M779.6,62.1c-0.2,0-0.5-0.1-0.8-0.1c-1.1,0-1.8,0.5-2.2,1.4v6.8H775v-9.5h1.6l0,1.1c0.5-0.8,1.3-1.3,2.3-1.3
		c0.3,0,0.6,0,0.7,0.1V62.1z"/>
	<path d="M782.6,60.7l0,1.1c0.7-0.8,1.6-1.2,2.8-1.2c1.3,0,2.2,0.5,2.7,1.5c0.3-0.5,0.7-0.8,1.2-1.1c0.5-0.3,1.1-0.4,1.8-0.4
		c2.1,0,3.1,1.1,3.2,3.3v6.4h-1.6v-6.3c0-0.7-0.2-1.2-0.5-1.5s-0.8-0.5-1.6-0.5c-0.6,0-1.1,0.2-1.5,0.5s-0.6,0.8-0.7,1.5v6.3h-1.6
		v-6.2c0-1.4-0.7-2.1-2-2.1c-1.1,0-1.8,0.5-2.2,1.4v6.9h-1.6v-9.5H782.6z"/>
	<path d="M802.7,70.2c-0.1-0.2-0.2-0.5-0.2-1c-0.8,0.8-1.7,1.2-2.7,1.2c-0.9,0-1.7-0.3-2.3-0.8c-0.6-0.5-0.9-1.2-0.9-2
		c0-1,0.4-1.8,1.1-2.3c0.8-0.5,1.8-0.8,3.2-0.8h1.6v-0.7c0-0.6-0.2-1-0.5-1.4s-0.8-0.5-1.5-0.5c-0.6,0-1.1,0.1-1.5,0.4
		s-0.6,0.6-0.6,1.1h-1.6c0-0.5,0.2-0.9,0.5-1.4s0.8-0.8,1.4-1.1s1.2-0.4,1.9-0.4c1.1,0,2,0.3,2.6,0.8s0.9,1.3,1,2.3v4.4
		c0,0.9,0.1,1.6,0.3,2.1v0.1H802.7z M800,68.9c0.5,0,1-0.1,1.5-0.4s0.8-0.6,1-1v-2h-1.3c-2,0-3,0.6-3,1.7c0,0.5,0.2,0.9,0.5,1.2
		S799.5,68.9,800,68.9z"/>
	<path d="M808.8,58.4v2.3h1.8v1.3h-1.8v5.9c0,0.4,0.1,0.7,0.2,0.9c0.2,0.2,0.4,0.3,0.8,0.3c0.2,0,0.4,0,0.8-0.1v1.3
		c-0.4,0.1-0.8,0.2-1.2,0.2c-0.7,0-1.3-0.2-1.6-0.7s-0.6-1.1-0.6-1.9v-5.9h-1.7v-1.3h1.7v-2.3H808.8z"/>
	<path d="M812.5,58.1c0-0.3,0.1-0.5,0.2-0.7s0.4-0.3,0.7-0.3s0.6,0.1,0.7,0.3s0.2,0.4,0.2,0.7s-0.1,0.5-0.2,0.7s-0.4,0.3-0.7,0.3
		s-0.6-0.1-0.7-0.3S812.5,58.4,812.5,58.1z M814.3,70.2h-1.6v-9.5h1.6V70.2z"/>
	<path d="M816.5,65.3c0-0.9,0.2-1.8,0.5-2.5c0.4-0.7,0.9-1.3,1.5-1.7c0.7-0.4,1.4-0.6,2.2-0.6c1.3,0,2.3,0.4,3.1,1.3
		c0.8,0.9,1.2,2.1,1.2,3.6v0.1c0,0.9-0.2,1.8-0.5,2.5c-0.4,0.7-0.9,1.3-1.5,1.7c-0.7,0.4-1.4,0.6-2.3,0.6c-1.3,0-2.3-0.4-3.1-1.3
		c-0.8-0.9-1.2-2.1-1.2-3.6V65.3z M818.1,65.5c0,1.1,0.2,1.9,0.7,2.5s1.1,1,2,1c0.8,0,1.5-0.3,2-1s0.7-1.6,0.7-2.7
		c0-1-0.2-1.9-0.7-2.5s-1.2-1-2-1c-0.8,0-1.5,0.3-1.9,1S818.1,64.3,818.1,65.5z"/>
	<path d="M828.7,60.7l0.1,1.2c0.7-0.9,1.7-1.4,2.8-1.4c2,0,3,1.1,3,3.4v6.3H833v-6.3c0-0.7-0.2-1.2-0.5-1.5
		c-0.3-0.3-0.8-0.5-1.4-0.5c-0.5,0-1,0.1-1.4,0.4s-0.7,0.7-0.9,1.1v6.8h-1.6v-9.5H828.7z"/>
	<path d="M837.1,69.3c0-0.3,0.1-0.5,0.2-0.7c0.2-0.2,0.4-0.3,0.8-0.3s0.6,0.1,0.8,0.3s0.3,0.4,0.3,0.7c0,0.3-0.1,0.5-0.3,0.7
		s-0.4,0.3-0.8,0.3s-0.6-0.1-0.8-0.3C837.2,69.8,837.1,69.6,837.1,69.3z"/>
	<path d="M163.6,86.6c0.2-1.4,0.6-2.7,1.1-4s1.2-2.4,1.9-3.3s1.6-1.6,2.5-2.1l0.2,1.1c-0.9,0.7-1.7,1.6-2.4,2.7s-1.2,2.4-1.5,3.9
		s-0.5,3-0.5,4.5c0,1.2,0.2,2.3,0.5,3.2s0.8,1.7,1.4,2.2l-0.4,1c-1-0.7-1.7-1.7-2.2-3s-0.8-2.9-0.7-4.6
		C163.5,87.7,163.5,87.2,163.6,86.6L163.6,86.6z"/>
	<path d="M173.7,91.9c-0.8,0-1.5-0.2-2.1-0.6s-1.1-0.9-1.4-1.7s-0.5-1.5-0.6-2.5c0-0.7,0-1.6,0.2-2.6s0.5-2,1-2.8s1.1-1.5,1.7-2
		c0.9-0.7,2-1,3.1-1c1.2,0,2.2,0.5,3,1.3s1.1,2,1.2,3.4c0,0.6,0,1.4-0.2,2.3s-0.4,1.8-0.8,2.6s-0.9,1.5-1.5,2
		C176.3,91.5,175.1,92,173.7,91.9z M178.2,83.9c0-1.2-0.2-2-0.6-2.7s-1.1-1-2-1c-0.8,0-1.5,0.2-2.1,0.6s-1.1,1.1-1.5,2
		s-0.6,2-0.8,3.4l0,0.6c0,1.1,0.2,2,0.6,2.7s1.1,1,1.9,1c1.1,0,2-0.4,2.8-1.2s1.2-2,1.5-3.5C178.1,85.1,178.2,84.4,178.2,83.9z"/>
	<path d="M184.9,90.6c0.6,0,1.1-0.2,1.5-0.5s0.8-0.8,0.9-1.3l1.5,0c-0.1,0.6-0.3,1.1-0.7,1.6s-0.9,0.9-1.5,1.2s-1.2,0.4-1.8,0.4
		c-0.8,0-1.5-0.2-2-0.6s-1-1-1.2-1.7s-0.3-1.5-0.3-2.4l0-0.4c0.1-0.9,0.4-1.7,0.8-2.5s1-1.3,1.7-1.7s1.4-0.6,2.2-0.6
		c1,0,1.8,0.4,2.4,1s0.9,1.5,0.9,2.5l-1.5,0c0-0.6-0.2-1.1-0.5-1.5s-0.8-0.6-1.4-0.6c-0.8,0-1.5,0.3-2.1,0.9s-0.9,1.5-1,2.7l0,0.2
		c0,0.4,0,0.8,0,1.2c0,0.7,0.2,1.2,0.6,1.6S184.3,90.6,184.9,90.6z"/>
	<path d="M194.3,80l-0.4,2.3h1.7l-0.2,1.3h-1.7l-1,5.9c0,0.2,0,0.3,0,0.4c0,0.5,0.3,0.7,0.7,0.7c0.2,0,0.5,0,0.8-0.1l-0.1,1.3
		c-0.4,0.1-0.8,0.2-1.2,0.2c-0.6,0-1.1-0.2-1.4-0.7s-0.4-1.1-0.4-1.8l1-5.9h-1.7l0.2-1.3h1.7l0.4-2.3H194.3z"/>
	<path d="M201,82.1c0.8,0,1.5,0.2,2,0.7s1,1,1.3,1.7s0.4,1.6,0.3,2.4l0,0.2c-0.1,0.9-0.4,1.8-0.8,2.5s-1,1.3-1.7,1.7
		s-1.5,0.6-2.3,0.6c-0.8,0-1.5-0.2-2-0.7s-1-1-1.3-1.7s-0.4-1.5-0.3-2.4c0.1-1,0.4-1.9,0.8-2.7s1-1.4,1.7-1.8S200.1,82.1,201,82.1z
		 M197.8,87.2c0,0.4,0,0.8,0,1.2c0.1,0.7,0.3,1.2,0.6,1.7s0.8,0.6,1.4,0.6c0.5,0,1-0.1,1.5-0.4s0.8-0.7,1.1-1.3s0.5-1.2,0.6-1.9
		c0-0.5,0.1-1,0-1.4c-0.1-0.7-0.3-1.3-0.6-1.7s-0.8-0.6-1.4-0.7c-0.8,0-1.5,0.3-2.1,1s-0.9,1.5-1.1,2.6L197.8,87.2z"/>
	<path d="M214.4,87.1c-0.1,1-0.4,1.8-0.8,2.6s-0.9,1.4-1.5,1.7s-1.2,0.6-2,0.5c-1.1,0-2-0.5-2.6-1.3l-0.3,1.1h-1.5l2.3-13.5h1.6
		l-1,5c0.8-0.8,1.7-1.3,2.8-1.2c0.9,0,1.6,0.4,2.1,1s0.8,1.5,0.8,2.7c0,0.4,0,0.7-0.1,1.1L214.4,87.1z M212.9,86.1
		c0-0.9-0.1-1.5-0.4-2c-0.3-0.5-0.8-0.7-1.4-0.7c-1,0-1.8,0.5-2.5,1.5l-0.7,4.1c0.4,1,1,1.5,2,1.5c0.6,0,1.2-0.2,1.6-0.6
		c0.5-0.4,0.8-0.9,1.1-1.6C212.7,87.7,212.9,86.9,212.9,86.1z"/>
	<path d="M219.7,91.9c-1.2,0-2.1-0.5-2.8-1.3s-0.9-1.9-0.8-3.3l0-0.4c0.1-0.9,0.4-1.8,0.8-2.6s1-1.4,1.7-1.8s1.4-0.6,2.1-0.6
		c1,0,1.7,0.3,2.3,1s0.9,1.5,0.9,2.5c0,0.4,0,0.8,0,1.1l-0.1,0.7h-6.2c-0.1,0.9,0,1.6,0.4,2.2s1,0.9,1.7,0.9c0.9,0,1.8-0.4,2.6-1.3
		l0.9,0.8c-0.4,0.6-0.9,1-1.5,1.3S220.5,92,219.7,91.9z M220.8,83.4c-0.7,0-1.2,0.2-1.7,0.7s-0.9,1.2-1.2,2.1l4.6,0l0-0.1
		c0.1-0.7,0-1.4-0.4-1.8S221.4,83.4,220.8,83.4z"/>
	<path d="M230.9,83.7l-0.7-0.1c-1,0-1.8,0.5-2.4,1.4l-1.2,6.8H225l1.7-9.5l1.5,0l-0.2,1.1c0.7-0.9,1.5-1.3,2.4-1.3
		c0.2,0,0.4,0,0.8,0.1L230.9,83.7z"/>
	<path d="M243.5,91.8h-8.1l0.2-1.2l4.7-4.6l0.9-0.9c1-1,1.5-1.9,1.6-2.7c0.1-0.6,0-1.2-0.4-1.6s-0.8-0.6-1.4-0.6
		c-0.8,0-1.4,0.2-1.9,0.7s-0.8,1.1-0.9,1.9l-1.6,0c0.1-0.8,0.3-1.5,0.7-2.1s0.9-1.1,1.6-1.4s1.4-0.5,2.2-0.5c1.1,0,1.9,0.3,2.5,1
		s0.9,1.4,0.8,2.4c-0.1,1.1-0.7,2.3-1.9,3.6l-0.8,0.8l-4.1,3.9h6.2L243.5,91.8z"/>
	<path d="M249.1,91.9c-1.1,0-1.9-0.4-2.4-1.1s-0.8-1.8-0.7-3.2c0-0.4,0-0.9,0.1-1.3l0.3-2.1c0.3-1.8,0.8-3.2,1.6-4.1
		s1.8-1.3,3.1-1.3c1.1,0,1.9,0.4,2.4,1.1s0.8,1.8,0.7,3.2c0,0.4-0.1,0.9-0.1,1.3l-0.3,2.1c-0.3,1.9-0.9,3.3-1.6,4.2
		S250.4,92,249.1,91.9z M252.7,84.1c0.1-0.7,0.1-1.3,0.1-1.7c0-1.5-0.6-2.3-1.7-2.3c-0.8,0-1.5,0.3-2,0.9s-0.9,1.6-1.1,3l-0.4,2.5
		c-0.1,0.7-0.1,1.2-0.1,1.7c0,1.6,0.6,2.3,1.7,2.4c0.8,0,1.4-0.3,1.9-0.9s0.9-1.6,1.1-2.9L252.7,84.1z"/>
	<path d="M263.2,91.8h-8.1l0.2-1.2l4.7-4.6l0.9-0.9c1-1,1.5-1.9,1.6-2.7c0.1-0.6,0-1.2-0.4-1.6s-0.8-0.6-1.4-0.6
		c-0.8,0-1.4,0.2-1.9,0.7s-0.8,1.1-0.9,1.9l-1.6,0c0.1-0.8,0.3-1.5,0.7-2.1s0.9-1.1,1.6-1.4s1.4-0.5,2.2-0.5c1.1,0,1.9,0.3,2.5,1
		s0.9,1.4,0.8,2.4c-0.1,1.1-0.7,2.3-1.9,3.6l-0.8,0.8l-4.1,3.9h6.2L263.2,91.8z"/>
	<path d="M272.3,87.5h1.7l-0.2,1.3h-1.7l-0.5,3H270l0.5-3h-5.7l0.2-1l7-8.8h1.7L272.3,87.5z M266.9,87.5h3.8l1.1-6.3l-0.3,0.4
		L266.9,87.5z"/>
	<path d="M279.5,86.6c-0.2,1.4-0.6,2.8-1.1,4.1s-1.2,2.3-1.9,3.2s-1.6,1.5-2.5,2l-0.2-1c2-1.5,3.4-3.9,4-7.3
		c0.3-1.3,0.4-2.6,0.4-3.9c0-2.5-0.6-4.3-1.8-5.4l0.4-1c0.7,0.5,1.2,1.1,1.7,1.8s0.8,1.6,1,2.6s0.3,2,0.3,3.1
		C279.6,85.5,279.6,86,279.5,86.6L279.5,86.6z"/>
</g>
</svg>
