<?xml version="1.0" encoding="utf-8"?>
<!-- Generator: Adobe Illustrator 28.2.0, SVG Export Plug-In . SVG Version: 6.00 Build 0)  -->
<svg version="1.1" id="Layer_1" xmlns="http://www.w3.org/2000/svg" xmlns:xlink="http://www.w3.org/1999/xlink" x="0px" y="0px"
	 viewBox="0 0 273.9 37.6" style="enable-background:new 0 0 273.9 37.6;" xml:space="preserve">
<style type="text/css">
	.st0{fill:#F08621;}
	.st1{fill:url(#SVGID_1_);}
	
		.st2{fill:url(#SVGID_00000168118822983258252790000002535266548213661061_);stroke:url(#SVGID_00000155840102139756662720000002803111873972376196_);stroke-width:1.5629;stroke-miterlimit:18.7097;}
	.st3{fill:#F37F81;}
	
		.st4{clip-path:url(#SVGID_00000161601861276156216570000017135403677539366803_);fill:url(#SVGID_00000166649140287986229780000013079305012852807829_);}
	.st5{fill:#921F1E;stroke:#E32331;stroke-width:0.3376;stroke-linejoin:round;stroke-miterlimit:18.7097;}
	.st6{fill:#F5BBBB;stroke:#F5BBBB;stroke-width:0.3341;stroke-linecap:round;stroke-linejoin:round;stroke-miterlimit:28.6261;}
	.st7{fill:url(#SVGID_00000087395284036874815090000016283530508300162950_);}
</style>
<path class="st0" d="M0,0v37.6h273.9V0H0z M272.3,36H9V1.6h263.3V36z"/>
<g>
	<path d="M54,10.3h-1.4v3.9h-1v-3.9h-1.4V9.6H54V10.3z"/>
	<path d="M55.4,11.1c0.2-0.3,0.6-0.4,0.9-0.4c0.8,0,1.1,0.4,1.1,1.3v2.2h-0.9V12c0-0.2,0-0.3-0.1-0.4c-0.1-0.1-0.2-0.1-0.4-0.1
		c-0.3,0-0.5,0.1-0.6,0.3v2.5h-0.9V9.3h0.9V11.1z"/>
	<path d="M58.2,9.9c0-0.1,0-0.3,0.1-0.3c0.1-0.1,0.2-0.1,0.4-0.1c0.2,0,0.3,0,0.4,0.1c0.1,0.1,0.1,0.2,0.1,0.3c0,0.1,0,0.3-0.1,0.3
		s-0.2,0.1-0.4,0.1s-0.3,0-0.4-0.1C58.3,10.1,58.2,10,58.2,9.9z M59.2,14.2h-0.9v-3.5h0.9V14.2z"/>
	<path d="M61.8,13.3c0-0.1-0.1-0.2-0.2-0.3c-0.1-0.1-0.3-0.1-0.5-0.2c-0.8-0.2-1.2-0.5-1.2-1.1c0-0.3,0.1-0.6,0.4-0.8
		c0.3-0.2,0.6-0.3,1-0.3c0.4,0,0.8,0.1,1.1,0.3c0.3,0.2,0.4,0.5,0.4,0.8h-0.9c0-0.1,0-0.2-0.1-0.3c-0.1-0.1-0.2-0.1-0.4-0.1
		c-0.2,0-0.3,0-0.4,0.1c-0.1,0.1-0.1,0.2-0.1,0.3c0,0.1,0,0.2,0.1,0.2c0.1,0.1,0.3,0.1,0.5,0.2c0.2,0,0.4,0.1,0.6,0.2
		c0.5,0.2,0.7,0.5,0.7,0.9c0,0.3-0.1,0.6-0.4,0.8c-0.3,0.2-0.6,0.3-1.1,0.3c-0.3,0-0.6-0.1-0.8-0.2c-0.2-0.1-0.4-0.2-0.5-0.4
		c-0.1-0.2-0.2-0.4-0.2-0.6h0.9c0,0.2,0.1,0.3,0.2,0.4c0.1,0.1,0.3,0.1,0.5,0.1c0.2,0,0.3,0,0.4-0.1C61.8,13.5,61.8,13.4,61.8,13.3z
		"/>
	<path d="M67,14.2c0-0.1-0.1-0.2-0.1-0.3c-0.2,0.3-0.5,0.4-0.9,0.4c-0.3,0-0.6-0.1-0.8-0.3c-0.2-0.2-0.3-0.4-0.3-0.7
		c0-0.4,0.1-0.7,0.4-0.8c0.3-0.2,0.7-0.3,1.2-0.3h0.4v-0.2c0-0.2,0-0.3-0.1-0.4c-0.1-0.1-0.2-0.1-0.4-0.1c-0.2,0-0.3,0-0.4,0.1
		c-0.1,0.1-0.1,0.2-0.1,0.3h-0.9c0-0.2,0.1-0.4,0.2-0.6s0.3-0.3,0.5-0.4c0.2-0.1,0.5-0.1,0.8-0.1c0.4,0,0.8,0.1,1,0.3
		c0.3,0.2,0.4,0.5,0.4,0.9v1.5c0,0.3,0,0.6,0.1,0.7v0.1H67z M66.2,13.6c0.1,0,0.3,0,0.4-0.1c0.1-0.1,0.2-0.1,0.3-0.2v-0.6h-0.3
		c-0.5,0-0.7,0.2-0.7,0.5l0,0.1c0,0.1,0,0.2,0.1,0.3C66,13.5,66.1,13.6,66.2,13.6z"/>
	<path d="M70.5,11.6c-0.1,0-0.2,0-0.3,0c-0.4,0-0.6,0.1-0.7,0.4v2.3h-0.9v-3.5h0.9l0,0.4c0.2-0.3,0.4-0.5,0.8-0.5c0.1,0,0.2,0,0.3,0
		L70.5,11.6z"/>
	<path d="M72.2,9.9v0.9h0.6v0.7h-0.6v1.7c0,0.1,0,0.2,0.1,0.3s0.1,0.1,0.3,0.1c0.1,0,0.2,0,0.3,0v0.7c-0.2,0.1-0.4,0.1-0.6,0.1
		c-0.7,0-1-0.3-1-1v-1.9h-0.5v-0.7h0.5V9.9H72.2z"/>
	<path d="M73.3,9.9c0-0.1,0-0.3,0.1-0.3c0.1-0.1,0.2-0.1,0.4-0.1c0.2,0,0.3,0,0.4,0.1s0.1,0.2,0.1,0.3c0,0.1,0,0.3-0.1,0.3
		c-0.1,0.1-0.2,0.1-0.4,0.1c-0.2,0-0.3,0-0.4-0.1C73.3,10.1,73.3,10,73.3,9.9z M74.3,14.2h-0.9v-3.5h0.9V14.2z"/>
	<path d="M76.5,13.5c0.2,0,0.3,0,0.4-0.1c0.1-0.1,0.2-0.2,0.2-0.4h0.9c0,0.2-0.1,0.5-0.2,0.6c-0.1,0.2-0.3,0.3-0.5,0.5
		c-0.2,0.1-0.5,0.2-0.7,0.2c-0.5,0-0.9-0.2-1.2-0.5c-0.3-0.3-0.4-0.8-0.4-1.3v-0.1c0-0.5,0.1-1,0.4-1.3s0.7-0.5,1.2-0.5
		c0.4,0,0.8,0.1,1,0.4c0.3,0.2,0.4,0.6,0.4,1h-0.9c0-0.2-0.1-0.3-0.2-0.4c-0.1-0.1-0.2-0.2-0.4-0.2c-0.2,0-0.4,0.1-0.5,0.2
		c-0.1,0.2-0.2,0.4-0.2,0.8v0.1c0,0.4,0.1,0.6,0.2,0.8C76.1,13.5,76.3,13.5,76.5,13.5z"/>
	<path d="M79.4,14.2h-0.9V9.3h0.9V14.2z"/>
	<path d="M81.8,14.3c-0.5,0-0.9-0.2-1.2-0.5c-0.3-0.3-0.5-0.7-0.5-1.2v-0.1c0-0.3,0.1-0.7,0.2-0.9s0.3-0.5,0.6-0.6
		c0.2-0.1,0.5-0.2,0.8-0.2c0.5,0,0.8,0.1,1.1,0.4c0.3,0.3,0.4,0.7,0.4,1.3v0.4H81c0,0.2,0.1,0.4,0.3,0.5c0.2,0.1,0.3,0.2,0.6,0.2
		c0.4,0,0.6-0.1,0.8-0.4l0.5,0.5c-0.1,0.2-0.3,0.4-0.6,0.5C82.4,14.2,82.1,14.3,81.8,14.3z M81.7,11.4c-0.2,0-0.3,0.1-0.4,0.2
		c-0.1,0.1-0.2,0.3-0.2,0.5h1.3v-0.1c0-0.2-0.1-0.4-0.2-0.5C82.1,11.5,81.9,11.4,81.7,11.4z"/>
	<path d="M85.4,9.9c0-0.1,0-0.3,0.1-0.3c0.1-0.1,0.2-0.1,0.4-0.1c0.2,0,0.3,0,0.4,0.1s0.1,0.2,0.1,0.3c0,0.1,0,0.3-0.1,0.3
		s-0.2,0.1-0.4,0.1s-0.3,0-0.4-0.1C85.4,10.1,85.4,10,85.4,9.9z M86.4,14.2h-0.9v-3.5h0.9V14.2z"/>
	<path d="M89,13.3c0-0.1-0.1-0.2-0.2-0.3c-0.1-0.1-0.3-0.1-0.5-0.2c-0.8-0.2-1.2-0.5-1.2-1.1c0-0.3,0.1-0.6,0.4-0.8
		c0.3-0.2,0.6-0.3,1-0.3c0.4,0,0.8,0.1,1.1,0.3c0.3,0.2,0.4,0.5,0.4,0.8H89c0-0.1,0-0.2-0.1-0.3c-0.1-0.1-0.2-0.1-0.4-0.1
		c-0.2,0-0.3,0-0.4,0.1S88,11.6,88,11.7c0,0.1,0,0.2,0.1,0.2c0.1,0.1,0.3,0.1,0.5,0.2c0.2,0,0.4,0.1,0.6,0.2
		c0.5,0.2,0.7,0.5,0.7,0.9c0,0.3-0.1,0.6-0.4,0.8c-0.3,0.2-0.6,0.3-1.1,0.3c-0.3,0-0.6-0.1-0.8-0.2c-0.2-0.1-0.4-0.2-0.5-0.4
		C87,13.5,87,13.3,87,13.1h0.9c0,0.2,0.1,0.3,0.2,0.4c0.1,0.1,0.3,0.1,0.5,0.1c0.2,0,0.3,0,0.4-0.1C89,13.5,89,13.4,89,13.3z"/>
	<path d="M92,12.5c0-0.3,0.1-0.7,0.2-0.9c0.1-0.3,0.3-0.5,0.6-0.6c0.2-0.1,0.5-0.2,0.9-0.2c0.5,0,0.9,0.1,1.1,0.4s0.5,0.7,0.5,1.2
		l0,0.2c0,0.5-0.1,1-0.4,1.3c-0.3,0.3-0.7,0.5-1.2,0.5c-0.5,0-0.9-0.2-1.2-0.5C92.2,13.5,92,13.1,92,12.5L92,12.5z M93,12.5
		c0,0.3,0.1,0.6,0.2,0.8s0.3,0.3,0.5,0.3c0.2,0,0.4-0.1,0.5-0.3s0.2-0.4,0.2-0.8c0-0.3-0.1-0.6-0.2-0.8c-0.1-0.2-0.3-0.3-0.5-0.3
		c-0.2,0-0.4,0.1-0.5,0.3S93,12.2,93,12.5z"/>
	<path d="M98,13.9c-0.2,0.3-0.5,0.4-1,0.4c-0.4,0-0.7-0.1-0.9-0.3c-0.2-0.2-0.3-0.5-0.3-0.9v-2.3h0.9V13c0,0.4,0.2,0.5,0.5,0.5
		c0.3,0,0.5-0.1,0.6-0.3v-2.5h0.9v3.5H98L98,13.9z"/>
	<path d="M100.7,9.9v0.9h0.6v0.7h-0.6v1.7c0,0.1,0,0.2,0.1,0.3s0.1,0.1,0.3,0.1c0.1,0,0.2,0,0.3,0v0.7c-0.2,0.1-0.4,0.1-0.6,0.1
		c-0.7,0-1-0.3-1-1v-1.9h-0.5v-0.7h0.5V9.9H100.7z"/>
	<path d="M101.7,12.5c0-0.5,0.1-1,0.4-1.3c0.2-0.3,0.6-0.5,1-0.5c0.3,0,0.6,0.1,0.8,0.4V9.3h0.9v4.9h-0.8l0-0.4
		c-0.2,0.3-0.5,0.4-0.9,0.4c-0.4,0-0.7-0.2-1-0.5C101.8,13.5,101.7,13,101.7,12.5z M102.6,12.5c0,0.3,0.1,0.6,0.2,0.7
		c0.1,0.2,0.3,0.3,0.5,0.3c0.3,0,0.5-0.1,0.6-0.4v-1.4c-0.1-0.2-0.3-0.4-0.6-0.4C102.8,11.4,102.6,11.8,102.6,12.5z"/>
	<path d="M107.5,14.2c0-0.1-0.1-0.2-0.1-0.3c-0.2,0.3-0.5,0.4-0.9,0.4c-0.3,0-0.6-0.1-0.8-0.3c-0.2-0.2-0.3-0.4-0.3-0.7
		c0-0.4,0.1-0.7,0.4-0.8c0.3-0.2,0.7-0.3,1.2-0.3h0.4v-0.2c0-0.2,0-0.3-0.1-0.4c-0.1-0.1-0.2-0.1-0.4-0.1c-0.2,0-0.3,0-0.4,0.1
		c-0.1,0.1-0.1,0.2-0.1,0.3h-0.9c0-0.2,0.1-0.4,0.2-0.6c0.1-0.2,0.3-0.3,0.5-0.4c0.2-0.1,0.5-0.1,0.8-0.1c0.4,0,0.8,0.1,1,0.3
		c0.3,0.2,0.4,0.5,0.4,0.9v1.5c0,0.3,0,0.6,0.1,0.7v0.1H107.5z M106.8,13.6c0.1,0,0.3,0,0.4-0.1c0.1-0.1,0.2-0.1,0.3-0.2v-0.6H107
		c-0.5,0-0.7,0.2-0.7,0.5l0,0.1c0,0.1,0,0.2,0.1,0.3C106.5,13.5,106.6,13.6,106.8,13.6z"/>
	<path d="M110.1,9.9v0.9h0.6v0.7h-0.6v1.7c0,0.1,0,0.2,0.1,0.3s0.1,0.1,0.3,0.1c0.1,0,0.2,0,0.3,0v0.7c-0.2,0.1-0.4,0.1-0.6,0.1
		c-0.7,0-1-0.3-1-1v-1.9h-0.5v-0.7h0.5V9.9H110.1z"/>
	<path d="M112.9,14.3c-0.5,0-0.9-0.2-1.2-0.5c-0.3-0.3-0.5-0.7-0.5-1.2v-0.1c0-0.3,0.1-0.7,0.2-0.9s0.3-0.5,0.6-0.6
		c0.2-0.1,0.5-0.2,0.8-0.2c0.5,0,0.8,0.1,1.1,0.4c0.3,0.3,0.4,0.7,0.4,1.3v0.4h-2.2c0,0.2,0.1,0.4,0.3,0.5c0.2,0.1,0.3,0.2,0.6,0.2
		c0.4,0,0.6-0.1,0.8-0.4l0.5,0.5c-0.1,0.2-0.3,0.4-0.6,0.5C113.4,14.2,113.1,14.3,112.9,14.3z M112.8,11.4c-0.2,0-0.3,0.1-0.4,0.2
		c-0.1,0.1-0.2,0.3-0.2,0.5h1.3v-0.1c0-0.2-0.1-0.4-0.2-0.5C113.1,11.5,112.9,11.4,112.8,11.4z"/>
	<path d="M114.7,12.5c0-0.5,0.1-1,0.4-1.3c0.2-0.3,0.6-0.5,1-0.5c0.3,0,0.6,0.1,0.8,0.4V9.3h0.9v4.9H117l0-0.4
		c-0.2,0.3-0.5,0.4-0.9,0.4c-0.4,0-0.7-0.2-1-0.5C114.8,13.5,114.7,13,114.7,12.5z M115.6,12.5c0,0.3,0.1,0.6,0.2,0.7
		c0.1,0.2,0.3,0.3,0.5,0.3c0.3,0,0.5-0.1,0.6-0.4v-1.4c-0.1-0.2-0.3-0.4-0.6-0.4C115.8,11.4,115.6,11.8,115.6,12.5z"/>
	<path d="M122.2,14.2c0-0.1-0.1-0.2-0.1-0.3c-0.2,0.3-0.5,0.4-0.9,0.4c-0.3,0-0.6-0.1-0.8-0.3c-0.2-0.2-0.3-0.4-0.3-0.7
		c0-0.4,0.1-0.7,0.4-0.8c0.3-0.2,0.7-0.3,1.2-0.3h0.4v-0.2c0-0.2,0-0.3-0.1-0.4c-0.1-0.1-0.2-0.1-0.4-0.1c-0.2,0-0.3,0-0.4,0.1
		c-0.1,0.1-0.1,0.2-0.1,0.3h-0.9c0-0.2,0.1-0.4,0.2-0.6c0.1-0.2,0.3-0.3,0.5-0.4c0.2-0.1,0.5-0.1,0.8-0.1c0.4,0,0.8,0.1,1,0.3
		c0.3,0.2,0.4,0.5,0.4,0.9v1.5c0,0.3,0,0.6,0.1,0.7v0.1H122.2z M121.4,13.6c0.1,0,0.3,0,0.4-0.1c0.1-0.1,0.2-0.1,0.3-0.2v-0.6h-0.3
		c-0.5,0-0.7,0.2-0.7,0.5l0,0.1c0,0.1,0,0.2,0.1,0.3C121.2,13.5,121.3,13.6,121.4,13.6z"/>
	<path d="M124.5,10.8l0,0.4c0.2-0.3,0.6-0.5,1-0.5c0.4,0,0.6,0.1,0.8,0.3c0.2,0.2,0.3,0.5,0.3,1v2.2h-0.9V12c0-0.2,0-0.3-0.1-0.4
		c-0.1-0.1-0.2-0.1-0.4-0.1c-0.3,0-0.5,0.1-0.6,0.3v2.5h-0.9v-3.5H124.5z"/>
	<path d="M127.2,12.5c0-0.5,0.1-1,0.4-1.3c0.2-0.3,0.6-0.5,1-0.5c0.3,0,0.6,0.1,0.8,0.4V9.3h0.9v4.9h-0.8l0-0.4
		c-0.2,0.3-0.5,0.4-0.9,0.4c-0.4,0-0.7-0.2-1-0.5C127.4,13.5,127.2,13,127.2,12.5z M128.2,12.5c0,0.3,0.1,0.6,0.2,0.7
		c0.1,0.2,0.3,0.3,0.5,0.3c0.3,0,0.5-0.1,0.6-0.4v-1.4c-0.1-0.2-0.3-0.4-0.6-0.4C128.4,11.4,128.2,11.8,128.2,12.5z"/>
	<path d="M132.7,9.9c0-0.1,0-0.3,0.1-0.3c0.1-0.1,0.2-0.1,0.4-0.1c0.2,0,0.3,0,0.4,0.1s0.1,0.2,0.1,0.3c0,0.1,0,0.3-0.1,0.3
		c-0.1,0.1-0.2,0.1-0.4,0.1c-0.2,0-0.3,0-0.4-0.1C132.8,10.1,132.7,10,132.7,9.9z M133.7,14.2h-0.9v-3.5h0.9V14.2z"/>
	<path d="M135.6,9.9v0.9h0.6v0.7h-0.6v1.7c0,0.1,0,0.2,0.1,0.3c0,0.1,0.1,0.1,0.3,0.1c0.1,0,0.2,0,0.3,0v0.7
		c-0.2,0.1-0.4,0.1-0.6,0.1c-0.7,0-1-0.3-1-1v-1.9h-0.5v-0.7h0.5V9.9H135.6z"/>
	<path d="M138.6,13.3c0-0.1-0.1-0.2-0.2-0.3c-0.1-0.1-0.3-0.1-0.5-0.2c-0.8-0.2-1.2-0.5-1.2-1.1c0-0.3,0.1-0.6,0.4-0.8
		c0.3-0.2,0.6-0.3,1-0.3c0.4,0,0.8,0.1,1.1,0.3c0.3,0.2,0.4,0.5,0.4,0.8h-0.9c0-0.1,0-0.2-0.1-0.3c-0.1-0.1-0.2-0.1-0.4-0.1
		c-0.2,0-0.3,0-0.4,0.1s-0.1,0.2-0.1,0.3c0,0.1,0,0.2,0.1,0.2c0.1,0.1,0.3,0.1,0.5,0.2c0.2,0,0.4,0.1,0.6,0.2
		c0.5,0.2,0.7,0.5,0.7,0.9c0,0.3-0.1,0.6-0.4,0.8c-0.3,0.2-0.6,0.3-1.1,0.3c-0.3,0-0.6-0.1-0.8-0.2c-0.2-0.1-0.4-0.2-0.5-0.4
		c-0.1-0.2-0.2-0.4-0.2-0.6h0.9c0,0.2,0.1,0.3,0.2,0.4c0.1,0.1,0.3,0.1,0.5,0.1c0.2,0,0.3,0,0.4-0.1
		C138.5,13.5,138.6,13.4,138.6,13.3z"/>
	<path d="M141.7,9.9c0-0.1,0-0.3,0.1-0.3c0.1-0.1,0.2-0.1,0.4-0.1c0.2,0,0.3,0,0.4,0.1s0.1,0.2,0.1,0.3c0,0.1,0,0.3-0.1,0.3
		c-0.1,0.1-0.2,0.1-0.4,0.1c-0.2,0-0.3,0-0.4-0.1C141.8,10.1,141.7,10,141.7,9.9z M142.7,14.2h-0.9v-3.5h0.9V14.2z"/>
	<path d="M144.3,10.8l0,0.4c0.2-0.3,0.6-0.5,1-0.5c0.4,0,0.6,0.1,0.8,0.3c0.2,0.2,0.3,0.5,0.3,1v2.2h-0.9V12c0-0.2,0-0.3-0.1-0.4
		c-0.1-0.1-0.2-0.1-0.4-0.1c-0.3,0-0.5,0.1-0.6,0.3v2.5h-0.9v-3.5H144.3z"/>
	<path d="M147.4,14.2v-2.8h-0.5v-0.7h0.5v-0.3c0-0.4,0.1-0.7,0.3-0.9c0.2-0.2,0.5-0.3,0.9-0.3c0.1,0,0.3,0,0.5,0.1l0,0.7
		c-0.1,0-0.2,0-0.3,0c-0.3,0-0.5,0.2-0.5,0.5v0.3h0.7v0.7h-0.7v2.8H147.4z"/>
	<path d="M149.4,12.5c0-0.3,0.1-0.7,0.2-0.9c0.1-0.3,0.3-0.5,0.6-0.6c0.2-0.1,0.5-0.2,0.9-0.2c0.5,0,0.9,0.1,1.1,0.4
		c0.3,0.3,0.5,0.7,0.5,1.2l0,0.2c0,0.5-0.1,1-0.4,1.3c-0.3,0.3-0.7,0.5-1.2,0.5s-0.9-0.2-1.2-0.5C149.5,13.5,149.4,13.1,149.4,12.5
		L149.4,12.5z M150.3,12.5c0,0.3,0.1,0.6,0.2,0.8c0.1,0.2,0.3,0.3,0.5,0.3c0.2,0,0.4-0.1,0.5-0.3c0.1-0.2,0.2-0.4,0.2-0.8
		c0-0.3-0.1-0.6-0.2-0.8c-0.1-0.2-0.3-0.3-0.5-0.3c-0.2,0-0.4,0.1-0.5,0.3C150.3,11.9,150.3,12.2,150.3,12.5z"/>
	<path d="M155.2,11.6c-0.1,0-0.2,0-0.3,0c-0.4,0-0.6,0.1-0.7,0.4v2.3h-0.9v-3.5h0.9l0,0.4c0.2-0.3,0.4-0.5,0.8-0.5
		c0.1,0,0.2,0,0.3,0L155.2,11.6z"/>
	<path d="M156.5,10.8l0,0.4c0.2-0.3,0.6-0.5,1-0.5c0.4,0,0.8,0.2,0.9,0.5c0.2-0.4,0.6-0.5,1-0.5c0.4,0,0.7,0.1,0.8,0.3
		c0.2,0.2,0.3,0.6,0.3,1v2.2h-0.9V12c0-0.2,0-0.3-0.1-0.4c-0.1-0.1-0.2-0.1-0.4-0.1c-0.3,0-0.5,0.1-0.6,0.4l0,2.4h-0.9V12
		c0-0.2,0-0.3-0.1-0.4c-0.1-0.1-0.2-0.1-0.4-0.1c-0.3,0-0.5,0.1-0.6,0.3v2.5h-0.9v-3.5H156.5z"/>
	<path d="M163.3,14.2c0-0.1-0.1-0.2-0.1-0.3c-0.2,0.3-0.5,0.4-0.9,0.4c-0.3,0-0.6-0.1-0.8-0.3c-0.2-0.2-0.3-0.4-0.3-0.7
		c0-0.4,0.1-0.7,0.4-0.8c0.3-0.2,0.7-0.3,1.2-0.3h0.4v-0.2c0-0.2,0-0.3-0.1-0.4c-0.1-0.1-0.2-0.1-0.4-0.1c-0.2,0-0.3,0-0.4,0.1
		c-0.1,0.1-0.1,0.2-0.1,0.3h-0.9c0-0.2,0.1-0.4,0.2-0.6c0.1-0.2,0.3-0.3,0.5-0.4c0.2-0.1,0.5-0.1,0.8-0.1c0.4,0,0.8,0.1,1,0.3
		c0.3,0.2,0.4,0.5,0.4,0.9v1.5c0,0.3,0,0.6,0.1,0.7v0.1H163.3z M162.6,13.6c0.1,0,0.3,0,0.4-0.1c0.1-0.1,0.2-0.1,0.3-0.2v-0.6h-0.3
		c-0.5,0-0.7,0.2-0.7,0.5l0,0.1c0,0.1,0,0.2,0.1,0.3C162.3,13.5,162.4,13.6,162.6,13.6z"/>
	<path d="M166,9.9v0.9h0.6v0.7H166v1.7c0,0.1,0,0.2,0.1,0.3c0,0.1,0.1,0.1,0.3,0.1c0.1,0,0.2,0,0.3,0v0.7c-0.2,0.1-0.4,0.1-0.6,0.1
		c-0.7,0-1-0.3-1-1v-1.9h-0.5v-0.7h0.5V9.9H166z"/>
	<path d="M167.1,9.9c0-0.1,0-0.3,0.1-0.3c0.1-0.1,0.2-0.1,0.4-0.1c0.2,0,0.3,0,0.4,0.1c0.1,0.1,0.1,0.2,0.1,0.3c0,0.1,0,0.3-0.1,0.3
		c-0.1,0.1-0.2,0.1-0.4,0.1c-0.2,0-0.3,0-0.4-0.1C167.1,10.1,167.1,10,167.1,9.9z M168,14.2h-0.9v-3.5h0.9V14.2z"/>
	<path d="M168.7,12.5c0-0.3,0.1-0.7,0.2-0.9c0.1-0.3,0.3-0.5,0.6-0.6c0.2-0.1,0.5-0.2,0.9-0.2c0.5,0,0.9,0.1,1.1,0.4
		c0.3,0.3,0.5,0.7,0.5,1.2l0,0.2c0,0.5-0.1,1-0.4,1.3c-0.3,0.3-0.7,0.5-1.2,0.5s-0.9-0.2-1.2-0.5C168.8,13.5,168.7,13.1,168.7,12.5
		L168.7,12.5z M169.6,12.5c0,0.3,0.1,0.6,0.2,0.8c0.1,0.2,0.3,0.3,0.5,0.3c0.2,0,0.4-0.1,0.5-0.3c0.1-0.2,0.2-0.4,0.2-0.8
		c0-0.3-0.1-0.6-0.2-0.8c-0.1-0.2-0.3-0.3-0.5-0.3c-0.2,0-0.4,0.1-0.5,0.3C169.7,11.9,169.6,12.2,169.6,12.5z"/>
	<path d="M173.4,10.8l0,0.4c0.2-0.3,0.6-0.5,1-0.5c0.4,0,0.6,0.1,0.8,0.3c0.2,0.2,0.3,0.5,0.3,1v2.2h-0.9V12c0-0.2,0-0.3-0.1-0.4
		c-0.1-0.1-0.2-0.1-0.4-0.1c-0.3,0-0.5,0.1-0.6,0.3v2.5h-0.9v-3.5H173.4z"/>
	<path d="M179.9,14.2c0-0.1-0.1-0.2-0.1-0.3c-0.2,0.3-0.5,0.4-0.9,0.4c-0.3,0-0.6-0.1-0.8-0.3c-0.2-0.2-0.3-0.4-0.3-0.7
		c0-0.4,0.1-0.7,0.4-0.8c0.3-0.2,0.7-0.3,1.2-0.3h0.4v-0.2c0-0.2,0-0.3-0.1-0.4c-0.1-0.1-0.2-0.1-0.4-0.1c-0.2,0-0.3,0-0.4,0.1
		c-0.1,0.1-0.1,0.2-0.1,0.3h-0.9c0-0.2,0.1-0.4,0.2-0.6c0.1-0.2,0.3-0.3,0.5-0.4c0.2-0.1,0.5-0.1,0.8-0.1c0.4,0,0.8,0.1,1,0.3
		c0.3,0.2,0.4,0.5,0.4,0.9v1.5c0,0.3,0,0.6,0.1,0.7v0.1H179.9z M179.1,13.6c0.1,0,0.3,0,0.4-0.1c0.1-0.1,0.2-0.1,0.3-0.2v-0.6h-0.3
		c-0.5,0-0.7,0.2-0.7,0.5l0,0.1c0,0.1,0,0.2,0.1,0.3C178.8,13.5,179,13.6,179.1,13.6z"/>
	<path d="M182.2,10.8l0,0.4c0.2-0.3,0.6-0.5,1-0.5c0.4,0,0.6,0.1,0.8,0.3c0.2,0.2,0.3,0.5,0.3,1v2.2h-0.9V12c0-0.2,0-0.3-0.1-0.4
		c-0.1-0.1-0.2-0.1-0.4-0.1c-0.3,0-0.5,0.1-0.6,0.3v2.5h-0.9v-3.5H182.2z"/>
	<path d="M184.9,12.5c0-0.5,0.1-1,0.4-1.3c0.2-0.3,0.6-0.5,1-0.5c0.3,0,0.6,0.1,0.8,0.4V9.3h0.9v4.9h-0.8l0-0.4
		c-0.2,0.3-0.5,0.4-0.9,0.4c-0.4,0-0.7-0.2-1-0.5C185,13.5,184.9,13,184.9,12.5z M185.9,12.5c0,0.3,0.1,0.6,0.2,0.7
		c0.1,0.2,0.3,0.3,0.5,0.3c0.3,0,0.5-0.1,0.6-0.4v-1.4c-0.1-0.2-0.3-0.4-0.6-0.4C186.1,11.4,185.9,11.8,185.9,12.5z"/>
	<path d="M191.3,10.8l0,0.4c0.2-0.3,0.6-0.5,1-0.5c0.4,0,0.8,0.2,0.9,0.5c0.2-0.4,0.6-0.5,1-0.5c0.4,0,0.7,0.1,0.8,0.3
		c0.2,0.2,0.3,0.6,0.3,1v2.2h-0.9V12c0-0.2,0-0.3-0.1-0.4c-0.1-0.1-0.2-0.1-0.4-0.1c-0.3,0-0.5,0.1-0.6,0.4l0,2.4h-0.9V12
		c0-0.2,0-0.3-0.1-0.4c-0.1-0.1-0.2-0.1-0.4-0.1c-0.3,0-0.5,0.1-0.6,0.3v2.5h-0.9v-3.5H191.3z"/>
	<path d="M198.1,14.2c0-0.1-0.1-0.2-0.1-0.3c-0.2,0.3-0.5,0.4-0.9,0.4c-0.3,0-0.6-0.1-0.8-0.3c-0.2-0.2-0.3-0.4-0.3-0.7
		c0-0.4,0.1-0.7,0.4-0.8c0.3-0.2,0.7-0.3,1.2-0.3h0.4v-0.2c0-0.2,0-0.3-0.1-0.4c-0.1-0.1-0.2-0.1-0.4-0.1c-0.2,0-0.3,0-0.4,0.1
		c-0.1,0.1-0.1,0.2-0.1,0.3H196c0-0.2,0.1-0.4,0.2-0.6s0.3-0.3,0.5-0.4c0.2-0.1,0.5-0.1,0.8-0.1c0.4,0,0.8,0.1,1,0.3
		c0.3,0.2,0.4,0.5,0.4,0.9v1.5c0,0.3,0,0.6,0.1,0.7v0.1H198.1z M197.4,13.6c0.1,0,0.3,0,0.4-0.1c0.1-0.1,0.2-0.1,0.3-0.2v-0.6h-0.3
		c-0.5,0-0.7,0.2-0.7,0.5l0,0.1c0,0.1,0,0.2,0.1,0.3C197.1,13.5,197.2,13.6,197.4,13.6z"/>
	<path d="M200.9,12.9l0.6-2.2h1l-1.4,4l-0.1,0.2c-0.2,0.5-0.6,0.7-1,0.7c-0.1,0-0.3,0-0.4-0.1v-0.7l0.1,0c0.2,0,0.3,0,0.4-0.1
		c0.1-0.1,0.2-0.1,0.2-0.3l0.1-0.3l-1.2-3.5h1L200.9,12.9z"/>
	<path d="M205.4,10.8l0,0.4c0.2-0.3,0.6-0.5,1-0.5c0.4,0,0.6,0.1,0.8,0.3c0.2,0.2,0.3,0.5,0.3,1v2.2h-0.9V12c0-0.2,0-0.3-0.1-0.4
		c-0.1-0.1-0.2-0.1-0.4-0.1c-0.3,0-0.5,0.1-0.6,0.3v2.5h-0.9v-3.5H205.4z"/>
	<path d="M208.1,12.5c0-0.3,0.1-0.7,0.2-0.9c0.1-0.3,0.3-0.5,0.6-0.6c0.2-0.1,0.5-0.2,0.9-0.2c0.5,0,0.9,0.1,1.1,0.4
		c0.3,0.3,0.5,0.7,0.5,1.2l0,0.2c0,0.5-0.1,1-0.4,1.3c-0.3,0.3-0.7,0.5-1.2,0.5s-0.9-0.2-1.2-0.5C208.2,13.5,208.1,13.1,208.1,12.5
		L208.1,12.5z M209,12.5c0,0.3,0.1,0.6,0.2,0.8s0.3,0.3,0.5,0.3c0.2,0,0.4-0.1,0.5-0.3c0.1-0.2,0.2-0.4,0.2-0.8
		c0-0.3-0.1-0.6-0.2-0.8c-0.1-0.2-0.3-0.3-0.5-0.3c-0.2,0-0.4,0.1-0.5,0.3S209,12.2,209,12.5z"/>
	<path d="M214.6,14.2h-0.9V9.3h0.9V14.2z"/>
	<path d="M215.2,12.5c0-0.3,0.1-0.7,0.2-0.9c0.1-0.3,0.3-0.5,0.6-0.6c0.2-0.1,0.5-0.2,0.9-0.2c0.5,0,0.9,0.1,1.1,0.4
		c0.3,0.3,0.5,0.7,0.5,1.2l0,0.2c0,0.5-0.1,1-0.4,1.3c-0.3,0.3-0.7,0.5-1.2,0.5s-0.9-0.2-1.2-0.5C215.3,13.5,215.2,13.1,215.2,12.5
		L215.2,12.5z M216.1,12.5c0,0.3,0.1,0.6,0.2,0.8s0.3,0.3,0.5,0.3c0.2,0,0.4-0.1,0.5-0.3c0.1-0.2,0.2-0.4,0.2-0.8
		c0-0.3-0.1-0.6-0.2-0.8c-0.1-0.2-0.3-0.3-0.5-0.3c-0.2,0-0.4,0.1-0.5,0.3S216.1,12.2,216.1,12.5z"/>
	<path d="M219.9,10.8l0,0.4c0.2-0.3,0.6-0.5,1-0.5c0.4,0,0.6,0.1,0.8,0.3c0.2,0.2,0.3,0.5,0.3,1v2.2h-0.9V12c0-0.2,0-0.3-0.1-0.4
		c-0.1-0.1-0.2-0.1-0.4-0.1c-0.3,0-0.5,0.1-0.6,0.3v2.5H219v-3.5H219.9z"/>
	<path d="M222.6,12.5c0-0.5,0.1-1,0.4-1.3c0.3-0.3,0.6-0.5,1-0.5c0.4,0,0.7,0.1,0.9,0.4l0-0.3h0.8v3.4c0,0.3-0.1,0.6-0.2,0.8
		c-0.1,0.2-0.3,0.4-0.6,0.5c-0.3,0.1-0.5,0.2-0.9,0.2c-0.3,0-0.5-0.1-0.7-0.2s-0.4-0.2-0.5-0.4l0.4-0.6c0.2,0.3,0.5,0.4,0.8,0.4
		c0.2,0,0.4-0.1,0.6-0.2c0.1-0.1,0.2-0.3,0.2-0.6v-0.2c-0.2,0.2-0.5,0.4-0.8,0.4c-0.4,0-0.8-0.2-1-0.5
		C222.7,13.5,222.6,13,222.6,12.5L222.6,12.5z M223.5,12.5c0,0.3,0.1,0.6,0.2,0.7c0.1,0.2,0.3,0.3,0.5,0.3c0.3,0,0.5-0.1,0.6-0.3
		v-1.5c-0.1-0.2-0.3-0.3-0.6-0.3c-0.2,0-0.4,0.1-0.5,0.3C223.6,11.9,223.5,12.2,223.5,12.5z"/>
	<path d="M228.1,14.3c-0.5,0-0.9-0.2-1.2-0.5c-0.3-0.3-0.5-0.7-0.5-1.2v-0.1c0-0.3,0.1-0.7,0.2-0.9c0.1-0.3,0.3-0.5,0.6-0.6
		c0.2-0.1,0.5-0.2,0.8-0.2c0.5,0,0.9,0.1,1.1,0.4c0.3,0.3,0.4,0.7,0.4,1.3v0.4h-2.2c0,0.2,0.1,0.4,0.3,0.5c0.2,0.1,0.3,0.2,0.6,0.2
		c0.4,0,0.6-0.1,0.8-0.4l0.5,0.5c-0.1,0.2-0.3,0.4-0.6,0.5C228.6,14.2,228.4,14.3,228.1,14.3z M228,11.4c-0.2,0-0.3,0.1-0.4,0.2
		c-0.1,0.1-0.2,0.3-0.2,0.5h1.3v-0.1c0-0.2-0.1-0.4-0.2-0.5C228.3,11.5,228.2,11.4,228,11.4z"/>
	<path d="M232,11.6c-0.1,0-0.2,0-0.3,0c-0.4,0-0.6,0.1-0.7,0.4v2.3H230v-3.5h0.9l0,0.4c0.2-0.3,0.4-0.5,0.8-0.5c0.1,0,0.2,0,0.3,0
		L232,11.6z"/>
	<path d="M236,11.6c-0.1,0-0.2,0-0.3,0c-0.4,0-0.6,0.1-0.7,0.4v2.3h-0.9v-3.5h0.9l0,0.4c0.2-0.3,0.4-0.5,0.8-0.5c0.1,0,0.2,0,0.3,0
		L236,11.6z"/>
	<path d="M238,14.3c-0.5,0-0.9-0.2-1.2-0.5c-0.3-0.3-0.5-0.7-0.5-1.2v-0.1c0-0.3,0.1-0.7,0.2-0.9c0.1-0.3,0.3-0.5,0.6-0.6
		c0.2-0.1,0.5-0.2,0.8-0.2c0.5,0,0.9,0.1,1.1,0.4c0.3,0.3,0.4,0.7,0.4,1.3v0.4h-2.2c0,0.2,0.1,0.4,0.3,0.5c0.2,0.1,0.3,0.2,0.6,0.2
		c0.4,0,0.6-0.1,0.8-0.4l0.5,0.5c-0.1,0.2-0.3,0.4-0.6,0.5C238.6,14.2,238.3,14.3,238,14.3z M237.9,11.4c-0.2,0-0.3,0.1-0.4,0.2
		c-0.1,0.1-0.2,0.3-0.2,0.5h1.3v-0.1c0-0.2-0.1-0.4-0.2-0.5C238.3,11.5,238.1,11.4,237.9,11.4z"/>
	<path d="M241,14.2H240V9.3h0.9V14.2z"/>
	<path d="M243.3,14.3c-0.5,0-0.9-0.2-1.2-0.5c-0.3-0.3-0.5-0.7-0.5-1.2v-0.1c0-0.3,0.1-0.7,0.2-0.9c0.1-0.3,0.3-0.5,0.6-0.6
		c0.2-0.1,0.5-0.2,0.8-0.2c0.5,0,0.9,0.1,1.1,0.4c0.3,0.3,0.4,0.7,0.4,1.3v0.4h-2.2c0,0.2,0.1,0.4,0.3,0.5c0.2,0.1,0.3,0.2,0.6,0.2
		c0.4,0,0.6-0.1,0.8-0.4l0.5,0.5c-0.1,0.2-0.3,0.4-0.6,0.5C243.9,14.2,243.6,14.3,243.3,14.3z M243.2,11.4c-0.2,0-0.3,0.1-0.4,0.2
		c-0.1,0.1-0.2,0.3-0.2,0.5h1.3v-0.1c0-0.2-0.1-0.4-0.2-0.5C243.6,11.5,243.4,11.4,243.2,11.4z"/>
	<path d="M246.5,13.1l0.6-2.3h1l-1.2,3.5h-0.9l-1.2-3.5h1L246.5,13.1z"/>
	<path d="M250.5,14.2c0-0.1-0.1-0.2-0.1-0.3c-0.2,0.3-0.5,0.4-0.9,0.4c-0.3,0-0.6-0.1-0.8-0.3c-0.2-0.2-0.3-0.4-0.3-0.7
		c0-0.4,0.1-0.7,0.4-0.8c0.3-0.2,0.7-0.3,1.2-0.3h0.4v-0.2c0-0.2,0-0.3-0.1-0.4c-0.1-0.1-0.2-0.1-0.4-0.1c-0.2,0-0.3,0-0.4,0.1
		c-0.1,0.1-0.1,0.2-0.1,0.3h-0.9c0-0.2,0.1-0.4,0.2-0.6c0.1-0.2,0.3-0.3,0.5-0.4c0.2-0.1,0.5-0.1,0.8-0.1c0.4,0,0.8,0.1,1,0.3
		c0.3,0.2,0.4,0.5,0.4,0.9v1.5c0,0.3,0,0.6,0.1,0.7v0.1H250.5z M249.8,13.6c0.1,0,0.3,0,0.4-0.1c0.1-0.1,0.2-0.1,0.3-0.2v-0.6H250
		c-0.5,0-0.7,0.2-0.7,0.5l0,0.1c0,0.1,0,0.2,0.1,0.3C249.5,13.5,249.6,13.6,249.8,13.6z"/>
	<path d="M252.9,10.8l0,0.4c0.2-0.3,0.6-0.5,1-0.5c0.4,0,0.6,0.1,0.8,0.3c0.2,0.2,0.3,0.5,0.3,1v2.2h-0.9V12c0-0.2,0-0.3-0.1-0.4
		c-0.1-0.1-0.2-0.1-0.4-0.1c-0.3,0-0.5,0.1-0.6,0.3v2.5H252v-3.5H252.9z"/>
	<path d="M256.8,9.9v0.9h0.6v0.7h-0.6v1.7c0,0.1,0,0.2,0.1,0.3c0,0.1,0.1,0.1,0.3,0.1c0.1,0,0.2,0,0.3,0v0.7
		c-0.2,0.1-0.4,0.1-0.6,0.1c-0.7,0-1-0.3-1-1v-1.9h-0.5v-0.7h0.5V9.9H256.8z"/>
	<path d="M258,13.8c0-0.1,0-0.3,0.1-0.4c0.1-0.1,0.2-0.1,0.4-0.1c0.2,0,0.3,0,0.4,0.1c0.1,0.1,0.1,0.2,0.1,0.4c0,0.1,0,0.3-0.1,0.4
		c-0.1,0.1-0.2,0.1-0.4,0.1c-0.2,0-0.3,0-0.4-0.1C258,14,258,13.9,258,13.8z"/>
</g>
<g>
	<path d="M51.9,20.4V22h-0.5v-4h1.5c0.4,0,0.8,0.1,1,0.3c0.2,0.2,0.4,0.5,0.4,0.9c0,0.4-0.1,0.7-0.4,0.9c-0.2,0.2-0.6,0.3-1,0.3
		H51.9z M51.9,20h1c0.3,0,0.5-0.1,0.6-0.2c0.2-0.1,0.2-0.3,0.2-0.6c0-0.2-0.1-0.4-0.2-0.6c-0.2-0.1-0.4-0.2-0.6-0.2h-1V20z"/>
	<path d="M55.4,22h-0.5v-4.2h0.5V22z"/>
	<path d="M57.4,22c-0.4,0-0.7-0.1-1-0.4s-0.4-0.6-0.4-1.1v-0.1c0-0.3,0.1-0.6,0.2-0.8c0.1-0.2,0.3-0.4,0.5-0.5
		c0.2-0.1,0.4-0.2,0.7-0.2c0.4,0,0.7,0.1,0.9,0.4c0.2,0.3,0.3,0.6,0.3,1.1v0.2h-2c0,0.3,0.1,0.5,0.3,0.7c0.2,0.2,0.4,0.3,0.6,0.3
		c0.2,0,0.3,0,0.5-0.1c0.1-0.1,0.2-0.2,0.3-0.3l0.3,0.2C58.3,21.8,57.9,22,57.4,22z M57.4,19.4c-0.2,0-0.4,0.1-0.5,0.2
		c-0.1,0.1-0.2,0.4-0.3,0.6h1.5v0c0-0.3-0.1-0.5-0.2-0.6S57.6,19.4,57.4,19.4z"/>
	<path d="M61,22c0-0.1-0.1-0.2-0.1-0.3c-0.2,0.2-0.5,0.4-0.8,0.4c-0.3,0-0.5-0.1-0.7-0.2s-0.3-0.4-0.3-0.6c0-0.3,0.1-0.6,0.4-0.7
		s0.6-0.3,1-0.3H61v-0.2c0-0.2-0.1-0.3-0.2-0.4c-0.1-0.1-0.3-0.2-0.5-0.2c-0.2,0-0.3,0-0.5,0.1c-0.1,0.1-0.2,0.2-0.2,0.3h-0.5
		c0-0.1,0.1-0.3,0.2-0.4s0.2-0.2,0.4-0.3c0.2-0.1,0.4-0.1,0.6-0.1c0.3,0,0.6,0.1,0.8,0.3c0.2,0.2,0.3,0.4,0.3,0.7v1.4
		c0,0.3,0,0.5,0.1,0.7v0H61z M60.2,21.6c0.2,0,0.3,0,0.5-0.1s0.2-0.2,0.3-0.3v-0.6h-0.4c-0.6,0-0.9,0.2-0.9,0.5
		c0,0.2,0.1,0.3,0.2,0.4S60,21.6,60.2,21.6z"/>
	<path d="M64,21.2c0-0.1-0.1-0.2-0.2-0.3s-0.3-0.1-0.5-0.2c-0.3-0.1-0.5-0.1-0.6-0.2c-0.2-0.1-0.3-0.2-0.3-0.3
		c-0.1-0.1-0.1-0.2-0.1-0.4c0-0.2,0.1-0.5,0.3-0.6c0.2-0.2,0.5-0.3,0.8-0.3c0.3,0,0.6,0.1,0.8,0.3c0.2,0.2,0.3,0.4,0.3,0.7H64
		c0-0.1-0.1-0.3-0.2-0.4c-0.1-0.1-0.3-0.2-0.4-0.2c-0.2,0-0.3,0-0.4,0.1c-0.1,0.1-0.2,0.2-0.2,0.3c0,0.1,0,0.2,0.1,0.3
		c0.1,0.1,0.3,0.1,0.5,0.2s0.5,0.1,0.6,0.2c0.2,0.1,0.3,0.2,0.4,0.3c0.1,0.1,0.1,0.2,0.1,0.4c0,0.3-0.1,0.5-0.3,0.6
		C64,22,63.7,22,63.4,22c-0.2,0-0.4,0-0.6-0.1c-0.2-0.1-0.3-0.2-0.4-0.4s-0.2-0.3-0.2-0.5h0.5c0,0.2,0.1,0.3,0.2,0.4
		c0.1,0.1,0.3,0.2,0.5,0.2c0.2,0,0.3,0,0.5-0.1C63.9,21.4,64,21.3,64,21.2z"/>
	<path d="M66.4,22c-0.4,0-0.7-0.1-1-0.4C65.2,21.4,65,21,65,20.6v-0.1c0-0.3,0.1-0.6,0.2-0.8c0.1-0.2,0.3-0.4,0.5-0.5
		c0.2-0.1,0.4-0.2,0.7-0.2c0.4,0,0.7,0.1,0.9,0.4s0.3,0.6,0.3,1.1v0.2h-2c0,0.3,0.1,0.5,0.3,0.7c0.2,0.2,0.4,0.3,0.6,0.3
		c0.2,0,0.3,0,0.5-0.1c0.1-0.1,0.2-0.2,0.3-0.3l0.3,0.2C67.3,21.8,66.9,22,66.4,22z M66.3,19.4c-0.2,0-0.4,0.1-0.5,0.2
		c-0.1,0.1-0.2,0.4-0.3,0.6h1.5v0c0-0.3-0.1-0.5-0.2-0.6C66.7,19.4,66.6,19.4,66.3,19.4z"/>
	<path d="M70.1,19.4c0.2-0.3,0.5-0.4,0.9-0.4c0.6,0,0.9,0.4,1,1.1v2h-0.5v-2c0-0.2-0.1-0.4-0.1-0.5c-0.1-0.1-0.2-0.2-0.5-0.2
		c-0.2,0-0.3,0-0.4,0.1c-0.1,0.1-0.2,0.2-0.3,0.3V22h-0.5v-4.2h0.5V19.4z"/>
	<path d="M73.9,22c-0.4,0-0.7-0.1-1-0.4s-0.4-0.6-0.4-1.1v-0.1c0-0.3,0.1-0.6,0.2-0.8c0.1-0.2,0.3-0.4,0.5-0.5
		c0.2-0.1,0.4-0.2,0.7-0.2c0.4,0,0.7,0.1,0.9,0.4c0.2,0.3,0.3,0.6,0.3,1.1v0.2h-2c0,0.3,0.1,0.5,0.3,0.7c0.2,0.2,0.4,0.3,0.6,0.3
		c0.2,0,0.3,0,0.5-0.1c0.1-0.1,0.2-0.2,0.3-0.3l0.3,0.2C74.8,21.8,74.4,22,73.9,22z M73.8,19.4c-0.2,0-0.4,0.1-0.5,0.2
		c-0.1,0.1-0.2,0.4-0.3,0.6h1.5v0c0-0.3-0.1-0.5-0.2-0.6C74.2,19.4,74,19.4,73.8,19.4z"/>
	<path d="M76.2,22h-0.5v-4.2h0.5V22z"/>
	<path d="M79.5,20.5c0,0.5-0.1,0.8-0.3,1.1S78.7,22,78.4,22c-0.4,0-0.6-0.1-0.9-0.3v1.4H77V19h0.5l0,0.3c0.2-0.3,0.5-0.4,0.9-0.4
		c0.4,0,0.6,0.1,0.8,0.4C79.4,19.6,79.5,20,79.5,20.5L79.5,20.5z M79,20.5c0-0.3-0.1-0.6-0.2-0.8c-0.1-0.2-0.3-0.3-0.6-0.3
		c-0.3,0-0.5,0.1-0.7,0.4v1.4c0.2,0.3,0.4,0.4,0.7,0.4c0.2,0,0.4-0.1,0.6-0.3C79,21.1,79,20.9,79,20.5z"/>
	<path d="M83.4,21.7c-0.2,0.2-0.5,0.3-0.9,0.3c-0.3,0-0.6-0.1-0.7-0.3c-0.2-0.2-0.3-0.5-0.3-0.8V19h0.5v1.9c0,0.5,0.2,0.7,0.6,0.7
		c0.4,0,0.6-0.1,0.8-0.4V19h0.5v3h-0.5L83.4,21.7z"/>
	<path d="M87.2,20.5c0,0.5-0.1,0.8-0.3,1.1S86.4,22,86.1,22c-0.4,0-0.6-0.1-0.9-0.3v1.4h-0.5V19h0.5l0,0.3c0.2-0.3,0.5-0.4,0.9-0.4
		c0.4,0,0.6,0.1,0.8,0.4C87.1,19.6,87.2,20,87.2,20.5L87.2,20.5z M86.7,20.5c0-0.3-0.1-0.6-0.2-0.8c-0.1-0.2-0.3-0.3-0.6-0.3
		c-0.3,0-0.5,0.1-0.7,0.4v1.4c0.2,0.3,0.4,0.4,0.7,0.4c0.2,0,0.4-0.1,0.6-0.3C86.6,21.1,86.7,20.9,86.7,20.5z"/>
	<path d="M87.7,20.5c0-0.5,0.1-0.8,0.3-1.1c0.2-0.3,0.5-0.4,0.9-0.4c0.3,0,0.6,0.1,0.8,0.4v-1.6h0.5V22h-0.5l0-0.3
		c-0.2,0.2-0.5,0.4-0.9,0.4c-0.3,0-0.6-0.1-0.8-0.4C87.8,21.3,87.7,21,87.7,20.5L87.7,20.5z M88.2,20.5c0,0.3,0.1,0.6,0.2,0.8
		c0.1,0.2,0.3,0.3,0.6,0.3c0.3,0,0.6-0.1,0.7-0.4v-1.4c-0.2-0.3-0.4-0.4-0.7-0.4c-0.2,0-0.4,0.1-0.6,0.3
		C88.3,19.9,88.2,20.1,88.2,20.5z"/>
	<path d="M92.9,22c0-0.1-0.1-0.2-0.1-0.3C92.6,21.9,92.3,22,92,22c-0.3,0-0.5-0.1-0.7-0.2c-0.2-0.2-0.3-0.4-0.3-0.6
		c0-0.3,0.1-0.6,0.4-0.7s0.6-0.3,1-0.3h0.5v-0.2c0-0.2-0.1-0.3-0.2-0.4s-0.3-0.2-0.5-0.2c-0.2,0-0.3,0-0.5,0.1s-0.2,0.2-0.2,0.3H91
		c0-0.1,0.1-0.3,0.2-0.4c0.1-0.1,0.2-0.2,0.4-0.3c0.2-0.1,0.4-0.1,0.6-0.1c0.3,0,0.6,0.1,0.8,0.3c0.2,0.2,0.3,0.4,0.3,0.7v1.4
		c0,0.3,0,0.5,0.1,0.7v0H92.9z M92,21.6c0.2,0,0.3,0,0.5-0.1s0.2-0.2,0.3-0.3v-0.6h-0.4c-0.6,0-0.9,0.2-0.9,0.5
		c0,0.2,0.1,0.3,0.2,0.4S91.9,21.6,92,21.6z"/>
	<path d="M94.8,18.3V19h0.6v0.4h-0.6v1.9c0,0.1,0,0.2,0.1,0.3c0,0.1,0.1,0.1,0.3,0.1c0.1,0,0.1,0,0.2,0V22C95.2,22,95.1,22,95,22
		c-0.2,0-0.4-0.1-0.5-0.2c-0.1-0.1-0.2-0.3-0.2-0.6v-1.8h-0.5V19h0.5v-0.7H94.8z"/>
	<path d="M97.2,22c-0.4,0-0.7-0.1-1-0.4s-0.4-0.6-0.4-1.1v-0.1c0-0.3,0.1-0.6,0.2-0.8c0.1-0.2,0.3-0.4,0.5-0.5
		c0.2-0.1,0.4-0.2,0.7-0.2c0.4,0,0.7,0.1,0.9,0.4c0.2,0.3,0.3,0.6,0.3,1.1v0.2h-2c0,0.3,0.1,0.5,0.3,0.7c0.2,0.2,0.4,0.3,0.6,0.3
		c0.2,0,0.3,0,0.5-0.1c0.1-0.1,0.2-0.2,0.3-0.3l0.3,0.2C98.1,21.8,97.7,22,97.2,22z M97.1,19.4c-0.2,0-0.4,0.1-0.5,0.2
		c-0.1,0.1-0.2,0.4-0.3,0.6h1.5v0c0-0.3-0.1-0.5-0.2-0.6C97.5,19.4,97.3,19.4,97.1,19.4z"/>
	<path d="M101,18.3V19h0.6v0.4H101v1.9c0,0.1,0,0.2,0.1,0.3c0,0.1,0.1,0.1,0.3,0.1c0.1,0,0.1,0,0.2,0V22c-0.1,0-0.3,0.1-0.4,0.1
		c-0.2,0-0.4-0.1-0.5-0.2c-0.1-0.1-0.2-0.3-0.2-0.6v-1.8H100V19h0.5v-0.7H101z"/>
	<path d="M102.7,19.4c0.2-0.3,0.5-0.4,0.9-0.4c0.6,0,0.9,0.4,1,1.1v2H104v-2c0-0.2-0.1-0.4-0.1-0.5c-0.1-0.1-0.2-0.2-0.5-0.2
		c-0.2,0-0.3,0-0.4,0.1c-0.1,0.1-0.2,0.2-0.3,0.3V22h-0.5v-4.2h0.5V19.4z"/>
	<path d="M105.3,18.2c0-0.1,0-0.2,0.1-0.2c0.1-0.1,0.1-0.1,0.2-0.1c0.1,0,0.2,0,0.2,0.1s0.1,0.1,0.1,0.2s0,0.2-0.1,0.2
		c-0.1,0.1-0.1,0.1-0.2,0.1c-0.1,0-0.2,0-0.2-0.1C105.3,18.4,105.3,18.3,105.3,18.2z M105.8,22h-0.5v-3h0.5V22z"/>
	<path d="M108.4,21.2c0-0.1-0.1-0.2-0.2-0.3s-0.3-0.1-0.5-0.2c-0.3-0.1-0.5-0.1-0.6-0.2c-0.2-0.1-0.3-0.2-0.3-0.3
		c-0.1-0.1-0.1-0.2-0.1-0.4c0-0.2,0.1-0.5,0.3-0.6s0.5-0.3,0.8-0.3c0.3,0,0.6,0.1,0.8,0.3c0.2,0.2,0.3,0.4,0.3,0.7h-0.5
		c0-0.1-0.1-0.3-0.2-0.4c-0.1-0.1-0.3-0.2-0.4-0.2c-0.2,0-0.3,0-0.4,0.1c-0.1,0.1-0.2,0.2-0.2,0.3c0,0.1,0,0.2,0.1,0.3
		s0.3,0.1,0.5,0.2c0.3,0.1,0.5,0.1,0.6,0.2c0.2,0.1,0.3,0.2,0.4,0.3c0.1,0.1,0.1,0.2,0.1,0.4c0,0.3-0.1,0.5-0.3,0.6
		c-0.2,0.2-0.5,0.2-0.8,0.2c-0.2,0-0.4,0-0.6-0.1c-0.2-0.1-0.3-0.2-0.4-0.4c-0.1-0.2-0.2-0.3-0.2-0.5h0.5c0,0.2,0.1,0.3,0.2,0.4
		c0.1,0.1,0.3,0.2,0.5,0.2c0.2,0,0.3,0,0.5-0.1C108.3,21.4,108.4,21.3,108.4,21.2z"/>
	<path d="M113.2,20.9h-1.7l-0.4,1h-0.5l1.5-4h0.5l1.5,4h-0.5L113.2,20.9z M111.7,20.5h1.4l-0.7-1.9L111.7,20.5z"/>
	<path d="M116.1,19.5c-0.1,0-0.2,0-0.3,0c-0.3,0-0.6,0.1-0.7,0.4V22h-0.5v-3h0.5l0,0.3c0.2-0.3,0.4-0.4,0.7-0.4c0.1,0,0.2,0,0.2,0
		V19.5z"/>
	<path d="M117.4,18.3V19h0.6v0.4h-0.6v1.9c0,0.1,0,0.2,0.1,0.3c0,0.1,0.1,0.1,0.3,0.1c0.1,0,0.1,0,0.2,0V22c-0.1,0-0.3,0.1-0.4,0.1
		c-0.2,0-0.4-0.1-0.5-0.2c-0.1-0.1-0.2-0.3-0.2-0.6v-1.8h-0.5V19h0.5v-0.7H117.4z"/>
	<path d="M118.5,18.2c0-0.1,0-0.2,0.1-0.2c0.1-0.1,0.1-0.1,0.2-0.1c0.1,0,0.2,0,0.2,0.1c0.1,0.1,0.1,0.1,0.1,0.2s0,0.2-0.1,0.2
		c-0.1,0.1-0.1,0.1-0.2,0.1c-0.1,0-0.2,0-0.2-0.1C118.5,18.4,118.5,18.3,118.5,18.2z M119.1,22h-0.5v-3h0.5V22z"/>
	<path d="M121.1,21.6c0.2,0,0.3-0.1,0.5-0.2c0.1-0.1,0.2-0.2,0.2-0.4h0.5c0,0.2-0.1,0.3-0.2,0.5c-0.1,0.2-0.3,0.3-0.4,0.4
		c-0.2,0.1-0.4,0.1-0.6,0.1c-0.4,0-0.7-0.1-1-0.4c-0.2-0.3-0.4-0.6-0.4-1.1v-0.1c0-0.3,0.1-0.5,0.2-0.8s0.3-0.4,0.5-0.5
		s0.4-0.2,0.7-0.2c0.3,0,0.6,0.1,0.8,0.3c0.2,0.2,0.3,0.5,0.4,0.8h-0.5c0-0.2-0.1-0.4-0.2-0.5c-0.1-0.1-0.3-0.2-0.5-0.2
		c-0.3,0-0.5,0.1-0.6,0.3c-0.1,0.2-0.2,0.5-0.2,0.8v0.1c0,0.3,0.1,0.6,0.2,0.8S120.8,21.6,121.1,21.6z"/>
	<path d="M123.4,22h-0.5v-4.2h0.5V22z"/>
	<path d="M125.4,22c-0.4,0-0.7-0.1-1-0.4c-0.3-0.3-0.4-0.6-0.4-1.1v-0.1c0-0.3,0.1-0.6,0.2-0.8c0.1-0.2,0.3-0.4,0.5-0.5
		c0.2-0.1,0.4-0.2,0.7-0.2c0.4,0,0.7,0.1,0.9,0.4c0.2,0.3,0.3,0.6,0.3,1.1v0.2h-2c0,0.3,0.1,0.5,0.3,0.7c0.2,0.2,0.4,0.3,0.6,0.3
		c0.2,0,0.3,0,0.5-0.1c0.1-0.1,0.2-0.2,0.3-0.3l0.3,0.2C126.3,21.8,125.9,22,125.4,22z M125.4,19.4c-0.2,0-0.4,0.1-0.5,0.2
		c-0.1,0.1-0.2,0.4-0.3,0.6h1.5v0c0-0.3-0.1-0.5-0.2-0.6C125.8,19.4,125.6,19.4,125.4,19.4z"/>
	<path d="M129.3,18.3V19h0.6v0.4h-0.6v1.9c0,0.1,0,0.2,0.1,0.3c0,0.1,0.1,0.1,0.3,0.1c0.1,0,0.1,0,0.2,0V22c-0.1,0-0.3,0.1-0.4,0.1
		c-0.2,0-0.4-0.1-0.5-0.2c-0.1-0.1-0.2-0.3-0.2-0.6v-1.8h-0.5V19h0.5v-0.7H129.3z"/>
	<path d="M130.2,20.5c0-0.3,0.1-0.6,0.2-0.8c0.1-0.2,0.3-0.4,0.5-0.5c0.2-0.1,0.4-0.2,0.7-0.2c0.4,0,0.7,0.1,1,0.4
		c0.3,0.3,0.4,0.7,0.4,1.1v0c0,0.3-0.1,0.6-0.2,0.8c-0.1,0.2-0.3,0.4-0.5,0.5c-0.2,0.1-0.4,0.2-0.7,0.2c-0.4,0-0.7-0.1-1-0.4
		C130.4,21.3,130.2,21,130.2,20.5L130.2,20.5z M130.8,20.5c0,0.3,0.1,0.6,0.2,0.8c0.2,0.2,0.4,0.3,0.6,0.3c0.3,0,0.5-0.1,0.6-0.3
		c0.2-0.2,0.2-0.5,0.2-0.9c0-0.3-0.1-0.6-0.2-0.8c-0.2-0.2-0.4-0.3-0.6-0.3c-0.3,0-0.5,0.1-0.6,0.3
		C130.8,19.9,130.8,20.2,130.8,20.5z"/>
	<path d="M136.4,19.5c-0.1,0-0.2,0-0.3,0c-0.3,0-0.6,0.1-0.7,0.4V22H135v-3h0.5l0,0.3c0.2-0.3,0.4-0.4,0.7-0.4c0.1,0,0.2,0,0.2,0
		V19.5z"/>
	<path d="M138.1,22c-0.4,0-0.7-0.1-1-0.4s-0.4-0.6-0.4-1.1v-0.1c0-0.3,0.1-0.6,0.2-0.8c0.1-0.2,0.3-0.4,0.5-0.5
		c0.2-0.1,0.4-0.2,0.7-0.2c0.4,0,0.7,0.1,0.9,0.4s0.3,0.6,0.3,1.1v0.2h-2c0,0.3,0.1,0.5,0.3,0.7c0.2,0.2,0.4,0.3,0.6,0.3
		c0.2,0,0.3,0,0.5-0.1s0.2-0.2,0.3-0.3l0.3,0.2C139,21.8,138.6,22,138.1,22z M138,19.4c-0.2,0-0.4,0.1-0.5,0.2
		c-0.1,0.1-0.2,0.4-0.3,0.6h1.5v0c0-0.3-0.1-0.5-0.2-0.6S138.2,19.4,138,19.4z"/>
	<path d="M140.1,22v-2.6h-0.5V19h0.5v-0.3c0-0.3,0.1-0.6,0.3-0.7c0.2-0.2,0.4-0.3,0.7-0.3c0.1,0,0.2,0,0.3,0l0,0.4
		c-0.1,0-0.2,0-0.3,0c-0.2,0-0.3,0-0.4,0.1c-0.1,0.1-0.1,0.2-0.1,0.4V19h0.6v0.4h-0.6V22H140.1z"/>
	<path d="M142.3,22h-0.5v-4.2h0.5V22z"/>
	<path d="M144.4,22c-0.4,0-0.7-0.1-1-0.4S143,21,143,20.6v-0.1c0-0.3,0.1-0.6,0.2-0.8c0.1-0.2,0.3-0.4,0.5-0.5
		c0.2-0.1,0.4-0.2,0.7-0.2c0.4,0,0.7,0.1,0.9,0.4c0.2,0.3,0.3,0.6,0.3,1.1v0.2h-2c0,0.3,0.1,0.5,0.3,0.7c0.2,0.2,0.4,0.3,0.6,0.3
		c0.2,0,0.3,0,0.5-0.1s0.2-0.2,0.3-0.3l0.3,0.2C145.3,21.8,144.9,22,144.4,22z M144.3,19.4c-0.2,0-0.4,0.1-0.5,0.2
		c-0.1,0.1-0.2,0.4-0.3,0.6h1.5v0c0-0.3-0.1-0.5-0.2-0.6C144.7,19.4,144.5,19.4,144.3,19.4z"/>
	<path d="M147.3,21.6c0.2,0,0.3-0.1,0.5-0.2c0.1-0.1,0.2-0.2,0.2-0.4h0.5c0,0.2-0.1,0.3-0.2,0.5c-0.1,0.2-0.3,0.3-0.4,0.4
		c-0.2,0.1-0.4,0.1-0.6,0.1c-0.4,0-0.7-0.1-1-0.4c-0.2-0.3-0.4-0.6-0.4-1.1v-0.1c0-0.3,0.1-0.5,0.2-0.8s0.3-0.4,0.5-0.5
		c0.2-0.1,0.4-0.2,0.7-0.2c0.3,0,0.6,0.1,0.8,0.3c0.2,0.2,0.3,0.5,0.4,0.8H148c0-0.2-0.1-0.4-0.2-0.5c-0.1-0.1-0.3-0.2-0.5-0.2
		c-0.3,0-0.5,0.1-0.6,0.3s-0.2,0.5-0.2,0.8v0.1c0,0.3,0.1,0.6,0.2,0.8C146.9,21.5,147.1,21.6,147.3,21.6z"/>
	<path d="M149.8,18.3V19h0.6v0.4h-0.6v1.9c0,0.1,0,0.2,0.1,0.3c0,0.1,0.1,0.1,0.3,0.1c0.1,0,0.1,0,0.2,0V22c-0.1,0-0.3,0.1-0.4,0.1
		c-0.2,0-0.4-0.1-0.5-0.2c-0.1-0.1-0.2-0.3-0.2-0.6v-1.8h-0.5V19h0.5v-0.7H149.8z"/>
	<path d="M153.8,19.5c-0.1,0-0.2,0-0.3,0c-0.3,0-0.6,0.1-0.7,0.4V22h-0.5v-3h0.5l0,0.3c0.2-0.3,0.4-0.4,0.7-0.4c0.1,0,0.2,0,0.2,0
		V19.5z"/>
	<path d="M155.4,22c-0.4,0-0.7-0.1-1-0.4s-0.4-0.6-0.4-1.1v-0.1c0-0.3,0.1-0.6,0.2-0.8c0.1-0.2,0.3-0.4,0.5-0.5
		c0.2-0.1,0.4-0.2,0.7-0.2c0.4,0,0.7,0.1,0.9,0.4c0.2,0.3,0.3,0.6,0.3,1.1v0.2h-2c0,0.3,0.1,0.5,0.3,0.7c0.2,0.2,0.4,0.3,0.6,0.3
		c0.2,0,0.3,0,0.5-0.1c0.1-0.1,0.2-0.2,0.3-0.3l0.3,0.2C156.3,21.8,155.9,22,155.4,22z M155.4,19.4c-0.2,0-0.4,0.1-0.5,0.2
		c-0.1,0.1-0.2,0.4-0.3,0.6h1.5v0c0-0.3-0.1-0.5-0.2-0.6C155.8,19.4,155.6,19.4,155.4,19.4z"/>
	<path d="M158.4,21.6c0.2,0,0.3-0.1,0.5-0.2c0.1-0.1,0.2-0.2,0.2-0.4h0.5c0,0.2-0.1,0.3-0.2,0.5c-0.1,0.2-0.3,0.3-0.4,0.4
		c-0.2,0.1-0.4,0.1-0.6,0.1c-0.4,0-0.7-0.1-1-0.4c-0.2-0.3-0.4-0.6-0.4-1.1v-0.1c0-0.3,0.1-0.5,0.2-0.8c0.1-0.2,0.3-0.4,0.5-0.5
		c0.2-0.1,0.4-0.2,0.7-0.2c0.3,0,0.6,0.1,0.8,0.3c0.2,0.2,0.3,0.5,0.4,0.8h-0.5c0-0.2-0.1-0.4-0.2-0.5c-0.1-0.1-0.3-0.2-0.5-0.2
		c-0.3,0-0.5,0.1-0.6,0.3s-0.2,0.5-0.2,0.8v0.1c0,0.3,0.1,0.6,0.2,0.8C157.9,21.5,158.1,21.6,158.4,21.6z"/>
	<path d="M161.4,22c-0.4,0-0.7-0.1-1-0.4S160,21,160,20.6v-0.1c0-0.3,0.1-0.6,0.2-0.8c0.1-0.2,0.3-0.4,0.5-0.5
		c0.2-0.1,0.4-0.2,0.7-0.2c0.4,0,0.7,0.1,0.9,0.4s0.3,0.6,0.3,1.1v0.2h-2c0,0.3,0.1,0.5,0.3,0.7c0.2,0.2,0.4,0.3,0.6,0.3
		c0.2,0,0.3,0,0.5-0.1s0.2-0.2,0.3-0.3l0.3,0.2C162.2,21.8,161.9,22,161.4,22z M161.3,19.4c-0.2,0-0.4,0.1-0.5,0.2
		c-0.1,0.1-0.2,0.4-0.3,0.6h1.5v0c0-0.3-0.1-0.5-0.2-0.6S161.5,19.4,161.3,19.4z"/>
	<path d="M163.6,19l0,0.4c0.2-0.3,0.5-0.4,0.9-0.4c0.6,0,0.9,0.4,1,1.1v2H165v-2c0-0.2-0.1-0.4-0.1-0.5c-0.1-0.1-0.2-0.2-0.5-0.2
		c-0.2,0-0.3,0-0.4,0.1c-0.1,0.1-0.2,0.2-0.3,0.3V22h-0.5v-3H163.6z"/>
	<path d="M166.9,18.3V19h0.6v0.4h-0.6v1.9c0,0.1,0,0.2,0.1,0.3c0,0.1,0.1,0.1,0.3,0.1c0.1,0,0.1,0,0.2,0V22c-0.1,0-0.3,0.1-0.4,0.1
		c-0.2,0-0.4-0.1-0.5-0.2c-0.1-0.1-0.2-0.3-0.2-0.6v-1.8h-0.5V19h0.5v-0.7H166.9z"/>
	<path d="M170.7,22c-0.4,0-0.7-0.1-1-0.4s-0.4-0.6-0.4-1.1v-0.1c0-0.3,0.1-0.6,0.2-0.8c0.1-0.2,0.3-0.4,0.5-0.5
		c0.2-0.1,0.4-0.2,0.7-0.2c0.4,0,0.7,0.1,0.9,0.4c0.2,0.3,0.3,0.6,0.3,1.1v0.2h-2c0,0.3,0.1,0.5,0.3,0.7c0.2,0.2,0.4,0.3,0.6,0.3
		c0.2,0,0.3,0,0.5-0.1s0.2-0.2,0.3-0.3l0.3,0.2C171.6,21.8,171.2,22,170.7,22z M170.6,19.4c-0.2,0-0.4,0.1-0.5,0.2
		c-0.1,0.1-0.2,0.4-0.3,0.6h1.5v0c0-0.3-0.1-0.5-0.2-0.6C171,19.4,170.9,19.4,170.6,19.4z"/>
	<path d="M173.4,21.3l0.7-2.3h0.5l-1.1,3h-0.4l-1.1-3h0.5L173.4,21.3z"/>
	<path d="M176.4,22c-0.4,0-0.7-0.1-1-0.4S175,21,175,20.6v-0.1c0-0.3,0.1-0.6,0.2-0.8c0.1-0.2,0.3-0.4,0.5-0.5
		c0.2-0.1,0.4-0.2,0.7-0.2c0.4,0,0.7,0.1,0.9,0.4c0.2,0.3,0.3,0.6,0.3,1.1v0.2h-2c0,0.3,0.1,0.5,0.3,0.7c0.2,0.2,0.4,0.3,0.6,0.3
		c0.2,0,0.3,0,0.5-0.1c0.1-0.1,0.2-0.2,0.3-0.3l0.3,0.2C177.2,21.8,176.9,22,176.4,22z M176.3,19.4c-0.2,0-0.4,0.1-0.5,0.2
		c-0.1,0.1-0.2,0.4-0.3,0.6h1.5v0c0-0.3-0.1-0.5-0.2-0.6C176.7,19.4,176.5,19.4,176.3,19.4z"/>
	<path d="M178.6,19l0,0.4c0.2-0.3,0.5-0.4,0.9-0.4c0.6,0,0.9,0.4,1,1.1v2h-0.5v-2c0-0.2-0.1-0.4-0.1-0.5c-0.1-0.1-0.2-0.2-0.5-0.2
		c-0.2,0-0.3,0-0.4,0.1c-0.1,0.1-0.2,0.2-0.3,0.3V22h-0.5v-3H178.6z"/>
	<path d="M181.9,18.3V19h0.6v0.4h-0.6v1.9c0,0.1,0,0.2,0.1,0.3c0,0.1,0.1,0.1,0.3,0.1c0.1,0,0.1,0,0.2,0V22c-0.1,0-0.3,0.1-0.4,0.1
		c-0.2,0-0.4-0.1-0.5-0.2c-0.1-0.1-0.2-0.3-0.2-0.6v-1.8h-0.5V19h0.5v-0.7H181.9z"/>
	<path d="M184.8,21.2c0-0.1-0.1-0.2-0.2-0.3c-0.1-0.1-0.3-0.1-0.5-0.2c-0.3-0.1-0.5-0.1-0.6-0.2c-0.2-0.1-0.3-0.2-0.3-0.3
		c-0.1-0.1-0.1-0.2-0.1-0.4c0-0.2,0.1-0.5,0.3-0.6c0.2-0.2,0.5-0.3,0.8-0.3c0.3,0,0.6,0.1,0.8,0.3c0.2,0.2,0.3,0.4,0.3,0.7h-0.5
		c0-0.1-0.1-0.3-0.2-0.4c-0.1-0.1-0.3-0.2-0.4-0.2c-0.2,0-0.3,0-0.4,0.1c-0.1,0.1-0.2,0.2-0.2,0.3c0,0.1,0,0.2,0.1,0.3
		s0.3,0.1,0.5,0.2c0.3,0.1,0.5,0.1,0.6,0.2c0.2,0.1,0.3,0.2,0.4,0.3c0.1,0.1,0.1,0.2,0.1,0.4c0,0.3-0.1,0.5-0.3,0.6
		c-0.2,0.2-0.5,0.2-0.8,0.2c-0.2,0-0.4,0-0.6-0.1c-0.2-0.1-0.3-0.2-0.4-0.4c-0.1-0.2-0.2-0.3-0.2-0.5h0.5c0,0.2,0.1,0.3,0.2,0.4
		c0.1,0.1,0.3,0.2,0.5,0.2c0.2,0,0.3,0,0.5-0.1C184.7,21.4,184.8,21.3,184.8,21.2z"/>
	<path d="M187.2,20.5c0-0.3,0.1-0.6,0.2-0.8c0.1-0.2,0.3-0.4,0.5-0.5c0.2-0.1,0.4-0.2,0.7-0.2c0.4,0,0.7,0.1,1,0.4
		c0.3,0.3,0.4,0.7,0.4,1.1v0c0,0.3-0.1,0.6-0.2,0.8c-0.1,0.2-0.3,0.4-0.5,0.5c-0.2,0.1-0.4,0.2-0.7,0.2c-0.4,0-0.7-0.1-1-0.4
		C187.4,21.3,187.2,21,187.2,20.5L187.2,20.5z M187.7,20.5c0,0.3,0.1,0.6,0.2,0.8c0.2,0.2,0.4,0.3,0.6,0.3c0.3,0,0.5-0.1,0.6-0.3
		c0.2-0.2,0.2-0.5,0.2-0.9c0-0.3-0.1-0.6-0.2-0.8c-0.2-0.2-0.4-0.3-0.6-0.3c-0.3,0-0.5,0.1-0.6,0.3
		C187.8,19.9,187.7,20.2,187.7,20.5z"/>
	<path d="M192,19.5c-0.1,0-0.2,0-0.3,0c-0.3,0-0.6,0.1-0.7,0.4V22h-0.5v-3h0.5l0,0.3c0.2-0.3,0.4-0.4,0.7-0.4c0.1,0,0.2,0,0.2,0
		V19.5z"/>
	<path d="M194.4,19l0,0.4c0.2-0.3,0.5-0.4,0.9-0.4c0.6,0,0.9,0.4,1,1.1v2h-0.5v-2c0-0.2-0.1-0.4-0.1-0.5c-0.1-0.1-0.2-0.2-0.5-0.2
		c-0.2,0-0.3,0-0.4,0.1c-0.1,0.1-0.2,0.2-0.3,0.3V22h-0.5v-3H194.4z"/>
	<path d="M198.2,22c-0.4,0-0.7-0.1-1-0.4s-0.4-0.6-0.4-1.1v-0.1c0-0.3,0.1-0.6,0.2-0.8c0.1-0.2,0.3-0.4,0.5-0.5
		c0.2-0.1,0.4-0.2,0.7-0.2c0.4,0,0.7,0.1,0.9,0.4s0.3,0.6,0.3,1.1v0.2h-2c0,0.3,0.1,0.5,0.3,0.7c0.2,0.2,0.4,0.3,0.6,0.3
		c0.2,0,0.3,0,0.5-0.1s0.2-0.2,0.3-0.3l0.3,0.2C199.1,21.8,198.7,22,198.2,22z M198.2,19.4c-0.2,0-0.4,0.1-0.5,0.2
		c-0.1,0.1-0.2,0.4-0.3,0.6h1.5v0c0-0.3-0.1-0.5-0.2-0.6S198.4,19.4,198.2,19.4z"/>
	<path d="M202.6,21.3l0.6-2.3h0.5l-0.9,3h-0.4l-0.7-2.3L201,22h-0.4l-0.9-3h0.5l0.6,2.2l0.7-2.2h0.4L202.6,21.3z"/>
	<path d="M204.8,22h-0.5v-4.2h0.5V22z"/>
	<path d="M206.6,21.2l0.7-2.2h0.5l-1.2,3.4c-0.2,0.5-0.5,0.7-0.9,0.7l-0.1,0l-0.2,0v-0.4l0.1,0c0.2,0,0.3,0,0.4-0.1
		c0.1-0.1,0.2-0.2,0.2-0.4l0.1-0.3l-1.1-2.9h0.6L206.6,21.2z"/>
	<path d="M211.5,22c0-0.1-0.1-0.2-0.1-0.3c-0.2,0.2-0.5,0.4-0.8,0.4c-0.3,0-0.5-0.1-0.7-0.2c-0.2-0.2-0.3-0.4-0.3-0.6
		c0-0.3,0.1-0.6,0.4-0.7c0.2-0.2,0.6-0.3,1-0.3h0.5v-0.2c0-0.2-0.1-0.3-0.2-0.4c-0.1-0.1-0.3-0.2-0.5-0.2c-0.2,0-0.3,0-0.5,0.1
		c-0.1,0.1-0.2,0.2-0.2,0.3h-0.5c0-0.1,0.1-0.3,0.2-0.4c0.1-0.1,0.2-0.2,0.4-0.3c0.2-0.1,0.4-0.1,0.6-0.1c0.3,0,0.6,0.1,0.8,0.3
		s0.3,0.4,0.3,0.7v1.4c0,0.3,0,0.5,0.1,0.7v0H211.5z M210.7,21.6c0.2,0,0.3,0,0.5-0.1s0.2-0.2,0.3-0.3v-0.6H211
		c-0.6,0-0.9,0.2-0.9,0.5c0,0.2,0.1,0.3,0.2,0.4C210.4,21.6,210.5,21.6,210.7,21.6z"/>
	<path d="M213.7,21.3l0.7-2.3h0.5l-1.1,3h-0.4l-1.1-3h0.5L213.7,21.3z"/>
	<path d="M217.2,22c0-0.1-0.1-0.2-0.1-0.3c-0.2,0.2-0.5,0.4-0.8,0.4c-0.3,0-0.5-0.1-0.7-0.2c-0.2-0.2-0.3-0.4-0.3-0.6
		c0-0.3,0.1-0.6,0.4-0.7c0.2-0.2,0.6-0.3,1-0.3h0.5v-0.2c0-0.2-0.1-0.3-0.2-0.4c-0.1-0.1-0.3-0.2-0.5-0.2c-0.2,0-0.3,0-0.5,0.1
		c-0.1,0.1-0.2,0.2-0.2,0.3h-0.5c0-0.1,0.1-0.3,0.2-0.4s0.2-0.2,0.4-0.3c0.2-0.1,0.4-0.1,0.6-0.1c0.3,0,0.6,0.1,0.8,0.3
		s0.3,0.4,0.3,0.7v1.4c0,0.3,0,0.5,0.1,0.7v0H217.2z M216.4,21.6c0.2,0,0.3,0,0.5-0.1s0.2-0.2,0.3-0.3v-0.6h-0.4
		c-0.6,0-0.9,0.2-0.9,0.5c0,0.2,0.1,0.3,0.2,0.4C216.1,21.6,216.2,21.6,216.4,21.6z"/>
	<path d="M218.5,18.2c0-0.1,0-0.2,0.1-0.2s0.1-0.1,0.2-0.1c0.1,0,0.2,0,0.2,0.1s0.1,0.1,0.1,0.2s0,0.2-0.1,0.2
		c-0.1,0.1-0.1,0.1-0.2,0.1c-0.1,0-0.2,0-0.2-0.1C218.5,18.4,218.5,18.3,218.5,18.2z M219,22h-0.5v-3h0.5V22z"/>
	<path d="M220.4,22h-0.5v-4.2h0.5V22z"/>
	<path d="M223,22c0-0.1-0.1-0.2-0.1-0.3c-0.2,0.2-0.5,0.4-0.8,0.4c-0.3,0-0.5-0.1-0.7-0.2c-0.2-0.2-0.3-0.4-0.3-0.6
		c0-0.3,0.1-0.6,0.4-0.7c0.2-0.2,0.6-0.3,1-0.3h0.5v-0.2c0-0.2-0.1-0.3-0.2-0.4c-0.1-0.1-0.3-0.2-0.5-0.2c-0.2,0-0.3,0-0.5,0.1
		c-0.1,0.1-0.2,0.2-0.2,0.3h-0.5c0-0.1,0.1-0.3,0.2-0.4s0.2-0.2,0.4-0.3c0.2-0.1,0.4-0.1,0.6-0.1c0.3,0,0.6,0.1,0.8,0.3
		s0.3,0.4,0.3,0.7v1.4c0,0.3,0,0.5,0.1,0.7v0H223z M222.2,21.6c0.2,0,0.3,0,0.5-0.1s0.2-0.2,0.3-0.3v-0.6h-0.4
		c-0.6,0-0.9,0.2-0.9,0.5c0,0.2,0.1,0.3,0.2,0.4C221.9,21.6,222,21.6,222.2,21.6z"/>
	<path d="M226.8,20.5c0,0.5-0.1,0.8-0.3,1.1c-0.2,0.3-0.5,0.4-0.8,0.4c-0.4,0-0.7-0.1-0.9-0.4l0,0.3h-0.5v-4.2h0.5v1.6
		c0.2-0.3,0.5-0.4,0.9-0.4s0.6,0.1,0.9,0.4C226.7,19.6,226.8,20,226.8,20.5L226.8,20.5z M226.3,20.5c0-0.3-0.1-0.6-0.2-0.8
		s-0.3-0.3-0.6-0.3c-0.3,0-0.6,0.2-0.7,0.5v1.3c0.2,0.3,0.4,0.5,0.7,0.5c0.2,0,0.4-0.1,0.6-0.3C226.2,21.1,226.3,20.8,226.3,20.5z"
		/>
	<path d="M228,22h-0.5v-4.2h0.5V22z"/>
	<path d="M230,22c-0.4,0-0.7-0.1-1-0.4s-0.4-0.6-0.4-1.1v-0.1c0-0.3,0.1-0.6,0.2-0.8c0.1-0.2,0.3-0.4,0.5-0.5
		c0.2-0.1,0.4-0.2,0.7-0.2c0.4,0,0.7,0.1,0.9,0.4c0.2,0.3,0.3,0.6,0.3,1.1v0.2h-2c0,0.3,0.1,0.5,0.3,0.7c0.2,0.2,0.4,0.3,0.6,0.3
		c0.2,0,0.3,0,0.5-0.1c0.1-0.1,0.2-0.2,0.3-0.3l0.3,0.2C230.9,21.8,230.5,22,230,22z M230,19.4c-0.2,0-0.4,0.1-0.5,0.2
		c-0.1,0.1-0.2,0.4-0.3,0.6h1.5v0c0-0.3-0.1-0.5-0.2-0.6C230.3,19.4,230.2,19.4,230,19.4z"/>
	<path d="M233.2,18.2c0-0.1,0-0.2,0.1-0.2c0.1-0.1,0.1-0.1,0.2-0.1c0.1,0,0.2,0,0.2,0.1s0.1,0.1,0.1,0.2s0,0.2-0.1,0.2
		c-0.1,0.1-0.1,0.1-0.2,0.1c-0.1,0-0.2,0-0.2-0.1C233.2,18.4,233.2,18.3,233.2,18.2z M233.7,22h-0.5v-3h0.5V22z"/>
	<path d="M235,19l0,0.4c0.2-0.3,0.5-0.4,0.9-0.4c0.6,0,0.9,0.4,1,1.1v2h-0.5v-2c0-0.2-0.1-0.4-0.1-0.5c-0.1-0.1-0.2-0.2-0.5-0.2
		c-0.2,0-0.3,0-0.4,0.1c-0.1,0.1-0.2,0.2-0.3,0.3V22h-0.5v-3H235z"/>
	<path d="M237.9,22v-2.6h-0.5V19h0.5v-0.3c0-0.3,0.1-0.6,0.3-0.7c0.2-0.2,0.4-0.3,0.7-0.3c0.1,0,0.2,0,0.3,0l0,0.4
		c-0.1,0-0.2,0-0.3,0c-0.2,0-0.3,0-0.4,0.1c-0.1,0.1-0.1,0.2-0.1,0.4V19h0.6v0.4h-0.6V22H237.9z"/>
	<path d="M239.5,20.5c0-0.3,0.1-0.6,0.2-0.8c0.1-0.2,0.3-0.4,0.5-0.5c0.2-0.1,0.4-0.2,0.7-0.2c0.4,0,0.7,0.1,1,0.4
		c0.3,0.3,0.4,0.7,0.4,1.1v0c0,0.3-0.1,0.6-0.2,0.8c-0.1,0.2-0.3,0.4-0.5,0.5c-0.2,0.1-0.4,0.2-0.7,0.2c-0.4,0-0.7-0.1-1-0.4
		C239.6,21.3,239.5,21,239.5,20.5L239.5,20.5z M240,20.5c0,0.3,0.1,0.6,0.2,0.8c0.2,0.2,0.4,0.3,0.6,0.3c0.3,0,0.5-0.1,0.6-0.3
		c0.2-0.2,0.2-0.5,0.2-0.9c0-0.3-0.1-0.6-0.2-0.8c-0.2-0.2-0.4-0.3-0.6-0.3c-0.3,0-0.5,0.1-0.6,0.3C240.1,19.9,240,20.2,240,20.5z"
		/>
	<path d="M244.3,19.5c-0.1,0-0.2,0-0.3,0c-0.3,0-0.6,0.1-0.7,0.4V22h-0.5v-3h0.5l0,0.3c0.2-0.3,0.4-0.4,0.7-0.4c0.1,0,0.2,0,0.2,0
		V19.5z"/>
	<path d="M245.2,19l0,0.3c0.2-0.3,0.5-0.4,0.9-0.4c0.4,0,0.7,0.2,0.9,0.5c0.1-0.1,0.2-0.3,0.4-0.3c0.2-0.1,0.3-0.1,0.6-0.1
		c0.7,0,1,0.3,1,1v2h-0.5v-2c0-0.2,0-0.4-0.1-0.5s-0.3-0.2-0.5-0.2c-0.2,0-0.3,0.1-0.5,0.2s-0.2,0.3-0.2,0.5v2h-0.5v-2
		c0-0.4-0.2-0.6-0.6-0.6c-0.3,0-0.6,0.1-0.7,0.4V22h-0.5v-3H245.2z"/>
	<path d="M251.5,22c0-0.1-0.1-0.2-0.1-0.3c-0.2,0.2-0.5,0.4-0.8,0.4c-0.3,0-0.5-0.1-0.7-0.2c-0.2-0.2-0.3-0.4-0.3-0.6
		c0-0.3,0.1-0.6,0.4-0.7c0.2-0.2,0.6-0.3,1-0.3h0.5v-0.2c0-0.2-0.1-0.3-0.2-0.4c-0.1-0.1-0.3-0.2-0.5-0.2c-0.2,0-0.3,0-0.5,0.1
		c-0.1,0.1-0.2,0.2-0.2,0.3h-0.5c0-0.1,0.1-0.3,0.2-0.4s0.2-0.2,0.4-0.3c0.2-0.1,0.4-0.1,0.6-0.1c0.3,0,0.6,0.1,0.8,0.3
		s0.3,0.4,0.3,0.7v1.4c0,0.3,0,0.5,0.1,0.7v0H251.5z M250.7,21.6c0.2,0,0.3,0,0.5-0.1s0.2-0.2,0.3-0.3v-0.6H251
		c-0.6,0-0.9,0.2-0.9,0.5c0,0.2,0.1,0.3,0.2,0.4C250.4,21.6,250.5,21.6,250.7,21.6z"/>
	<path d="M253.4,18.3V19h0.6v0.4h-0.6v1.9c0,0.1,0,0.2,0.1,0.3c0,0.1,0.1,0.1,0.3,0.1c0.1,0,0.1,0,0.2,0V22c-0.1,0-0.3,0.1-0.4,0.1
		c-0.2,0-0.4-0.1-0.5-0.2c-0.1-0.1-0.2-0.3-0.2-0.6v-1.8h-0.5V19h0.5v-0.7H253.4z"/>
	<path d="M254.6,18.2c0-0.1,0-0.2,0.1-0.2s0.1-0.1,0.2-0.1s0.2,0,0.2,0.1s0.1,0.1,0.1,0.2s0,0.2-0.1,0.2c-0.1,0.1-0.1,0.1-0.2,0.1
		s-0.2,0-0.2-0.1C254.6,18.4,254.6,18.3,254.6,18.2z M255.1,22h-0.5v-3h0.5V22z"/>
	<path d="M255.8,20.5c0-0.3,0.1-0.6,0.2-0.8c0.1-0.2,0.3-0.4,0.5-0.5c0.2-0.1,0.4-0.2,0.7-0.2c0.4,0,0.7,0.1,1,0.4
		c0.3,0.3,0.4,0.7,0.4,1.1v0c0,0.3-0.1,0.6-0.2,0.8c-0.1,0.2-0.3,0.4-0.5,0.5c-0.2,0.1-0.4,0.2-0.7,0.2c-0.4,0-0.7-0.1-1-0.4
		C255.9,21.3,255.8,21,255.8,20.5L255.8,20.5z M256.3,20.5c0,0.3,0.1,0.6,0.2,0.8c0.2,0.2,0.4,0.3,0.6,0.3c0.3,0,0.5-0.1,0.6-0.3
		c0.2-0.2,0.2-0.5,0.2-0.9c0-0.3-0.1-0.6-0.2-0.8c-0.2-0.2-0.4-0.3-0.6-0.3c-0.3,0-0.5,0.1-0.6,0.3
		C256.4,19.9,256.3,20.2,256.3,20.5z"/>
	<path d="M259.7,19l0,0.4c0.2-0.3,0.5-0.4,0.9-0.4c0.6,0,0.9,0.4,1,1.1v2H261v-2c0-0.2-0.1-0.4-0.1-0.5c-0.1-0.1-0.2-0.2-0.5-0.2
		c-0.2,0-0.3,0-0.4,0.1c-0.1,0.1-0.2,0.2-0.3,0.3V22h-0.5v-3H259.7z"/>
	<path d="M262.3,21.7c0-0.1,0-0.2,0.1-0.2c0.1-0.1,0.1-0.1,0.2-0.1s0.2,0,0.2,0.1s0.1,0.1,0.1,0.2c0,0.1,0,0.2-0.1,0.2
		s-0.1,0.1-0.2,0.1s-0.2,0-0.2-0.1C262.3,21.9,262.3,21.8,262.3,21.7z"/>
</g>
<g>
	
		<radialGradient id="SVGID_1_" cx="-539.7376" cy="89.1344" r="3.5748" gradientTransform="matrix(3.7498 0 0 3.7499 2052.2524 -315.226)" gradientUnits="userSpaceOnUse">
		<stop  offset="0" style="stop-color:#C2C0C0"/>
		<stop  offset="0.88" style="stop-color:#C2C0C0"/>
		<stop  offset="1" style="stop-color:#C2C0C0;stop-opacity:0"/>
	</radialGradient>
	<ellipse class="st1" cx="28.3" cy="19" rx="13.4" ry="13.4"/>
	
		<linearGradient id="SVGID_00000089539362677125149890000010112050052777861250_" gradientUnits="userSpaceOnUse" x1="-529.0101" y1="92.4341" x2="-533.1652" y2="101.2438" gradientTransform="matrix(3.5216 0 0 3.5216 1900.5824 -328.429)">
		<stop  offset="0" style="stop-color:#FCD9D8"/>
		<stop  offset="1" style="stop-color:#F05454"/>
	</linearGradient>
	
		<linearGradient id="SVGID_00000042011842709542492880000003859035533256588676_" gradientUnits="userSpaceOnUse" x1="-528.8396" y1="100.1252" x2="-534.9125" y2="96.758" gradientTransform="matrix(3.5216 0 0 3.5216 1900.5824 -328.429)">
		<stop  offset="0" style="stop-color:#B12826"/>
		<stop  offset="1" style="stop-color:#F05549"/>
	</linearGradient>
	
		<circle style="fill:url(#SVGID_00000089539362677125149890000010112050052777861250_);stroke:url(#SVGID_00000042011842709542492880000003859035533256588676_);stroke-width:1.5629;stroke-miterlimit:18.7097;" cx="27.6" cy="18.3" r="12.3"/>
	<circle class="st3" cx="27.6" cy="18.3" r="11.1"/>
	<g>
		<g>
			<defs>
				<circle id="SVGID_00000105385535948217573070000000179212013737900189_" cx="27.6" cy="18.2" r="10.7"/>
			</defs>
			<clipPath id="SVGID_00000124844513083386992340000012123994684440777663_">
				<use xlink:href="#SVGID_00000105385535948217573070000000179212013737900189_"  style="overflow:visible;"/>
			</clipPath>
			
				<linearGradient id="SVGID_00000020358587100632590400000017073582617803016617_" gradientUnits="userSpaceOnUse" x1="-329.8505" y1="-882.166" x2="-329.8505" y2="-895.8076" gradientTransform="matrix(1.5471 0 0 -1.5471 537.8816 -1356.7802)">
				<stop  offset="0" style="stop-color:#FFFFFF"/>
				<stop  offset="0.1478" style="stop-color:#FDE1E1"/>
				<stop  offset="0.2363" style="stop-color:#FBD4D4"/>
				<stop  offset="0.3505" style="stop-color:#FDE2E1"/>
				<stop  offset="0.5264" style="stop-color:#FEF4F3"/>
				<stop  offset="0.7262" style="stop-color:#FFFCFD"/>
				<stop  offset="1" style="stop-color:#FFFFFF"/>
			</linearGradient>
			
				<circle style="clip-path:url(#SVGID_00000124844513083386992340000012123994684440777663_);fill:url(#SVGID_00000020358587100632590400000017073582617803016617_);" cx="27.6" cy="18.6" r="10.7"/>
		</g>
	</g>
	<path class="st5" d="M22.2,21L22.2,21c0-0.1,0-0.2,0.1-0.3l6.3-3.1c0.1,0,0.2,0,0.3,0.1l0,0c0,0.1,0,0.2-0.1,0.3l-6.3,3.1
		C22.4,21.1,22.3,21.1,22.2,21z"/>
	<path class="st5" d="M34.5,11l0.3,0.3l-8.3,8.4l-0.3-0.3L34.5,11z"/>
	<g id="B_00000006683848486346799210000008925236000945972367_" transform="rotate(150 51.01861695 41.45881796) scale(1.23694)">
		<rect x="48.2" y="51.1" class="st6" width="0.2" height="9.3"/>
		<rect x="47.9" y="60.1" class="st6" width="0.8" height="1.7"/>
	</g>
	
		<linearGradient id="SVGID_00000065783787303855897430000012665581373700758462_" gradientUnits="userSpaceOnUse" x1="-329.1408" y1="-887.261" x2="-329.1408" y2="-888.3668" gradientTransform="matrix(1.5471 0 0 -1.5471 536.8321 -1355.3239)">
		<stop  offset="0" style="stop-color:#8BA4D5"/>
		<stop  offset="1" style="stop-color:#26489C"/>
	</linearGradient>
	<circle style="fill:url(#SVGID_00000065783787303855897430000012665581373700758462_);" cx="27.6" cy="18.3" r="0.9"/>
</g>
</svg>
