<?xml version="1.0" encoding="utf-8"?>
<!-- Generator: Adobe Illustrator 28.2.0, SVG Export Plug-In . SVG Version: 6.00 Build 0)  -->
<svg version="1.1" id="Layer_1" xmlns="http://www.w3.org/2000/svg" xmlns:xlink="http://www.w3.org/1999/xlink" x="0px" y="0px"
	 viewBox="0 0 874 120" style="enable-background:new 0 0 874 120;" xml:space="preserve">
<style type="text/css">
	.st0{fill:#F08621;}
	.st1{fill:url(#SVGID_1_);}
	
		.st2{fill:url(#SVGID_00000093170864250134499790000004161019544273398918_);stroke:url(#SVGID_00000130611309650291900970000004015018521941332370_);stroke-width:4.988;stroke-miterlimit:18.7097;}
	.st3{fill:#F37F81;}
	
		.st4{clip-path:url(#SVGID_00000183219044619694078230000010280194051476198028_);fill:url(#SVGID_00000145772339634976928960000009984969544839434890_);}
	.st5{fill:#921F1E;stroke:#E32331;stroke-width:1.0776;stroke-linejoin:round;stroke-miterlimit:18.7097;}
	.st6{fill:#F5BBBB;stroke:#F5BBBB;stroke-width:1.3191;stroke-linecap:round;stroke-linejoin:round;stroke-miterlimit:35.4088;}
	.st7{fill:url(#SVGID_00000183968569044898585880000003627167978051268997_);}
</style>
<path class="st0" d="M0,0v120h874V0H0z M869,115H28.6V5H869V115z"/>
<g>
	<path d="M172.5,33h-4.6v12.4h-3.1V33h-4.5v-2.5h12.2L172.5,33L172.5,33z"/>
	<path d="M176.9,35.5c0.8-0.9,1.8-1.4,3-1.4c2.4,0,3.6,1.4,3.7,4.2v7.1h-3v-7c0-0.6-0.1-1.1-0.4-1.4s-0.7-0.5-1.4-0.5
		c-0.9,0-1.5,0.3-1.9,1v7.9h-3V29.7h3L176.9,35.5L176.9,35.5z"/>
	<path d="M185.8,31.4c0-0.4,0.1-0.8,0.4-1.1c0.3-0.3,0.7-0.4,1.2-0.4s0.9,0.1,1.2,0.4s0.5,0.7,0.5,1.1c0,0.5-0.2,0.8-0.5,1.1
		s-0.7,0.4-1.2,0.4s-0.9-0.1-1.2-0.4C185.9,32.3,185.8,31.9,185.8,31.4z M188.9,45.4h-3V34.3h3V45.4z"/>
	<path d="M197.4,42.3c0-0.4-0.2-0.6-0.5-0.9c-0.4-0.2-0.9-0.4-1.7-0.6c-2.6-0.6-4-1.7-4-3.4c0-1,0.4-1.8,1.2-2.5s1.9-1,3.2-1
		c1.4,0,2.5,0.3,3.4,1c0.8,0.7,1.3,1.5,1.3,2.6h-3c0-0.4-0.1-0.8-0.4-1.1c-0.3-0.3-0.7-0.4-1.3-0.4c-0.5,0-0.9,0.1-1.2,0.3
		s-0.4,0.5-0.4,0.9c0,0.3,0.2,0.6,0.5,0.8s0.8,0.4,1.6,0.5s1.4,0.3,1.9,0.5c1.6,0.6,2.3,1.6,2.3,3c0,1-0.4,1.8-1.3,2.5
		c-0.9,0.6-2,0.9-3.4,0.9c-0.9,0-1.8-0.2-2.5-0.5s-1.3-0.8-1.7-1.4c-0.4-0.6-0.6-1.2-0.6-1.9h2.8c0,0.5,0.2,0.9,0.6,1.2
		s0.8,0.4,1.5,0.4c0.6,0,1-0.1,1.3-0.3C197.2,43,197.4,42.7,197.4,42.3z"/>
	<path d="M213.8,45.4c-0.1-0.3-0.2-0.6-0.3-1c-0.7,0.8-1.7,1.2-2.8,1.2s-2-0.3-2.7-0.9s-1.1-1.4-1.1-2.4c0-1.2,0.4-2.1,1.3-2.7
		c0.9-0.6,2.1-0.9,3.8-1h1.4V38c0-0.5-0.1-0.9-0.4-1.2s-0.7-0.5-1.2-0.5s-0.9,0.1-1.2,0.4s-0.4,0.6-0.4,1h-3c0-0.6,0.2-1.2,0.6-1.8
		s1-1,1.7-1.3s1.5-0.5,2.4-0.5c1.4,0,2.5,0.3,3.3,1s1.2,1.7,1.2,2.9v4.8c0,1.1,0.2,1.8,0.4,2.4v0.2
		C216.8,45.4,213.8,45.4,213.8,45.4z M211.4,43.4c0.4,0,0.8-0.1,1.2-0.3s0.6-0.5,0.8-0.8v-1.9h-1.1c-1.5,0-2.3,0.5-2.4,1.5v0.2
		c0,0.4,0.1,0.7,0.4,0.9S210.9,43.4,211.4,43.4z"/>
	<path d="M224.9,37.1c-0.4-0.1-0.8-0.1-1.1-0.1c-1.1,0-1.9,0.4-2.2,1.1v7.3h-3V34.3h2.8l0.1,1.3c0.6-1,1.4-1.5,2.5-1.5
		c0.3,0,0.6,0,0.9,0.1V37.1z"/>
	<path d="M230.4,31.6v2.7h1.9v2.2h-1.9V42c0,0.4,0.1,0.7,0.2,0.9s0.5,0.3,0.9,0.3c0.3,0,0.6,0,0.9-0.1v2.2c-0.6,0.2-1.2,0.3-1.8,0.3
		c-2.1,0-3.1-1-3.2-3.1v-6h-1.6v-2.2h1.6v-2.7C227.4,31.6,230.4,31.6,230.4,31.6z"/>
	<path d="M233.9,31.4c0-0.4,0.1-0.8,0.4-1.1c0.3-0.3,0.7-0.4,1.2-0.4s0.9,0.1,1.2,0.4s0.5,0.7,0.5,1.1c0,0.5-0.2,0.8-0.5,1.1
		S236,33,235.5,33s-0.9-0.1-1.2-0.4C234,32.3,233.9,31.9,233.9,31.4z M237,45.4h-3V34.3h3V45.4z"/>
	<path d="M244.1,43.2c0.5,0,1-0.2,1.3-0.5s0.5-0.7,0.5-1.2h2.8c0,0.8-0.2,1.4-0.6,2.1c-0.4,0.6-1,1.1-1.7,1.5
		c-0.7,0.3-1.5,0.5-2.3,0.5c-1.6,0-2.8-0.5-3.8-1.5c-0.9-1-1.4-2.4-1.4-4.2v-0.2c0-1.7,0.5-3.1,1.4-4.1s2.2-1.5,3.7-1.5
		c1.4,0,2.5,0.4,3.3,1.2s1.3,1.8,1.3,3.2H246c0-0.6-0.2-1-0.5-1.4s-0.8-0.5-1.4-0.5c-0.7,0-1.2,0.3-1.6,0.8
		c-0.4,0.5-0.5,1.3-0.5,2.4V40c0,1.1,0.2,2,0.5,2.5C242.9,43,243.4,43.2,244.1,43.2z"/>
	<path d="M253.6,45.4h-3V29.7h3V45.4z"/>
	<path d="M261.1,45.6c-1.6,0-3-0.5-4-1.5s-1.5-2.3-1.5-4v-0.3c0-1.1,0.2-2.1,0.6-3c0.4-0.9,1-1.6,1.8-2c0.8-0.5,1.7-0.7,2.7-0.7
		c1.5,0,2.7,0.5,3.6,1.4c0.9,1,1.3,2.3,1.3,4.1v1.2h-7.1c0.1,0.7,0.4,1.3,0.9,1.7s1.1,0.7,1.8,0.7c1.1,0,2-0.4,2.7-1.2l1.5,1.6
		c-0.4,0.6-1,1.1-1.8,1.5C262.9,45.4,262,45.6,261.1,45.6z M260.8,36.5c-0.6,0-1.1,0.2-1.4,0.6c-0.4,0.4-0.6,1-0.7,1.7h4.1v-0.2
		c0-0.7-0.2-1.2-0.5-1.5C261.9,36.7,261.4,36.5,260.8,36.5z"/>
	<path d="M272.6,31.4c0-0.4,0.1-0.8,0.4-1.1c0.3-0.3,0.7-0.4,1.2-0.4s0.9,0.1,1.2,0.4s0.5,0.7,0.5,1.1c0,0.5-0.2,0.8-0.5,1.1
		s-0.7,0.4-1.2,0.4s-0.9-0.1-1.2-0.4C272.7,32.3,272.6,31.9,272.6,31.4z M275.7,45.4h-3V34.3h3V45.4z"/>
	<path d="M284.2,42.3c0-0.4-0.2-0.6-0.5-0.9c-0.4-0.2-0.9-0.4-1.7-0.6c-2.6-0.6-4-1.7-4-3.4c0-1,0.4-1.8,1.2-2.5
		c0.8-0.7,1.9-1,3.2-1c1.4,0,2.5,0.3,3.4,1c0.8,0.7,1.3,1.5,1.3,2.6h-3c0-0.4-0.1-0.8-0.4-1.1S283,36,282.4,36
		c-0.5,0-0.9,0.1-1.2,0.3s-0.4,0.5-0.4,0.9c0,0.3,0.2,0.6,0.5,0.8s0.8,0.4,1.6,0.5s1.4,0.3,1.9,0.5c1.6,0.6,2.3,1.6,2.3,3
		c0,1-0.4,1.8-1.3,2.5c-0.9,0.6-2,0.9-3.4,0.9c-0.9,0-1.8-0.2-2.5-0.5s-1.3-0.8-1.7-1.4c-0.4-0.6-0.6-1.2-0.6-1.9h2.8
		c0,0.5,0.2,0.9,0.6,1.2s0.8,0.4,1.5,0.4c0.6,0,1-0.1,1.3-0.3C284,43,284.2,42.7,284.2,42.3z"/>
	<path d="M293.7,39.8c0-1.1,0.2-2.1,0.6-2.9s1-1.5,1.8-2s1.7-0.7,2.8-0.7c1.5,0,2.7,0.5,3.7,1.4s1.5,2.2,1.6,3.7v0.8
		c0,1.7-0.5,3.1-1.4,4.1s-2.2,1.5-3.8,1.5s-2.9-0.5-3.8-1.5c-1-1-1.4-2.4-1.4-4.2v-0.2H293.7z M296.7,40c0,1.1,0.2,1.9,0.6,2.4
		s1,0.8,1.7,0.8s1.3-0.3,1.7-0.8s0.6-1.4,0.6-2.6c0-1-0.2-1.8-0.6-2.4c-0.4-0.6-1-0.9-1.7-0.9s-1.3,0.3-1.7,0.8S296.7,38.8,296.7,40
		z"/>
	<path d="M312.7,44.3c-0.7,0.9-1.7,1.3-3,1.3c-1.2,0-2.1-0.3-2.7-1s-0.9-1.7-1-3v-7.3h3v7.2c0,1.2,0.5,1.7,1.6,1.7
		c1,0,1.7-0.3,2.1-1v-7.9h3v11.1h-2.8L312.7,44.3z"/>
	<path d="M321.3,31.6v2.7h1.9v2.2h-1.9V42c0,0.4,0.1,0.7,0.2,0.9s0.5,0.3,0.9,0.3c0.3,0,0.6,0,0.9-0.1v2.2c-0.6,0.2-1.2,0.3-1.8,0.3
		c-2.1,0-3.1-1-3.2-3.1v-6h-1.6v-2.2h1.6v-2.7C318.3,31.6,321.3,31.6,321.3,31.6z"/>
	<path d="M324.4,39.8c0-1.7,0.4-3.1,1.2-4.1c0.8-1,1.8-1.5,3.2-1.5c1.1,0,2,0.4,2.7,1.2v-5.7h3v15.8h-2.7l-0.1-1.2
		c-0.7,0.9-1.7,1.4-2.9,1.4c-1.3,0-2.4-0.5-3.1-1.5C324.8,43,324.4,41.6,324.4,39.8z M327.4,40c0,1,0.2,1.8,0.5,2.4
		c0.4,0.6,0.9,0.8,1.6,0.8c0.9,0,1.6-0.4,1.9-1.2v-4.4c-0.4-0.8-1-1.2-1.9-1.2C328.1,36.5,327.4,37.7,327.4,40z"/>
	<path d="M343.2,45.4c-0.1-0.3-0.2-0.6-0.3-1c-0.7,0.8-1.7,1.2-2.8,1.2c-1.1,0-2-0.3-2.7-0.9s-1.1-1.4-1.1-2.4
		c0-1.2,0.4-2.1,1.3-2.7c0.9-0.6,2.1-0.9,3.8-1h1.4V38c0-0.5-0.1-0.9-0.4-1.2s-0.7-0.5-1.2-0.5s-0.9,0.1-1.2,0.4s-0.4,0.6-0.4,1h-3
		c0-0.6,0.2-1.2,0.6-1.8s1-1,1.7-1.3s1.5-0.5,2.4-0.5c1.4,0,2.5,0.3,3.3,1s1.2,1.7,1.2,2.9v4.8c0,1.1,0.2,1.8,0.4,2.4v0.2
		C346.2,45.4,343.2,45.4,343.2,45.4z M340.7,43.4c0.4,0,0.8-0.1,1.2-0.3c0.4-0.2,0.6-0.5,0.8-0.8v-1.9h-1.1c-1.5,0-2.3,0.5-2.4,1.5
		v0.2c0,0.4,0.1,0.7,0.4,0.9S340.3,43.4,340.7,43.4z"/>
	<path d="M351.5,31.6v2.7h1.9v2.2h-1.9V42c0,0.4,0.1,0.7,0.2,0.9s0.5,0.3,0.9,0.3c0.3,0,0.6,0,0.9-0.1v2.2c-0.6,0.2-1.2,0.3-1.8,0.3
		c-2.1,0-3.1-1-3.2-3.1v-6h-1.6v-2.2h1.6v-2.7C348.5,31.6,351.5,31.6,351.5,31.6z"/>
	<path d="M360.2,45.6c-1.6,0-3-0.5-4-1.5s-1.5-2.3-1.5-4v-0.3c0-1.1,0.2-2.1,0.6-3s1-1.6,1.8-2c0.8-0.5,1.7-0.7,2.7-0.7
		c1.5,0,2.7,0.5,3.6,1.4c0.9,1,1.3,2.3,1.3,4.1v1.2h-7.1c0.1,0.7,0.4,1.3,0.9,1.7s1.1,0.7,1.8,0.7c1.1,0,2-0.4,2.7-1.2l1.5,1.6
		c-0.4,0.6-1,1.1-1.8,1.5C361.9,45.4,361.1,45.6,360.2,45.6z M359.8,36.5c-0.6,0-1.1,0.2-1.4,0.6c-0.4,0.4-0.6,1-0.7,1.7h4.1v-0.2
		c0-0.7-0.2-1.2-0.5-1.5C361,36.7,360.5,36.5,359.8,36.5z"/>
	<path d="M366,39.8c0-1.7,0.4-3.1,1.2-4.1c0.8-1,1.8-1.5,3.2-1.5c1.1,0,2,0.4,2.7,1.2v-5.7h3v15.8h-2.7l-0.1-1.2
		c-0.7,0.9-1.7,1.4-2.9,1.4c-1.3,0-2.4-0.5-3.1-1.5C366.4,43,366,41.6,366,39.8z M368.9,40c0,1,0.2,1.8,0.5,2.4
		c0.4,0.6,0.9,0.8,1.6,0.8c0.9,0,1.6-0.4,1.9-1.2v-4.4c-0.4-0.8-1-1.2-1.9-1.2C369.6,36.5,368.9,37.7,368.9,40z"/>
	<path d="M389.9,45.4c-0.1-0.3-0.2-0.6-0.3-1c-0.7,0.8-1.7,1.2-2.8,1.2c-1.1,0-2-0.3-2.7-0.9c-0.7-0.6-1.1-1.4-1.1-2.4
		c0-1.2,0.4-2.1,1.3-2.7c0.9-0.6,2.1-0.9,3.8-1h1.4V38c0-0.5-0.1-0.9-0.4-1.2s-0.7-0.5-1.2-0.5s-0.9,0.1-1.2,0.4
		c-0.3,0.2-0.4,0.6-0.4,1h-3c0-0.6,0.2-1.2,0.6-1.8s1-1,1.7-1.3s1.5-0.5,2.4-0.5c1.4,0,2.5,0.3,3.3,1s1.2,1.7,1.2,2.9v4.8
		c0,1.1,0.2,1.8,0.4,2.4v0.2C392.9,45.4,389.9,45.4,389.9,45.4z M387.5,43.4c0.4,0,0.8-0.1,1.2-0.3c0.4-0.2,0.6-0.5,0.8-0.8v-1.9
		h-1.1c-1.5,0-2.3,0.5-2.4,1.5v0.2c0,0.4,0.1,0.7,0.4,0.9C386.7,43.2,387,43.4,387.5,43.4z"/>
	<path d="M397.5,34.3l0.1,1.3c0.8-1,1.9-1.5,3.2-1.5c1.2,0,2.1,0.3,2.6,1s0.9,1.7,0.9,3.1v7.2h-3v-7.1c0-0.6-0.1-1.1-0.4-1.4
		c-0.3-0.3-0.7-0.4-1.4-0.4c-0.8,0-1.5,0.4-1.9,1.1v7.8h-3V34.3H397.5z"/>
	<path d="M406.1,39.8c0-1.7,0.4-3.1,1.2-4.1c0.8-1,1.8-1.5,3.2-1.5c1.1,0,2,0.4,2.7,1.2v-5.7h3v15.8h-2.7l-0.1-1.2
		c-0.7,0.9-1.7,1.4-2.9,1.4c-1.3,0-2.4-0.5-3.1-1.5C406.4,43,406.1,41.6,406.1,39.8z M409,40c0,1,0.2,1.8,0.5,2.4
		c0.4,0.6,0.9,0.8,1.6,0.8c0.9,0,1.6-0.4,1.9-1.2v-4.4c-0.4-0.8-1-1.2-1.9-1.2C409.7,36.5,409,37.7,409,40z"/>
	<path d="M423.6,31.4c0-0.4,0.1-0.8,0.4-1.1c0.3-0.3,0.7-0.4,1.2-0.4s0.9,0.1,1.2,0.4s0.5,0.7,0.5,1.1c0,0.5-0.2,0.8-0.5,1.1
		s-0.7,0.4-1.2,0.4s-0.9-0.1-1.2-0.4C423.7,32.3,423.6,31.9,423.6,31.4z M426.7,45.4h-3V34.3h3V45.4z"/>
	<path d="M432.7,31.6v2.7h1.9v2.2h-1.9V42c0,0.4,0.1,0.7,0.2,0.9s0.5,0.3,0.9,0.3c0.3,0,0.6,0,0.9-0.1v2.2c-0.6,0.2-1.2,0.3-1.8,0.3
		c-2.1,0-3.1-1-3.2-3.1v-6h-1.6v-2.2h1.6v-2.7C429.7,31.6,432.7,31.6,432.7,31.6z"/>
	<path d="M442.2,42.3c0-0.4-0.2-0.6-0.5-0.9c-0.4-0.2-0.9-0.4-1.7-0.6c-2.6-0.6-4-1.7-4-3.4c0-1,0.4-1.8,1.2-2.5
		c0.8-0.7,1.9-1,3.2-1c1.4,0,2.5,0.3,3.4,1c0.8,0.7,1.3,1.5,1.3,2.6h-3c0-0.4-0.1-0.8-0.4-1.1S441,36,440.4,36
		c-0.5,0-0.9,0.1-1.2,0.3s-0.4,0.5-0.4,0.9c0,0.3,0.2,0.6,0.5,0.8s0.8,0.4,1.6,0.5s1.4,0.3,1.9,0.5c1.6,0.6,2.3,1.6,2.3,3
		c0,1-0.4,1.8-1.3,2.5c-0.9,0.6-2,0.9-3.4,0.9c-0.9,0-1.8-0.2-2.5-0.5s-1.3-0.8-1.7-1.4c-0.4-0.6-0.6-1.2-0.6-1.9h2.8
		c0,0.5,0.2,0.9,0.6,1.2s0.8,0.4,1.5,0.4c0.6,0,1-0.1,1.3-0.3C442.1,43,442.2,42.7,442.2,42.3z"/>
	<path d="M452.2,31.4c0-0.4,0.1-0.8,0.4-1.1c0.3-0.3,0.7-0.4,1.2-0.4s0.9,0.1,1.2,0.4s0.5,0.7,0.5,1.1c0,0.5-0.2,0.8-0.5,1.1
		s-0.7,0.4-1.2,0.4s-0.9-0.1-1.2-0.4C452.4,32.3,452.2,31.9,452.2,31.4z M455.4,45.4h-3V34.3h3V45.4z"/>
	<path d="M460.6,34.3l0.1,1.3c0.8-1,1.9-1.5,3.2-1.5c1.2,0,2.1,0.3,2.6,1s0.9,1.7,0.9,3.1v7.2h-3v-7.1c0-0.6-0.1-1.1-0.4-1.4
		c-0.3-0.3-0.7-0.4-1.4-0.4c-0.8,0-1.5,0.4-1.9,1.1v7.8h-3V34.3H460.6z"/>
	<path d="M470.4,45.4v-8.9h-1.7v-2.2h1.7v-0.9c0-1.2,0.4-2.2,1.1-2.9c0.7-0.7,1.7-1,3-1c0.4,0,0.9,0.1,1.5,0.2V32
		c-0.2-0.1-0.5-0.1-0.9-0.1c-1.1,0-1.7,0.5-1.7,1.6v0.9h2.2v2.2h-2.2v8.9L470.4,45.4L470.4,45.4z"/>
	<path d="M476.7,39.8c0-1.1,0.2-2.1,0.6-2.9s1-1.5,1.8-2s1.7-0.7,2.8-0.7c1.5,0,2.7,0.5,3.7,1.4c0.9,0.9,1.5,2.2,1.6,3.7v0.8
		c0,1.7-0.5,3.1-1.4,4.1s-2.2,1.5-3.8,1.5s-2.9-0.5-3.8-1.5c-1-1-1.4-2.4-1.4-4.2v-0.2H476.7z M479.6,40c0,1.1,0.2,1.9,0.6,2.4
		s1,0.8,1.7,0.8s1.3-0.3,1.7-0.8c0.4-0.6,0.6-1.4,0.6-2.6c0-1-0.2-1.8-0.6-2.4c-0.4-0.6-1-0.9-1.7-0.9s-1.3,0.3-1.7,0.8
		S479.6,38.8,479.6,40z"/>
	<path d="M495.2,37.1c-0.4-0.1-0.8-0.1-1.1-0.1c-1.1,0-1.9,0.4-2.2,1.1v7.3h-3V34.3h2.8l0.1,1.3c0.6-1,1.4-1.5,2.5-1.5
		c0.3,0,0.6,0,0.9,0.1L495.2,37.1z"/>
	<path d="M499.4,34.3l0.1,1.2c0.8-1,1.8-1.4,3.2-1.4c1.4,0,2.4,0.6,2.9,1.7c0.8-1.1,1.9-1.7,3.3-1.7c1.2,0,2.1,0.4,2.7,1.1
		c0.6,0.7,0.9,1.8,0.9,3.2v7.1h-3v-7.1c0-0.6-0.1-1.1-0.4-1.4s-0.7-0.4-1.3-0.4c-0.9,0-1.5,0.4-1.8,1.3v7.6h-3v-7.1
		c0-0.6-0.1-1.1-0.4-1.4s-0.7-0.4-1.3-0.4c-0.8,0-1.4,0.3-1.8,1v7.8h-3V34.3H499.4z"/>
	<path d="M521.3,45.4c-0.1-0.3-0.2-0.6-0.3-1c-0.7,0.8-1.7,1.2-2.8,1.2s-2-0.3-2.7-0.9c-0.7-0.6-1.1-1.4-1.1-2.4
		c0-1.2,0.4-2.1,1.3-2.7c0.9-0.6,2.1-0.9,3.8-1h1.4V38c0-0.5-0.1-0.9-0.4-1.2c-0.3-0.3-0.7-0.5-1.2-0.5s-0.9,0.1-1.2,0.4
		c-0.3,0.2-0.4,0.6-0.4,1h-3c0-0.6,0.2-1.2,0.6-1.8s1-1,1.7-1.3s1.5-0.5,2.4-0.5c1.4,0,2.5,0.3,3.3,1s1.2,1.7,1.2,2.9v4.8
		c0,1.1,0.2,1.8,0.4,2.4v0.2C524.3,45.4,521.3,45.4,521.3,45.4z M518.8,43.4c0.4,0,0.8-0.1,1.2-0.3s0.6-0.5,0.8-0.8v-1.9h-1.1
		c-1.5,0-2.3,0.5-2.4,1.5v0.2c0,0.4,0.1,0.7,0.4,0.9C518,43.2,518.4,43.4,518.8,43.4z"/>
	<path d="M529.6,31.6v2.7h1.9v2.2h-1.9V42c0,0.4,0.1,0.7,0.2,0.9s0.5,0.3,0.9,0.3c0.3,0,0.6,0,0.9-0.1v2.2c-0.6,0.2-1.2,0.3-1.8,0.3
		c-2.1,0-3.1-1-3.2-3.1v-6H525v-2.2h1.6v-2.7C526.6,31.6,529.6,31.6,529.6,31.6z"/>
	<path d="M533.2,31.4c0-0.4,0.1-0.8,0.4-1.1c0.3-0.3,0.7-0.4,1.2-0.4s0.9,0.1,1.2,0.4s0.5,0.7,0.5,1.1c0,0.5-0.2,0.8-0.5,1.1
		s-0.7,0.4-1.2,0.4s-0.9-0.1-1.2-0.4C533.3,32.3,533.2,31.9,533.2,31.4z M536.3,45.4h-3V34.3h3V45.4z"/>
	<path d="M538.3,39.8c0-1.1,0.2-2.1,0.6-2.9s1-1.5,1.8-2s1.7-0.7,2.8-0.7c1.5,0,2.7,0.5,3.7,1.4c0.9,0.9,1.5,2.2,1.6,3.7v0.8
		c0,1.7-0.5,3.1-1.4,4.1s-2.2,1.5-3.8,1.5s-2.9-0.5-3.8-1.5c-1-1-1.4-2.4-1.4-4.2L538.3,39.8L538.3,39.8z M541.3,40
		c0,1.1,0.2,1.9,0.6,2.4s1,0.8,1.7,0.8s1.3-0.3,1.7-0.8c0.4-0.6,0.6-1.4,0.6-2.6c0-1-0.2-1.8-0.6-2.4c-0.4-0.6-1-0.9-1.7-0.9
		s-1.3,0.3-1.7,0.8S541.3,38.8,541.3,40z"/>
	<path d="M553.4,34.3l0.1,1.3c0.8-1,1.9-1.5,3.2-1.5c1.2,0,2.1,0.3,2.6,1s0.9,1.7,0.9,3.1v7.2h-3v-7.1c0-0.6-0.1-1.1-0.4-1.4
		c-0.3-0.3-0.7-0.4-1.4-0.4c-0.8,0-1.5,0.4-1.9,1.1v7.8h-3V34.3H553.4z"/>
	<path d="M573.2,34.3l0.1,1.2c0.8-1,1.8-1.4,3.2-1.4s2.4,0.6,2.9,1.7c0.8-1.1,1.9-1.7,3.3-1.7c1.2,0,2.1,0.4,2.7,1.1
		c0.6,0.7,0.9,1.8,0.9,3.2v7.1h-3v-7.1c0-0.6-0.1-1.1-0.4-1.4s-0.7-0.4-1.3-0.4c-0.9,0-1.5,0.4-1.8,1.3v7.6h-3v-7.1
		c0-0.6-0.1-1.1-0.4-1.4s-0.7-0.4-1.3-0.4c-0.8,0-1.4,0.3-1.8,1v7.8h-3V34.3H573.2z"/>
	<path d="M595,45.4c-0.1-0.3-0.2-0.6-0.3-1c-0.7,0.8-1.7,1.2-2.8,1.2s-2-0.3-2.7-0.9c-0.7-0.6-1.1-1.4-1.1-2.4
		c0-1.2,0.4-2.1,1.3-2.7c0.9-0.6,2.1-0.9,3.8-1h1.4V38c0-0.5-0.1-0.9-0.4-1.2c-0.3-0.3-0.7-0.5-1.2-0.5s-0.9,0.1-1.2,0.4
		c-0.3,0.2-0.4,0.6-0.4,1h-3c0-0.6,0.2-1.2,0.6-1.8s1-1,1.7-1.3s1.5-0.5,2.4-0.5c1.4,0,2.5,0.3,3.3,1s1.2,1.7,1.2,2.9v4.8
		c0,1.1,0.2,1.8,0.4,2.4v0.2C598,45.4,595,45.4,595,45.4z M592.6,43.4c0.4,0,0.8-0.1,1.2-0.3s0.6-0.5,0.8-0.8v-1.9h-1.1
		c-1.5,0-2.3,0.5-2.4,1.5v0.2c0,0.4,0.1,0.7,0.4,0.9C591.8,43.2,592.1,43.4,592.6,43.4z"/>
	<path d="M603.8,41.2l2.1-6.9h3.2l-4.5,12.8l-0.2,0.6c-0.7,1.4-1.8,2.2-3.3,2.2c-0.4,0-0.9-0.1-1.3-0.2v-2.2h0.5
		c0.6,0,1-0.1,1.3-0.3s0.5-0.5,0.7-0.9l0.3-0.9l-3.9-11.1h3.2L603.8,41.2z"/>
	<path d="M618.2,34.3l0.1,1.3c0.8-1,1.9-1.5,3.2-1.5c1.2,0,2.1,0.3,2.6,1s0.9,1.7,0.9,3.1v7.2h-3v-7.1c0-0.6-0.1-1.1-0.4-1.4
		c-0.3-0.3-0.7-0.4-1.4-0.4c-0.8,0-1.5,0.4-1.9,1.1v7.8h-3V34.3H618.2z"/>
	<path d="M626.8,39.8c0-1.1,0.2-2.1,0.6-2.9s1-1.5,1.8-2s1.7-0.7,2.8-0.7c1.5,0,2.7,0.5,3.7,1.4c0.9,0.9,1.5,2.2,1.6,3.7v0.8
		c0,1.7-0.5,3.1-1.4,4.1s-2.2,1.5-3.8,1.5s-2.9-0.5-3.8-1.5c-1-1-1.4-2.4-1.4-4.2L626.8,39.8L626.8,39.8z M629.7,40
		c0,1.1,0.2,1.9,0.6,2.4s1,0.8,1.7,0.8s1.3-0.3,1.7-0.8c0.4-0.6,0.6-1.4,0.6-2.6c0-1-0.2-1.8-0.6-2.4c-0.4-0.6-1-0.9-1.7-0.9
		s-1.3,0.3-1.7,0.8S629.7,38.8,629.7,40z"/>
	<path d="M647.5,45.4h-3V29.7h3V45.4z"/>
	<path d="M649.4,39.8c0-1.1,0.2-2.1,0.6-2.9s1-1.5,1.8-2s1.7-0.7,2.8-0.7c1.5,0,2.7,0.5,3.7,1.4c0.9,0.9,1.5,2.2,1.6,3.7v0.8
		c0,1.7-0.5,3.1-1.4,4.1s-2.2,1.5-3.8,1.5s-2.9-0.5-3.8-1.5c-1-1-1.4-2.4-1.4-4.2L649.4,39.8L649.4,39.8z M652.4,40
		c0,1.1,0.2,1.9,0.6,2.4s1,0.8,1.7,0.8s1.3-0.3,1.7-0.8c0.4-0.6,0.6-1.4,0.6-2.6c0-1-0.2-1.8-0.6-2.4c-0.4-0.6-1-0.9-1.7-0.9
		s-1.3,0.3-1.7,0.8S652.4,38.8,652.4,40z"/>
	<path d="M664.5,34.3l0.1,1.3c0.8-1,1.9-1.5,3.2-1.5c1.2,0,2.1,0.3,2.6,1s0.9,1.7,0.9,3.1v7.2h-3v-7.1c0-0.6-0.1-1.1-0.4-1.4
		c-0.3-0.3-0.7-0.4-1.4-0.4c-0.8,0-1.5,0.4-1.9,1.1v7.8h-3V34.3H664.5z"/>
	<path d="M673.1,39.8c0-1.7,0.4-3.1,1.2-4.1s1.9-1.6,3.3-1.6c1.2,0,2.2,0.4,2.8,1.3l0.1-1h2.7V45c0,1-0.2,1.8-0.7,2.5
		c-0.4,0.7-1.1,1.3-1.9,1.6s-1.7,0.6-2.8,0.6c-0.8,0-1.6-0.2-2.4-0.5s-1.4-0.7-1.8-1.3l1.3-1.8c0.7,0.8,1.6,1.2,2.7,1.2
		c0.8,0,1.4-0.2,1.8-0.6c0.4-0.4,0.7-1,0.7-1.8v-0.6c-0.7,0.8-1.6,1.2-2.7,1.2c-1.3,0-2.4-0.5-3.2-1.6c-0.8-1-1.2-2.4-1.2-4.1v0
		H673.1z M676.1,40c0,1,0.2,1.8,0.6,2.4s1,0.9,1.7,0.9c0.9,0,1.5-0.3,1.9-1v-4.7c-0.4-0.7-1-1-1.9-1c-0.7,0-1.3,0.3-1.7,0.9
		C676.3,38,676.1,38.8,676.1,40z"/>
	<path d="M690.6,45.6c-1.6,0-3-0.5-4-1.5s-1.5-2.3-1.5-4v-0.3c0-1.1,0.2-2.1,0.6-3c0.4-0.9,1-1.6,1.8-2c0.8-0.5,1.7-0.7,2.7-0.7
		c1.5,0,2.7,0.5,3.6,1.4c0.9,1,1.3,2.3,1.3,4.1v1.2H688c0.1,0.7,0.4,1.3,0.9,1.7s1.1,0.7,1.8,0.7c1.1,0,2-0.4,2.7-1.2l1.5,1.6
		c-0.4,0.6-1,1.1-1.8,1.5C692.4,45.4,691.5,45.6,690.6,45.6z M690.3,36.5c-0.6,0-1.1,0.2-1.4,0.6c-0.4,0.4-0.6,1-0.7,1.7h4.1v-0.2
		c0-0.7-0.2-1.2-0.5-1.5C691.4,36.7,690.9,36.5,690.3,36.5z"/>
	<path d="M703.1,37.1c-0.4-0.1-0.8-0.1-1.1-0.1c-1.1,0-1.9,0.4-2.2,1.1v7.3h-3V34.3h2.8l0.1,1.3c0.6-1,1.4-1.5,2.5-1.5
		c0.3,0,0.6,0,0.9,0.1V37.1z"/>
	<path d="M716,37.1c-0.4-0.1-0.8-0.1-1.1-0.1c-1.1,0-1.9,0.4-2.2,1.1v7.3h-3V34.3h2.8l0.1,1.3c0.6-1,1.4-1.5,2.5-1.5
		c0.3,0,0.6,0,0.9,0.1V37.1z"/>
	<path d="M722.3,45.6c-1.6,0-3-0.5-4-1.5s-1.5-2.3-1.5-4v-0.3c0-1.1,0.2-2.1,0.6-3c0.4-0.9,1-1.6,1.8-2c0.8-0.5,1.7-0.7,2.7-0.7
		c1.5,0,2.7,0.5,3.6,1.4c0.9,1,1.3,2.3,1.3,4.1v1.2h-7.1c0.1,0.7,0.4,1.3,0.9,1.7s1.1,0.7,1.8,0.7c1.1,0,2-0.4,2.7-1.2l1.5,1.6
		c-0.4,0.6-1,1.1-1.8,1.5C724.1,45.4,723.2,45.6,722.3,45.6z M722,36.5c-0.6,0-1.1,0.2-1.4,0.6c-0.4,0.4-0.6,1-0.7,1.7h4.1v-0.2
		c0-0.7-0.2-1.2-0.5-1.5C723.1,36.7,722.6,36.5,722,36.5z"/>
	<path d="M731.7,45.4h-3V29.7h3V45.4z"/>
	<path d="M739.2,45.6c-1.6,0-3-0.5-4-1.5s-1.5-2.3-1.5-4v-0.3c0-1.1,0.2-2.1,0.6-3c0.4-0.9,1-1.6,1.8-2c0.8-0.5,1.7-0.7,2.7-0.7
		c1.5,0,2.7,0.5,3.6,1.4c0.9,1,1.3,2.3,1.3,4.1v1.2h-7c0.1,0.7,0.4,1.3,0.9,1.7s1.1,0.7,1.8,0.7c1.1,0,2-0.4,2.7-1.2l1.5,1.6
		c-0.4,0.6-1,1.1-1.8,1.5C741,45.4,740.2,45.6,739.2,45.6z M738.9,36.5c-0.6,0-1.1,0.2-1.4,0.6c-0.4,0.4-0.6,1-0.7,1.7h4.1v-0.2
		c0-0.7-0.2-1.2-0.5-1.5C740,36.7,739.5,36.5,738.9,36.5z"/>
	<path d="M749.5,41.8l2.1-7.5h3.1L751,45.4h-2.8l-3.7-11.1h3.1L749.5,41.8z"/>
	<path d="M762.2,45.4c-0.1-0.3-0.2-0.6-0.3-1c-0.7,0.8-1.7,1.2-2.8,1.2s-2-0.3-2.7-0.9c-0.7-0.6-1.1-1.4-1.1-2.4
		c0-1.2,0.4-2.1,1.3-2.7c0.9-0.6,2.1-0.9,3.8-1h1.4V38c0-0.5-0.1-0.9-0.4-1.2c-0.3-0.3-0.7-0.5-1.2-0.5s-0.9,0.1-1.2,0.4
		c-0.3,0.2-0.4,0.6-0.4,1h-3c0-0.6,0.2-1.2,0.6-1.8s1-1,1.7-1.3s1.5-0.5,2.4-0.5c1.4,0,2.5,0.3,3.3,1s1.2,1.7,1.2,2.9v4.8
		c0,1.1,0.2,1.8,0.4,2.4v0.2C765.2,45.4,762.2,45.4,762.2,45.4z M759.8,43.4c0.4,0,0.8-0.1,1.2-0.3s0.6-0.5,0.8-0.8v-1.9h-1.1
		c-1.5,0-2.3,0.5-2.4,1.5v0.2c0,0.4,0.1,0.7,0.4,0.9C759,43.2,759.3,43.4,759.8,43.4z"/>
	<path d="M769.8,34.3l0.1,1.3c0.8-1,1.9-1.5,3.2-1.5c1.2,0,2.1,0.3,2.6,1s0.9,1.7,0.9,3.1v7.2h-3v-7.1c0-0.6-0.1-1.1-0.4-1.4
		c-0.3-0.3-0.7-0.4-1.4-0.4c-0.8,0-1.5,0.4-1.9,1.1v7.8h-3V34.3H769.8z"/>
	<path d="M782.4,31.6v2.7h1.9v2.2h-1.9V42c0,0.4,0.1,0.7,0.2,0.9s0.5,0.3,0.9,0.3c0.3,0,0.6,0,0.9-0.1v2.2c-0.6,0.2-1.2,0.3-1.8,0.3
		c-2.1,0-3.1-1-3.2-3.1v-6h-1.6v-2.2h1.6v-2.7C779.4,31.6,782.4,31.6,782.4,31.6z"/>
	<path d="M786.1,44c0-0.5,0.2-0.9,0.5-1.1c0.3-0.3,0.7-0.4,1.2-0.4s0.9,0.1,1.2,0.4c0.3,0.3,0.5,0.7,0.5,1.1c0,0.5-0.2,0.8-0.5,1.1
		s-0.7,0.4-1.2,0.4s-0.9-0.1-1.2-0.4C786.2,44.8,786.1,44.4,786.1,44z"/>
</g>
<g>
	<path d="M165.6,65.2v5h-1.7V57.4h4.7c1.4,0,2.5,0.4,3.3,1.1s1.2,1.7,1.2,2.8c0,1.2-0.4,2.2-1.2,2.9s-1.9,1-3.3,1H165.6z
		 M165.6,63.8h3c0.9,0,1.6-0.2,2.1-0.6c0.5-0.4,0.7-1,0.7-1.8s-0.2-1.4-0.7-1.8c-0.5-0.5-1.1-0.7-2-0.7h-3.1V63.8z"/>
	<path d="M176.8,70.2h-1.6V56.7h1.6V70.2z"/>
	<path d="M183.3,70.3c-1.3,0-2.3-0.4-3.1-1.3s-1.2-2-1.2-3.4v-0.3c0-0.9,0.2-1.8,0.5-2.5s0.9-1.3,1.5-1.7s1.3-0.6,2.1-0.6
		c1.2,0,2.2,0.4,2.9,1.2s1,2,1,3.5v0.7h-6.4c0,0.9,0.3,1.7,0.8,2.3s1.2,0.9,2,0.9c0.6,0,1.1-0.1,1.5-0.4s0.7-0.5,1-0.9l1,0.8
		C186.1,69.7,184.9,70.3,183.3,70.3z M183.1,61.8c-0.7,0-1.2,0.2-1.7,0.7s-0.7,1.1-0.8,2h4.8v-0.1c0-0.8-0.3-1.5-0.7-1.9
		S183.8,61.8,183.1,61.8z"/>
	<path d="M194.8,70.2c-0.1-0.2-0.2-0.5-0.2-1c-0.8,0.8-1.7,1.2-2.7,1.2c-0.9,0-1.7-0.3-2.3-0.8s-0.9-1.2-0.9-2c0-1,0.4-1.8,1.1-2.3
		s1.8-0.8,3.2-0.8h1.6v-0.7c0-0.6-0.2-1-0.5-1.4s-0.8-0.5-1.5-0.5c-0.6,0-1.1,0.1-1.5,0.4s-0.6,0.6-0.6,1.1h-1.6
		c0-0.5,0.2-0.9,0.5-1.4s0.8-0.8,1.4-1.1s1.2-0.4,1.9-0.4c1.1,0,2,0.3,2.6,0.8s0.9,1.3,1,2.3V68c0,0.9,0.1,1.6,0.3,2.1v0.1
		L194.8,70.2L194.8,70.2z M192.1,68.9c0.5,0,1-0.1,1.5-0.4s0.8-0.6,1-1v-2h-1.3c-2,0-3,0.6-3,1.7c0,0.5,0.2,0.9,0.5,1.2
		S191.6,68.9,192.1,68.9z"/>
	<path d="M204.3,67.6c0-0.4-0.2-0.8-0.5-1s-0.9-0.5-1.7-0.6s-1.5-0.4-2-0.6s-0.8-0.5-1.1-0.9s-0.3-0.7-0.3-1.2c0-0.8,0.3-1.4,1-2
		s1.5-0.8,2.5-0.8c1.1,0,2,0.3,2.6,0.8s1,1.3,1,2.1h-1.6c0-0.4-0.2-0.8-0.6-1.2s-0.9-0.5-1.4-0.5c-0.6,0-1.1,0.1-1.4,0.4
		s-0.5,0.6-0.5,1s0.2,0.7,0.5,0.9c0.3,0.2,0.9,0.4,1.7,0.6s1.5,0.4,2,0.7s0.9,0.6,1.1,0.9s0.4,0.8,0.4,1.3c0,0.8-0.3,1.5-1,2
		s-1.6,0.8-2.6,0.8c-0.8,0-1.4-0.1-2-0.4s-1-0.6-1.4-1.1s-0.5-1-0.5-1.6h1.6c0,0.5,0.2,1,0.7,1.3s0.9,0.5,1.6,0.5
		c0.6,0,1.1-0.1,1.5-0.4S204.3,68.1,204.3,67.6z"/>
	<path d="M211.9,70.3c-1.3,0-2.3-0.4-3.1-1.3s-1.2-2-1.2-3.4v-0.3c0-0.9,0.2-1.8,0.5-2.5s0.9-1.3,1.5-1.7s1.3-0.6,2.1-0.6
		c1.2,0,2.2,0.4,2.9,1.2s1,2,1,3.5v0.7h-6.4c0,0.9,0.3,1.7,0.8,2.3s1.2,0.9,2,0.9c0.6,0,1.1-0.1,1.5-0.4s0.7-0.5,1-0.9l1,0.8
		C214.7,69.7,213.5,70.3,211.9,70.3z M211.7,61.8c-0.7,0-1.2,0.2-1.7,0.7s-0.7,1.1-0.8,2h4.8v-0.1c0-0.8-0.3-1.5-0.7-1.9
		S212.4,61.8,211.7,61.8z"/>
	<path d="M223.6,61.8c0.7-0.9,1.7-1.3,2.8-1.3c2,0,3,1.1,3,3.4v6.3h-1.6v-6.3c0-0.7-0.2-1.2-0.5-1.5s-0.8-0.5-1.4-0.5
		c-0.5,0-1,0.1-1.4,0.4s-0.7,0.7-0.9,1.1v6.8H222V56.7h1.6V61.8z"/>
	<path d="M235.9,70.3c-1.3,0-2.3-0.4-3.1-1.3s-1.2-2-1.2-3.4v-0.3c0-0.9,0.2-1.8,0.5-2.5s0.9-1.3,1.5-1.7s1.3-0.6,2.1-0.6
		c1.2,0,2.2,0.4,2.9,1.2s1,2,1,3.5v0.7h-6.4c0,0.9,0.3,1.7,0.8,2.3s1.2,0.9,2,0.9c0.6,0,1.1-0.1,1.5-0.4s0.7-0.5,1-0.9l1,0.8
		C238.6,69.7,237.4,70.3,235.9,70.3z M235.6,61.8c-0.7,0-1.2,0.2-1.7,0.7s-0.7,1.1-0.8,2h4.8v-0.1c0-0.8-0.3-1.5-0.7-1.9
		S236.3,61.8,235.6,61.8z"/>
	<path d="M243.2,70.2h-1.6V56.7h1.6V70.2z"/>
	<path d="M253.8,65.5c0,1.4-0.3,2.6-1,3.5s-1.6,1.3-2.7,1.3c-1.2,0-2.1-0.4-2.7-1.1v4.6h-1.6V60.7h1.5l0.1,1.1
		c0.7-0.8,1.6-1.2,2.8-1.2c1.1,0,2,0.4,2.7,1.3s1,2.1,1,3.6l0,0H253.8z M252.2,65.3c0-1.1-0.2-1.9-0.7-2.5s-1.1-0.9-1.9-0.9
		c-1,0-1.7,0.4-2.2,1.3v4.5c0.5,0.9,1.2,1.3,2.2,1.3c0.8,0,1.4-0.3,1.9-0.9S252.2,66.5,252.2,65.3z"/>
	<path d="M266.2,69.2c-0.6,0.7-1.6,1.1-2.8,1.1c-1,0-1.8-0.3-2.3-0.9s-0.8-1.5-0.8-2.6v-6.2h1.6v6.1c0,1.4,0.6,2.2,1.8,2.2
		c1.2,0,2.1-0.5,2.5-1.4v-6.9h1.6v9.5h-1.5L266.2,69.2z"/>
	<path d="M278.3,65.5c0,1.4-0.3,2.6-1,3.5s-1.6,1.3-2.7,1.3c-1.2,0-2.1-0.4-2.7-1.1v4.6h-1.6V60.7h1.5l0.1,1.1
		c0.7-0.8,1.6-1.2,2.8-1.2c1.1,0,2,0.4,2.7,1.3S278.4,64,278.3,65.5L278.3,65.5L278.3,65.5z M276.7,65.3c0-1.1-0.2-1.9-0.7-2.5
		s-1.1-0.9-1.9-0.9c-1,0-1.7,0.4-2.2,1.3v4.5c0.5,0.9,1.2,1.3,2.2,1.3c0.8,0,1.4-0.3,1.9-0.9S276.7,66.5,276.7,65.3z"/>
	<path d="M280,65.3c0-1.5,0.3-2.6,1-3.5s1.6-1.3,2.7-1.3s2,0.4,2.6,1.1v-5h1.6v13.5h-1.5l-0.1-1c-0.7,0.8-1.6,1.2-2.7,1.2
		s-2-0.5-2.7-1.4s-1-2.1-1-3.5v-0.1H280z M281.6,65.5c0,1.1,0.2,1.9,0.7,2.5s1.1,0.9,1.8,0.9c1,0,1.8-0.5,2.3-1.4v-4.4
		c-0.5-0.9-1.2-1.3-2.2-1.3c-0.8,0-1.4,0.3-1.9,0.9S281.6,64.3,281.6,65.5z"/>
	<path d="M296.4,70.2c-0.1-0.2-0.2-0.5-0.2-1c-0.8,0.8-1.7,1.2-2.7,1.2c-0.9,0-1.7-0.3-2.3-0.8s-0.9-1.2-0.9-2c0-1,0.4-1.8,1.1-2.3
		s1.8-0.8,3.2-0.8h1.6v-0.7c0-0.6-0.2-1-0.5-1.4s-0.8-0.5-1.5-0.5c-0.6,0-1.1,0.1-1.5,0.4s-0.6,0.6-0.6,1.1h-1.6
		c0-0.5,0.2-0.9,0.5-1.4s0.8-0.8,1.4-1.1s1.2-0.4,1.9-0.4c1.1,0,2,0.3,2.6,0.8s0.9,1.3,1,2.3V68c0,0.9,0.1,1.6,0.3,2.1v0.1
		L296.4,70.2L296.4,70.2z M293.7,68.9c0.5,0,1-0.1,1.5-0.4s0.8-0.6,1-1v-2h-1.3c-2,0-3,0.6-3,1.7c0,0.5,0.2,0.9,0.5,1.2
		S293.2,68.9,293.7,68.9z"/>
	<path d="M302.5,58.4v2.3h1.8V62h-1.8v5.9c0,0.4,0.1,0.7,0.2,0.9c0.2,0.2,0.4,0.3,0.8,0.3c0.2,0,0.4,0,0.8-0.1v1.3
		c-0.4,0.1-0.8,0.2-1.2,0.2c-0.7,0-1.3-0.2-1.6-0.7s-0.6-1.1-0.6-1.9V62h-1.7v-1.3h1.7v-2.3C300.9,58.4,302.5,58.4,302.5,58.4z"/>
	<path d="M310.2,70.3c-1.3,0-2.3-0.4-3.1-1.3s-1.2-2-1.2-3.4v-0.3c0-0.9,0.2-1.8,0.5-2.5s0.9-1.3,1.5-1.7s1.3-0.6,2.1-0.6
		c1.2,0,2.2,0.4,2.9,1.2s1,2,1,3.5v0.7h-6.4c0,0.9,0.3,1.7,0.8,2.3s1.2,0.9,2,0.9c0.6,0,1.1-0.1,1.5-0.4s0.7-0.5,1-0.9l1,0.8
		C312.9,69.7,311.7,70.3,310.2,70.3z M310,61.8c-0.7,0-1.2,0.2-1.7,0.7s-0.7,1.1-0.8,2h4.8v-0.1c0-0.8-0.3-1.5-0.7-1.9
		S310.6,61.8,310,61.8z"/>
	<path d="M322.4,58.4v2.3h1.8V62h-1.8v5.9c0,0.4,0.1,0.7,0.2,0.9c0.2,0.2,0.4,0.3,0.8,0.3c0.2,0,0.4,0,0.8-0.1v1.3
		c-0.4,0.1-0.8,0.2-1.2,0.2c-0.7,0-1.3-0.2-1.6-0.7s-0.6-1.1-0.6-1.9V62H319v-1.3h1.7v-2.3C320.7,58.4,322.4,58.4,322.4,58.4z"/>
	<path d="M327.7,61.8c0.7-0.9,1.7-1.3,2.8-1.3c2,0,3,1.1,3,3.4v6.3h-1.6v-6.3c0-0.7-0.2-1.2-0.5-1.5s-0.8-0.5-1.4-0.5
		c-0.5,0-1,0.1-1.4,0.4s-0.7,0.7-0.9,1.1v6.8h-1.6V56.7h1.6V61.8z"/>
	<path d="M336,58.1c0-0.3,0.1-0.5,0.2-0.7s0.4-0.3,0.7-0.3s0.6,0.1,0.7,0.3s0.2,0.4,0.2,0.7s-0.1,0.5-0.2,0.7s-0.4,0.3-0.7,0.3
		s-0.6-0.1-0.7-0.3S336,58.4,336,58.1z M337.8,70.2h-1.6v-9.5h1.6V70.2z"/>
	<path d="M345.9,67.6c0-0.4-0.2-0.8-0.5-1s-0.9-0.5-1.7-0.6s-1.5-0.4-2-0.6s-0.8-0.5-1.1-0.9s-0.3-0.7-0.3-1.2c0-0.8,0.3-1.4,1-2
		s1.5-0.8,2.5-0.8c1.1,0,2,0.3,2.6,0.8s1,1.3,1,2.1h-1.6c0-0.4-0.2-0.8-0.6-1.2s-0.9-0.5-1.4-0.5c-0.6,0-1.1,0.1-1.4,0.4
		s-0.5,0.6-0.5,1s0.2,0.7,0.5,0.9c0.3,0.2,0.9,0.4,1.7,0.6s1.5,0.4,2,0.7s0.9,0.6,1.1,0.9s0.4,0.8,0.4,1.3c0,0.8-0.3,1.5-1,2
		s-1.6,0.8-2.6,0.8c-0.8,0-1.4-0.1-2-0.4s-1-0.6-1.4-1.1s-0.5-1-0.5-1.6h1.6c0,0.5,0.2,1,0.7,1.3s0.9,0.5,1.6,0.5
		c0.6,0,1.1-0.1,1.5-0.4S345.9,68.1,345.9,67.6z"/>
	<path d="M361.4,66.8H356l-1.2,3.3h-1.7l4.9-12.8h1.5l4.9,12.8h-1.7L361.4,66.8z M356.6,65.4h4.4l-2.2-6L356.6,65.4z"/>
	<path d="M370.4,62.1c-0.2,0-0.5-0.1-0.8-0.1c-1.1,0-1.8,0.5-2.2,1.4v6.8h-1.6v-9.5h1.6v1.1c0.5-0.8,1.3-1.3,2.3-1.3
		c0.3,0,0.6,0,0.7,0.1V62.1z"/>
	<path d="M374.6,58.4v2.3h1.8V62h-1.8v5.9c0,0.4,0.1,0.7,0.2,0.9c0.2,0.2,0.4,0.3,0.8,0.3c0.2,0,0.4,0,0.8-0.1v1.3
		c-0.4,0.1-0.8,0.2-1.2,0.2c-0.7,0-1.3-0.2-1.6-0.7s-0.6-1.1-0.6-1.9V62h-1.7v-1.3h1.7v-2.3C373,58.4,374.6,58.4,374.6,58.4z"/>
	<path d="M378.3,58.1c0-0.3,0.1-0.5,0.2-0.7s0.4-0.3,0.7-0.3s0.6,0.1,0.7,0.3s0.2,0.4,0.2,0.7s-0.1,0.5-0.2,0.7s-0.4,0.3-0.7,0.3
		s-0.6-0.1-0.7-0.3S378.3,58.4,378.3,58.1z M380,70.2h-1.6v-9.5h1.6V70.2z"/>
	<path d="M386.4,69c0.6,0,1.1-0.2,1.5-0.5s0.7-0.8,0.7-1.3h1.5c0,0.5-0.2,1.1-0.6,1.6s-0.8,0.9-1.4,1.2s-1.2,0.4-1.8,0.4
		c-1.3,0-2.3-0.4-3.1-1.3s-1.1-2-1.1-3.5v-0.3c0-0.9,0.2-1.7,0.5-2.5s0.8-1.3,1.5-1.7s1.4-0.6,2.3-0.6c1.1,0,2,0.3,2.7,1
		s1.1,1.5,1.1,2.5h-1.5c0-0.6-0.3-1.1-0.7-1.5s-0.9-0.6-1.6-0.6c-0.8,0-1.5,0.3-1.9,0.9s-0.7,1.5-0.7,2.6v0.3c0,1.1,0.2,1.9,0.7,2.5
		S385.6,69,386.4,69z"/>
	<path d="M393.8,70.2h-1.6V56.7h1.6V70.2z"/>
	<path d="M400.4,70.3c-1.3,0-2.3-0.4-3.1-1.3s-1.2-2-1.2-3.4v-0.3c0-0.9,0.2-1.8,0.5-2.5s0.9-1.3,1.5-1.7s1.3-0.6,2.1-0.6
		c1.2,0,2.2,0.4,2.9,1.2s1,2,1,3.5v0.7h-6.4c0,0.9,0.3,1.7,0.8,2.3s1.2,0.9,2,0.9c0.6,0,1.1-0.1,1.5-0.4s0.7-0.5,1-0.9l1,0.8
		C403.1,69.7,401.9,70.3,400.4,70.3z M400.2,61.8c-0.7,0-1.2,0.2-1.7,0.7s-0.7,1.1-0.8,2h4.8v-0.1c0-0.8-0.3-1.5-0.7-1.9
		S400.8,61.8,400.2,61.8z"/>
	<path d="M412.6,58.4v2.3h1.8V62h-1.8v5.9c0,0.4,0.1,0.7,0.2,0.9c0.2,0.2,0.4,0.3,0.8,0.3c0.2,0,0.4,0,0.8-0.1v1.3
		c-0.4,0.1-0.8,0.2-1.2,0.2c-0.7,0-1.3-0.2-1.6-0.7s-0.6-1.1-0.6-1.9V62h-1.7v-1.3h1.7v-2.3C411,58.4,412.6,58.4,412.6,58.4z"/>
	<path d="M415.7,65.3c0-0.9,0.2-1.8,0.5-2.5c0.4-0.7,0.9-1.3,1.5-1.7c0.7-0.4,1.4-0.6,2.2-0.6c1.3,0,2.3,0.4,3.1,1.3
		c0.8,0.9,1.2,2.1,1.2,3.6v0.1c0,0.9-0.2,1.8-0.5,2.5c-0.4,0.7-0.9,1.3-1.5,1.7c-0.7,0.4-1.4,0.6-2.3,0.6c-1.3,0-2.3-0.4-3.1-1.3
		C416,68.1,415.6,66.9,415.7,65.3L415.7,65.3L415.7,65.3z M417.3,65.5c0,1.1,0.2,1.9,0.7,2.5s1.1,1,2,1c0.8,0,1.5-0.3,2-1
		s0.7-1.6,0.7-2.7c0-1-0.2-1.9-0.7-2.5s-1.2-1-2-1s-1.5,0.3-1.9,1S417.3,64.3,417.3,65.5z"/>
	<path d="M435.4,62.1c-0.2,0-0.5-0.1-0.8-0.1c-1.1,0-1.8,0.5-2.2,1.4v6.8h-1.6v-9.5h1.6v1.1c0.5-0.8,1.3-1.3,2.3-1.3
		c0.3,0,0.6,0,0.7,0.1V62.1z"/>
	<path d="M440.7,70.3c-1.3,0-2.3-0.4-3.1-1.3s-1.2-2-1.2-3.4v-0.3c0-0.9,0.2-1.8,0.5-2.5c0.4-0.7,0.9-1.3,1.5-1.7s1.3-0.6,2.1-0.6
		c1.2,0,2.2,0.4,2.9,1.2s1,2,1,3.5v0.7H438c0,0.9,0.3,1.7,0.8,2.3c0.5,0.6,1.2,0.9,2,0.9c0.6,0,1.1-0.1,1.5-0.4s0.7-0.5,1-0.9l1,0.8
		C443.5,69.7,442.3,70.3,440.7,70.3z M440.5,61.8c-0.7,0-1.2,0.2-1.7,0.7s-0.7,1.1-0.8,2h4.8v-0.1c0-0.8-0.3-1.5-0.7-1.9
		S441.2,61.8,440.5,61.8z"/>
	<path d="M447.1,70.2v-8.3h-1.5v-1.3h1.5v-1c0-1,0.3-1.8,0.8-2.4s1.3-0.8,2.3-0.8c0.4,0,0.7,0,1.1,0.1l-0.1,1.3
		c-0.3-0.1-0.6-0.1-0.9-0.1c-0.5,0-0.9,0.2-1.2,0.5s-0.4,0.8-0.4,1.3v1h2v1.3h-2v8.3L447.1,70.2L447.1,70.2z"/>
	<path d="M454.3,70.2h-1.6V56.7h1.6V70.2z"/>
	<path d="M460.9,70.3c-1.3,0-2.3-0.4-3.1-1.3s-1.2-2-1.2-3.4v-0.3c0-0.9,0.2-1.8,0.5-2.5c0.4-0.7,0.9-1.3,1.5-1.7s1.3-0.6,2.1-0.6
		c1.2,0,2.2,0.4,2.9,1.2s1,2,1,3.5v0.7h-6.4c0,0.9,0.3,1.7,0.8,2.3c0.5,0.6,1.2,0.9,2,0.9c0.6,0,1.1-0.1,1.5-0.4s0.7-0.5,1-0.9
		l1,0.8C463.6,69.7,462.4,70.3,460.9,70.3z M460.6,61.8c-0.7,0-1.2,0.2-1.7,0.7s-0.7,1.1-0.8,2h4.8v-0.1c0-0.8-0.3-1.5-0.7-1.9
		S461.3,61.8,460.6,61.8z"/>
	<path d="M470.3,69c0.6,0,1.1-0.2,1.5-0.5s0.7-0.8,0.7-1.3h1.5c0,0.5-0.2,1.1-0.6,1.6s-0.8,0.9-1.4,1.2s-1.2,0.4-1.8,0.4
		c-1.3,0-2.3-0.4-3.1-1.3c-0.8-0.9-1.1-2-1.1-3.5v-0.3c0-0.9,0.2-1.7,0.5-2.5s0.8-1.3,1.5-1.7s1.4-0.6,2.3-0.6c1.1,0,2,0.3,2.7,1
		c0.7,0.6,1.1,1.5,1.1,2.5h-1.5c0-0.6-0.3-1.1-0.7-1.5c-0.4-0.4-0.9-0.6-1.6-0.6c-0.8,0-1.5,0.3-1.9,0.9s-0.7,1.5-0.7,2.6v0.3
		c0,1.1,0.2,1.9,0.7,2.5S469.4,69,470.3,69z"/>
	<path d="M478.1,58.4v2.3h1.8V62h-1.8v5.9c0,0.4,0.1,0.7,0.2,0.9c0.2,0.2,0.4,0.3,0.8,0.3c0.2,0,0.4,0,0.8-0.1v1.3
		c-0.4,0.1-0.8,0.2-1.2,0.2c-0.7,0-1.3-0.2-1.6-0.7s-0.6-1.1-0.6-1.9V62h-1.7v-1.3h1.7v-2.3C476.5,58.4,478.1,58.4,478.1,58.4z"/>
	<path d="M490.8,62.1c-0.2,0-0.5-0.1-0.8-0.1c-1.1,0-1.8,0.5-2.2,1.4v6.8h-1.6v-9.5h1.6v1.1c0.5-0.8,1.3-1.3,2.3-1.3
		c0.3,0,0.6,0,0.7,0.1V62.1z"/>
	<path d="M496.1,70.3c-1.3,0-2.3-0.4-3.1-1.3s-1.2-2-1.2-3.4v-0.3c0-0.9,0.2-1.8,0.5-2.5c0.4-0.7,0.9-1.3,1.5-1.7s1.3-0.6,2.1-0.6
		c1.2,0,2.2,0.4,2.9,1.2s1,2,1,3.5v0.7h-6.4c0,0.9,0.3,1.7,0.8,2.3c0.5,0.6,1.2,0.9,2,0.9c0.6,0,1.1-0.1,1.5-0.4s0.7-0.5,1-0.9
		l1,0.8C498.9,69.7,497.7,70.3,496.1,70.3z M495.9,61.8c-0.7,0-1.2,0.2-1.7,0.7s-0.7,1.1-0.8,2h4.8v-0.1c0-0.8-0.3-1.5-0.7-1.9
		S496.5,61.8,495.9,61.8z"/>
	<path d="M505.5,69c0.6,0,1.1-0.2,1.5-0.5s0.7-0.8,0.7-1.3h1.5c0,0.5-0.2,1.1-0.6,1.6s-0.8,0.9-1.4,1.2s-1.2,0.4-1.8,0.4
		c-1.3,0-2.3-0.4-3.1-1.3c-0.8-0.9-1.1-2-1.1-3.5v-0.3c0-0.9,0.2-1.7,0.5-2.5s0.8-1.3,1.5-1.7s1.4-0.6,2.3-0.6c1.1,0,2,0.3,2.7,1
		c0.7,0.6,1.1,1.5,1.1,2.5h-1.5c0-0.6-0.3-1.1-0.7-1.5c-0.4-0.4-0.9-0.6-1.6-0.6c-0.8,0-1.5,0.3-1.9,0.9s-0.7,1.5-0.7,2.6v0.3
		c0,1.1,0.2,1.9,0.7,2.5S504.6,69,505.5,69z"/>
	<path d="M515,70.3c-1.3,0-2.3-0.4-3.1-1.3s-1.2-2-1.2-3.4v-0.3c0-0.9,0.2-1.8,0.5-2.5c0.4-0.7,0.9-1.3,1.5-1.7s1.3-0.6,2.1-0.6
		c1.2,0,2.2,0.4,2.9,1.2s1,2,1,3.5v0.7h-6.4c0,0.9,0.3,1.7,0.8,2.3c0.5,0.6,1.2,0.9,2,0.9c0.6,0,1.1-0.1,1.5-0.4s0.7-0.5,1-0.9
		l1,0.8C517.8,69.7,516.6,70.3,515,70.3z M514.8,61.8c-0.7,0-1.2,0.2-1.7,0.7s-0.7,1.1-0.8,2h4.8v-0.1c0-0.8-0.3-1.5-0.7-1.9
		S515.5,61.8,514.8,61.8z"/>
	<path d="M522.2,60.7l0.1,1.2c0.7-0.9,1.7-1.4,2.8-1.4c2,0,3,1.1,3,3.4v6.3h-1.6v-6.3c0-0.7-0.2-1.2-0.5-1.5s-0.8-0.5-1.4-0.5
		c-0.5,0-1,0.1-1.4,0.4s-0.7,0.7-0.9,1.1v6.8h-1.6v-9.5C520.7,60.7,522.2,60.7,522.2,60.7z"/>
	<path d="M532.8,58.4v2.3h1.8V62h-1.8v5.9c0,0.4,0.1,0.7,0.2,0.9c0.2,0.2,0.4,0.3,0.8,0.3c0.2,0,0.4,0,0.8-0.1v1.3
		c-0.4,0.1-0.8,0.2-1.2,0.2c-0.7,0-1.3-0.2-1.6-0.7s-0.6-1.1-0.6-1.9V62h-1.7v-1.3h1.7v-2.3C531.2,58.4,532.8,58.4,532.8,58.4z"/>
	<path d="M544.8,70.3c-1.3,0-2.3-0.4-3.1-1.3s-1.2-2-1.2-3.4v-0.3c0-0.9,0.2-1.8,0.5-2.5c0.4-0.7,0.9-1.3,1.5-1.7s1.3-0.6,2.1-0.6
		c1.2,0,2.2,0.4,2.9,1.2s1,2,1,3.5v0.7h-6.4c0,0.9,0.3,1.7,0.8,2.3c0.5,0.6,1.2,0.9,2,0.9c0.6,0,1.1-0.1,1.5-0.4s0.7-0.5,1-0.9
		l1,0.8C547.6,69.7,546.4,70.3,544.8,70.3z M544.6,61.8c-0.7,0-1.2,0.2-1.7,0.7s-0.7,1.1-0.8,2h4.8v-0.1c0-0.8-0.3-1.5-0.7-1.9
		S545.3,61.8,544.6,61.8z"/>
	<path d="M553.4,68l2.4-7.3h1.7l-3.4,9.5h-1.2l-3.4-9.5h1.7L553.4,68z"/>
	<path d="M562.9,70.3c-1.3,0-2.3-0.4-3.1-1.3s-1.2-2-1.2-3.4v-0.3c0-0.9,0.2-1.8,0.5-2.5c0.4-0.7,0.9-1.3,1.5-1.7s1.3-0.6,2.1-0.6
		c1.2,0,2.2,0.4,2.9,1.2s1,2,1,3.5v0.7h-6.4c0,0.9,0.3,1.7,0.8,2.3c0.5,0.6,1.2,0.9,2,0.9c0.6,0,1.1-0.1,1.5-0.4s0.7-0.5,1-0.9
		l1,0.8C565.6,69.7,564.5,70.3,562.9,70.3z M562.7,61.8c-0.7,0-1.2,0.2-1.7,0.7s-0.7,1.1-0.8,2h4.8v-0.1c0-0.8-0.3-1.5-0.7-1.9
		S563.3,61.8,562.7,61.8z"/>
	<path d="M570,60.7l0.1,1.2c0.7-0.9,1.7-1.4,2.8-1.4c2,0,3,1.1,3,3.4v6.3h-1.6v-6.3c0-0.7-0.2-1.2-0.5-1.5s-0.8-0.5-1.4-0.5
		c-0.5,0-1,0.1-1.4,0.4s-0.7,0.7-0.9,1.1v6.8h-1.6v-9.5C568.5,60.7,570,60.7,570,60.7z"/>
	<path d="M580.6,58.4v2.3h1.8V62h-1.8v5.9c0,0.4,0.1,0.7,0.2,0.9c0.2,0.2,0.4,0.3,0.8,0.3c0.2,0,0.4,0,0.8-0.1v1.3
		c-0.4,0.1-0.8,0.2-1.2,0.2c-0.7,0-1.3-0.2-1.6-0.7s-0.6-1.1-0.6-1.9V62h-1.7v-1.3h1.7v-2.3C579,58.4,580.6,58.4,580.6,58.4z"/>
	<path d="M589.8,67.6c0-0.4-0.2-0.8-0.5-1s-0.9-0.5-1.7-0.6s-1.5-0.4-2-0.6s-0.8-0.5-1.1-0.9c-0.2-0.3-0.3-0.7-0.3-1.2
		c0-0.8,0.3-1.4,1-2c0.7-0.5,1.5-0.8,2.5-0.8c1.1,0,2,0.3,2.6,0.8s1,1.3,1,2.1h-1.6c0-0.4-0.2-0.8-0.6-1.2c-0.4-0.3-0.9-0.5-1.4-0.5
		c-0.6,0-1.1,0.1-1.4,0.4s-0.5,0.6-0.5,1s0.2,0.7,0.5,0.9c0.3,0.2,0.9,0.4,1.7,0.6s1.5,0.4,2,0.7s0.9,0.6,1.1,0.9
		c0.2,0.4,0.4,0.8,0.4,1.3c0,0.8-0.3,1.5-1,2s-1.6,0.8-2.6,0.8c-0.8,0-1.4-0.1-2-0.4s-1-0.6-1.4-1.1c-0.3-0.5-0.5-1-0.5-1.6h1.6
		c0,0.5,0.2,1,0.7,1.3s0.9,0.5,1.6,0.5c0.6,0,1.1-0.1,1.5-0.4S589.8,68.1,589.8,67.6z"/>
	<path d="M597.6,65.3c0-0.9,0.2-1.8,0.5-2.5c0.4-0.7,0.9-1.3,1.5-1.7c0.7-0.4,1.4-0.6,2.2-0.6c1.3,0,2.3,0.4,3.1,1.3
		c0.8,0.9,1.2,2.1,1.2,3.6v0.1c0,0.9-0.2,1.8-0.5,2.5c-0.4,0.7-0.9,1.3-1.5,1.7c-0.7,0.4-1.4,0.6-2.3,0.6c-1.3,0-2.3-0.4-3.1-1.3
		S597.5,66.9,597.6,65.3L597.6,65.3L597.6,65.3z M599.2,65.5c0,1.1,0.2,1.9,0.7,2.5s1.1,1,2,1c0.8,0,1.5-0.3,2-1s0.7-1.6,0.7-2.7
		c0-1-0.2-1.9-0.7-2.5s-1.2-1-2-1s-1.5,0.3-1.9,1S599.2,64.3,599.2,65.5z"/>
	<path d="M612.9,62.1c-0.2,0-0.5-0.1-0.8-0.1c-1.1,0-1.8,0.5-2.2,1.4v6.8h-1.6v-9.5h1.6v1.1c0.5-0.8,1.3-1.3,2.3-1.3
		c0.3,0,0.6,0,0.7,0.1V62.1z"/>
	<path d="M620.3,60.7l0.1,1.2c0.7-0.9,1.7-1.4,2.8-1.4c2,0,3,1.1,3,3.4v6.3h-1.6v-6.3c0-0.7-0.2-1.2-0.5-1.5s-0.8-0.5-1.4-0.5
		c-0.5,0-1,0.1-1.4,0.4s-0.7,0.7-0.9,1.1v6.8h-1.6v-9.5C618.8,60.7,620.3,60.7,620.3,60.7z"/>
	<path d="M632.7,70.3c-1.3,0-2.3-0.4-3.1-1.3s-1.2-2-1.2-3.4v-0.3c0-0.9,0.2-1.8,0.5-2.5c0.4-0.7,0.9-1.3,1.5-1.7s1.3-0.6,2.1-0.6
		c1.2,0,2.2,0.4,2.9,1.2s1,2,1,3.5v0.7H630c0,0.9,0.3,1.7,0.8,2.3c0.5,0.6,1.2,0.9,2,0.9c0.6,0,1.1-0.1,1.5-0.4s0.7-0.5,1-0.9l1,0.8
		C635.5,69.7,634.3,70.3,632.7,70.3z M632.5,61.8c-0.7,0-1.2,0.2-1.7,0.7s-0.7,1.1-0.8,2h4.8v-0.1c0-0.8-0.3-1.5-0.7-1.9
		S633.2,61.8,632.5,61.8z"/>
	<path d="M646.7,67.9l1.8-7.3h1.6l-2.8,9.5H646l-2.3-7.2l-2.2,7.2h-1.3l-2.8-9.5h1.6l1.9,7.1l2.2-7.1h1.3L646.7,67.9z"/>
	<path d="M653.6,70.2H652V56.7h1.6V70.2z"/>
	<path d="M659.3,67.8l2.2-7.1h1.7l-3.8,11c-0.6,1.6-1.5,2.4-2.8,2.4h-0.3l-0.6-0.1v-1.3h0.4c0.6,0,1-0.1,1.3-0.3
		c0.3-0.2,0.6-0.6,0.8-1.2l0.4-1l-3.4-9.4h1.8L659.3,67.8z"/>
	<path d="M675,70.2c-0.1-0.2-0.2-0.5-0.2-1c-0.8,0.8-1.7,1.2-2.7,1.2c-0.9,0-1.7-0.3-2.3-0.8s-0.9-1.2-0.9-2c0-1,0.4-1.8,1.1-2.3
		c0.8-0.5,1.8-0.8,3.2-0.8h1.6v-0.7c0-0.6-0.2-1-0.5-1.4s-0.8-0.5-1.5-0.5c-0.6,0-1.1,0.1-1.5,0.4s-0.6,0.6-0.6,1.1h-1.6
		c0-0.5,0.2-0.9,0.5-1.4s0.8-0.8,1.4-1.1s1.2-0.4,1.9-0.4c1.1,0,2,0.3,2.6,0.8s0.9,1.3,1,2.3V68c0,0.9,0.1,1.6,0.3,2.1v0.1L675,70.2
		L675,70.2z M672.3,68.9c0.5,0,1-0.1,1.5-0.4s0.8-0.6,1-1v-2h-1.3c-2,0-3,0.6-3,1.7c0,0.5,0.2,0.9,0.5,1.2S671.8,68.9,672.3,68.9z"
		/>
	<path d="M681.9,68l2.4-7.3h1.7l-3.4,9.5h-1.2l-3.4-9.5h1.7L681.9,68z"/>
	<path d="M693.3,70.2c-0.1-0.2-0.2-0.5-0.2-1c-0.8,0.8-1.7,1.2-2.7,1.2c-0.9,0-1.7-0.3-2.3-0.8s-0.9-1.2-0.9-2c0-1,0.4-1.8,1.1-2.3
		c0.8-0.5,1.8-0.8,3.2-0.8h1.6v-0.7c0-0.6-0.2-1-0.5-1.4s-0.8-0.5-1.5-0.5c-0.6,0-1.1,0.1-1.5,0.4s-0.6,0.6-0.6,1.1h-1.6
		c0-0.5,0.2-0.9,0.5-1.4s0.8-0.8,1.4-1.1s1.2-0.4,1.9-0.4c1.1,0,2,0.3,2.6,0.8s0.9,1.3,1,2.3V68c0,0.9,0.1,1.6,0.3,2.1v0.1
		L693.3,70.2L693.3,70.2z M690.6,68.9c0.5,0,1-0.1,1.5-0.4s0.8-0.6,1-1v-2h-1.3c-2,0-3,0.6-3,1.7c0,0.5,0.2,0.9,0.5,1.2
		S690,68.9,690.6,68.9z"/>
	<path d="M697.2,58.1c0-0.3,0.1-0.5,0.2-0.7s0.4-0.3,0.7-0.3s0.6,0.1,0.7,0.3s0.2,0.4,0.2,0.7s-0.1,0.5-0.2,0.7s-0.4,0.3-0.7,0.3
		s-0.6-0.1-0.7-0.3S697.2,58.4,697.2,58.1z M698.9,70.2h-1.6v-9.5h1.6V70.2z"/>
	<path d="M703.3,70.2h-1.6V56.7h1.6V70.2z"/>
	<path d="M711.8,70.2c-0.1-0.2-0.2-0.5-0.2-1c-0.8,0.8-1.7,1.2-2.7,1.2c-0.9,0-1.7-0.3-2.3-0.8s-0.9-1.2-0.9-2c0-1,0.4-1.8,1.1-2.3
		c0.8-0.5,1.8-0.8,3.2-0.8h1.6v-0.7c0-0.6-0.2-1-0.5-1.4s-0.8-0.5-1.5-0.5c-0.6,0-1.1,0.1-1.5,0.4s-0.6,0.6-0.6,1.1h-1.6
		c0-0.5,0.2-0.9,0.5-1.4s0.8-0.8,1.4-1.1s1.2-0.4,1.9-0.4c1.1,0,2,0.3,2.6,0.8s0.9,1.3,1,2.3V68c0,0.9,0.1,1.6,0.3,2.1v0.1
		L711.8,70.2L711.8,70.2z M709.1,68.9c0.5,0,1-0.1,1.5-0.4s0.8-0.6,1-1v-2h-1.3c-2,0-3,0.6-3,1.7c0,0.5,0.2,0.9,0.5,1.2
		S708.6,68.9,709.1,68.9z"/>
	<path d="M723.8,65.5c0,1.5-0.3,2.6-1,3.5s-1.6,1.3-2.7,1.3c-1.2,0-2.1-0.4-2.8-1.3l-0.1,1.1h-1.5V56.7h1.6v5
		c0.7-0.8,1.6-1.2,2.7-1.2s2.1,0.4,2.7,1.3C723.4,62.7,723.7,63.9,723.8,65.5L723.8,65.5L723.8,65.5z M722.1,65.3
		c0-1.1-0.2-2-0.6-2.6s-1-0.9-1.8-0.9c-1.1,0-1.8,0.5-2.3,1.5v4.1c0.5,1,1.3,1.5,2.3,1.5c0.8,0,1.4-0.3,1.8-0.9
		S722.1,66.5,722.1,65.3z"/>
	<path d="M727.6,70.2H726V56.7h1.6V70.2z"/>
	<path d="M734.1,70.3c-1.3,0-2.3-0.4-3.1-1.3s-1.2-2-1.2-3.4v-0.3c0-0.9,0.2-1.8,0.5-2.5c0.4-0.7,0.9-1.3,1.5-1.7s1.3-0.6,2.1-0.6
		c1.2,0,2.2,0.4,2.9,1.2s1,2,1,3.5v0.7h-6.4c0,0.9,0.3,1.7,0.8,2.3c0.5,0.6,1.2,0.9,2,0.9c0.6,0,1.1-0.1,1.5-0.4s0.7-0.5,1-0.9
		l1,0.8C736.9,69.7,735.7,70.3,734.1,70.3z M733.9,61.8c-0.7,0-1.2,0.2-1.7,0.7s-0.7,1.1-0.8,2h4.8v-0.1c0-0.8-0.3-1.5-0.7-1.9
		S734.6,61.8,733.9,61.8z"/>
	<path d="M744.2,58.1c0-0.3,0.1-0.5,0.2-0.7s0.4-0.3,0.7-0.3s0.6,0.1,0.7,0.3s0.2,0.4,0.2,0.7s-0.1,0.5-0.2,0.7s-0.4,0.3-0.7,0.3
		s-0.6-0.1-0.7-0.3S744.2,58.4,744.2,58.1z M745.9,70.2h-1.6v-9.5h1.6V70.2z"/>
	<path d="M750.1,60.7l0.1,1.2c0.7-0.9,1.7-1.4,2.8-1.4c2,0,3,1.1,3,3.4v6.3h-1.6v-6.3c0-0.7-0.2-1.2-0.5-1.5s-0.8-0.5-1.4-0.5
		c-0.5,0-1,0.1-1.4,0.4s-0.7,0.7-0.9,1.1v6.8h-1.6v-9.5C748.6,60.7,750.1,60.7,750.1,60.7z"/>
	<path d="M759.3,70.2v-8.3h-1.5v-1.3h1.5v-1c0-1,0.3-1.8,0.8-2.4s1.3-0.8,2.3-0.8c0.4,0,0.7,0,1.1,0.1l-0.1,1.3
		c-0.3-0.1-0.6-0.1-0.9-0.1c-0.5,0-0.9,0.2-1.2,0.5s-0.4,0.8-0.4,1.3v1h2v1.3h-2v8.3L759.3,70.2L759.3,70.2z"/>
	<path d="M764.3,65.3c0-0.9,0.2-1.8,0.5-2.5c0.4-0.7,0.9-1.3,1.5-1.7c0.7-0.4,1.4-0.6,2.2-0.6c1.3,0,2.3,0.4,3.1,1.3
		c0.8,0.9,1.2,2.1,1.2,3.6v0.1c0,0.9-0.2,1.8-0.5,2.5c-0.4,0.7-0.9,1.3-1.5,1.7c-0.7,0.4-1.4,0.6-2.3,0.6c-1.3,0-2.3-0.4-3.1-1.3
		S764.2,66.9,764.3,65.3L764.3,65.3L764.3,65.3z M765.9,65.5c0,1.1,0.2,1.9,0.7,2.5s1.1,1,2,1c0.8,0,1.5-0.3,2-1s0.7-1.6,0.7-2.7
		c0-1-0.2-1.9-0.7-2.5s-1.2-1-2-1s-1.5,0.3-1.9,1S765.9,64.3,765.9,65.5z"/>
	<path d="M779.6,62.1c-0.2,0-0.5-0.1-0.8-0.1c-1.1,0-1.8,0.5-2.2,1.4v6.8H775v-9.5h1.6v1.1c0.5-0.8,1.3-1.3,2.3-1.3
		c0.3,0,0.6,0,0.7,0.1V62.1z"/>
	<path d="M782.6,60.7v1.1c0.7-0.8,1.6-1.2,2.8-1.2c1.3,0,2.2,0.5,2.7,1.5c0.3-0.5,0.7-0.8,1.2-1.1s1.1-0.4,1.8-0.4
		c2.1,0,3.1,1.1,3.2,3.3v6.4h-1.6V64c0-0.7-0.2-1.2-0.5-1.5s-0.8-0.5-1.6-0.5c-0.6,0-1.1,0.2-1.5,0.5s-0.6,0.8-0.7,1.5v6.3h-1.6
		v-6.2c0-1.4-0.7-2.1-2-2.1c-1.1,0-1.8,0.5-2.2,1.4v6.9H781v-9.5h1.6V60.7z"/>
	<path d="M802.7,70.2c-0.1-0.2-0.2-0.5-0.2-1c-0.8,0.8-1.7,1.2-2.7,1.2c-0.9,0-1.7-0.3-2.3-0.8s-0.9-1.2-0.9-2c0-1,0.4-1.8,1.1-2.3
		c0.8-0.5,1.8-0.8,3.2-0.8h1.6v-0.7c0-0.6-0.2-1-0.5-1.4s-0.8-0.5-1.5-0.5c-0.6,0-1.1,0.1-1.5,0.4s-0.6,0.6-0.6,1.1h-1.6
		c0-0.5,0.2-0.9,0.5-1.4s0.8-0.8,1.4-1.1s1.2-0.4,1.9-0.4c1.1,0,2,0.3,2.6,0.8s0.9,1.3,1,2.3V68c0,0.9,0.1,1.6,0.3,2.1v0.1
		L802.7,70.2L802.7,70.2z M800,68.9c0.5,0,1-0.1,1.5-0.4s0.8-0.6,1-1v-2h-1.3c-2,0-3,0.6-3,1.7c0,0.5,0.2,0.9,0.5,1.2
		S799.5,68.9,800,68.9z"/>
	<path d="M808.8,58.4v2.3h1.8V62h-1.8v5.9c0,0.4,0.1,0.7,0.2,0.9c0.2,0.2,0.4,0.3,0.8,0.3c0.2,0,0.4,0,0.8-0.1v1.3
		c-0.4,0.1-0.8,0.2-1.2,0.2c-0.7,0-1.3-0.2-1.6-0.7s-0.6-1.1-0.6-1.9V62h-1.7v-1.3h1.7v-2.3C807.2,58.4,808.8,58.4,808.8,58.4z"/>
	<path d="M812.5,58.1c0-0.3,0.1-0.5,0.2-0.7s0.4-0.3,0.7-0.3s0.6,0.1,0.7,0.3s0.2,0.4,0.2,0.7s-0.1,0.5-0.2,0.7s-0.4,0.3-0.7,0.3
		s-0.6-0.1-0.7-0.3S812.5,58.4,812.5,58.1z M814.3,70.2h-1.6v-9.5h1.6V70.2z"/>
	<path d="M816.5,65.3c0-0.9,0.2-1.8,0.5-2.5c0.4-0.7,0.9-1.3,1.5-1.7c0.7-0.4,1.4-0.6,2.2-0.6c1.3,0,2.3,0.4,3.1,1.3
		c0.8,0.9,1.2,2.1,1.2,3.6v0.1c0,0.9-0.2,1.8-0.5,2.5c-0.4,0.7-0.9,1.3-1.5,1.7c-0.7,0.4-1.4,0.6-2.3,0.6c-1.3,0-2.3-0.4-3.1-1.3
		S816.4,66.9,816.5,65.3L816.5,65.3L816.5,65.3z M818.1,65.5c0,1.1,0.2,1.9,0.7,2.5s1.1,1,2,1c0.8,0,1.5-0.3,2-1s0.7-1.6,0.7-2.7
		c0-1-0.2-1.9-0.7-2.5s-1.2-1-2-1s-1.5,0.3-1.9,1S818.1,64.3,818.1,65.5z"/>
	<path d="M828.7,60.7l0.1,1.2c0.7-0.9,1.7-1.4,2.8-1.4c2,0,3,1.1,3,3.4v6.3H833v-6.3c0-0.7-0.2-1.2-0.5-1.5s-0.8-0.5-1.4-0.5
		c-0.5,0-1,0.1-1.4,0.4s-0.7,0.7-0.9,1.1v6.8h-1.6v-9.5C827.2,60.7,828.7,60.7,828.7,60.7z"/>
	<path d="M837.1,69.3c0-0.3,0.1-0.5,0.2-0.7c0.2-0.2,0.4-0.3,0.8-0.3s0.6,0.1,0.8,0.3s0.3,0.4,0.3,0.7c0,0.3-0.1,0.5-0.3,0.7
		s-0.4,0.3-0.8,0.3s-0.6-0.1-0.8-0.3C837.2,69.8,837.1,69.6,837.1,69.3z"/>
</g>
<g>
	
		<radialGradient id="SVGID_1_" cx="-430.7094" cy="290.001" r="11.4138" gradientTransform="matrix(3.7498 0 0 -3.7499 1705.5741 1148.1749)" gradientUnits="userSpaceOnUse">
		<stop  offset="0" style="stop-color:#C2C0C0"/>
		<stop  offset="0.88" style="stop-color:#C2C0C0"/>
		<stop  offset="1" style="stop-color:#C2C0C0;stop-opacity:0"/>
	</radialGradient>
	<ellipse class="st1" cx="90.5" cy="60.7" rx="42.8" ry="42.8"/>
	
		<linearGradient id="SVGID_00000113315793715560359920000013820134296831716998_" gradientUnits="userSpaceOnUse" x1="-415.3334" y1="293.3094" x2="-428.5945" y2="265.1931" gradientTransform="matrix(3.5216 0 0 -3.5216 1582.6742 1023.6072)">
		<stop  offset="0" style="stop-color:#FCD9D8"/>
		<stop  offset="1" style="stop-color:#F05454"/>
	</linearGradient>
	
		<linearGradient id="SVGID_00000026139103235515051720000007376669236120647083_" gradientUnits="userSpaceOnUse" x1="-414.7858" y1="268.7502" x2="-434.1677" y2="279.4967" gradientTransform="matrix(3.5216 0 0 -3.5216 1582.6742 1023.6072)">
		<stop  offset="0" style="stop-color:#B12826"/>
		<stop  offset="1" style="stop-color:#F05549"/>
	</linearGradient>
	
		<circle style="fill:url(#SVGID_00000113315793715560359920000013820134296831716998_);stroke:url(#SVGID_00000026139103235515051720000007376669236120647083_);stroke-width:4.988;stroke-miterlimit:18.7097;" cx="88.1" cy="58.4" r="39.2"/>
	<ellipse class="st3" cx="88.2" cy="58.4" rx="35.4" ry="35.4"/>
	<g>
		<g>
			<g>
				<defs>
					<circle id="SVGID_00000104702938491379232310000017379398274651886015_" cx="88" cy="58.1" r="34.3"/>
				</defs>
				<clipPath id="SVGID_00000047017834813093904080000000624220485593372555_">
					<use xlink:href="#SVGID_00000104702938491379232310000017379398274651886015_"  style="overflow:visible;"/>
				</clipPath>
				
					<linearGradient id="SVGID_00000005985274887320874930000012029706491923305378_" gradientUnits="userSpaceOnUse" x1="-246.2068" y1="1617.7671" x2="-246.2068" y2="1661.3044" gradientTransform="matrix(1.5471 0 0 1.5471 468.9065 -2477.2551)">
					<stop  offset="0" style="stop-color:#FFFFFF"/>
					<stop  offset="0.1478" style="stop-color:#FDE1E1"/>
					<stop  offset="0.2363" style="stop-color:#FBD4D4"/>
					<stop  offset="0.3505" style="stop-color:#FDE2E1"/>
					<stop  offset="0.5264" style="stop-color:#FEF4F3"/>
					<stop  offset="0.7262" style="stop-color:#FFFCFD"/>
					<stop  offset="1" style="stop-color:#FFFFFF"/>
				</linearGradient>
				
					<circle style="clip-path:url(#SVGID_00000047017834813093904080000000624220485593372555_);fill:url(#SVGID_00000005985274887320874930000012029706491923305378_);" cx="88" cy="59.5" r="34.3"/>
			</g>
		</g>
	</g>
	<path class="st5" d="M71,66.9L71,66.9c-0.2-0.3,0-0.8,0.3-0.9l20.1-9.9c0.3-0.2,0.8,0,0.9,0.3l0,0c0.2,0.3,0,0.8-0.3,0.9l-20.1,9.9
		C71.6,67.3,71.2,67.2,71,66.9z"/>
	<path class="st5" d="M110.1,35.1L111,36L84.6,62.9L83.7,62L110.1,35.1z"/>
	<g id="B_00000006683848486346799210000008925236000945972367_" transform="rotate(150 51.01861695 41.45881796) scale(1.23694)">
		<rect x="21.7" y="-19.2" class="st6" width="0.6" height="29.8"/>
		<rect x="20.8" y="9.6" class="st6" width="2.5" height="5.6"/>
	</g>
	
		<linearGradient id="SVGID_00000118394378571388060080000003003863749337312138_" gradientUnits="userSpaceOnUse" x1="-245.4638" y1="1636.0908" x2="-245.4638" y2="1639.62" gradientTransform="matrix(1.5471 0 0 1.5471 467.857 -2475.7988)">
		<stop  offset="0" style="stop-color:#8BA4D5"/>
		<stop  offset="1" style="stop-color:#26489C"/>
	</linearGradient>
	<circle style="fill:url(#SVGID_00000118394378571388060080000003003863749337312138_);" cx="88.1" cy="58.4" r="2.9"/>
</g>
</svg>
