<?xml version="1.0" encoding="utf-8"?>
<!-- Generator: Adobe Illustrator 28.2.0, SVG Export Plug-In . SVG Version: 6.00 Build 0)  -->
<svg version="1.1" id="Layer_1" xmlns="http://www.w3.org/2000/svg" xmlns:xlink="http://www.w3.org/1999/xlink" x="0px" y="0px"
	 viewBox="0 0 874 120" style="enable-background:new 0 0 874 120;" xml:space="preserve">
<style type="text/css">
	.st0{fill:#F08621;}
	.st1{fill:url(#SVGID_1_);}
	
		.st2{fill:url(#SVGID_00000010305893686247596880000000365604335883453617_);stroke:url(#SVGID_00000005257567375174787670000008144192669109103751_);stroke-width:4.988;stroke-miterlimit:18.7097;}
	.st3{fill:#F37F81;}
	
		.st4{clip-path:url(#SVGID_00000090276931250322288440000002417141179618747012_);fill:url(#SVGID_00000012458317400310288670000004532898895847960482_);}
	.st5{fill:#921F1E;stroke:#E32331;stroke-width:1.0776;stroke-linejoin:round;stroke-miterlimit:18.7097;}
	.st6{fill:#F5BBBB;stroke:#F5BBBB;stroke-width:1.0664;stroke-linecap:round;stroke-linejoin:round;stroke-miterlimit:28.6261;}
	.st7{fill:url(#SVGID_00000170252280681309699730000006576507058983485325_);}
</style>
<path class="st0" d="M0,0v120h874V0H0z M869,115H28.6V5H869V115z"/>
<g>
	<path d="M172.5,33h-4.6v12.4h-3.1V33h-4.5v-2.5h12.2V33z"/>
	<path d="M176.9,35.5c0.8-0.9,1.8-1.4,3-1.4c2.4,0,3.6,1.4,3.7,4.2v7.1h-3v-7c0-0.6-0.1-1.1-0.4-1.4s-0.7-0.5-1.4-0.5
		c-0.9,0-1.5,0.3-1.9,1v7.9h-3V29.7h3V35.5z"/>
	<path d="M185.8,31.4c0-0.4,0.1-0.8,0.4-1.1c0.3-0.3,0.7-0.4,1.2-0.4c0.5,0,0.9,0.1,1.2,0.4s0.5,0.7,0.5,1.1c0,0.5-0.2,0.8-0.5,1.1
		s-0.7,0.4-1.2,0.4s-0.9-0.1-1.2-0.4C185.9,32.3,185.8,31.9,185.8,31.4z M188.9,45.4h-3V34.3h3V45.4z"/>
	<path d="M197.4,42.3c0-0.4-0.2-0.6-0.5-0.9c-0.4-0.2-0.9-0.4-1.7-0.6c-2.6-0.6-4-1.7-4-3.4c0-1,0.4-1.8,1.2-2.5
		c0.8-0.7,1.9-1,3.2-1c1.4,0,2.5,0.3,3.4,1c0.8,0.7,1.3,1.5,1.3,2.6h-3c0-0.4-0.1-0.8-0.4-1.1c-0.3-0.3-0.7-0.4-1.3-0.4
		c-0.5,0-0.9,0.1-1.2,0.3s-0.4,0.5-0.4,0.9c0,0.3,0.2,0.6,0.5,0.8c0.3,0.2,0.8,0.4,1.6,0.5s1.4,0.3,1.9,0.5c1.6,0.6,2.3,1.6,2.3,3
		c0,1-0.4,1.8-1.3,2.5c-0.9,0.6-2,0.9-3.4,0.9c-0.9,0-1.8-0.2-2.5-0.5c-0.7-0.3-1.3-0.8-1.7-1.4c-0.4-0.6-0.6-1.2-0.6-1.9h2.8
		c0,0.5,0.2,0.9,0.6,1.2s0.8,0.4,1.5,0.4c0.6,0,1-0.1,1.3-0.3C197.2,43,197.4,42.7,197.4,42.3z"/>
	<path d="M213.8,45.4c-0.1-0.3-0.2-0.6-0.3-1c-0.7,0.8-1.7,1.2-2.8,1.2c-1.1,0-2-0.3-2.7-0.9s-1.1-1.4-1.1-2.4
		c0-1.2,0.4-2.1,1.3-2.7c0.9-0.6,2.1-0.9,3.8-1h1.4V38c0-0.5-0.1-0.9-0.4-1.2s-0.7-0.5-1.2-0.5c-0.5,0-0.9,0.1-1.2,0.4
		s-0.4,0.6-0.4,1h-3c0-0.6,0.2-1.2,0.6-1.8s1-1,1.7-1.3s1.5-0.5,2.4-0.5c1.4,0,2.5,0.3,3.3,1c0.8,0.7,1.2,1.7,1.2,2.9v4.8
		c0,1.1,0.2,1.8,0.4,2.4v0.2H213.8z M211.4,43.4c0.4,0,0.8-0.1,1.2-0.3c0.4-0.2,0.6-0.5,0.8-0.8v-1.9h-1.1c-1.5,0-2.3,0.5-2.4,1.5
		l0,0.2c0,0.4,0.1,0.7,0.4,0.9S210.9,43.4,211.4,43.4z"/>
	<path d="M224.9,37.1c-0.4-0.1-0.8-0.1-1.1-0.1c-1.1,0-1.9,0.4-2.2,1.1v7.3h-3V34.3h2.8l0.1,1.3c0.6-1,1.4-1.5,2.5-1.5
		c0.3,0,0.6,0,0.9,0.1L224.9,37.1z"/>
	<path d="M230.4,31.6v2.7h1.9v2.2h-1.9V42c0,0.4,0.1,0.7,0.2,0.9s0.5,0.3,0.9,0.3c0.3,0,0.6,0,0.9-0.1v2.2c-0.6,0.2-1.2,0.3-1.8,0.3
		c-2.1,0-3.1-1-3.2-3.1v-6h-1.6v-2.2h1.6v-2.7H230.4z"/>
	<path d="M233.9,31.4c0-0.4,0.1-0.8,0.4-1.1c0.3-0.3,0.7-0.4,1.2-0.4c0.5,0,0.9,0.1,1.2,0.4s0.5,0.7,0.5,1.1c0,0.5-0.2,0.8-0.5,1.1
		S236,33,235.5,33s-0.9-0.1-1.2-0.4C234,32.3,233.9,31.9,233.9,31.4z M237,45.4h-3V34.3h3V45.4z"/>
	<path d="M244.1,43.2c0.5,0,1-0.2,1.3-0.5s0.5-0.7,0.5-1.2h2.8c0,0.8-0.2,1.4-0.6,2.1c-0.4,0.6-1,1.1-1.7,1.5
		c-0.7,0.3-1.5,0.5-2.3,0.5c-1.6,0-2.8-0.5-3.8-1.5c-0.9-1-1.4-2.4-1.4-4.2v-0.2c0-1.7,0.5-3.1,1.4-4.1s2.2-1.5,3.7-1.5
		c1.4,0,2.5,0.4,3.3,1.2c0.8,0.8,1.3,1.8,1.3,3.2H246c0-0.6-0.2-1-0.5-1.4s-0.8-0.5-1.4-0.5c-0.7,0-1.2,0.3-1.6,0.8
		c-0.4,0.5-0.5,1.3-0.5,2.4V40c0,1.1,0.2,2,0.5,2.5C242.9,43,243.4,43.2,244.1,43.2z"/>
	<path d="M253.6,45.4h-3V29.7h3V45.4z"/>
	<path d="M261.1,45.6c-1.6,0-3-0.5-4-1.5c-1-1-1.5-2.3-1.5-4v-0.3c0-1.1,0.2-2.1,0.6-3s1-1.6,1.8-2c0.8-0.5,1.7-0.7,2.7-0.7
		c1.5,0,2.7,0.5,3.6,1.4c0.9,1,1.3,2.3,1.3,4.1v1.2h-7.1c0.1,0.7,0.4,1.3,0.9,1.7c0.5,0.4,1.1,0.7,1.8,0.7c1.1,0,2-0.4,2.7-1.2
		l1.5,1.6c-0.4,0.6-1,1.1-1.8,1.5C262.9,45.4,262,45.6,261.1,45.6z M260.8,36.5c-0.6,0-1.1,0.2-1.4,0.6c-0.4,0.4-0.6,1-0.7,1.7h4.1
		v-0.2c0-0.7-0.2-1.2-0.5-1.5C261.9,36.7,261.4,36.5,260.8,36.5z"/>
	<path d="M272.6,31.4c0-0.4,0.1-0.8,0.4-1.1c0.3-0.3,0.7-0.4,1.2-0.4c0.5,0,0.9,0.1,1.2,0.4s0.5,0.7,0.5,1.1c0,0.5-0.2,0.8-0.5,1.1
		s-0.7,0.4-1.2,0.4s-0.9-0.1-1.2-0.4C272.7,32.3,272.6,31.9,272.6,31.4z M275.7,45.4h-3V34.3h3V45.4z"/>
	<path d="M284.2,42.3c0-0.4-0.2-0.6-0.5-0.9c-0.4-0.2-0.9-0.4-1.7-0.6c-2.6-0.6-4-1.7-4-3.4c0-1,0.4-1.8,1.2-2.5
		c0.8-0.7,1.9-1,3.2-1c1.4,0,2.5,0.3,3.4,1c0.8,0.7,1.3,1.5,1.3,2.6h-3c0-0.4-0.1-0.8-0.4-1.1c-0.3-0.3-0.7-0.4-1.3-0.4
		c-0.5,0-0.9,0.1-1.2,0.3s-0.4,0.5-0.4,0.9c0,0.3,0.2,0.6,0.5,0.8c0.3,0.2,0.8,0.4,1.6,0.5s1.4,0.3,1.9,0.5c1.6,0.6,2.3,1.6,2.3,3
		c0,1-0.4,1.8-1.3,2.5c-0.9,0.6-2,0.9-3.4,0.9c-0.9,0-1.8-0.2-2.5-0.5c-0.7-0.3-1.3-0.8-1.7-1.4c-0.4-0.6-0.6-1.2-0.6-1.9h2.8
		c0,0.5,0.2,0.9,0.6,1.2s0.8,0.4,1.5,0.4c0.6,0,1-0.1,1.3-0.3C284,43,284.2,42.7,284.2,42.3z"/>
	<path d="M293.7,39.8c0-1.1,0.2-2.1,0.6-2.9s1-1.5,1.8-2s1.7-0.7,2.8-0.7c1.5,0,2.7,0.5,3.7,1.4s1.5,2.2,1.6,3.7l0,0.8
		c0,1.7-0.5,3.1-1.4,4.1s-2.2,1.5-3.8,1.5s-2.9-0.5-3.8-1.5c-1-1-1.4-2.4-1.4-4.2V39.8z M296.7,40c0,1.1,0.2,1.9,0.6,2.4
		s1,0.8,1.7,0.8c0.7,0,1.3-0.3,1.7-0.8s0.6-1.4,0.6-2.6c0-1-0.2-1.8-0.6-2.4c-0.4-0.6-1-0.9-1.7-0.9c-0.7,0-1.3,0.3-1.7,0.8
		S296.7,38.8,296.7,40z"/>
	<path d="M312.7,44.3c-0.7,0.9-1.7,1.3-3,1.3c-1.2,0-2.1-0.3-2.7-1c-0.6-0.7-0.9-1.7-1-3v-7.3h3v7.2c0,1.2,0.5,1.7,1.6,1.7
		c1,0,1.7-0.3,2.1-1v-7.9h3v11.1h-2.8L312.7,44.3z"/>
	<path d="M321.3,31.6v2.7h1.9v2.2h-1.9V42c0,0.4,0.1,0.7,0.2,0.9s0.5,0.3,0.9,0.3c0.3,0,0.6,0,0.9-0.1v2.2c-0.6,0.2-1.2,0.3-1.8,0.3
		c-2.1,0-3.1-1-3.2-3.1v-6h-1.6v-2.2h1.6v-2.7H321.3z"/>
	<path d="M324.4,39.8c0-1.7,0.4-3.1,1.2-4.1c0.8-1,1.8-1.5,3.2-1.5c1.1,0,2,0.4,2.7,1.2v-5.7h3v15.8h-2.7l-0.1-1.2
		c-0.7,0.9-1.7,1.4-2.9,1.4c-1.3,0-2.4-0.5-3.1-1.5C324.8,43,324.4,41.6,324.4,39.8z M327.4,40c0,1,0.2,1.8,0.5,2.4
		c0.4,0.6,0.9,0.8,1.6,0.8c0.9,0,1.6-0.4,1.9-1.2v-4.4c-0.4-0.8-1-1.2-1.9-1.2C328.1,36.5,327.4,37.7,327.4,40z"/>
	<path d="M343.2,45.4c-0.1-0.3-0.2-0.6-0.3-1c-0.7,0.8-1.7,1.2-2.8,1.2c-1.1,0-2-0.3-2.7-0.9s-1.1-1.4-1.1-2.4
		c0-1.2,0.4-2.1,1.3-2.7c0.9-0.6,2.1-0.9,3.8-1h1.4V38c0-0.5-0.1-0.9-0.4-1.2s-0.7-0.5-1.2-0.5c-0.5,0-0.9,0.1-1.2,0.4
		s-0.4,0.6-0.4,1h-3c0-0.6,0.2-1.2,0.6-1.8s1-1,1.7-1.3s1.5-0.5,2.4-0.5c1.4,0,2.5,0.3,3.3,1c0.8,0.7,1.2,1.7,1.2,2.9v4.8
		c0,1.1,0.2,1.8,0.4,2.4v0.2H343.2z M340.7,43.4c0.4,0,0.8-0.1,1.2-0.3c0.4-0.2,0.6-0.5,0.8-0.8v-1.9h-1.1c-1.5,0-2.3,0.5-2.4,1.5
		l0,0.2c0,0.4,0.1,0.7,0.4,0.9S340.3,43.4,340.7,43.4z"/>
	<path d="M351.5,31.6v2.7h1.9v2.2h-1.9V42c0,0.4,0.1,0.7,0.2,0.9s0.5,0.3,0.9,0.3c0.3,0,0.6,0,0.9-0.1v2.2c-0.6,0.2-1.2,0.3-1.8,0.3
		c-2.1,0-3.1-1-3.2-3.1v-6h-1.6v-2.2h1.6v-2.7H351.5z"/>
	<path d="M360.2,45.6c-1.6,0-3-0.5-4-1.5c-1-1-1.5-2.3-1.5-4v-0.3c0-1.1,0.2-2.1,0.6-3s1-1.6,1.8-2c0.8-0.5,1.7-0.7,2.7-0.7
		c1.5,0,2.7,0.5,3.6,1.4c0.9,1,1.3,2.3,1.3,4.1v1.2h-7.1c0.1,0.7,0.4,1.3,0.9,1.7c0.5,0.4,1.1,0.7,1.8,0.7c1.1,0,2-0.4,2.7-1.2
		l1.5,1.6c-0.4,0.6-1,1.1-1.8,1.5C361.9,45.4,361.1,45.6,360.2,45.6z M359.8,36.5c-0.6,0-1.1,0.2-1.4,0.6c-0.4,0.4-0.6,1-0.7,1.7
		h4.1v-0.2c0-0.7-0.2-1.2-0.5-1.5C361,36.7,360.5,36.5,359.8,36.5z"/>
	<path d="M366,39.8c0-1.7,0.4-3.1,1.2-4.1c0.8-1,1.8-1.5,3.2-1.5c1.1,0,2,0.4,2.7,1.2v-5.7h3v15.8h-2.7l-0.1-1.2
		c-0.7,0.9-1.7,1.4-2.9,1.4c-1.3,0-2.4-0.5-3.1-1.5C366.4,43,366,41.6,366,39.8z M368.9,40c0,1,0.2,1.8,0.5,2.4
		c0.4,0.6,0.9,0.8,1.6,0.8c0.9,0,1.6-0.4,1.9-1.2v-4.4c-0.4-0.8-1-1.2-1.9-1.2C369.6,36.5,368.9,37.7,368.9,40z"/>
	<path d="M389.9,45.4c-0.1-0.3-0.2-0.6-0.3-1c-0.7,0.8-1.7,1.2-2.8,1.2c-1.1,0-2-0.3-2.7-0.9c-0.7-0.6-1.1-1.4-1.1-2.4
		c0-1.2,0.4-2.1,1.3-2.7c0.9-0.6,2.1-0.9,3.8-1h1.4V38c0-0.5-0.1-0.9-0.4-1.2c-0.3-0.3-0.7-0.5-1.2-0.5c-0.5,0-0.9,0.1-1.2,0.4
		c-0.3,0.2-0.4,0.6-0.4,1h-3c0-0.6,0.2-1.2,0.6-1.8s1-1,1.7-1.3s1.5-0.5,2.4-0.5c1.4,0,2.5,0.3,3.3,1c0.8,0.7,1.2,1.7,1.2,2.9v4.8
		c0,1.1,0.2,1.8,0.4,2.4v0.2H389.9z M387.5,43.4c0.4,0,0.8-0.1,1.2-0.3c0.4-0.2,0.6-0.5,0.8-0.8v-1.9h-1.1c-1.5,0-2.3,0.5-2.4,1.5
		l0,0.2c0,0.4,0.1,0.7,0.4,0.9C386.7,43.2,387,43.4,387.5,43.4z"/>
	<path d="M397.5,34.3l0.1,1.3c0.8-1,1.9-1.5,3.2-1.5c1.2,0,2.1,0.3,2.6,1s0.9,1.7,0.9,3.1v7.2h-3v-7.1c0-0.6-0.1-1.1-0.4-1.4
		c-0.3-0.3-0.7-0.4-1.4-0.4c-0.8,0-1.5,0.4-1.9,1.1v7.8h-3V34.3H397.5z"/>
	<path d="M406.1,39.8c0-1.7,0.4-3.1,1.2-4.1c0.8-1,1.8-1.5,3.2-1.5c1.1,0,2,0.4,2.7,1.2v-5.7h3v15.8h-2.7l-0.1-1.2
		c-0.7,0.9-1.7,1.4-2.9,1.4c-1.3,0-2.4-0.5-3.1-1.5C406.4,43,406.1,41.6,406.1,39.8z M409,40c0,1,0.2,1.8,0.5,2.4
		c0.4,0.6,0.9,0.8,1.6,0.8c0.9,0,1.6-0.4,1.9-1.2v-4.4c-0.4-0.8-1-1.2-1.9-1.2C409.7,36.5,409,37.7,409,40z"/>
	<path d="M423.6,31.4c0-0.4,0.1-0.8,0.4-1.1c0.3-0.3,0.7-0.4,1.2-0.4c0.5,0,0.9,0.1,1.2,0.4s0.5,0.7,0.5,1.1c0,0.5-0.2,0.8-0.5,1.1
		c-0.3,0.3-0.7,0.4-1.2,0.4c-0.5,0-0.9-0.1-1.2-0.4C423.7,32.3,423.6,31.9,423.6,31.4z M426.7,45.4h-3V34.3h3V45.4z"/>
	<path d="M432.7,31.6v2.7h1.9v2.2h-1.9V42c0,0.4,0.1,0.7,0.2,0.9s0.5,0.3,0.9,0.3c0.3,0,0.6,0,0.9-0.1v2.2c-0.6,0.2-1.2,0.3-1.8,0.3
		c-2.1,0-3.1-1-3.2-3.1v-6h-1.6v-2.2h1.6v-2.7H432.7z"/>
	<path d="M442.2,42.3c0-0.4-0.2-0.6-0.5-0.9c-0.4-0.2-0.9-0.4-1.7-0.6c-2.6-0.6-4-1.7-4-3.4c0-1,0.4-1.8,1.2-2.5
		c0.8-0.7,1.9-1,3.2-1c1.4,0,2.5,0.3,3.4,1c0.8,0.7,1.3,1.5,1.3,2.6h-3c0-0.4-0.1-0.8-0.4-1.1c-0.3-0.3-0.7-0.4-1.3-0.4
		c-0.5,0-0.9,0.1-1.2,0.3s-0.4,0.5-0.4,0.9c0,0.3,0.2,0.6,0.5,0.8c0.3,0.2,0.8,0.4,1.6,0.5s1.4,0.3,1.9,0.5c1.6,0.6,2.3,1.6,2.3,3
		c0,1-0.4,1.8-1.3,2.5c-0.9,0.6-2,0.9-3.4,0.9c-0.9,0-1.8-0.2-2.5-0.5c-0.7-0.3-1.3-0.8-1.7-1.4c-0.4-0.6-0.6-1.2-0.6-1.9h2.8
		c0,0.5,0.2,0.9,0.6,1.2c0.4,0.3,0.8,0.4,1.5,0.4c0.6,0,1-0.1,1.3-0.3C442.1,43,442.2,42.7,442.2,42.3z"/>
	<path d="M452.2,31.4c0-0.4,0.1-0.8,0.4-1.1c0.3-0.3,0.7-0.4,1.2-0.4c0.5,0,0.9,0.1,1.2,0.4s0.5,0.7,0.5,1.1c0,0.5-0.2,0.8-0.5,1.1
		c-0.3,0.3-0.7,0.4-1.2,0.4c-0.5,0-0.9-0.1-1.2-0.4C452.4,32.3,452.2,31.9,452.2,31.4z M455.4,45.4h-3V34.3h3V45.4z"/>
	<path d="M460.6,34.3l0.1,1.3c0.8-1,1.9-1.5,3.2-1.5c1.2,0,2.1,0.3,2.6,1s0.9,1.7,0.9,3.1v7.2h-3v-7.1c0-0.6-0.1-1.1-0.4-1.4
		c-0.3-0.3-0.7-0.4-1.4-0.4c-0.8,0-1.5,0.4-1.9,1.1v7.8h-3V34.3H460.6z"/>
	<path d="M470.4,45.4v-8.9h-1.7v-2.2h1.7v-0.9c0-1.2,0.4-2.2,1.1-2.9c0.7-0.7,1.7-1,3-1c0.4,0,0.9,0.1,1.5,0.2l0,2.3
		c-0.2-0.1-0.5-0.1-0.9-0.1c-1.1,0-1.7,0.5-1.7,1.6v0.9h2.2v2.2h-2.2v8.9H470.4z"/>
	<path d="M476.7,39.8c0-1.1,0.2-2.1,0.6-2.9s1-1.5,1.8-2c0.8-0.5,1.7-0.7,2.8-0.7c1.5,0,2.7,0.5,3.7,1.4c0.9,0.9,1.5,2.2,1.6,3.7
		l0,0.8c0,1.7-0.5,3.1-1.4,4.1s-2.2,1.5-3.8,1.5s-2.9-0.5-3.8-1.5c-1-1-1.4-2.4-1.4-4.2V39.8z M479.6,40c0,1.1,0.2,1.9,0.6,2.4
		s1,0.8,1.7,0.8c0.7,0,1.3-0.3,1.7-0.8c0.4-0.6,0.6-1.4,0.6-2.6c0-1-0.2-1.8-0.6-2.4c-0.4-0.6-1-0.9-1.7-0.9c-0.7,0-1.3,0.3-1.7,0.8
		S479.6,38.8,479.6,40z"/>
	<path d="M495.2,37.1c-0.4-0.1-0.8-0.1-1.1-0.1c-1.1,0-1.9,0.4-2.2,1.1v7.3h-3V34.3h2.8l0.1,1.3c0.6-1,1.4-1.5,2.5-1.5
		c0.3,0,0.6,0,0.9,0.1L495.2,37.1z"/>
	<path d="M499.4,34.3l0.1,1.2c0.8-1,1.8-1.4,3.2-1.4c1.4,0,2.4,0.6,2.9,1.7c0.8-1.1,1.9-1.7,3.3-1.7c1.2,0,2.1,0.4,2.7,1.1
		c0.6,0.7,0.9,1.8,0.9,3.2v7.1h-3v-7.1c0-0.6-0.1-1.1-0.4-1.4s-0.7-0.4-1.3-0.4c-0.9,0-1.5,0.4-1.8,1.3l0,7.6h-3v-7.1
		c0-0.6-0.1-1.1-0.4-1.4s-0.7-0.4-1.3-0.4c-0.8,0-1.4,0.3-1.8,1v7.8h-3V34.3H499.4z"/>
	<path d="M521.3,45.4c-0.1-0.3-0.2-0.6-0.3-1c-0.7,0.8-1.7,1.2-2.8,1.2c-1.1,0-2-0.3-2.7-0.9c-0.7-0.6-1.1-1.4-1.1-2.4
		c0-1.2,0.4-2.1,1.3-2.7c0.9-0.6,2.1-0.9,3.8-1h1.4V38c0-0.5-0.1-0.9-0.4-1.2c-0.3-0.3-0.7-0.5-1.2-0.5c-0.5,0-0.9,0.1-1.2,0.4
		c-0.3,0.2-0.4,0.6-0.4,1h-3c0-0.6,0.2-1.2,0.6-1.8s1-1,1.7-1.3s1.5-0.5,2.4-0.5c1.4,0,2.5,0.3,3.3,1c0.8,0.7,1.2,1.7,1.2,2.9v4.8
		c0,1.1,0.2,1.8,0.4,2.4v0.2H521.3z M518.8,43.4c0.4,0,0.8-0.1,1.2-0.3c0.4-0.2,0.6-0.5,0.8-0.8v-1.9h-1.1c-1.5,0-2.3,0.5-2.4,1.5
		l0,0.2c0,0.4,0.1,0.7,0.4,0.9C518,43.2,518.4,43.4,518.8,43.4z"/>
	<path d="M529.6,31.6v2.7h1.9v2.2h-1.9V42c0,0.4,0.1,0.7,0.2,0.9s0.5,0.3,0.9,0.3c0.3,0,0.6,0,0.9-0.1v2.2c-0.6,0.2-1.2,0.3-1.8,0.3
		c-2.1,0-3.1-1-3.2-3.1v-6h-1.6v-2.2h1.6v-2.7H529.6z"/>
	<path d="M533.2,31.4c0-0.4,0.1-0.8,0.4-1.1c0.3-0.3,0.7-0.4,1.2-0.4c0.5,0,0.9,0.1,1.2,0.4s0.5,0.7,0.5,1.1c0,0.5-0.2,0.8-0.5,1.1
		c-0.3,0.3-0.7,0.4-1.2,0.4c-0.5,0-0.9-0.1-1.2-0.4C533.3,32.3,533.2,31.9,533.2,31.4z M536.3,45.4h-3V34.3h3V45.4z"/>
	<path d="M538.3,39.8c0-1.1,0.2-2.1,0.6-2.9s1-1.5,1.8-2c0.8-0.5,1.7-0.7,2.8-0.7c1.5,0,2.7,0.5,3.7,1.4c0.9,0.9,1.5,2.2,1.6,3.7
		l0,0.8c0,1.7-0.5,3.1-1.4,4.1s-2.2,1.5-3.8,1.5s-2.9-0.5-3.8-1.5c-1-1-1.4-2.4-1.4-4.2V39.8z M541.3,40c0,1.1,0.2,1.9,0.6,2.4
		s1,0.8,1.7,0.8c0.7,0,1.3-0.3,1.7-0.8c0.4-0.6,0.6-1.4,0.6-2.6c0-1-0.2-1.8-0.6-2.4c-0.4-0.6-1-0.9-1.7-0.9c-0.7,0-1.3,0.3-1.7,0.8
		S541.3,38.8,541.3,40z"/>
	<path d="M553.4,34.3l0.1,1.3c0.8-1,1.9-1.5,3.2-1.5c1.2,0,2.1,0.3,2.6,1s0.9,1.7,0.9,3.1v7.2h-3v-7.1c0-0.6-0.1-1.1-0.4-1.4
		c-0.3-0.3-0.7-0.4-1.4-0.4c-0.8,0-1.5,0.4-1.9,1.1v7.8h-3V34.3H553.4z"/>
	<path d="M574.1,45.4c-0.1-0.3-0.2-0.6-0.3-1c-0.7,0.8-1.7,1.2-2.8,1.2c-1.1,0-2-0.3-2.7-0.9c-0.7-0.6-1.1-1.4-1.1-2.4
		c0-1.2,0.4-2.1,1.3-2.7c0.9-0.6,2.1-0.9,3.8-1h1.4V38c0-0.5-0.1-0.9-0.4-1.2c-0.3-0.3-0.7-0.5-1.2-0.5c-0.5,0-0.9,0.1-1.2,0.4
		c-0.3,0.2-0.4,0.6-0.4,1h-3c0-0.6,0.2-1.2,0.6-1.8s1-1,1.7-1.3s1.5-0.5,2.4-0.5c1.4,0,2.5,0.3,3.3,1c0.8,0.7,1.2,1.7,1.2,2.9v4.8
		c0,1.1,0.2,1.8,0.4,2.4v0.2H574.1z M571.6,43.4c0.4,0,0.8-0.1,1.2-0.3c0.4-0.2,0.6-0.5,0.8-0.8v-1.9h-1.1c-1.5,0-2.3,0.5-2.4,1.5
		l0,0.2c0,0.4,0.1,0.7,0.4,0.9C570.8,43.2,571.2,43.4,571.6,43.4z"/>
	<path d="M581.6,34.3l0.1,1.3c0.8-1,1.9-1.5,3.2-1.5c1.2,0,2.1,0.3,2.6,1s0.9,1.7,0.9,3.1v7.2h-3v-7.1c0-0.6-0.1-1.1-0.4-1.4
		c-0.3-0.3-0.7-0.4-1.4-0.4c-0.8,0-1.5,0.4-1.9,1.1v7.8h-3V34.3H581.6z"/>
	<path d="M590.2,39.8c0-1.7,0.4-3.1,1.2-4.1c0.8-1,1.8-1.5,3.2-1.5c1.1,0,2,0.4,2.7,1.2v-5.7h3v15.8h-2.7l-0.1-1.2
		c-0.7,0.9-1.7,1.4-2.9,1.4c-1.3,0-2.4-0.5-3.1-1.5C590.6,43,590.2,41.6,590.2,39.8z M593.1,40c0,1,0.2,1.8,0.5,2.4
		c0.4,0.6,0.9,0.8,1.6,0.8c0.9,0,1.6-0.4,1.9-1.2v-4.4c-0.4-0.8-1-1.2-1.9-1.2C593.9,36.5,593.1,37.7,593.1,40z"/>
	<path d="M610.5,34.3l0.1,1.2c0.8-1,1.8-1.4,3.2-1.4c1.4,0,2.4,0.6,2.9,1.7c0.8-1.1,1.9-1.7,3.3-1.7c1.2,0,2.1,0.4,2.7,1.1
		c0.6,0.7,0.9,1.8,0.9,3.2v7.1h-3v-7.1c0-0.6-0.1-1.1-0.4-1.4s-0.7-0.4-1.3-0.4c-0.9,0-1.5,0.4-1.8,1.3l0,7.6h-3v-7.1
		c0-0.6-0.1-1.1-0.4-1.4s-0.7-0.4-1.3-0.4c-0.8,0-1.4,0.3-1.8,1v7.8h-3V34.3H610.5z"/>
	<path d="M632.3,45.4c-0.1-0.3-0.2-0.6-0.3-1c-0.7,0.8-1.7,1.2-2.8,1.2c-1.1,0-2-0.3-2.7-0.9c-0.7-0.6-1.1-1.4-1.1-2.4
		c0-1.2,0.4-2.1,1.3-2.7c0.9-0.6,2.1-0.9,3.8-1h1.4V38c0-0.5-0.1-0.9-0.4-1.2c-0.3-0.3-0.7-0.5-1.2-0.5c-0.5,0-0.9,0.1-1.2,0.4
		c-0.3,0.2-0.4,0.6-0.4,1h-3c0-0.6,0.2-1.2,0.6-1.8s1-1,1.7-1.3s1.5-0.5,2.4-0.5c1.4,0,2.5,0.3,3.3,1c0.8,0.7,1.2,1.7,1.2,2.9v4.8
		c0,1.1,0.2,1.8,0.4,2.4v0.2H632.3z M629.9,43.4c0.4,0,0.8-0.1,1.2-0.3c0.4-0.2,0.6-0.5,0.8-0.8v-1.9h-1.1c-1.5,0-2.3,0.5-2.4,1.5
		l0,0.2c0,0.4,0.1,0.7,0.4,0.9C629.1,43.2,629.4,43.4,629.9,43.4z"/>
	<path d="M641.1,41.2l2.1-6.9h3.2l-4.5,12.8l-0.2,0.6c-0.7,1.4-1.8,2.2-3.3,2.2c-0.4,0-0.9-0.1-1.3-0.2v-2.2l0.5,0
		c0.6,0,1-0.1,1.3-0.3c0.3-0.2,0.5-0.5,0.7-0.9l0.3-0.9l-3.9-11.1h3.2L641.1,41.2z"/>
	<path d="M655.5,34.3l0.1,1.3c0.8-1,1.9-1.5,3.2-1.5c1.2,0,2.1,0.3,2.6,1s0.9,1.7,0.9,3.1v7.2h-3v-7.1c0-0.6-0.1-1.1-0.4-1.4
		c-0.3-0.3-0.7-0.4-1.4-0.4c-0.8,0-1.5,0.4-1.9,1.1v7.8h-3V34.3H655.5z"/>
	<path d="M664.1,39.8c0-1.1,0.2-2.1,0.6-2.9s1-1.5,1.8-2c0.8-0.5,1.7-0.7,2.8-0.7c1.5,0,2.7,0.5,3.7,1.4c0.9,0.9,1.5,2.2,1.6,3.7
		l0,0.8c0,1.7-0.5,3.1-1.4,4.1s-2.2,1.5-3.8,1.5s-2.9-0.5-3.8-1.5c-1-1-1.4-2.4-1.4-4.2V39.8z M667,40c0,1.1,0.2,1.9,0.6,2.4
		s1,0.8,1.7,0.8c0.7,0,1.3-0.3,1.7-0.8c0.4-0.6,0.6-1.4,0.6-2.6c0-1-0.2-1.8-0.6-2.4c-0.4-0.6-1-0.9-1.7-0.9c-0.7,0-1.3,0.3-1.7,0.8
		S667,38.8,667,40z"/>
	<path d="M684.8,45.4h-3V29.7h3V45.4z"/>
	<path d="M686.7,39.8c0-1.1,0.2-2.1,0.6-2.9s1-1.5,1.8-2c0.8-0.5,1.7-0.7,2.8-0.7c1.5,0,2.7,0.5,3.7,1.4c0.9,0.9,1.5,2.2,1.6,3.7
		l0,0.8c0,1.7-0.5,3.1-1.4,4.1s-2.2,1.5-3.8,1.5s-2.9-0.5-3.8-1.5c-1-1-1.4-2.4-1.4-4.2V39.8z M689.7,40c0,1.1,0.2,1.9,0.6,2.4
		s1,0.8,1.7,0.8c0.7,0,1.3-0.3,1.7-0.8c0.4-0.6,0.6-1.4,0.6-2.6c0-1-0.2-1.8-0.6-2.4c-0.4-0.6-1-0.9-1.7-0.9c-0.7,0-1.3,0.3-1.7,0.8
		S689.7,38.8,689.7,40z"/>
	<path d="M701.8,34.3l0.1,1.3c0.8-1,1.9-1.5,3.2-1.5c1.2,0,2.1,0.3,2.6,1s0.9,1.7,0.9,3.1v7.2h-3v-7.1c0-0.6-0.1-1.1-0.4-1.4
		c-0.3-0.3-0.7-0.4-1.4-0.4c-0.8,0-1.5,0.4-1.9,1.1v7.8h-3V34.3H701.8z"/>
	<path d="M710.4,39.8c0-1.7,0.4-3.1,1.2-4.1c0.8-1,1.9-1.6,3.3-1.6c1.2,0,2.2,0.4,2.8,1.3l0.1-1h2.7V45c0,1-0.2,1.8-0.7,2.5
		c-0.4,0.7-1.1,1.3-1.9,1.6s-1.7,0.6-2.8,0.6c-0.8,0-1.6-0.2-2.4-0.5s-1.4-0.7-1.8-1.3l1.3-1.8c0.7,0.8,1.6,1.2,2.7,1.2
		c0.8,0,1.4-0.2,1.8-0.6c0.4-0.4,0.7-1,0.7-1.8v-0.6c-0.7,0.8-1.6,1.2-2.7,1.2c-1.3,0-2.4-0.5-3.2-1.6c-0.8-1-1.2-2.4-1.2-4.1V39.8z
		 M713.4,40c0,1,0.2,1.8,0.6,2.4s1,0.9,1.7,0.9c0.9,0,1.5-0.3,1.9-1v-4.7c-0.4-0.7-1-1-1.9-1c-0.7,0-1.3,0.3-1.7,0.9
		C713.6,38,713.4,38.8,713.4,40z"/>
	<path d="M727.9,45.6c-1.6,0-3-0.5-4-1.5c-1-1-1.5-2.3-1.5-4v-0.3c0-1.1,0.2-2.1,0.6-3c0.4-0.9,1-1.6,1.8-2c0.8-0.5,1.7-0.7,2.7-0.7
		c1.5,0,2.7,0.5,3.6,1.4c0.9,1,1.3,2.3,1.3,4.1v1.2h-7.1c0.1,0.7,0.4,1.3,0.9,1.7c0.5,0.4,1.1,0.7,1.8,0.7c1.1,0,2-0.4,2.7-1.2
		l1.5,1.6c-0.4,0.6-1,1.1-1.8,1.5C729.7,45.4,728.8,45.6,727.9,45.6z M727.6,36.5c-0.6,0-1.1,0.2-1.4,0.6c-0.4,0.4-0.6,1-0.7,1.7
		h4.1v-0.2c0-0.7-0.2-1.2-0.5-1.5C728.7,36.7,728.2,36.5,727.6,36.5z"/>
	<path d="M740.4,37.1c-0.4-0.1-0.8-0.1-1.1-0.1c-1.1,0-1.9,0.4-2.2,1.1v7.3h-3V34.3h2.8l0.1,1.3c0.6-1,1.4-1.5,2.5-1.5
		c0.3,0,0.6,0,0.9,0.1L740.4,37.1z"/>
	<path d="M753.3,37.1c-0.4-0.1-0.8-0.1-1.1-0.1c-1.1,0-1.9,0.4-2.2,1.1v7.3h-3V34.3h2.8l0.1,1.3c0.6-1,1.4-1.5,2.5-1.5
		c0.3,0,0.6,0,0.9,0.1L753.3,37.1z"/>
	<path d="M759.6,45.6c-1.6,0-3-0.5-4-1.5c-1-1-1.5-2.3-1.5-4v-0.3c0-1.1,0.2-2.1,0.6-3c0.4-0.9,1-1.6,1.8-2c0.8-0.5,1.7-0.7,2.7-0.7
		c1.5,0,2.7,0.5,3.6,1.4c0.9,1,1.3,2.3,1.3,4.1v1.2h-7.1c0.1,0.7,0.4,1.3,0.9,1.7c0.5,0.4,1.1,0.7,1.8,0.7c1.1,0,2-0.4,2.7-1.2
		l1.5,1.6c-0.4,0.6-1,1.1-1.8,1.5C761.4,45.4,760.5,45.6,759.6,45.6z M759.3,36.5c-0.6,0-1.1,0.2-1.4,0.6c-0.4,0.4-0.6,1-0.7,1.7
		h4.1v-0.2c0-0.7-0.2-1.2-0.5-1.5C760.4,36.7,759.9,36.5,759.3,36.5z"/>
	<path d="M769,45.4h-3V29.7h3V45.4z"/>
	<path d="M776.5,45.6c-1.6,0-3-0.5-4-1.5c-1-1-1.5-2.3-1.5-4v-0.3c0-1.1,0.2-2.1,0.6-3c0.4-0.9,1-1.6,1.8-2c0.8-0.5,1.7-0.7,2.7-0.7
		c1.5,0,2.7,0.5,3.6,1.4c0.9,1,1.3,2.3,1.3,4.1v1.2H774c0.1,0.7,0.4,1.3,0.9,1.7c0.5,0.4,1.1,0.7,1.8,0.7c1.1,0,2-0.4,2.7-1.2
		l1.5,1.6c-0.4,0.6-1,1.1-1.8,1.5C778.3,45.4,777.5,45.6,776.5,45.6z M776.2,36.5c-0.6,0-1.1,0.2-1.4,0.6c-0.4,0.4-0.6,1-0.7,1.7
		h4.1v-0.2c0-0.7-0.2-1.2-0.5-1.5C777.3,36.7,776.8,36.5,776.2,36.5z"/>
	<path d="M786.8,41.8l2.1-7.5h3.1l-3.7,11.1h-2.8l-3.7-11.1h3.1L786.8,41.8z"/>
	<path d="M799.5,45.4c-0.1-0.3-0.2-0.6-0.3-1c-0.7,0.8-1.7,1.2-2.8,1.2c-1.1,0-2-0.3-2.7-0.9c-0.7-0.6-1.1-1.4-1.1-2.4
		c0-1.2,0.4-2.1,1.3-2.7c0.9-0.6,2.1-0.9,3.8-1h1.4V38c0-0.5-0.1-0.9-0.4-1.2c-0.3-0.3-0.7-0.5-1.2-0.5c-0.5,0-0.9,0.1-1.2,0.4
		c-0.3,0.2-0.4,0.6-0.4,1h-3c0-0.6,0.2-1.2,0.6-1.8s1-1,1.7-1.3s1.5-0.5,2.4-0.5c1.4,0,2.5,0.3,3.3,1c0.8,0.7,1.2,1.7,1.2,2.9v4.8
		c0,1.1,0.2,1.8,0.4,2.4v0.2H799.5z M797.1,43.4c0.4,0,0.8-0.1,1.2-0.3c0.4-0.2,0.6-0.5,0.8-0.8v-1.9H798c-1.5,0-2.3,0.5-2.4,1.5
		l0,0.2c0,0.4,0.1,0.7,0.4,0.9C796.3,43.2,796.6,43.4,797.1,43.4z"/>
	<path d="M807.1,34.3l0.1,1.3c0.8-1,1.9-1.5,3.2-1.5c1.2,0,2.1,0.3,2.6,1s0.9,1.7,0.9,3.1v7.2h-3v-7.1c0-0.6-0.1-1.1-0.4-1.4
		c-0.3-0.3-0.7-0.4-1.4-0.4c-0.8,0-1.5,0.4-1.9,1.1v7.8h-3V34.3H807.1z"/>
	<path d="M819.7,31.6v2.7h1.9v2.2h-1.9V42c0,0.4,0.1,0.7,0.2,0.9s0.5,0.3,0.9,0.3c0.3,0,0.6,0,0.9-0.1v2.2c-0.6,0.2-1.2,0.3-1.8,0.3
		c-2.1,0-3.1-1-3.2-3.1v-6h-1.6v-2.2h1.6v-2.7H819.7z"/>
	<path d="M823.4,44c0-0.5,0.2-0.9,0.5-1.1c0.3-0.3,0.7-0.4,1.2-0.4c0.5,0,0.9,0.1,1.2,0.4c0.3,0.3,0.5,0.7,0.5,1.1
		c0,0.5-0.2,0.8-0.5,1.1c-0.3,0.3-0.7,0.4-1.2,0.4c-0.5,0-0.9-0.1-1.2-0.4C823.5,44.8,823.4,44.4,823.4,44z"/>
</g>
<g>
	<path d="M165.6,65.2v5h-1.7V57.4h4.7c1.4,0,2.5,0.4,3.3,1.1s1.2,1.7,1.2,2.8c0,1.2-0.4,2.2-1.2,2.9s-1.9,1-3.3,1H165.6z
		 M165.6,63.8h3c0.9,0,1.6-0.2,2.1-0.6c0.5-0.4,0.7-1,0.7-1.8c0-0.8-0.2-1.4-0.7-1.8c-0.5-0.5-1.1-0.7-2-0.7h-3.1V63.8z"/>
	<path d="M176.8,70.2h-1.6V56.7h1.6V70.2z"/>
	<path d="M183.3,70.3c-1.3,0-2.3-0.4-3.1-1.3s-1.2-2-1.2-3.4v-0.3c0-0.9,0.2-1.8,0.5-2.5s0.9-1.3,1.5-1.7s1.3-0.6,2.1-0.6
		c1.2,0,2.2,0.4,2.9,1.2s1,2,1,3.5v0.7h-6.4c0,0.9,0.3,1.7,0.8,2.3s1.2,0.9,2,0.9c0.6,0,1.1-0.1,1.5-0.4s0.7-0.5,1-0.9l1,0.8
		C186.1,69.7,184.9,70.3,183.3,70.3z M183.1,61.8c-0.7,0-1.2,0.2-1.7,0.7s-0.7,1.1-0.8,2h4.8v-0.1c0-0.8-0.3-1.5-0.7-1.9
		S183.8,61.8,183.1,61.8z"/>
	<path d="M194.8,70.2c-0.1-0.2-0.2-0.5-0.2-1c-0.8,0.8-1.7,1.2-2.7,1.2c-0.9,0-1.7-0.3-2.3-0.8s-0.9-1.2-0.9-2c0-1,0.4-1.8,1.1-2.3
		s1.8-0.8,3.2-0.8h1.6v-0.7c0-0.6-0.2-1-0.5-1.4s-0.8-0.5-1.5-0.5c-0.6,0-1.1,0.1-1.5,0.4s-0.6,0.6-0.6,1.1h-1.6
		c0-0.5,0.2-0.9,0.5-1.4s0.8-0.8,1.4-1.1s1.2-0.4,1.9-0.4c1.1,0,2,0.3,2.6,0.8s0.9,1.3,1,2.3v4.4c0,0.9,0.1,1.6,0.3,2.1v0.1H194.8z
		 M192.1,68.9c0.5,0,1-0.1,1.5-0.4s0.8-0.6,1-1v-2h-1.3c-2,0-3,0.6-3,1.7c0,0.5,0.2,0.9,0.5,1.2S191.6,68.9,192.1,68.9z"/>
	<path d="M204.3,67.6c0-0.4-0.2-0.8-0.5-1s-0.9-0.5-1.7-0.6s-1.5-0.4-2-0.6s-0.8-0.5-1.1-0.9s-0.3-0.7-0.3-1.2c0-0.8,0.3-1.4,1-2
		s1.5-0.8,2.5-0.8c1.1,0,2,0.3,2.6,0.8s1,1.3,1,2.1h-1.6c0-0.4-0.2-0.8-0.6-1.2s-0.9-0.5-1.4-0.5c-0.6,0-1.1,0.1-1.4,0.4
		s-0.5,0.6-0.5,1c0,0.4,0.2,0.7,0.5,0.9s0.9,0.4,1.7,0.6s1.5,0.4,2,0.7s0.9,0.6,1.1,0.9s0.4,0.8,0.4,1.3c0,0.8-0.3,1.5-1,2
		s-1.6,0.8-2.6,0.8c-0.8,0-1.4-0.1-2-0.4s-1-0.6-1.4-1.1s-0.5-1-0.5-1.6h1.6c0,0.5,0.2,1,0.7,1.3s0.9,0.5,1.6,0.5
		c0.6,0,1.1-0.1,1.5-0.4S204.3,68.1,204.3,67.6z"/>
	<path d="M211.9,70.3c-1.3,0-2.3-0.4-3.1-1.3s-1.2-2-1.2-3.4v-0.3c0-0.9,0.2-1.8,0.5-2.5s0.9-1.3,1.5-1.7s1.3-0.6,2.1-0.6
		c1.2,0,2.2,0.4,2.9,1.2s1,2,1,3.5v0.7h-6.4c0,0.9,0.3,1.7,0.8,2.3s1.2,0.9,2,0.9c0.6,0,1.1-0.1,1.5-0.4s0.7-0.5,1-0.9l1,0.8
		C214.7,69.7,213.5,70.3,211.9,70.3z M211.7,61.8c-0.7,0-1.2,0.2-1.7,0.7s-0.7,1.1-0.8,2h4.8v-0.1c0-0.8-0.3-1.5-0.7-1.9
		S212.4,61.8,211.7,61.8z"/>
	<path d="M223.6,61.8c0.7-0.9,1.7-1.3,2.8-1.3c2,0,3,1.1,3,3.4v6.3h-1.6v-6.3c0-0.7-0.2-1.2-0.5-1.5s-0.8-0.5-1.4-0.5
		c-0.5,0-1,0.1-1.4,0.4s-0.7,0.7-0.9,1.1v6.8H222V56.7h1.6V61.8z"/>
	<path d="M235.9,70.3c-1.3,0-2.3-0.4-3.1-1.3s-1.2-2-1.2-3.4v-0.3c0-0.9,0.2-1.8,0.5-2.5s0.9-1.3,1.5-1.7s1.3-0.6,2.1-0.6
		c1.2,0,2.2,0.4,2.9,1.2s1,2,1,3.5v0.7h-6.4c0,0.9,0.3,1.7,0.8,2.3s1.2,0.9,2,0.9c0.6,0,1.1-0.1,1.5-0.4s0.7-0.5,1-0.9l1,0.8
		C238.6,69.7,237.4,70.3,235.9,70.3z M235.6,61.8c-0.7,0-1.2,0.2-1.7,0.7s-0.7,1.1-0.8,2h4.8v-0.1c0-0.8-0.3-1.5-0.7-1.9
		S236.3,61.8,235.6,61.8z"/>
	<path d="M243.2,70.2h-1.6V56.7h1.6V70.2z"/>
	<path d="M253.8,65.5c0,1.4-0.3,2.6-1,3.5s-1.6,1.3-2.7,1.3c-1.2,0-2.1-0.4-2.7-1.1v4.6h-1.6V60.7h1.5l0.1,1.1
		c0.7-0.8,1.6-1.2,2.8-1.2c1.1,0,2,0.4,2.7,1.3s1,2.1,1,3.6V65.5z M252.2,65.3c0-1.1-0.2-1.9-0.7-2.5s-1.1-0.9-1.9-0.9
		c-1,0-1.7,0.4-2.2,1.3v4.5c0.5,0.9,1.2,1.3,2.2,1.3c0.8,0,1.4-0.3,1.9-0.9S252.2,66.5,252.2,65.3z"/>
	<path d="M266.2,69.2c-0.6,0.7-1.6,1.1-2.8,1.1c-1,0-1.8-0.3-2.3-0.9s-0.8-1.5-0.8-2.6v-6.2h1.6v6.1c0,1.4,0.6,2.2,1.8,2.2
		c1.2,0,2.1-0.5,2.5-1.4v-6.9h1.6v9.5h-1.5L266.2,69.2z"/>
	<path d="M278.3,65.5c0,1.4-0.3,2.6-1,3.5s-1.6,1.3-2.7,1.3c-1.2,0-2.1-0.4-2.7-1.1v4.6h-1.6V60.7h1.5l0.1,1.1
		c0.7-0.8,1.6-1.2,2.8-1.2c1.1,0,2,0.4,2.7,1.3s1,2.1,1,3.6V65.5z M276.7,65.3c0-1.1-0.2-1.9-0.7-2.5s-1.1-0.9-1.9-0.9
		c-1,0-1.7,0.4-2.2,1.3v4.5c0.5,0.9,1.2,1.3,2.2,1.3c0.8,0,1.4-0.3,1.9-0.9S276.7,66.5,276.7,65.3z"/>
	<path d="M280,65.3c0-1.5,0.3-2.6,1-3.5s1.6-1.3,2.7-1.3c1.1,0,2,0.4,2.6,1.1v-5h1.6v13.5h-1.5l-0.1-1c-0.7,0.8-1.6,1.2-2.7,1.2
		c-1.1,0-2-0.5-2.7-1.4s-1-2.1-1-3.5V65.3z M281.6,65.5c0,1.1,0.2,1.9,0.7,2.5s1.1,0.9,1.8,0.9c1,0,1.8-0.5,2.3-1.4v-4.4
		c-0.5-0.9-1.2-1.3-2.2-1.3c-0.8,0-1.4,0.3-1.9,0.9S281.6,64.3,281.6,65.5z"/>
	<path d="M296.4,70.2c-0.1-0.2-0.2-0.5-0.2-1c-0.8,0.8-1.7,1.2-2.7,1.2c-0.9,0-1.7-0.3-2.3-0.8s-0.9-1.2-0.9-2c0-1,0.4-1.8,1.1-2.3
		s1.8-0.8,3.2-0.8h1.6v-0.7c0-0.6-0.2-1-0.5-1.4s-0.8-0.5-1.5-0.5c-0.6,0-1.1,0.1-1.5,0.4s-0.6,0.6-0.6,1.1h-1.6
		c0-0.5,0.2-0.9,0.5-1.4s0.8-0.8,1.4-1.1s1.2-0.4,1.9-0.4c1.1,0,2,0.3,2.6,0.8s0.9,1.3,1,2.3v4.4c0,0.9,0.1,1.6,0.3,2.1v0.1H296.4z
		 M293.7,68.9c0.5,0,1-0.1,1.5-0.4s0.8-0.6,1-1v-2h-1.3c-2,0-3,0.6-3,1.7c0,0.5,0.2,0.9,0.5,1.2S293.2,68.9,293.7,68.9z"/>
	<path d="M302.5,58.4v2.3h1.8v1.3h-1.8v5.9c0,0.4,0.1,0.7,0.2,0.9c0.2,0.2,0.4,0.3,0.8,0.3c0.2,0,0.4,0,0.8-0.1v1.3
		c-0.4,0.1-0.8,0.2-1.2,0.2c-0.7,0-1.3-0.2-1.6-0.7s-0.6-1.1-0.6-1.9v-5.9h-1.7v-1.3h1.7v-2.3H302.5z"/>
	<path d="M310.2,70.3c-1.3,0-2.3-0.4-3.1-1.3s-1.2-2-1.2-3.4v-0.3c0-0.9,0.2-1.8,0.5-2.5s0.9-1.3,1.5-1.7s1.3-0.6,2.1-0.6
		c1.2,0,2.2,0.4,2.9,1.2s1,2,1,3.5v0.7h-6.4c0,0.9,0.3,1.7,0.8,2.3s1.2,0.9,2,0.9c0.6,0,1.1-0.1,1.5-0.4s0.7-0.5,1-0.9l1,0.8
		C312.9,69.7,311.7,70.3,310.2,70.3z M310,61.8c-0.7,0-1.2,0.2-1.7,0.7s-0.7,1.1-0.8,2h4.8v-0.1c0-0.8-0.3-1.5-0.7-1.9
		S310.6,61.8,310,61.8z"/>
	<path d="M322.4,58.4v2.3h1.8v1.3h-1.8v5.9c0,0.4,0.1,0.7,0.2,0.9c0.2,0.2,0.4,0.3,0.8,0.3c0.2,0,0.4,0,0.8-0.1v1.3
		c-0.4,0.1-0.8,0.2-1.2,0.2c-0.7,0-1.3-0.2-1.6-0.7s-0.6-1.1-0.6-1.9v-5.9H319v-1.3h1.7v-2.3H322.4z"/>
	<path d="M327.7,61.8c0.7-0.9,1.7-1.3,2.8-1.3c2,0,3,1.1,3,3.4v6.3h-1.6v-6.3c0-0.7-0.2-1.2-0.5-1.5s-0.8-0.5-1.4-0.5
		c-0.5,0-1,0.1-1.4,0.4s-0.7,0.7-0.9,1.1v6.8h-1.6V56.7h1.6V61.8z"/>
	<path d="M336,58.1c0-0.3,0.1-0.5,0.2-0.7s0.4-0.3,0.7-0.3s0.6,0.1,0.7,0.3s0.2,0.4,0.2,0.7s-0.1,0.5-0.2,0.7s-0.4,0.3-0.7,0.3
		s-0.6-0.1-0.7-0.3S336,58.4,336,58.1z M337.8,70.2h-1.6v-9.5h1.6V70.2z"/>
	<path d="M345.9,67.6c0-0.4-0.2-0.8-0.5-1s-0.9-0.5-1.7-0.6s-1.5-0.4-2-0.6s-0.8-0.5-1.1-0.9s-0.3-0.7-0.3-1.2c0-0.8,0.3-1.4,1-2
		s1.5-0.8,2.5-0.8c1.1,0,2,0.3,2.6,0.8s1,1.3,1,2.1h-1.6c0-0.4-0.2-0.8-0.6-1.2s-0.9-0.5-1.4-0.5c-0.6,0-1.1,0.1-1.4,0.4
		s-0.5,0.6-0.5,1c0,0.4,0.2,0.7,0.5,0.9s0.9,0.4,1.7,0.6s1.5,0.4,2,0.7s0.9,0.6,1.1,0.9s0.4,0.8,0.4,1.3c0,0.8-0.3,1.5-1,2
		s-1.6,0.8-2.6,0.8c-0.8,0-1.4-0.1-2-0.4s-1-0.6-1.4-1.1s-0.5-1-0.5-1.6h1.6c0,0.5,0.2,1,0.7,1.3s0.9,0.5,1.6,0.5
		c0.6,0,1.1-0.1,1.5-0.4S345.9,68.1,345.9,67.6z"/>
	<path d="M361.4,66.8h-5.4l-1.2,3.3h-1.7l4.9-12.8h1.5l4.9,12.8h-1.7L361.4,66.8z M356.6,65.4h4.4l-2.2-6L356.6,65.4z"/>
	<path d="M370.4,62.1c-0.2,0-0.5-0.1-0.8-0.1c-1.1,0-1.8,0.5-2.2,1.4v6.8h-1.6v-9.5h1.6l0,1.1c0.5-0.8,1.3-1.3,2.3-1.3
		c0.3,0,0.6,0,0.7,0.1V62.1z"/>
	<path d="M374.6,58.4v2.3h1.8v1.3h-1.8v5.9c0,0.4,0.1,0.7,0.2,0.9c0.2,0.2,0.4,0.3,0.8,0.3c0.2,0,0.4,0,0.8-0.1v1.3
		c-0.4,0.1-0.8,0.2-1.2,0.2c-0.7,0-1.3-0.2-1.6-0.7s-0.6-1.1-0.6-1.9v-5.9h-1.7v-1.3h1.7v-2.3H374.6z"/>
	<path d="M378.3,58.1c0-0.3,0.1-0.5,0.2-0.7s0.4-0.3,0.7-0.3s0.6,0.1,0.7,0.3s0.2,0.4,0.2,0.7s-0.1,0.5-0.2,0.7s-0.4,0.3-0.7,0.3
		s-0.6-0.1-0.7-0.3S378.3,58.4,378.3,58.1z M380,70.2h-1.6v-9.5h1.6V70.2z"/>
	<path d="M386.4,69c0.6,0,1.1-0.2,1.5-0.5s0.7-0.8,0.7-1.3h1.5c0,0.5-0.2,1.1-0.6,1.6s-0.8,0.9-1.4,1.2s-1.2,0.4-1.8,0.4
		c-1.3,0-2.3-0.4-3.1-1.3s-1.1-2-1.1-3.5v-0.3c0-0.9,0.2-1.7,0.5-2.5s0.8-1.3,1.5-1.7s1.4-0.6,2.3-0.6c1.1,0,2,0.3,2.7,1
		s1.1,1.5,1.1,2.5h-1.5c0-0.6-0.3-1.1-0.7-1.5s-0.9-0.6-1.6-0.6c-0.8,0-1.5,0.3-1.9,0.9s-0.7,1.5-0.7,2.6v0.3c0,1.1,0.2,1.9,0.7,2.5
		S385.6,69,386.4,69z"/>
	<path d="M393.8,70.2h-1.6V56.7h1.6V70.2z"/>
	<path d="M400.4,70.3c-1.3,0-2.3-0.4-3.1-1.3s-1.2-2-1.2-3.4v-0.3c0-0.9,0.2-1.8,0.5-2.5s0.9-1.3,1.5-1.7s1.3-0.6,2.1-0.6
		c1.2,0,2.2,0.4,2.9,1.2s1,2,1,3.5v0.7h-6.4c0,0.9,0.3,1.7,0.8,2.3s1.2,0.9,2,0.9c0.6,0,1.1-0.1,1.5-0.4s0.7-0.5,1-0.9l1,0.8
		C403.1,69.7,401.9,70.3,400.4,70.3z M400.2,61.8c-0.7,0-1.2,0.2-1.7,0.7s-0.7,1.1-0.8,2h4.8v-0.1c0-0.8-0.3-1.5-0.7-1.9
		S400.8,61.8,400.2,61.8z"/>
	<path d="M412.6,58.4v2.3h1.8v1.3h-1.8v5.9c0,0.4,0.1,0.7,0.2,0.9c0.2,0.2,0.4,0.3,0.8,0.3c0.2,0,0.4,0,0.8-0.1v1.3
		c-0.4,0.1-0.8,0.2-1.2,0.2c-0.7,0-1.3-0.2-1.6-0.7s-0.6-1.1-0.6-1.9v-5.9h-1.7v-1.3h1.7v-2.3H412.6z"/>
	<path d="M415.7,65.3c0-0.9,0.2-1.8,0.5-2.5c0.4-0.7,0.9-1.3,1.5-1.7c0.7-0.4,1.4-0.6,2.2-0.6c1.3,0,2.3,0.4,3.1,1.3
		c0.8,0.9,1.2,2.1,1.2,3.6v0.1c0,0.9-0.2,1.8-0.5,2.5c-0.4,0.7-0.9,1.3-1.5,1.7c-0.7,0.4-1.4,0.6-2.3,0.6c-1.3,0-2.3-0.4-3.1-1.3
		c-0.8-0.9-1.2-2.1-1.2-3.6V65.3z M417.3,65.5c0,1.1,0.2,1.9,0.7,2.5s1.1,1,2,1c0.8,0,1.5-0.3,2-1s0.7-1.6,0.7-2.7
		c0-1-0.2-1.9-0.7-2.5s-1.2-1-2-1c-0.8,0-1.5,0.3-1.9,1S417.3,64.3,417.3,65.5z"/>
	<path d="M435.4,62.1c-0.2,0-0.5-0.1-0.8-0.1c-1.1,0-1.8,0.5-2.2,1.4v6.8h-1.6v-9.5h1.6l0,1.1c0.5-0.8,1.3-1.3,2.3-1.3
		c0.3,0,0.6,0,0.7,0.1V62.1z"/>
	<path d="M440.7,70.3c-1.3,0-2.3-0.4-3.1-1.3s-1.2-2-1.2-3.4v-0.3c0-0.9,0.2-1.8,0.5-2.5c0.4-0.7,0.9-1.3,1.5-1.7s1.3-0.6,2.1-0.6
		c1.2,0,2.2,0.4,2.9,1.2s1,2,1,3.5v0.7H438c0,0.9,0.3,1.7,0.8,2.3c0.5,0.6,1.2,0.9,2,0.9c0.6,0,1.1-0.1,1.5-0.4s0.7-0.5,1-0.9l1,0.8
		C443.5,69.7,442.3,70.3,440.7,70.3z M440.5,61.8c-0.7,0-1.2,0.2-1.7,0.7s-0.7,1.1-0.8,2h4.8v-0.1c0-0.8-0.3-1.5-0.7-1.9
		S441.2,61.8,440.5,61.8z"/>
	<path d="M447.1,70.2v-8.3h-1.5v-1.3h1.5v-1c0-1,0.3-1.8,0.8-2.4s1.3-0.8,2.3-0.8c0.4,0,0.7,0,1.1,0.1l-0.1,1.3
		c-0.3-0.1-0.6-0.1-0.9-0.1c-0.5,0-0.9,0.2-1.2,0.5s-0.4,0.8-0.4,1.3v1h2v1.3h-2v8.3H447.1z"/>
	<path d="M454.3,70.2h-1.6V56.7h1.6V70.2z"/>
	<path d="M460.9,70.3c-1.3,0-2.3-0.4-3.1-1.3s-1.2-2-1.2-3.4v-0.3c0-0.9,0.2-1.8,0.5-2.5c0.4-0.7,0.9-1.3,1.5-1.7s1.3-0.6,2.1-0.6
		c1.2,0,2.2,0.4,2.9,1.2s1,2,1,3.5v0.7h-6.4c0,0.9,0.3,1.7,0.8,2.3c0.5,0.6,1.2,0.9,2,0.9c0.6,0,1.1-0.1,1.5-0.4s0.7-0.5,1-0.9
		l1,0.8C463.6,69.7,462.4,70.3,460.9,70.3z M460.6,61.8c-0.7,0-1.2,0.2-1.7,0.7s-0.7,1.1-0.8,2h4.8v-0.1c0-0.8-0.3-1.5-0.7-1.9
		S461.3,61.8,460.6,61.8z"/>
	<path d="M470.3,69c0.6,0,1.1-0.2,1.5-0.5s0.7-0.8,0.7-1.3h1.5c0,0.5-0.2,1.1-0.6,1.6s-0.8,0.9-1.4,1.2s-1.2,0.4-1.8,0.4
		c-1.3,0-2.3-0.4-3.1-1.3c-0.8-0.9-1.1-2-1.1-3.5v-0.3c0-0.9,0.2-1.7,0.5-2.5s0.8-1.3,1.5-1.7s1.4-0.6,2.3-0.6c1.1,0,2,0.3,2.7,1
		c0.7,0.6,1.1,1.5,1.1,2.5h-1.5c0-0.6-0.3-1.1-0.7-1.5c-0.4-0.4-0.9-0.6-1.6-0.6c-0.8,0-1.5,0.3-1.9,0.9s-0.7,1.5-0.7,2.6v0.3
		c0,1.1,0.2,1.9,0.7,2.5S469.4,69,470.3,69z"/>
	<path d="M478.1,58.4v2.3h1.8v1.3h-1.8v5.9c0,0.4,0.1,0.7,0.2,0.9c0.2,0.2,0.4,0.3,0.8,0.3c0.2,0,0.4,0,0.8-0.1v1.3
		c-0.4,0.1-0.8,0.2-1.2,0.2c-0.7,0-1.3-0.2-1.6-0.7s-0.6-1.1-0.6-1.9v-5.9h-1.7v-1.3h1.7v-2.3H478.1z"/>
	<path d="M490.8,62.1c-0.2,0-0.5-0.1-0.8-0.1c-1.1,0-1.8,0.5-2.2,1.4v6.8h-1.6v-9.5h1.6l0,1.1c0.5-0.8,1.3-1.3,2.3-1.3
		c0.3,0,0.6,0,0.7,0.1V62.1z"/>
	<path d="M496.1,70.3c-1.3,0-2.3-0.4-3.1-1.3s-1.2-2-1.2-3.4v-0.3c0-0.9,0.2-1.8,0.5-2.5c0.4-0.7,0.9-1.3,1.5-1.7s1.3-0.6,2.1-0.6
		c1.2,0,2.2,0.4,2.9,1.2s1,2,1,3.5v0.7h-6.4c0,0.9,0.3,1.7,0.8,2.3c0.5,0.6,1.2,0.9,2,0.9c0.6,0,1.1-0.1,1.5-0.4s0.7-0.5,1-0.9
		l1,0.8C498.9,69.7,497.7,70.3,496.1,70.3z M495.9,61.8c-0.7,0-1.2,0.2-1.7,0.7s-0.7,1.1-0.8,2h4.8v-0.1c0-0.8-0.3-1.5-0.7-1.9
		S496.5,61.8,495.9,61.8z"/>
	<path d="M505.5,69c0.6,0,1.1-0.2,1.5-0.5s0.7-0.8,0.7-1.3h1.5c0,0.5-0.2,1.1-0.6,1.6s-0.8,0.9-1.4,1.2s-1.2,0.4-1.8,0.4
		c-1.3,0-2.3-0.4-3.1-1.3c-0.8-0.9-1.1-2-1.1-3.5v-0.3c0-0.9,0.2-1.7,0.5-2.5s0.8-1.3,1.5-1.7s1.4-0.6,2.3-0.6c1.1,0,2,0.3,2.7,1
		c0.7,0.6,1.1,1.5,1.1,2.5h-1.5c0-0.6-0.3-1.1-0.7-1.5c-0.4-0.4-0.9-0.6-1.6-0.6c-0.8,0-1.5,0.3-1.9,0.9s-0.7,1.5-0.7,2.6v0.3
		c0,1.1,0.2,1.9,0.7,2.5S504.6,69,505.5,69z"/>
	<path d="M515,70.3c-1.3,0-2.3-0.4-3.1-1.3s-1.2-2-1.2-3.4v-0.3c0-0.9,0.2-1.8,0.5-2.5c0.4-0.7,0.9-1.3,1.5-1.7s1.3-0.6,2.1-0.6
		c1.2,0,2.2,0.4,2.9,1.2s1,2,1,3.5v0.7h-6.4c0,0.9,0.3,1.7,0.8,2.3c0.5,0.6,1.2,0.9,2,0.9c0.6,0,1.1-0.1,1.5-0.4s0.7-0.5,1-0.9
		l1,0.8C517.8,69.7,516.6,70.3,515,70.3z M514.8,61.8c-0.7,0-1.2,0.2-1.7,0.7s-0.7,1.1-0.8,2h4.8v-0.1c0-0.8-0.3-1.5-0.7-1.9
		S515.5,61.8,514.8,61.8z"/>
	<path d="M522.2,60.7l0.1,1.2c0.7-0.9,1.7-1.4,2.8-1.4c2,0,3,1.1,3,3.4v6.3h-1.6v-6.3c0-0.7-0.2-1.2-0.5-1.5
		c-0.3-0.3-0.8-0.5-1.4-0.5c-0.5,0-1,0.1-1.4,0.4s-0.7,0.7-0.9,1.1v6.8h-1.6v-9.5H522.2z"/>
	<path d="M532.8,58.4v2.3h1.8v1.3h-1.8v5.9c0,0.4,0.1,0.7,0.2,0.9c0.2,0.2,0.4,0.3,0.8,0.3c0.2,0,0.4,0,0.8-0.1v1.3
		c-0.4,0.1-0.8,0.2-1.2,0.2c-0.7,0-1.3-0.2-1.6-0.7s-0.6-1.1-0.6-1.9v-5.9h-1.7v-1.3h1.7v-2.3H532.8z"/>
	<path d="M544.8,70.3c-1.3,0-2.3-0.4-3.1-1.3s-1.2-2-1.2-3.4v-0.3c0-0.9,0.2-1.8,0.5-2.5c0.4-0.7,0.9-1.3,1.5-1.7s1.3-0.6,2.1-0.6
		c1.2,0,2.2,0.4,2.9,1.2s1,2,1,3.5v0.7h-6.4c0,0.9,0.3,1.7,0.8,2.3c0.5,0.6,1.2,0.9,2,0.9c0.6,0,1.1-0.1,1.5-0.4s0.7-0.5,1-0.9
		l1,0.8C547.6,69.7,546.4,70.3,544.8,70.3z M544.6,61.8c-0.7,0-1.2,0.2-1.7,0.7s-0.7,1.1-0.8,2h4.8v-0.1c0-0.8-0.3-1.5-0.7-1.9
		S545.3,61.8,544.6,61.8z"/>
	<path d="M553.4,68l2.4-7.3h1.7l-3.4,9.5h-1.2l-3.4-9.5h1.7L553.4,68z"/>
	<path d="M562.9,70.3c-1.3,0-2.3-0.4-3.1-1.3s-1.2-2-1.2-3.4v-0.3c0-0.9,0.2-1.8,0.5-2.5c0.4-0.7,0.9-1.3,1.5-1.7s1.3-0.6,2.1-0.6
		c1.2,0,2.2,0.4,2.9,1.2s1,2,1,3.5v0.7h-6.4c0,0.9,0.3,1.7,0.8,2.3c0.5,0.6,1.2,0.9,2,0.9c0.6,0,1.1-0.1,1.5-0.4s0.7-0.5,1-0.9
		l1,0.8C565.6,69.7,564.5,70.3,562.9,70.3z M562.7,61.8c-0.7,0-1.2,0.2-1.7,0.7s-0.7,1.1-0.8,2h4.8v-0.1c0-0.8-0.3-1.5-0.7-1.9
		S563.3,61.8,562.7,61.8z"/>
	<path d="M570,60.7l0.1,1.2c0.7-0.9,1.7-1.4,2.8-1.4c2,0,3,1.1,3,3.4v6.3h-1.6v-6.3c0-0.7-0.2-1.2-0.5-1.5c-0.3-0.3-0.8-0.5-1.4-0.5
		c-0.5,0-1,0.1-1.4,0.4s-0.7,0.7-0.9,1.1v6.8h-1.6v-9.5H570z"/>
	<path d="M580.6,58.4v2.3h1.8v1.3h-1.8v5.9c0,0.4,0.1,0.7,0.2,0.9c0.2,0.2,0.4,0.3,0.8,0.3c0.2,0,0.4,0,0.8-0.1v1.3
		c-0.4,0.1-0.8,0.2-1.2,0.2c-0.7,0-1.3-0.2-1.6-0.7s-0.6-1.1-0.6-1.9v-5.9h-1.7v-1.3h1.7v-2.3H580.6z"/>
	<path d="M589.8,67.6c0-0.4-0.2-0.8-0.5-1c-0.3-0.2-0.9-0.5-1.7-0.6s-1.5-0.4-2-0.6c-0.5-0.2-0.8-0.5-1.1-0.9
		c-0.2-0.3-0.3-0.7-0.3-1.2c0-0.8,0.3-1.4,1-2c0.7-0.5,1.5-0.8,2.5-0.8c1.1,0,2,0.3,2.6,0.8s1,1.3,1,2.1h-1.6c0-0.4-0.2-0.8-0.6-1.2
		c-0.4-0.3-0.9-0.5-1.4-0.5c-0.6,0-1.1,0.1-1.4,0.4s-0.5,0.6-0.5,1c0,0.4,0.2,0.7,0.5,0.9s0.9,0.4,1.7,0.6c0.8,0.2,1.5,0.4,2,0.7
		s0.9,0.6,1.1,0.9c0.2,0.4,0.4,0.8,0.4,1.3c0,0.8-0.3,1.5-1,2s-1.6,0.8-2.6,0.8c-0.8,0-1.4-0.1-2-0.4s-1-0.6-1.4-1.1
		c-0.3-0.5-0.5-1-0.5-1.6h1.6c0,0.5,0.2,1,0.7,1.3s0.9,0.5,1.6,0.5c0.6,0,1.1-0.1,1.5-0.4S589.8,68.1,589.8,67.6z"/>
	<path d="M597.6,65.3c0-0.9,0.2-1.8,0.5-2.5c0.4-0.7,0.9-1.3,1.5-1.7c0.7-0.4,1.4-0.6,2.2-0.6c1.3,0,2.3,0.4,3.1,1.3
		c0.8,0.9,1.2,2.1,1.2,3.6v0.1c0,0.9-0.2,1.8-0.5,2.5c-0.4,0.7-0.9,1.3-1.5,1.7c-0.7,0.4-1.4,0.6-2.3,0.6c-1.3,0-2.3-0.4-3.1-1.3
		c-0.8-0.9-1.2-2.1-1.2-3.6V65.3z M599.2,65.5c0,1.1,0.2,1.9,0.7,2.5s1.1,1,2,1c0.8,0,1.5-0.3,2-1s0.7-1.6,0.7-2.7
		c0-1-0.2-1.9-0.7-2.5s-1.2-1-2-1c-0.8,0-1.5,0.3-1.9,1S599.2,64.3,599.2,65.5z"/>
	<path d="M612.9,62.1c-0.2,0-0.5-0.1-0.8-0.1c-1.1,0-1.8,0.5-2.2,1.4v6.8h-1.6v-9.5h1.6l0,1.1c0.5-0.8,1.3-1.3,2.3-1.3
		c0.3,0,0.6,0,0.7,0.1V62.1z"/>
	<path d="M620.3,60.7l0.1,1.2c0.7-0.9,1.7-1.4,2.8-1.4c2,0,3,1.1,3,3.4v6.3h-1.6v-6.3c0-0.7-0.2-1.2-0.5-1.5
		c-0.3-0.3-0.8-0.5-1.4-0.5c-0.5,0-1,0.1-1.4,0.4s-0.7,0.7-0.9,1.1v6.8h-1.6v-9.5H620.3z"/>
	<path d="M632.7,70.3c-1.3,0-2.3-0.4-3.1-1.3s-1.2-2-1.2-3.4v-0.3c0-0.9,0.2-1.8,0.5-2.5c0.4-0.7,0.9-1.3,1.5-1.7s1.3-0.6,2.1-0.6
		c1.2,0,2.2,0.4,2.9,1.2s1,2,1,3.5v0.7H630c0,0.9,0.3,1.7,0.8,2.3c0.5,0.6,1.2,0.9,2,0.9c0.6,0,1.1-0.1,1.5-0.4s0.7-0.5,1-0.9l1,0.8
		C635.5,69.7,634.3,70.3,632.7,70.3z M632.5,61.8c-0.7,0-1.2,0.2-1.7,0.7s-0.7,1.1-0.8,2h4.8v-0.1c0-0.8-0.3-1.5-0.7-1.9
		S633.2,61.8,632.5,61.8z"/>
	<path d="M646.7,67.9l1.8-7.3h1.6l-2.8,9.5h-1.3l-2.3-7.2l-2.2,7.2h-1.3l-2.8-9.5h1.6l1.9,7.1l2.2-7.1h1.3L646.7,67.9z"/>
	<path d="M653.6,70.2h-1.6V56.7h1.6V70.2z"/>
	<path d="M659.3,67.8l2.2-7.1h1.7l-3.8,11c-0.6,1.6-1.5,2.4-2.8,2.4l-0.3,0l-0.6-0.1v-1.3l0.4,0c0.6,0,1-0.1,1.3-0.3
		c0.3-0.2,0.6-0.6,0.8-1.2l0.4-1l-3.4-9.4h1.8L659.3,67.8z"/>
	<path d="M675,70.2c-0.1-0.2-0.2-0.5-0.2-1c-0.8,0.8-1.7,1.2-2.7,1.2c-0.9,0-1.7-0.3-2.3-0.8c-0.6-0.5-0.9-1.2-0.9-2
		c0-1,0.4-1.8,1.1-2.3c0.8-0.5,1.8-0.8,3.2-0.8h1.6v-0.7c0-0.6-0.2-1-0.5-1.4s-0.8-0.5-1.5-0.5c-0.6,0-1.1,0.1-1.5,0.4
		s-0.6,0.6-0.6,1.1h-1.6c0-0.5,0.2-0.9,0.5-1.4s0.8-0.8,1.4-1.1s1.2-0.4,1.9-0.4c1.1,0,2,0.3,2.6,0.8s0.9,1.3,1,2.3v4.4
		c0,0.9,0.1,1.6,0.3,2.1v0.1H675z M672.3,68.9c0.5,0,1-0.1,1.5-0.4s0.8-0.6,1-1v-2h-1.3c-2,0-3,0.6-3,1.7c0,0.5,0.2,0.9,0.5,1.2
		S671.8,68.9,672.3,68.9z"/>
	<path d="M681.9,68l2.4-7.3h1.7l-3.4,9.5h-1.2l-3.4-9.5h1.7L681.9,68z"/>
	<path d="M693.3,70.2c-0.1-0.2-0.2-0.5-0.2-1c-0.8,0.8-1.7,1.2-2.7,1.2c-0.9,0-1.7-0.3-2.3-0.8c-0.6-0.5-0.9-1.2-0.9-2
		c0-1,0.4-1.8,1.1-2.3c0.8-0.5,1.8-0.8,3.2-0.8h1.6v-0.7c0-0.6-0.2-1-0.5-1.4s-0.8-0.5-1.5-0.5c-0.6,0-1.1,0.1-1.5,0.4
		s-0.6,0.6-0.6,1.1h-1.6c0-0.5,0.2-0.9,0.5-1.4s0.8-0.8,1.4-1.1s1.2-0.4,1.9-0.4c1.1,0,2,0.3,2.6,0.8s0.9,1.3,1,2.3v4.4
		c0,0.9,0.1,1.6,0.3,2.1v0.1H693.3z M690.6,68.9c0.5,0,1-0.1,1.5-0.4s0.8-0.6,1-1v-2h-1.3c-2,0-3,0.6-3,1.7c0,0.5,0.2,0.9,0.5,1.2
		S690,68.9,690.6,68.9z"/>
	<path d="M697.2,58.1c0-0.3,0.1-0.5,0.2-0.7s0.4-0.3,0.7-0.3s0.6,0.1,0.7,0.3s0.2,0.4,0.2,0.7s-0.1,0.5-0.2,0.7s-0.4,0.3-0.7,0.3
		s-0.6-0.1-0.7-0.3S697.2,58.4,697.2,58.1z M698.9,70.2h-1.6v-9.5h1.6V70.2z"/>
	<path d="M703.3,70.2h-1.6V56.7h1.6V70.2z"/>
	<path d="M711.8,70.2c-0.1-0.2-0.2-0.5-0.2-1c-0.8,0.8-1.7,1.2-2.7,1.2c-0.9,0-1.7-0.3-2.3-0.8c-0.6-0.5-0.9-1.2-0.9-2
		c0-1,0.4-1.8,1.1-2.3c0.8-0.5,1.8-0.8,3.2-0.8h1.6v-0.7c0-0.6-0.2-1-0.5-1.4s-0.8-0.5-1.5-0.5c-0.6,0-1.1,0.1-1.5,0.4
		s-0.6,0.6-0.6,1.1h-1.6c0-0.5,0.2-0.9,0.5-1.4s0.8-0.8,1.4-1.1s1.2-0.4,1.9-0.4c1.1,0,2,0.3,2.6,0.8s0.9,1.3,1,2.3v4.4
		c0,0.9,0.1,1.6,0.3,2.1v0.1H711.8z M709.1,68.9c0.5,0,1-0.1,1.5-0.4s0.8-0.6,1-1v-2h-1.3c-2,0-3,0.6-3,1.7c0,0.5,0.2,0.9,0.5,1.2
		S708.6,68.9,709.1,68.9z"/>
	<path d="M723.8,65.5c0,1.5-0.3,2.6-1,3.5s-1.6,1.3-2.7,1.3c-1.2,0-2.1-0.4-2.8-1.3l-0.1,1.1h-1.5V56.7h1.6v5
		c0.7-0.8,1.6-1.2,2.7-1.2s2.1,0.4,2.7,1.3c0.7,0.9,1,2.1,1,3.6V65.5z M722.1,65.3c0-1.1-0.2-2-0.6-2.6s-1-0.9-1.8-0.9
		c-1.1,0-1.8,0.5-2.3,1.5v4.1c0.5,1,1.3,1.5,2.3,1.5c0.8,0,1.4-0.3,1.8-0.9S722.1,66.5,722.1,65.3z"/>
	<path d="M727.6,70.2h-1.6V56.7h1.6V70.2z"/>
	<path d="M734.1,70.3c-1.3,0-2.3-0.4-3.1-1.3s-1.2-2-1.2-3.4v-0.3c0-0.9,0.2-1.8,0.5-2.5c0.4-0.7,0.9-1.3,1.5-1.7s1.3-0.6,2.1-0.6
		c1.2,0,2.2,0.4,2.9,1.2s1,2,1,3.5v0.7h-6.4c0,0.9,0.3,1.7,0.8,2.3c0.5,0.6,1.2,0.9,2,0.9c0.6,0,1.1-0.1,1.5-0.4s0.7-0.5,1-0.9
		l1,0.8C736.9,69.7,735.7,70.3,734.1,70.3z M733.9,61.8c-0.7,0-1.2,0.2-1.7,0.7s-0.7,1.1-0.8,2h4.8v-0.1c0-0.8-0.3-1.5-0.7-1.9
		S734.6,61.8,733.9,61.8z"/>
	<path d="M744.2,58.1c0-0.3,0.1-0.5,0.2-0.7s0.4-0.3,0.7-0.3s0.6,0.1,0.7,0.3s0.2,0.4,0.2,0.7s-0.1,0.5-0.2,0.7s-0.4,0.3-0.7,0.3
		s-0.6-0.1-0.7-0.3S744.2,58.4,744.2,58.1z M745.9,70.2h-1.6v-9.5h1.6V70.2z"/>
	<path d="M750.1,60.7l0.1,1.2c0.7-0.9,1.7-1.4,2.8-1.4c2,0,3,1.1,3,3.4v6.3h-1.6v-6.3c0-0.7-0.2-1.2-0.5-1.5
		c-0.3-0.3-0.8-0.5-1.4-0.5c-0.5,0-1,0.1-1.4,0.4s-0.7,0.7-0.9,1.1v6.8h-1.6v-9.5H750.1z"/>
	<path d="M759.3,70.2v-8.3h-1.5v-1.3h1.5v-1c0-1,0.3-1.8,0.8-2.4s1.3-0.8,2.3-0.8c0.4,0,0.7,0,1.1,0.1l-0.1,1.3
		c-0.3-0.1-0.6-0.1-0.9-0.1c-0.5,0-0.9,0.2-1.2,0.5s-0.4,0.8-0.4,1.3v1h2v1.3h-2v8.3H759.3z"/>
	<path d="M764.3,65.3c0-0.9,0.2-1.8,0.5-2.5c0.4-0.7,0.9-1.3,1.5-1.7c0.7-0.4,1.4-0.6,2.2-0.6c1.3,0,2.3,0.4,3.1,1.3
		c0.8,0.9,1.2,2.1,1.2,3.6v0.1c0,0.9-0.2,1.8-0.5,2.5c-0.4,0.7-0.9,1.3-1.5,1.7c-0.7,0.4-1.4,0.6-2.3,0.6c-1.3,0-2.3-0.4-3.1-1.3
		c-0.8-0.9-1.2-2.1-1.2-3.6V65.3z M765.9,65.5c0,1.1,0.2,1.9,0.7,2.5s1.1,1,2,1c0.8,0,1.5-0.3,2-1s0.7-1.6,0.7-2.7
		c0-1-0.2-1.9-0.7-2.5s-1.2-1-2-1c-0.8,0-1.5,0.3-1.9,1S765.9,64.3,765.9,65.5z"/>
	<path d="M779.6,62.1c-0.2,0-0.5-0.1-0.8-0.1c-1.1,0-1.8,0.5-2.2,1.4v6.8H775v-9.5h1.6l0,1.1c0.5-0.8,1.3-1.3,2.3-1.3
		c0.3,0,0.6,0,0.7,0.1V62.1z"/>
	<path d="M782.6,60.7l0,1.1c0.7-0.8,1.6-1.2,2.8-1.2c1.3,0,2.2,0.5,2.7,1.5c0.3-0.5,0.7-0.8,1.2-1.1c0.5-0.3,1.1-0.4,1.8-0.4
		c2.1,0,3.1,1.1,3.2,3.3v6.4h-1.6v-6.3c0-0.7-0.2-1.2-0.5-1.5s-0.8-0.5-1.6-0.5c-0.6,0-1.1,0.2-1.5,0.5s-0.6,0.8-0.7,1.5v6.3h-1.6
		v-6.2c0-1.4-0.7-2.1-2-2.1c-1.1,0-1.8,0.5-2.2,1.4v6.9h-1.6v-9.5H782.6z"/>
	<path d="M802.7,70.2c-0.1-0.2-0.2-0.5-0.2-1c-0.8,0.8-1.7,1.2-2.7,1.2c-0.9,0-1.7-0.3-2.3-0.8c-0.6-0.5-0.9-1.2-0.9-2
		c0-1,0.4-1.8,1.1-2.3c0.8-0.5,1.8-0.8,3.2-0.8h1.6v-0.7c0-0.6-0.2-1-0.5-1.4s-0.8-0.5-1.5-0.5c-0.6,0-1.1,0.1-1.5,0.4
		s-0.6,0.6-0.6,1.1h-1.6c0-0.5,0.2-0.9,0.5-1.4s0.8-0.8,1.4-1.1s1.2-0.4,1.9-0.4c1.1,0,2,0.3,2.6,0.8s0.9,1.3,1,2.3v4.4
		c0,0.9,0.1,1.6,0.3,2.1v0.1H802.7z M800,68.9c0.5,0,1-0.1,1.5-0.4s0.8-0.6,1-1v-2h-1.3c-2,0-3,0.6-3,1.7c0,0.5,0.2,0.9,0.5,1.2
		S799.5,68.9,800,68.9z"/>
	<path d="M808.8,58.4v2.3h1.8v1.3h-1.8v5.9c0,0.4,0.1,0.7,0.2,0.9c0.2,0.2,0.4,0.3,0.8,0.3c0.2,0,0.4,0,0.8-0.1v1.3
		c-0.4,0.1-0.8,0.2-1.2,0.2c-0.7,0-1.3-0.2-1.6-0.7s-0.6-1.1-0.6-1.9v-5.9h-1.7v-1.3h1.7v-2.3H808.8z"/>
	<path d="M812.5,58.1c0-0.3,0.1-0.5,0.2-0.7s0.4-0.3,0.7-0.3s0.6,0.1,0.7,0.3s0.2,0.4,0.2,0.7s-0.1,0.5-0.2,0.7s-0.4,0.3-0.7,0.3
		s-0.6-0.1-0.7-0.3S812.5,58.4,812.5,58.1z M814.3,70.2h-1.6v-9.5h1.6V70.2z"/>
	<path d="M816.5,65.3c0-0.9,0.2-1.8,0.5-2.5c0.4-0.7,0.9-1.3,1.5-1.7c0.7-0.4,1.4-0.6,2.2-0.6c1.3,0,2.3,0.4,3.1,1.3
		c0.8,0.9,1.2,2.1,1.2,3.6v0.1c0,0.9-0.2,1.8-0.5,2.5c-0.4,0.7-0.9,1.3-1.5,1.7c-0.7,0.4-1.4,0.6-2.3,0.6c-1.3,0-2.3-0.4-3.1-1.3
		c-0.8-0.9-1.2-2.1-1.2-3.6V65.3z M818.1,65.5c0,1.1,0.2,1.9,0.7,2.5s1.1,1,2,1c0.8,0,1.5-0.3,2-1s0.7-1.6,0.7-2.7
		c0-1-0.2-1.9-0.7-2.5s-1.2-1-2-1c-0.8,0-1.5,0.3-1.9,1S818.1,64.3,818.1,65.5z"/>
	<path d="M828.7,60.7l0.1,1.2c0.7-0.9,1.7-1.4,2.8-1.4c2,0,3,1.1,3,3.4v6.3H833v-6.3c0-0.7-0.2-1.2-0.5-1.5
		c-0.3-0.3-0.8-0.5-1.4-0.5c-0.5,0-1,0.1-1.4,0.4s-0.7,0.7-0.9,1.1v6.8h-1.6v-9.5H828.7z"/>
	<path d="M837.1,69.3c0-0.3,0.1-0.5,0.2-0.7c0.2-0.2,0.4-0.3,0.8-0.3s0.6,0.1,0.8,0.3s0.3,0.4,0.3,0.7c0,0.3-0.1,0.5-0.3,0.7
		s-0.4,0.3-0.8,0.3s-0.6-0.1-0.8-0.3C837.2,69.8,837.1,69.6,837.1,69.3z"/>
</g>
<g>
	
		<radialGradient id="SVGID_1_" cx="-303.1223" cy="130.4627" r="11.4091" gradientTransform="matrix(3.7498 0 0 3.7499 1227.1089 -428.5222)" gradientUnits="userSpaceOnUse">
		<stop  offset="0" style="stop-color:#C2C0C0"/>
		<stop  offset="0.88" style="stop-color:#C2C0C0"/>
		<stop  offset="1" style="stop-color:#C2C0C0;stop-opacity:0"/>
	</radialGradient>
	<ellipse class="st1" cx="90.5" cy="60.7" rx="42.8" ry="42.8"/>
	
		<linearGradient id="SVGID_00000174570225914591368520000009748962614274121654_" gradientUnits="userSpaceOnUse" x1="-290.7344" y1="120.1221" x2="-303.9955" y2="148.2384" gradientTransform="matrix(3.5216 0 0 3.5216 1143.9158 -432.3192)">
		<stop  offset="0" style="stop-color:#FCD9D8"/>
		<stop  offset="1" style="stop-color:#F05454"/>
	</linearGradient>
	
		<linearGradient id="SVGID_00000169522450224152536970000008135431580542563985_" gradientUnits="userSpaceOnUse" x1="-290.1902" y1="144.6684" x2="-309.5721" y2="133.9219" gradientTransform="matrix(3.5216 0 0 3.5216 1143.9158 -432.3192)">
		<stop  offset="0" style="stop-color:#B12826"/>
		<stop  offset="1" style="stop-color:#F05549"/>
	</linearGradient>
	
		<circle style="fill:url(#SVGID_00000174570225914591368520000009748962614274121654_);stroke:url(#SVGID_00000169522450224152536970000008135431580542563985_);stroke-width:4.988;stroke-miterlimit:18.7097;" cx="88.1" cy="58.4" r="39.2"/>
	
		<ellipse transform="matrix(0.1602 -0.9871 0.9871 0.1602 16.3955 136.0371)" class="st3" cx="88.1" cy="58.4" rx="35.4" ry="35.4"/>
	<g>
		<g>
			<defs>
				<circle id="SVGID_00000102525673531388147910000006026192330634493587_" cx="88" cy="58.1" r="34.3"/>
			</defs>
			<clipPath id="SVGID_00000170987492621075810900000006946365353247797152_">
				<use xlink:href="#SVGID_00000102525673531388147910000006026192330634493587_"  style="overflow:visible;"/>
			</clipPath>
			
				<linearGradient id="SVGID_00000060002567124078843640000003391055517960678817_" gradientUnits="userSpaceOnUse" x1="-184.6821" y1="-825.6943" x2="-184.6821" y2="-869.2316" gradientTransform="matrix(1.5471 0 0 -1.5471 373.7111 -1251.8394)">
				<stop  offset="0" style="stop-color:#FFFFFF"/>
				<stop  offset="0.1478" style="stop-color:#FDE1E1"/>
				<stop  offset="0.2363" style="stop-color:#FBD4D4"/>
				<stop  offset="0.3505" style="stop-color:#FDE2E1"/>
				<stop  offset="0.5264" style="stop-color:#FEF4F3"/>
				<stop  offset="0.7262" style="stop-color:#FFFCFD"/>
				<stop  offset="1" style="stop-color:#FFFFFF"/>
			</linearGradient>
			
				<circle style="clip-path:url(#SVGID_00000170987492621075810900000006946365353247797152_);fill:url(#SVGID_00000060002567124078843640000003391055517960678817_);" cx="88" cy="59.5" r="34.3"/>
		</g>
	</g>
	<path class="st5" d="M71,66.9L71,66.9c-0.2-0.3,0-0.8,0.3-0.9l20.1-9.9c0.3-0.2,0.8,0,0.9,0.3l0,0c0.2,0.3,0,0.8-0.3,0.9l-20.1,9.9
		C71.6,67.3,71.2,67.2,71,66.9z"/>
	<path class="st5" d="M110.1,35.1L111,36L84.6,62.9l-0.9-0.9L110.1,35.1z"/>
	<g id="B_00000006683848486346799210000008925236000945972367_" transform="rotate(150 51.01861695 41.45881796) scale(1.23694)">
		<rect x="21.7" y="-19.2" class="st6" width="0.6" height="29.8"/>
		<rect x="20.8" y="9.6" class="st6" width="2.5" height="5.6"/>
	</g>
	
		<linearGradient id="SVGID_00000049905226329434779980000004205944916384261509_" gradientUnits="userSpaceOnUse" x1="-183.9039" y1="-844.018" x2="-183.9039" y2="-847.5471" gradientTransform="matrix(1.5471 0 0 -1.5471 372.6616 -1250.3831)">
		<stop  offset="0" style="stop-color:#8BA4D5"/>
		<stop  offset="1" style="stop-color:#26489C"/>
	</linearGradient>
	<circle style="fill:url(#SVGID_00000049905226329434779980000004205944916384261509_);" cx="88.1" cy="58.4" r="2.9"/>
</g>
</svg>
