<?xml version="1.0" encoding="utf-8"?>
<!-- Generator: Adobe Illustrator 28.2.0, SVG Export Plug-In . SVG Version: 6.00 Build 0)  -->
<svg version="1.1" id="Layer_1" xmlns="http://www.w3.org/2000/svg" xmlns:xlink="http://www.w3.org/1999/xlink" x="0px" y="0px"
	 viewBox="0 0 273.9 37.6" style="enable-background:new 0 0 273.9 37.6;" xml:space="preserve">
<style type="text/css">
	.st0{fill:url(#SVGID_1_);}
	
		.st1{fill:url(#SVGID_00000135649314424184013710000007718239661689744799_);stroke:url(#SVGID_00000089575607034740476800000005747972705907080843_);stroke-width:1.5629;stroke-miterlimit:18.7097;}
	.st2{fill:#F37F81;}
	
		.st3{clip-path:url(#SVGID_00000150782679874869634060000011356602830251545994_);fill:url(#SVGID_00000101090259526447266270000001245283608660597666_);}
	.st4{fill:#911D1D;stroke:#E32130;stroke-width:0.3376;stroke-linejoin:round;stroke-miterlimit:18.7097;}
	.st5{fill:#F6BBBB;stroke:#F6BBBB;stroke-width:0.3341;stroke-linecap:round;stroke-linejoin:round;stroke-miterlimit:28.6261;}
	.st6{fill:url(#SVGID_00000149353180713184816440000008309179724807519625_);}
	.st7{fill:#F08621;}
</style>
<g>
	
		<radialGradient id="SVGID_1_" cx="-301.7213" cy="6.782" r="3.5749" gradientTransform="matrix(3.7498 0 0 3.7499 1159.7388 -6.4125)" gradientUnits="userSpaceOnUse">
		<stop  offset="0" style="stop-color:#C1C0C0"/>
		<stop  offset="0.88" style="stop-color:#C1C0C0"/>
		<stop  offset="1" style="stop-color:#C1C0C0;stop-opacity:0"/>
	</radialGradient>
	<ellipse class="st0" cx="28.3" cy="19" rx="13.4" ry="13.4"/>
	
		<linearGradient id="SVGID_00000106840434659239059220000017607407197182042007_" gradientUnits="userSpaceOnUse" x1="-296.6027" y1="12.0231" x2="-300.7578" y2="20.8328" gradientTransform="matrix(3.5216 0 0 3.5216 1082.1366 -45.2536)">
		<stop  offset="0" style="stop-color:#FCD8D8"/>
		<stop  offset="1" style="stop-color:#F05253"/>
	</linearGradient>
	
		<linearGradient id="SVGID_00000035488693993704140180000007520967701267258752_" gradientUnits="userSpaceOnUse" x1="-296.4322" y1="19.7143" x2="-302.5052" y2="16.347" gradientTransform="matrix(3.5216 0 0 3.5216 1082.1366 -45.2536)">
		<stop  offset="0" style="stop-color:#B12625"/>
		<stop  offset="1" style="stop-color:#F05348"/>
	</linearGradient>
	
		<circle style="fill:url(#SVGID_00000106840434659239059220000017607407197182042007_);stroke:url(#SVGID_00000035488693993704140180000007520967701267258752_);stroke-width:1.5629;stroke-miterlimit:18.7097;" cx="27.6" cy="18.3" r="12.3"/>
	<circle class="st2" cx="27.6" cy="18.3" r="11.1"/>
	<g>
		<g>
			<defs>
				<circle id="SVGID_00000154407484458302097960000000047106439511023029_" cx="27.6" cy="18.2" r="10.7"/>
			</defs>
			<clipPath id="SVGID_00000165935883716139975580000011109677521752462723_">
				<use xlink:href="#SVGID_00000154407484458302097960000000047106439511023029_"  style="overflow:visible;"/>
			</clipPath>
			
				<linearGradient id="SVGID_00000133504631600101717680000012872244014974174900_" gradientUnits="userSpaceOnUse" x1="-215.0715" y1="-1067.0533" x2="-215.0715" y2="-1080.6949" gradientTransform="matrix(1.5471 0 0 -1.5471 360.3072 -1642.8192)">
				<stop  offset="0" style="stop-color:#FFFFFF"/>
				<stop  offset="0.1478" style="stop-color:#FDE1E1"/>
				<stop  offset="0.2363" style="stop-color:#FBD3D4"/>
				<stop  offset="0.3505" style="stop-color:#FDE2E2"/>
				<stop  offset="0.5264" style="stop-color:#FEF3F3"/>
				<stop  offset="0.7262" style="stop-color:#FFFCFD"/>
				<stop  offset="1" style="stop-color:#FFFFFF"/>
			</linearGradient>
			
				<circle style="clip-path:url(#SVGID_00000165935883716139975580000011109677521752462723_);fill:url(#SVGID_00000133504631600101717680000012872244014974174900_);" cx="27.6" cy="18.6" r="10.7"/>
		</g>
	</g>
	<path class="st4" d="M22.2,21L22.2,21c0-0.1,0-0.2,0.1-0.3l6.3-3.1c0.1,0,0.2,0,0.3,0.1l0,0c0,0.1,0,0.2-0.1,0.3l-6.3,3.1
		C22.4,21.1,22.3,21.1,22.2,21z"/>
	<path class="st4" d="M34.5,11l0.3,0.3l-8.3,8.4l-0.3-0.3L34.5,11z"/>
	<g id="B_00000006683848486346799210000008925236000945972367_" transform="rotate(150 51.01861695 41.45881796) scale(1.23694)">
		<rect x="48.2" y="51.1" class="st5" width="0.2" height="9.3"/>
		<rect x="47.9" y="60.1" class="st5" width="0.8" height="1.7"/>
	</g>
	
		<linearGradient id="SVGID_00000052084678370344444460000015235553714683770249_" gradientUnits="userSpaceOnUse" x1="-214.3619" y1="-1072.1483" x2="-214.3619" y2="-1073.2542" gradientTransform="matrix(1.5471 0 0 -1.5471 359.2577 -1641.3629)">
		<stop  offset="0" style="stop-color:#8BA4D5"/>
		<stop  offset="1" style="stop-color:#25459D"/>
	</linearGradient>
	<circle style="fill:url(#SVGID_00000052084678370344444460000015235553714683770249_);" cx="27.6" cy="18.3" r="0.9"/>
</g>
<path class="st7" d="M0,0v37.6h273.9V0H0z M272.3,36H9V1.6h263.3V36z"/>
<g>
	<path d="M54,10.3h-1.4v3.9h-1v-3.9h-1.4V9.6H54L54,10.3L54,10.3z"/>
	<path d="M55.4,11.1c0.3-0.3,0.6-0.4,0.9-0.4c0.8,0,1.1,0.4,1.2,1.3v2.2h-0.9V12c0-0.2,0-0.3-0.1-0.4c-0.1-0.1-0.2-0.2-0.4-0.2
		c-0.3,0-0.5,0.1-0.6,0.3v2.5h-0.9V9.3h0.9L55.4,11.1L55.4,11.1z"/>
	<path d="M58.2,9.8c0-0.1,0-0.3,0.1-0.3c0.1-0.1,0.2-0.1,0.4-0.1s0.3,0,0.4,0.1s0.2,0.2,0.2,0.3c0,0.2-0.1,0.3-0.2,0.3
		s-0.2,0.1-0.4,0.1s-0.3,0-0.4-0.1C58.2,10.1,58.2,10,58.2,9.8z M59.2,14.2h-0.9v-3.5h0.9V14.2z"/>
	<path d="M61.9,13.3c0-0.1-0.1-0.2-0.2-0.3c-0.1-0.1-0.3-0.1-0.5-0.2c-0.8-0.2-1.3-0.5-1.3-1.1c0-0.3,0.1-0.6,0.4-0.8
		c0.3-0.2,0.6-0.3,1-0.3c0.4,0,0.8,0.1,1.1,0.3c0.3,0.2,0.4,0.5,0.4,0.8h-0.9c0-0.1,0-0.3-0.1-0.3c-0.1-0.1-0.2-0.1-0.4-0.1
		c-0.2,0-0.3,0-0.4,0.1s-0.1,0.2-0.1,0.3c0,0.1,0.1,0.2,0.2,0.3c0.1,0.1,0.3,0.1,0.5,0.2c0.3,0,0.4,0.1,0.6,0.2
		c0.5,0.2,0.7,0.5,0.7,0.9c0,0.3-0.1,0.6-0.4,0.8c-0.3,0.2-0.6,0.3-1.1,0.3c-0.3,0-0.6-0.1-0.8-0.2s-0.4-0.3-0.5-0.4
		c-0.1-0.2-0.2-0.4-0.2-0.6h0.9c0,0.2,0.1,0.3,0.2,0.4s0.3,0.1,0.5,0.1c0.2,0,0.3,0,0.4-0.1C61.8,13.5,61.9,13.4,61.9,13.3z"/>
	<path d="M67,14.2c0-0.1-0.1-0.2-0.1-0.3c-0.2,0.3-0.5,0.4-0.9,0.4c-0.3,0-0.6-0.1-0.8-0.3s-0.3-0.4-0.3-0.8c0-0.4,0.1-0.7,0.4-0.8
		c0.3-0.2,0.7-0.3,1.2-0.3h0.4v-0.2c0-0.2,0-0.3-0.1-0.4s-0.2-0.2-0.4-0.2c-0.2,0-0.3,0-0.4,0.1s-0.1,0.2-0.1,0.3h-0.9
		c0-0.2,0.1-0.4,0.2-0.6c0.1-0.2,0.3-0.3,0.5-0.4c0.2-0.1,0.5-0.2,0.8-0.2c0.4,0,0.8,0.1,1,0.3c0.3,0.2,0.4,0.5,0.4,0.9v1.5
		c0,0.3,0.1,0.6,0.1,0.8v0.1C67.9,14.2,67,14.2,67,14.2z M66.2,13.6c0.1,0,0.3,0,0.4-0.1c0.1-0.1,0.2-0.2,0.3-0.3v-0.6h-0.3
		c-0.5,0-0.7,0.2-0.8,0.5v0.1c0,0.1,0,0.2,0.1,0.3S66.1,13.6,66.2,13.6z"/>
	<path d="M70.5,11.6c-0.1,0-0.3,0-0.3,0c-0.3,0-0.6,0.1-0.7,0.3v2.3h-0.9v-3.5h0.9l0,0.4c0.2-0.3,0.4-0.5,0.8-0.5c0.1,0,0.2,0,0.3,0
		V11.6z"/>
	<path d="M72.2,9.9v0.8h0.6v0.7h-0.6v1.7c0,0.1,0,0.2,0.1,0.3s0.2,0.1,0.3,0.1c0.1,0,0.2,0,0.3,0v0.7c-0.2,0.1-0.4,0.1-0.6,0.1
		c-0.7,0-1-0.3-1-1v-1.9h-0.5v-0.7h0.5V9.9C71.3,9.9,72.2,9.9,72.2,9.9z"/>
	<path d="M73.3,9.8c0-0.1,0-0.3,0.1-0.3c0.1-0.1,0.2-0.1,0.4-0.1s0.3,0,0.4,0.1s0.2,0.2,0.2,0.3c0,0.2-0.1,0.3-0.2,0.3
		s-0.2,0.2-0.4,0.2c-0.2,0-0.3,0-0.4-0.1C73.3,10.1,73.3,10,73.3,9.8z M74.3,14.2h-0.9v-3.5h0.9V14.2z"/>
	<path d="M76.5,13.5c0.2,0,0.3-0.1,0.4-0.2S77,13.2,77,13h0.9c0,0.3-0.1,0.4-0.2,0.7c-0.1,0.2-0.3,0.3-0.5,0.5
		c-0.2,0.1-0.5,0.2-0.7,0.2c-0.5,0-0.9-0.2-1.2-0.5c-0.3-0.3-0.4-0.8-0.4-1.3v-0.1c0-0.5,0.2-1,0.4-1.3c0.3-0.3,0.7-0.5,1.2-0.5
		c0.4,0,0.8,0.1,1,0.4c0.3,0.3,0.4,0.6,0.4,1h-0.8c0-0.2-0.1-0.3-0.2-0.4s-0.3-0.2-0.4-0.2c-0.2,0-0.4,0.1-0.5,0.3
		c-0.1,0.2-0.2,0.4-0.2,0.8v0.1c0,0.3,0.1,0.6,0.2,0.8C76.1,13.5,76.3,13.5,76.5,13.5z"/>
	<path d="M79.5,14.2h-0.9V9.3h0.9V14.2z"/>
	<path d="M81.8,14.3c-0.5,0-0.9-0.2-1.3-0.5s-0.5-0.7-0.5-1.3v-0.1c0-0.3,0.1-0.7,0.2-0.9c0.1-0.3,0.3-0.5,0.6-0.6
		c0.3-0.2,0.5-0.2,0.8-0.2c0.5,0,0.8,0.2,1.1,0.4c0.3,0.3,0.4,0.7,0.4,1.3v0.4H81c0,0.2,0.1,0.4,0.3,0.5c0.2,0.1,0.3,0.2,0.6,0.2
		c0.3,0,0.6-0.1,0.8-0.4l0.5,0.5c-0.1,0.2-0.3,0.3-0.6,0.5C82.4,14.2,82.1,14.3,81.8,14.3z M81.7,11.4c-0.2,0-0.3,0.1-0.4,0.2
		c-0.1,0.1-0.2,0.3-0.2,0.5h1.3v-0.1c0-0.2-0.1-0.4-0.2-0.5C82.1,11.5,81.9,11.4,81.7,11.4z"/>
	<path d="M85.4,9.8c0-0.1,0-0.3,0.1-0.3s0.2-0.1,0.4-0.1c0.2,0,0.3,0,0.4,0.1c0.1,0.1,0.2,0.2,0.2,0.3c0,0.2-0.1,0.3-0.2,0.3
		c-0.1,0.1-0.2,0.1-0.4,0.1c-0.2,0-0.3,0-0.4-0.1C85.4,10.1,85.4,10,85.4,9.8z M86.4,14.2h-0.9v-3.5h0.9V14.2z"/>
	<path d="M89,13.3c0-0.1-0.1-0.2-0.2-0.3c-0.1-0.1-0.3-0.1-0.5-0.2c-0.8-0.2-1.3-0.5-1.3-1.1c0-0.3,0.1-0.6,0.4-0.8
		c0.3-0.2,0.6-0.3,1-0.3c0.4,0,0.8,0.1,1.1,0.3c0.3,0.2,0.4,0.5,0.4,0.8H89c0-0.1,0-0.3-0.1-0.3c-0.1-0.1-0.2-0.1-0.4-0.1
		c-0.2,0-0.3,0-0.4,0.1C88,11.4,88,11.5,88,11.7c0,0.1,0.1,0.2,0.2,0.3c0.1,0.1,0.3,0.1,0.5,0.2c0.3,0,0.4,0.1,0.6,0.2
		c0.5,0.2,0.7,0.5,0.7,0.9c0,0.3-0.1,0.6-0.4,0.8c-0.3,0.2-0.6,0.3-1.1,0.3c-0.3,0-0.6-0.1-0.8-0.2s-0.4-0.3-0.5-0.4
		C87,13.4,87,13.3,87,13h0.9c0,0.2,0.1,0.3,0.2,0.4c0.1,0.1,0.3,0.1,0.5,0.1c0.2,0,0.3,0,0.4-0.1C89,13.5,89,13.4,89,13.3z"/>
	<path d="M92,12.5c0-0.3,0.1-0.7,0.2-0.9c0.1-0.3,0.3-0.5,0.6-0.6c0.3-0.2,0.5-0.2,0.9-0.2c0.5,0,0.8,0.2,1.2,0.4
		c0.3,0.3,0.5,0.7,0.5,1.2v0.3c0,0.5-0.2,1-0.4,1.3s-0.7,0.5-1.2,0.5s-0.9-0.2-1.2-0.5C92.2,13.5,92.1,13.1,92,12.5L92,12.5L92,12.5
		z M93,12.5c0,0.3,0.1,0.6,0.2,0.8c0.1,0.2,0.3,0.3,0.5,0.3s0.4-0.1,0.5-0.3c0.1-0.2,0.2-0.4,0.2-0.8c0-0.3-0.1-0.6-0.2-0.8
		c-0.1-0.2-0.3-0.3-0.5-0.3s-0.4,0.1-0.5,0.3S93,12.2,93,12.5z"/>
	<path d="M98,13.9c-0.2,0.3-0.5,0.4-0.9,0.4c-0.4,0-0.7-0.1-0.8-0.3c-0.2-0.2-0.3-0.5-0.3-0.9v-2.3h0.9V13c0,0.4,0.2,0.5,0.5,0.5
		c0.3,0,0.5-0.1,0.7-0.3v-2.5h0.9v3.5H98L98,13.9z"/>
	<path d="M100.7,9.9v0.8h0.6v0.7h-0.6v1.7c0,0.1,0,0.2,0.1,0.3s0.2,0.1,0.3,0.1c0.1,0,0.2,0,0.3,0v0.7c-0.2,0.1-0.4,0.1-0.6,0.1
		c-0.7,0-1-0.3-1-1v-1.9h-0.5v-0.7h0.5V9.9C99.7,9.9,100.7,9.9,100.7,9.9z"/>
	<path d="M101.6,12.5c0-0.5,0.1-1,0.4-1.3c0.3-0.3,0.6-0.5,1-0.5c0.3,0,0.6,0.1,0.8,0.4V9.3h0.9v5H104l0-0.4
		c-0.2,0.3-0.5,0.4-0.9,0.4c-0.4,0-0.8-0.2-1-0.5C101.8,13.5,101.6,13,101.6,12.5z M102.6,12.5c0,0.3,0.1,0.6,0.2,0.8
		c0.1,0.2,0.3,0.3,0.5,0.3c0.3,0,0.5-0.1,0.6-0.4v-1.4c-0.1-0.3-0.3-0.4-0.6-0.4C102.8,11.4,102.6,11.8,102.6,12.5z"/>
	<path d="M107.5,14.2c0-0.1-0.1-0.2-0.1-0.3c-0.2,0.3-0.5,0.4-0.9,0.4c-0.3,0-0.6-0.1-0.8-0.3s-0.3-0.4-0.3-0.8
		c0-0.4,0.1-0.7,0.4-0.8c0.3-0.2,0.7-0.3,1.2-0.3h0.4v-0.2c0-0.2,0-0.3-0.1-0.4c-0.1-0.1-0.2-0.2-0.4-0.2s-0.3,0-0.4,0.1
		c-0.1,0.1-0.1,0.2-0.1,0.3h-0.9c0-0.2,0.1-0.4,0.2-0.6c0.1-0.2,0.3-0.3,0.5-0.4s0.5-0.2,0.8-0.2c0.4,0,0.8,0.1,1,0.3
		s0.4,0.5,0.4,0.9v1.5c0,0.3,0.1,0.6,0.1,0.8v0.1C108.5,14.2,107.5,14.2,107.5,14.2z M106.8,13.6c0.1,0,0.3,0,0.4-0.1
		c0.1-0.1,0.2-0.2,0.3-0.3v-0.6H107c-0.5,0-0.7,0.2-0.8,0.5v0.1c0,0.1,0,0.2,0.1,0.3S106.6,13.6,106.8,13.6z"/>
	<path d="M110.1,9.9v0.8h0.6v0.7h-0.6v1.7c0,0.1,0,0.2,0.1,0.3s0.2,0.1,0.3,0.1c0.1,0,0.2,0,0.3,0v0.7c-0.2,0.1-0.4,0.1-0.6,0.1
		c-0.7,0-1-0.3-1-1v-1.9h-0.5v-0.7h0.5V9.9C109.2,9.9,110.1,9.9,110.1,9.9z"/>
	<path d="M112.9,14.3c-0.5,0-0.9-0.2-1.3-0.5c-0.3-0.3-0.5-0.7-0.5-1.3v-0.1c0-0.3,0.1-0.7,0.2-0.9c0.1-0.3,0.3-0.5,0.6-0.6
		c0.3-0.2,0.5-0.2,0.8-0.2c0.5,0,0.8,0.2,1.1,0.4c0.3,0.3,0.4,0.7,0.4,1.3v0.4H112c0,0.2,0.1,0.4,0.3,0.5c0.2,0.1,0.3,0.2,0.6,0.2
		c0.3,0,0.6-0.1,0.8-0.4l0.5,0.5c-0.1,0.2-0.3,0.3-0.6,0.5C113.4,14.2,113.1,14.3,112.9,14.3z M112.7,11.4c-0.2,0-0.3,0.1-0.4,0.2
		c-0.1,0.1-0.2,0.3-0.2,0.5h1.3v-0.1c0-0.2-0.1-0.4-0.2-0.5C113.1,11.5,113,11.4,112.7,11.4z"/>
	<path d="M114.7,12.5c0-0.5,0.1-1,0.4-1.3c0.3-0.3,0.6-0.5,1-0.5c0.3,0,0.6,0.1,0.8,0.4V9.3h0.9v5H117l0-0.4
		c-0.2,0.3-0.5,0.4-0.9,0.4c-0.4,0-0.8-0.2-1-0.5C114.8,13.5,114.7,13,114.7,12.5z M115.6,12.5c0,0.3,0.1,0.6,0.2,0.8
		c0.1,0.2,0.3,0.3,0.5,0.3c0.3,0,0.5-0.1,0.6-0.4v-1.4c-0.1-0.3-0.3-0.4-0.6-0.4C115.8,11.4,115.6,11.8,115.6,12.5z"/>
	<path d="M122.2,14.2c0-0.1-0.1-0.2-0.1-0.3c-0.2,0.3-0.5,0.4-0.9,0.4c-0.3,0-0.6-0.1-0.8-0.3c-0.2-0.2-0.3-0.4-0.3-0.8
		c0-0.4,0.1-0.7,0.4-0.8c0.3-0.2,0.7-0.3,1.2-0.3h0.4v-0.2c0-0.2,0-0.3-0.1-0.4s-0.2-0.2-0.4-0.2c-0.2,0-0.3,0-0.4,0.1
		c-0.1,0.1-0.1,0.2-0.1,0.3h-0.9c0-0.2,0.1-0.4,0.2-0.6c0.1-0.2,0.3-0.3,0.5-0.4s0.5-0.2,0.8-0.2c0.4,0,0.8,0.1,1,0.3
		s0.4,0.5,0.4,0.9v1.5c0,0.3,0.1,0.6,0.1,0.8v0.1C123.1,14.2,122.2,14.2,122.2,14.2z M121.4,13.6c0.1,0,0.3,0,0.4-0.1
		c0.1-0.1,0.2-0.2,0.3-0.3v-0.6h-0.3c-0.5,0-0.7,0.2-0.8,0.5v0.1c0,0.1,0,0.2,0.1,0.3C121.2,13.5,121.3,13.6,121.4,13.6z"/>
	<path d="M124.5,10.7l0,0.4c0.3-0.3,0.6-0.5,1-0.5c0.4,0,0.7,0.1,0.8,0.3c0.2,0.2,0.3,0.5,0.3,1v2.3h-0.9V12c0-0.2,0-0.3-0.1-0.4
		c-0.1-0.1-0.2-0.1-0.4-0.1c-0.3,0-0.5,0.1-0.6,0.3v2.4h-0.9v-3.5H124.5z"/>
	<path d="M127.2,12.5c0-0.5,0.1-1,0.4-1.3c0.3-0.3,0.6-0.5,1-0.5c0.3,0,0.6,0.1,0.8,0.4V9.3h0.9v5h-0.8l0-0.4
		c-0.2,0.3-0.5,0.4-0.9,0.4c-0.4,0-0.8-0.2-1-0.5C127.3,13.5,127.2,13,127.2,12.5z M128.2,12.5c0,0.3,0.1,0.6,0.2,0.8
		c0.1,0.2,0.3,0.3,0.5,0.3c0.3,0,0.5-0.1,0.6-0.4v-1.4c-0.1-0.3-0.3-0.4-0.6-0.4C128.4,11.4,128.2,11.8,128.2,12.5z"/>
	<path d="M132.7,9.8c0-0.1,0-0.3,0.1-0.3s0.2-0.1,0.4-0.1c0.2,0,0.3,0,0.4,0.1c0.1,0.1,0.2,0.2,0.2,0.3c0,0.2-0.1,0.3-0.2,0.3
		c-0.1,0.1-0.2,0.1-0.4,0.1c-0.2,0-0.3,0-0.4-0.1C132.8,10.1,132.7,10,132.7,9.8z M133.7,14.2h-0.9v-3.5h0.9V14.2z"/>
	<path d="M135.6,9.9v0.8h0.6v0.7h-0.6v1.7c0,0.1,0,0.2,0.1,0.3c0,0.1,0.2,0.1,0.3,0.1c0.1,0,0.2,0,0.3,0v0.7
		c-0.2,0.1-0.4,0.1-0.6,0.1c-0.7,0-1-0.3-1-1v-1.9h-0.5v-0.7h0.5V9.9C134.6,9.9,135.6,9.9,135.6,9.9z"/>
	<path d="M138.6,13.3c0-0.1-0.1-0.2-0.2-0.3c-0.1-0.1-0.3-0.1-0.5-0.2c-0.8-0.2-1.3-0.5-1.3-1.1c0-0.3,0.1-0.6,0.4-0.8
		c0.3-0.2,0.6-0.3,1-0.3c0.4,0,0.8,0.1,1.1,0.3c0.3,0.2,0.4,0.5,0.4,0.8h-0.9c0-0.1,0-0.3-0.1-0.3s-0.2-0.1-0.4-0.1
		c-0.2,0-0.3,0-0.4,0.1s-0.1,0.2-0.1,0.3c0,0.1,0.1,0.2,0.2,0.3s0.3,0.1,0.5,0.2c0.3,0,0.4,0.1,0.6,0.2c0.5,0.2,0.7,0.5,0.7,0.9
		c0,0.3-0.1,0.6-0.4,0.8c-0.3,0.2-0.6,0.3-1.1,0.3c-0.3,0-0.6-0.1-0.8-0.2c-0.2-0.1-0.4-0.3-0.5-0.4c-0.1-0.2-0.2-0.4-0.2-0.6h0.9
		c0,0.2,0.1,0.3,0.2,0.4s0.3,0.1,0.5,0.1c0.2,0,0.3,0,0.4-0.1C138.5,13.5,138.6,13.4,138.6,13.3z"/>
	<path d="M141.7,9.8c0-0.1,0-0.3,0.1-0.3s0.2-0.1,0.4-0.1c0.2,0,0.3,0,0.4,0.1c0.1,0.1,0.2,0.2,0.2,0.3c0,0.2-0.1,0.3-0.2,0.3
		c-0.1,0.1-0.2,0.1-0.4,0.1c-0.2,0-0.3,0-0.4-0.1C141.8,10.1,141.7,10,141.7,9.8z M142.7,14.2h-0.9v-3.5h0.9V14.2z"/>
	<path d="M144.3,10.7l0,0.4c0.3-0.3,0.6-0.5,1-0.5c0.4,0,0.7,0.1,0.8,0.3c0.2,0.2,0.3,0.5,0.3,1v2.3h-0.9V12c0-0.2,0-0.3-0.1-0.4
		c-0.1-0.1-0.2-0.1-0.4-0.1c-0.3,0-0.5,0.1-0.6,0.3v2.4h-0.9v-3.5H144.3z"/>
	<path d="M147.4,14.2v-2.8h-0.5v-0.7h0.5v-0.3c0-0.4,0.1-0.7,0.3-0.9c0.2-0.2,0.5-0.3,0.9-0.3c0.1,0,0.3,0,0.5,0.1V10
		c-0.1,0-0.2,0-0.3,0c-0.3,0-0.5,0.2-0.5,0.5v0.3h0.7v0.7h-0.7v2.8L147.4,14.2L147.4,14.2z"/>
	<path d="M149.4,12.5c0-0.3,0.1-0.7,0.2-0.9s0.3-0.5,0.6-0.6c0.3-0.2,0.5-0.2,0.9-0.2c0.5,0,0.8,0.2,1.2,0.4
		c0.3,0.3,0.5,0.7,0.5,1.2v0.3c0,0.5-0.2,1-0.4,1.3s-0.7,0.5-1.2,0.5s-0.9-0.2-1.2-0.5C149.5,13.5,149.4,13.1,149.4,12.5L149.4,12.5
		L149.4,12.5z M150.3,12.5c0,0.3,0.1,0.6,0.2,0.8s0.3,0.3,0.5,0.3c0.2,0,0.4-0.1,0.5-0.3c0.1-0.2,0.2-0.4,0.2-0.8
		c0-0.3-0.1-0.6-0.2-0.8c-0.1-0.2-0.3-0.3-0.5-0.3c-0.2,0-0.4,0.1-0.5,0.3C150.3,11.8,150.3,12.2,150.3,12.5z"/>
	<path d="M155.2,11.6c-0.1,0-0.3,0-0.3,0c-0.3,0-0.6,0.1-0.7,0.3v2.3h-0.9v-3.5h0.9l0,0.4c0.2-0.3,0.4-0.5,0.8-0.5
		c0.1,0,0.2,0,0.3,0V11.6z"/>
	<path d="M156.5,10.7l0,0.4c0.3-0.3,0.6-0.4,1-0.4c0.4,0,0.8,0.2,0.9,0.5c0.3-0.3,0.6-0.5,1-0.5c0.4,0,0.7,0.1,0.8,0.3
		c0.2,0.2,0.3,0.6,0.3,1v2.2h-0.9V12c0-0.2,0-0.3-0.1-0.4s-0.2-0.1-0.4-0.1c-0.3,0-0.5,0.1-0.6,0.4v2.4h-0.9V12c0-0.2,0-0.3-0.1-0.4
		s-0.2-0.1-0.4-0.1c-0.3,0-0.4,0.1-0.6,0.3v2.4h-0.9v-3.5H156.5z"/>
	<path d="M163.3,14.2c0-0.1-0.1-0.2-0.1-0.3c-0.2,0.3-0.5,0.4-0.9,0.4c-0.3,0-0.6-0.1-0.8-0.3c-0.2-0.2-0.3-0.4-0.3-0.8
		c0-0.4,0.1-0.7,0.4-0.8c0.3-0.2,0.7-0.3,1.2-0.3h0.4v-0.2c0-0.2,0-0.3-0.1-0.4c-0.1-0.1-0.2-0.2-0.4-0.2s-0.3,0-0.4,0.1
		c-0.1,0.1-0.1,0.2-0.1,0.3h-0.9c0-0.2,0.1-0.4,0.2-0.6c0.1-0.2,0.3-0.3,0.5-0.4c0.2-0.1,0.5-0.2,0.8-0.2c0.4,0,0.8,0.1,1,0.3
		c0.3,0.2,0.4,0.5,0.4,0.9v1.5c0,0.3,0.1,0.6,0.1,0.8v0.1C164.3,14.2,163.3,14.2,163.3,14.2z M162.6,13.6c0.1,0,0.3,0,0.4-0.1
		c0.1-0.1,0.2-0.2,0.3-0.3v-0.6h-0.3c-0.5,0-0.7,0.2-0.8,0.5v0.1c0,0.1,0,0.2,0.1,0.3C162.3,13.5,162.4,13.6,162.6,13.6z"/>
	<path d="M165.9,9.9v0.8h0.6v0.7h-0.6v1.7c0,0.1,0,0.2,0.1,0.3s0.2,0.1,0.3,0.1c0.1,0,0.2,0,0.3,0v0.7c-0.2,0.1-0.4,0.1-0.6,0.1
		c-0.7,0-1-0.3-1-1v-1.9h-0.5v-0.7h0.5V9.9C165,9.9,165.9,9.9,165.9,9.9z"/>
	<path d="M167.1,9.8c0-0.1,0-0.3,0.1-0.3c0.1-0.1,0.2-0.1,0.4-0.1c0.2,0,0.3,0,0.4,0.1s0.2,0.2,0.2,0.3c0,0.2-0.1,0.3-0.2,0.3
		s-0.2,0.1-0.4,0.1c-0.2,0-0.3,0-0.4-0.1C167.1,10.1,167.1,10,167.1,9.8z M168,14.2h-0.9v-3.5h0.9V14.2z"/>
	<path d="M168.7,12.5c0-0.3,0.1-0.7,0.2-0.9s0.3-0.5,0.6-0.6c0.3-0.2,0.5-0.2,0.9-0.2c0.5,0,0.8,0.2,1.2,0.4
		c0.3,0.3,0.5,0.7,0.5,1.2v0.3c0,0.5-0.2,1-0.4,1.3c-0.3,0.3-0.7,0.5-1.2,0.5s-0.9-0.2-1.2-0.5C168.8,13.5,168.7,13.1,168.7,12.5
		L168.7,12.5L168.7,12.5z M169.6,12.5c0,0.3,0.1,0.6,0.2,0.8c0.1,0.2,0.3,0.3,0.5,0.3c0.2,0,0.4-0.1,0.5-0.3
		c0.1-0.2,0.2-0.4,0.2-0.8c0-0.3-0.1-0.6-0.2-0.8c-0.1-0.2-0.3-0.3-0.5-0.3c-0.2,0-0.4,0.1-0.5,0.3
		C169.7,11.8,169.6,12.2,169.6,12.5z"/>
	<path d="M173.4,10.7l0,0.4c0.3-0.3,0.6-0.5,1-0.5c0.4,0,0.7,0.1,0.8,0.3c0.2,0.2,0.3,0.5,0.3,1v2.3h-0.9V12c0-0.2,0-0.3-0.1-0.4
		c-0.1-0.1-0.2-0.1-0.4-0.1c-0.3,0-0.5,0.1-0.6,0.3v2.4h-0.9v-3.5H173.4z"/>
	<path d="M179.9,14.2c0-0.1-0.1-0.2-0.1-0.3c-0.2,0.3-0.5,0.4-0.9,0.4c-0.3,0-0.6-0.1-0.8-0.3c-0.2-0.2-0.3-0.4-0.3-0.8
		c0-0.4,0.1-0.7,0.4-0.8c0.3-0.2,0.7-0.3,1.2-0.3h0.4v-0.2c0-0.2,0-0.3-0.1-0.4c-0.1-0.1-0.2-0.2-0.4-0.2s-0.3,0-0.4,0.1
		c-0.1,0.1-0.1,0.2-0.1,0.3h-0.9c0-0.2,0.1-0.4,0.2-0.6c0.1-0.2,0.3-0.3,0.5-0.4c0.2-0.1,0.5-0.2,0.8-0.2c0.4,0,0.8,0.1,1,0.3
		c0.3,0.2,0.4,0.5,0.4,0.9v1.5c0,0.3,0.1,0.6,0.1,0.8v0.1C180.8,14.2,179.9,14.2,179.9,14.2z M179.1,13.6c0.1,0,0.3,0,0.4-0.1
		c0.1-0.1,0.2-0.2,0.3-0.3v-0.6h-0.3c-0.5,0-0.7,0.2-0.8,0.5v0.1c0,0.1,0,0.2,0.1,0.3C178.9,13.5,179,13.6,179.1,13.6z"/>
	<path d="M182.2,10.7l0,0.4c0.3-0.3,0.6-0.5,1-0.5c0.4,0,0.7,0.1,0.8,0.3c0.2,0.2,0.3,0.5,0.3,1v2.3h-0.9V12c0-0.2,0-0.3-0.1-0.4
		c-0.1-0.1-0.2-0.1-0.4-0.1c-0.3,0-0.5,0.1-0.6,0.3v2.4h-0.9v-3.5H182.2z"/>
	<path d="M184.9,12.5c0-0.5,0.1-1,0.4-1.3c0.3-0.3,0.6-0.5,1-0.5c0.3,0,0.6,0.1,0.8,0.4V9.3h0.9v5h-0.8l0-0.4
		c-0.2,0.3-0.5,0.4-0.9,0.4c-0.4,0-0.8-0.2-1-0.5C185.1,13.5,184.9,13,184.9,12.5z M185.8,12.5c0,0.3,0.1,0.6,0.2,0.8
		c0.1,0.2,0.3,0.3,0.5,0.3c0.3,0,0.5-0.1,0.6-0.4v-1.4c-0.1-0.3-0.3-0.4-0.6-0.4C186.1,11.4,185.8,11.8,185.8,12.5z"/>
	<path d="M191.3,10.7l0,0.4c0.3-0.3,0.6-0.4,1-0.4s0.8,0.2,0.9,0.5c0.3-0.3,0.6-0.5,1-0.5c0.4,0,0.7,0.1,0.8,0.3
		c0.2,0.2,0.3,0.6,0.3,1v2.2h-0.9V12c0-0.2,0-0.3-0.1-0.4c-0.1-0.1-0.2-0.1-0.4-0.1c-0.3,0-0.5,0.1-0.6,0.4v2.4h-0.9V12
		c0-0.2,0-0.3-0.1-0.4c-0.1-0.1-0.2-0.1-0.4-0.1c-0.3,0-0.4,0.1-0.6,0.3v2.4h-0.9v-3.5H191.3z"/>
	<path d="M198.1,14.2c0-0.1-0.1-0.2-0.1-0.3c-0.2,0.3-0.5,0.4-0.9,0.4c-0.3,0-0.6-0.1-0.8-0.3c-0.2-0.2-0.3-0.4-0.3-0.8
		c0-0.4,0.1-0.7,0.4-0.8c0.3-0.2,0.7-0.3,1.2-0.3h0.4v-0.2c0-0.2,0-0.3-0.1-0.4c-0.1-0.1-0.2-0.2-0.4-0.2c-0.2,0-0.3,0-0.4,0.1
		c-0.1,0.1-0.1,0.2-0.1,0.3h-0.9c0-0.2,0.1-0.4,0.2-0.6c0.1-0.2,0.3-0.3,0.5-0.4c0.2-0.1,0.5-0.2,0.8-0.2c0.4,0,0.8,0.1,1,0.3
		c0.3,0.2,0.4,0.5,0.4,0.9v1.5c0,0.3,0.1,0.6,0.1,0.8v0.1C199.1,14.2,198.1,14.2,198.1,14.2z M197.4,13.6c0.1,0,0.3,0,0.4-0.1
		s0.2-0.2,0.3-0.3v-0.6h-0.3c-0.5,0-0.7,0.2-0.8,0.5v0.1c0,0.1,0,0.2,0.1,0.3C197.1,13.5,197.2,13.6,197.4,13.6z"/>
	<path d="M200.9,12.9l0.7-2.2h1l-1.4,4l-0.1,0.2c-0.2,0.4-0.6,0.7-1,0.7c-0.1,0-0.3,0-0.4-0.1v-0.7h0.2c0.2,0,0.3,0,0.4-0.1
		c0.1-0.1,0.2-0.2,0.2-0.3l0.1-0.3l-1.2-3.5h1L200.9,12.9z"/>
	<path d="M205.4,10.7l0,0.4c0.3-0.3,0.6-0.5,1-0.5c0.4,0,0.7,0.1,0.8,0.3c0.2,0.2,0.3,0.5,0.3,1v2.3h-0.9V12c0-0.2,0-0.3-0.1-0.4
		c-0.1-0.1-0.2-0.1-0.4-0.1c-0.3,0-0.5,0.1-0.6,0.3v2.4h-0.9v-3.5H205.4z"/>
	<path d="M208.1,12.5c0-0.3,0.1-0.7,0.2-0.9s0.3-0.5,0.6-0.6c0.3-0.2,0.5-0.2,0.9-0.2c0.5,0,0.8,0.2,1.2,0.4
		c0.3,0.3,0.5,0.7,0.5,1.2v0.3c0,0.5-0.2,1-0.4,1.3s-0.7,0.5-1.2,0.5s-0.9-0.2-1.2-0.5C208.2,13.5,208.1,13.1,208.1,12.5L208.1,12.5
		L208.1,12.5z M209,12.5c0,0.3,0.1,0.6,0.2,0.8s0.3,0.3,0.5,0.3c0.2,0,0.4-0.1,0.5-0.3c0.1-0.2,0.2-0.4,0.2-0.8
		c0-0.3-0.1-0.6-0.2-0.8c-0.1-0.2-0.3-0.3-0.5-0.3c-0.2,0-0.4,0.1-0.5,0.3S209,12.2,209,12.5z"/>
	<path d="M214.6,14.2h-0.9V9.3h0.9V14.2z"/>
	<path d="M215.2,12.5c0-0.3,0.1-0.7,0.2-0.9s0.3-0.5,0.6-0.6c0.3-0.2,0.5-0.2,0.9-0.2c0.5,0,0.8,0.2,1.2,0.4
		c0.3,0.3,0.5,0.7,0.5,1.2v0.3c0,0.5-0.2,1-0.4,1.3s-0.7,0.5-1.2,0.5s-0.9-0.2-1.2-0.5C215.3,13.5,215.2,13.1,215.2,12.5L215.2,12.5
		L215.2,12.5z M216.1,12.5c0,0.3,0.1,0.6,0.2,0.8s0.3,0.3,0.5,0.3c0.2,0,0.4-0.1,0.5-0.3c0.1-0.2,0.2-0.4,0.2-0.8
		c0-0.3-0.1-0.6-0.2-0.8c-0.1-0.2-0.3-0.3-0.5-0.3c-0.2,0-0.4,0.1-0.5,0.3S216.1,12.2,216.1,12.5z"/>
	<path d="M219.9,10.7l0,0.4c0.3-0.3,0.6-0.5,1-0.5c0.4,0,0.7,0.1,0.8,0.3c0.2,0.2,0.3,0.5,0.3,1v2.3h-0.9V12c0-0.2,0-0.3-0.1-0.4
		c-0.1-0.1-0.2-0.1-0.4-0.1c-0.3,0-0.5,0.1-0.6,0.3v2.4H219v-3.5H219.9z"/>
	<path d="M222.6,12.5c0-0.5,0.1-1,0.4-1.3c0.3-0.3,0.6-0.5,1-0.5c0.4,0,0.7,0.1,0.9,0.4l0-0.3h0.8v3.3c0,0.3-0.1,0.6-0.2,0.8
		c-0.1,0.2-0.3,0.4-0.6,0.5c-0.3,0.1-0.5,0.2-0.9,0.2c-0.3,0-0.5-0.1-0.8-0.2c-0.3-0.1-0.4-0.2-0.6-0.4l0.4-0.6
		c0.2,0.3,0.5,0.4,0.8,0.4c0.3,0,0.4-0.1,0.6-0.2c0.1-0.1,0.2-0.3,0.2-0.6v-0.2c-0.2,0.3-0.5,0.4-0.8,0.4c-0.4,0-0.8-0.2-1-0.5
		C222.7,13.4,222.6,13,222.6,12.5L222.6,12.5L222.6,12.5z M223.5,12.5c0,0.3,0.1,0.6,0.2,0.8s0.3,0.3,0.5,0.3c0.3,0,0.5-0.1,0.6-0.3
		v-1.5c-0.1-0.2-0.3-0.3-0.6-0.3c-0.2,0-0.4,0.1-0.5,0.3C223.6,11.9,223.5,12.2,223.5,12.5z"/>
	<path d="M228.1,14.3c-0.5,0-0.9-0.2-1.3-0.5c-0.3-0.3-0.5-0.7-0.5-1.3v-0.1c0-0.3,0.1-0.7,0.2-0.9c0.1-0.3,0.3-0.5,0.6-0.6
		c0.3-0.2,0.5-0.2,0.8-0.2c0.5,0,0.8,0.2,1.1,0.4c0.3,0.3,0.4,0.7,0.4,1.3v0.4h-2.2c0,0.2,0.1,0.4,0.3,0.5s0.3,0.2,0.6,0.2
		c0.3,0,0.6-0.1,0.8-0.4l0.5,0.5c-0.1,0.2-0.3,0.3-0.6,0.5C228.6,14.2,228.4,14.3,228.1,14.3z M228,11.4c-0.2,0-0.3,0.1-0.4,0.2
		c-0.1,0.1-0.2,0.3-0.2,0.5h1.3v-0.1c0-0.2-0.1-0.4-0.2-0.5C228.3,11.5,228.2,11.4,228,11.4z"/>
	<path d="M232,11.6c-0.1,0-0.3,0-0.3,0c-0.3,0-0.6,0.1-0.7,0.3v2.3H230v-3.5h0.9l0,0.4c0.2-0.3,0.4-0.5,0.8-0.5c0.1,0,0.2,0,0.3,0
		V11.6z"/>
	<path d="M236,11.6c-0.1,0-0.3,0-0.3,0c-0.3,0-0.6,0.1-0.7,0.3v2.3h-0.9v-3.5h0.9l0,0.4c0.2-0.3,0.4-0.5,0.8-0.5c0.1,0,0.2,0,0.3,0
		V11.6z"/>
	<path d="M238,14.3c-0.5,0-0.9-0.2-1.3-0.5c-0.3-0.3-0.5-0.7-0.5-1.3v-0.1c0-0.3,0.1-0.7,0.2-0.9c0.1-0.3,0.3-0.5,0.6-0.6
		c0.3-0.2,0.5-0.2,0.8-0.2c0.5,0,0.8,0.2,1.1,0.4c0.3,0.3,0.4,0.7,0.4,1.3v0.4h-2.2c0,0.2,0.1,0.4,0.3,0.5s0.3,0.2,0.6,0.2
		c0.3,0,0.6-0.1,0.8-0.4l0.5,0.5c-0.1,0.2-0.3,0.3-0.6,0.5C238.6,14.2,238.3,14.3,238,14.3z M237.9,11.4c-0.2,0-0.3,0.1-0.4,0.2
		c-0.1,0.1-0.2,0.3-0.2,0.5h1.3v-0.1c0-0.2-0.1-0.4-0.2-0.5C238.3,11.5,238.1,11.4,237.9,11.4z"/>
	<path d="M241,14.2H240V9.3h0.9V14.2z"/>
	<path d="M243.3,14.3c-0.5,0-0.9-0.2-1.3-0.5s-0.5-0.7-0.5-1.3v-0.1c0-0.3,0.1-0.7,0.2-0.9c0.1-0.3,0.3-0.5,0.6-0.6
		c0.3-0.2,0.5-0.2,0.8-0.2c0.5,0,0.8,0.2,1.1,0.4c0.3,0.3,0.4,0.7,0.4,1.3v0.4h-2.2c0,0.2,0.1,0.4,0.3,0.5c0.2,0.1,0.3,0.2,0.6,0.2
		c0.3,0,0.6-0.1,0.8-0.4l0.5,0.5c-0.1,0.2-0.3,0.3-0.6,0.5C243.9,14.2,243.6,14.3,243.3,14.3z M243.2,11.4c-0.2,0-0.3,0.1-0.4,0.2
		c-0.1,0.1-0.2,0.3-0.2,0.5h1.3v-0.1c0-0.2-0.1-0.4-0.2-0.5C243.6,11.5,243.4,11.4,243.2,11.4z"/>
	<path d="M246.5,13.1l0.7-2.3h1l-1.2,3.5h-0.9l-1.2-3.5h1L246.5,13.1z"/>
	<path d="M250.5,14.2c0-0.1-0.1-0.2-0.1-0.3c-0.2,0.3-0.5,0.4-0.9,0.4c-0.3,0-0.6-0.1-0.8-0.3c-0.2-0.2-0.3-0.4-0.3-0.8
		c0-0.4,0.1-0.7,0.4-0.8c0.3-0.2,0.7-0.3,1.2-0.3h0.4v-0.2c0-0.2,0-0.3-0.1-0.4c-0.1-0.1-0.2-0.2-0.4-0.2s-0.3,0-0.4,0.1
		c-0.1,0.1-0.1,0.2-0.1,0.3h-0.9c0-0.2,0.1-0.4,0.2-0.6c0.1-0.2,0.3-0.3,0.5-0.4c0.2-0.1,0.5-0.2,0.8-0.2c0.4,0,0.8,0.1,1,0.3
		s0.4,0.5,0.4,0.9v1.5c0,0.3,0.1,0.6,0.1,0.8v0.1C251.4,14.2,250.5,14.2,250.5,14.2z M249.8,13.6c0.1,0,0.3,0,0.4-0.1
		c0.1-0.1,0.2-0.2,0.3-0.3v-0.6H250c-0.5,0-0.7,0.2-0.8,0.5v0.1c0,0.1,0,0.2,0.1,0.3C249.5,13.5,249.6,13.6,249.8,13.6z"/>
	<path d="M252.9,10.7l0,0.4c0.3-0.3,0.6-0.5,1-0.5c0.4,0,0.7,0.1,0.8,0.3c0.2,0.2,0.3,0.5,0.3,1v2.3h-0.9V12c0-0.2,0-0.3-0.1-0.4
		c-0.1-0.1-0.2-0.1-0.4-0.1c-0.3,0-0.5,0.1-0.6,0.3v2.4H252v-3.5H252.9z"/>
	<path d="M256.8,9.9v0.8h0.6v0.7h-0.6v1.7c0,0.1,0,0.2,0.1,0.3s0.2,0.1,0.3,0.1c0.1,0,0.2,0,0.3,0v0.7c-0.2,0.1-0.4,0.1-0.6,0.1
		c-0.7,0-1-0.3-1-1v-1.9h-0.5v-0.7h0.5V9.9C255.9,9.9,256.8,9.9,256.8,9.9z"/>
	<path d="M258,13.8c0-0.2,0.1-0.3,0.2-0.3c0.1-0.1,0.2-0.1,0.4-0.1s0.3,0,0.4,0.1c0.1,0.1,0.2,0.2,0.2,0.3c0,0.2-0.1,0.3-0.2,0.3
		s-0.2,0.1-0.4,0.1s-0.3,0-0.4-0.1C258,14,258,13.9,258,13.8z"/>
</g>
<g>
	<path d="M51.9,20.4V22h-0.5v-4h1.5c0.4,0,0.8,0.1,1,0.3c0.3,0.2,0.4,0.5,0.4,0.9c0,0.4-0.1,0.7-0.4,0.9c-0.3,0.2-0.6,0.3-1,0.3
		H51.9z M51.9,20h0.9c0.3,0,0.5-0.1,0.7-0.2c0.2-0.1,0.2-0.3,0.2-0.6c0-0.3-0.1-0.4-0.2-0.6c-0.2-0.2-0.3-0.2-0.6-0.2h-1V20z"/>
	<path d="M55.4,22h-0.5v-4.2h0.5V22z"/>
	<path d="M57.4,22c-0.4,0-0.7-0.1-1-0.4c-0.3-0.3-0.4-0.6-0.4-1.1v-0.1c0-0.3,0.1-0.6,0.2-0.8c0.1-0.2,0.3-0.4,0.5-0.5
		c0.2-0.1,0.4-0.2,0.7-0.2c0.4,0,0.7,0.1,0.9,0.4c0.2,0.3,0.3,0.6,0.3,1.1v0.2h-2c0,0.3,0.1,0.5,0.3,0.7c0.2,0.2,0.4,0.3,0.6,0.3
		c0.2,0,0.3,0,0.5-0.1c0.1-0.1,0.2-0.2,0.3-0.3l0.3,0.3C58.3,21.8,57.9,22,57.4,22z M57.4,19.4c-0.2,0-0.4,0.1-0.5,0.2
		c-0.2,0.2-0.2,0.3-0.3,0.6h1.5v0c0-0.3-0.1-0.5-0.2-0.6S57.6,19.4,57.4,19.4z"/>
	<path d="M61,22c0-0.1-0.1-0.2-0.1-0.3c-0.3,0.3-0.5,0.4-0.8,0.4c-0.3,0-0.5-0.1-0.7-0.3c-0.2-0.2-0.3-0.4-0.3-0.6
		c0-0.3,0.1-0.6,0.3-0.7c0.2-0.2,0.6-0.3,1-0.3H61V20c0-0.2-0.1-0.3-0.2-0.4c-0.1-0.1-0.3-0.2-0.5-0.2c-0.2,0-0.3,0-0.5,0.1
		c-0.1,0.1-0.2,0.2-0.2,0.3h-0.5c0-0.2,0.1-0.3,0.2-0.4c0.1-0.2,0.3-0.3,0.4-0.3C60,19,60.2,19,60.4,19c0.3,0,0.6,0.1,0.8,0.3
		c0.2,0.2,0.3,0.4,0.3,0.7v1.4c0,0.3,0,0.5,0.1,0.7v0L61,22L61,22z M60.2,21.6c0.2,0,0.3,0,0.5-0.1c0.2-0.1,0.3-0.2,0.3-0.3v-0.6
		h-0.4c-0.6,0-0.9,0.2-0.9,0.5c0,0.2,0.1,0.3,0.2,0.4C59.9,21.5,60,21.6,60.2,21.6z"/>
	<path d="M64,21.2c0-0.1-0.1-0.3-0.2-0.3s-0.3-0.2-0.5-0.2c-0.3,0-0.5-0.1-0.6-0.2s-0.3-0.2-0.3-0.3s-0.1-0.2-0.1-0.4
		c0-0.3,0.1-0.4,0.3-0.6S63,19,63.4,19c0.3,0,0.6,0.1,0.8,0.3c0.2,0.2,0.3,0.4,0.3,0.7H64c0-0.1-0.1-0.3-0.2-0.4s-0.3-0.2-0.4-0.2
		c-0.2,0-0.3,0-0.4,0.1c-0.1,0.1-0.2,0.2-0.2,0.3s0.1,0.2,0.2,0.3c0.1,0.1,0.3,0.1,0.5,0.2s0.5,0.1,0.6,0.2c0.2,0.1,0.3,0.2,0.3,0.3
		c0.1,0.1,0.1,0.3,0.1,0.4c0,0.3-0.1,0.5-0.3,0.6C64,21.9,63.7,22,63.4,22c-0.3,0-0.4,0-0.6-0.1c-0.2-0.1-0.3-0.2-0.4-0.3
		c-0.1-0.2-0.2-0.3-0.2-0.5h0.5c0,0.2,0.1,0.3,0.2,0.4c0.2,0.1,0.3,0.2,0.5,0.2c0.2,0,0.3,0,0.5-0.1S64,21.3,64,21.2z"/>
	<path d="M66.4,22c-0.4,0-0.7-0.1-1-0.4C65.2,21.3,65,21,65,20.6v-0.1c0-0.3,0.1-0.6,0.2-0.8c0.1-0.2,0.3-0.4,0.5-0.5
		c0.2-0.1,0.4-0.2,0.7-0.2c0.4,0,0.7,0.1,0.9,0.4c0.2,0.3,0.3,0.6,0.3,1.1v0.2h-2c0,0.3,0.1,0.5,0.3,0.7c0.2,0.2,0.4,0.3,0.6,0.3
		c0.2,0,0.3,0,0.5-0.1c0.1-0.1,0.2-0.2,0.3-0.3l0.3,0.3C67.3,21.8,66.9,22,66.4,22z M66.3,19.4c-0.2,0-0.4,0.1-0.5,0.2
		c-0.2,0.2-0.2,0.3-0.3,0.6h1.5v0c0-0.3-0.1-0.5-0.2-0.6S66.6,19.4,66.3,19.4z"/>
	<path d="M70.1,19.4c0.2-0.3,0.5-0.4,0.9-0.4c0.6,0,0.9,0.3,0.9,1.1v2h-0.5v-2c0-0.2-0.1-0.4-0.2-0.5s-0.3-0.2-0.4-0.2
		c-0.2,0-0.3,0-0.4,0.1c-0.1,0.1-0.2,0.2-0.3,0.3V22h-0.5v-4.2h0.5V19.4z"/>
	<path d="M73.9,22c-0.4,0-0.7-0.1-1-0.4c-0.3-0.3-0.4-0.6-0.4-1.1v-0.1c0-0.3,0.1-0.6,0.2-0.8c0.1-0.2,0.3-0.4,0.5-0.5
		c0.2-0.1,0.4-0.2,0.7-0.2c0.4,0,0.7,0.1,0.9,0.4c0.2,0.3,0.3,0.6,0.3,1.1v0.2h-2c0,0.3,0.1,0.5,0.3,0.7c0.2,0.2,0.4,0.3,0.6,0.3
		c0.2,0,0.3,0,0.5-0.1c0.1-0.1,0.2-0.2,0.3-0.3l0.3,0.3C74.8,21.8,74.4,22,73.9,22z M73.8,19.4c-0.2,0-0.4,0.1-0.5,0.2
		c-0.2,0.2-0.2,0.3-0.3,0.6h1.5v0c0-0.3-0.1-0.5-0.2-0.6C74.2,19.5,74,19.4,73.8,19.4z"/>
	<path d="M76.2,22h-0.5v-4.2h0.5V22z"/>
	<path d="M79.5,20.5c0,0.4-0.1,0.8-0.3,1.1C79,21.9,78.7,22,78.4,22c-0.4,0-0.7-0.1-0.8-0.3v1.4H77V19h0.5l0,0.3
		c0.2-0.3,0.5-0.4,0.9-0.4c0.3,0,0.6,0.1,0.8,0.4C79.5,19.7,79.6,20.1,79.5,20.5L79.5,20.5L79.5,20.5z M79,20.5
		c0-0.3-0.1-0.6-0.2-0.8s-0.3-0.3-0.6-0.3c-0.3,0-0.5,0.1-0.7,0.4v1.4c0.2,0.3,0.4,0.4,0.7,0.4c0.3,0,0.4-0.1,0.6-0.3
		S79,20.8,79,20.5z"/>
	<path d="M83.4,21.7c-0.2,0.2-0.5,0.3-0.9,0.3c-0.3,0-0.6-0.1-0.7-0.3c-0.2-0.2-0.3-0.5-0.3-0.8V19h0.5v1.9c0,0.4,0.2,0.7,0.6,0.7
		c0.4,0,0.7-0.2,0.8-0.4V19h0.5v3h-0.5L83.4,21.7z"/>
	<path d="M87.2,20.5c0,0.4-0.1,0.8-0.3,1.1C86.7,21.9,86.4,22,86,22c-0.4,0-0.7-0.1-0.8-0.3v1.4h-0.5V19h0.5l0,0.3
		c0.2-0.3,0.5-0.4,0.9-0.4c0.3,0,0.6,0.1,0.8,0.4C87.1,19.7,87.2,20.1,87.2,20.5L87.2,20.5L87.2,20.5z M86.7,20.5
		c0-0.3-0.1-0.6-0.2-0.8c-0.2-0.2-0.3-0.3-0.6-0.3c-0.3,0-0.5,0.1-0.7,0.4v1.4c0.2,0.3,0.4,0.4,0.7,0.4c0.3,0,0.4-0.1,0.6-0.3
		C86.6,21.1,86.7,20.8,86.7,20.5z"/>
	<path d="M87.7,20.5c0-0.5,0.1-0.8,0.3-1.1c0.2-0.3,0.5-0.4,0.8-0.4c0.3,0,0.6,0.1,0.8,0.3v-1.6h0.5V22h-0.5l0-0.3
		c-0.2,0.3-0.5,0.4-0.8,0.4s-0.6-0.2-0.8-0.4C87.8,21.3,87.7,20.9,87.7,20.5L87.7,20.5L87.7,20.5z M88.2,20.5c0,0.3,0.1,0.6,0.2,0.8
		c0.2,0.2,0.3,0.3,0.6,0.3c0.3,0,0.6-0.2,0.7-0.4v-1.4c-0.2-0.3-0.4-0.4-0.7-0.4c-0.3,0-0.4,0.1-0.6,0.3
		C88.3,19.8,88.2,20.1,88.2,20.5z"/>
	<path d="M92.9,22c0-0.1-0.1-0.2-0.1-0.3c-0.3,0.3-0.5,0.4-0.8,0.4c-0.3,0-0.5-0.1-0.7-0.3c-0.2-0.2-0.3-0.4-0.3-0.6
		c0-0.3,0.1-0.6,0.3-0.7c0.2-0.2,0.6-0.3,1-0.3h0.5V20c0-0.2-0.1-0.3-0.2-0.4s-0.3-0.2-0.5-0.2c-0.2,0-0.3,0-0.5,0.1
		c-0.1,0.1-0.2,0.2-0.2,0.3H91c0-0.2,0.1-0.3,0.2-0.4c0.1-0.2,0.3-0.3,0.4-0.3C91.8,19,92,19,92.2,19c0.3,0,0.6,0.1,0.8,0.3
		c0.2,0.2,0.3,0.4,0.3,0.7v1.4c0,0.3,0,0.5,0.1,0.7v0L92.9,22L92.9,22z M92,21.6c0.2,0,0.3,0,0.5-0.1c0.2-0.1,0.3-0.2,0.3-0.3v-0.6
		h-0.4c-0.6,0-0.9,0.2-0.9,0.5c0,0.2,0.1,0.3,0.2,0.4C91.7,21.5,91.9,21.6,92,21.6z"/>
	<path d="M94.8,18.3V19h0.6v0.4h-0.6v1.8c0,0.1,0,0.2,0.1,0.3c0.1,0.1,0.1,0.1,0.3,0.1c0.1,0,0.1,0,0.3,0V22c-0.1,0-0.3,0.1-0.4,0.1
		c-0.2,0-0.4-0.1-0.5-0.2c-0.1-0.2-0.2-0.3-0.2-0.6v-1.8h-0.5V19h0.5v-0.7C94.3,18.3,94.8,18.3,94.8,18.3z"/>
	<path d="M97.2,22c-0.4,0-0.7-0.1-1-0.4c-0.3-0.3-0.4-0.6-0.4-1.1v-0.1c0-0.3,0.1-0.6,0.2-0.8c0.1-0.2,0.3-0.4,0.5-0.5
		c0.2-0.1,0.4-0.2,0.7-0.2c0.4,0,0.7,0.1,0.9,0.4c0.2,0.3,0.3,0.6,0.3,1.1v0.2h-2c0,0.3,0.1,0.5,0.3,0.7s0.4,0.3,0.6,0.3
		c0.2,0,0.3,0,0.5-0.1c0.1-0.1,0.2-0.2,0.3-0.3l0.3,0.3C98,21.8,97.7,22,97.2,22z M97.1,19.4c-0.2,0-0.4,0.1-0.5,0.2
		c-0.2,0.2-0.2,0.3-0.3,0.6h1.5v0c0-0.3-0.1-0.5-0.2-0.6S97.3,19.4,97.1,19.4z"/>
	<path d="M101,18.3V19h0.6v0.4H101v1.8c0,0.1,0,0.2,0.1,0.3c0.1,0.1,0.1,0.1,0.3,0.1c0.1,0,0.1,0,0.3,0V22c-0.1,0-0.3,0.1-0.4,0.1
		c-0.2,0-0.4-0.1-0.5-0.2c-0.1-0.2-0.2-0.3-0.2-0.6v-1.8H100V19h0.5v-0.7C100.5,18.3,101,18.3,101,18.3z"/>
	<path d="M102.7,19.4c0.2-0.3,0.5-0.4,0.9-0.4c0.6,0,0.9,0.3,0.9,1.1v2H104v-2c0-0.2-0.1-0.4-0.2-0.5s-0.3-0.2-0.4-0.2
		c-0.2,0-0.3,0-0.4,0.1c-0.1,0.1-0.2,0.2-0.3,0.3V22h-0.5v-4.2h0.5V19.4z"/>
	<path d="M105.3,18.2c0-0.1,0-0.2,0.1-0.2c0-0.1,0.1-0.1,0.2-0.1c0.1,0,0.2,0,0.2,0.1c0,0.1,0.1,0.1,0.1,0.2s0,0.2-0.1,0.2
		c0,0.1-0.1,0.1-0.2,0.1c-0.1,0-0.2,0-0.2-0.1C105.3,18.4,105.3,18.3,105.3,18.2z M105.8,22h-0.5v-3h0.5V22z"/>
	<path d="M108.4,21.2c0-0.1-0.1-0.3-0.2-0.3s-0.3-0.2-0.5-0.2c-0.3,0-0.5-0.1-0.6-0.2c-0.2-0.1-0.3-0.2-0.3-0.3
		c-0.1-0.1-0.1-0.2-0.1-0.4c0-0.3,0.1-0.4,0.3-0.6s0.5-0.3,0.8-0.3c0.3,0,0.6,0.1,0.8,0.3c0.2,0.2,0.3,0.4,0.3,0.7h-0.5
		c0-0.1-0.1-0.3-0.2-0.4c-0.1-0.1-0.3-0.2-0.4-0.2c-0.2,0-0.3,0-0.4,0.1c-0.1,0.1-0.2,0.2-0.2,0.3s0.1,0.2,0.2,0.3
		c0.1,0.1,0.3,0.1,0.5,0.2s0.5,0.1,0.6,0.2c0.2,0.1,0.3,0.2,0.3,0.3c0.1,0.1,0.1,0.3,0.1,0.4c0,0.3-0.1,0.5-0.3,0.6
		c-0.2,0.2-0.5,0.3-0.8,0.3c-0.3,0-0.4,0-0.6-0.1c-0.2-0.1-0.3-0.2-0.4-0.3c-0.1-0.2-0.2-0.3-0.2-0.5h0.5c0,0.2,0.1,0.3,0.2,0.4
		c0.2,0.1,0.3,0.2,0.5,0.2c0.2,0,0.3,0,0.5-0.1C108.4,21.4,108.4,21.3,108.4,21.2z"/>
	<path d="M113.2,20.9h-1.7l-0.4,1h-0.5l1.5-4h0.5l1.5,4h-0.5L113.2,20.9z M111.7,20.5h1.4l-0.7-1.9L111.7,20.5z"/>
	<path d="M116.1,19.5c-0.1,0-0.2,0-0.3,0c-0.3,0-0.6,0.2-0.7,0.4V22h-0.5v-3h0.5v0.3c0.2-0.3,0.4-0.4,0.7-0.4c0.1,0,0.2,0,0.2,0
		V19.5z"/>
	<path d="M117.4,18.3V19h0.6v0.4h-0.6v1.8c0,0.1,0,0.2,0.1,0.3c0.1,0.1,0.1,0.1,0.3,0.1c0.1,0,0.1,0,0.3,0V22
		c-0.1,0-0.3,0.1-0.4,0.1c-0.2,0-0.4-0.1-0.5-0.2c-0.1-0.2-0.2-0.3-0.2-0.6v-1.8h-0.5V19h0.5v-0.7C116.9,18.3,117.4,18.3,117.4,18.3
		z"/>
	<path d="M118.5,18.2c0-0.1,0-0.2,0.1-0.2c0-0.1,0.1-0.1,0.2-0.1c0.1,0,0.2,0,0.2,0.1c0,0.1,0.1,0.1,0.1,0.2s0,0.2-0.1,0.2
		c0,0.1-0.1,0.1-0.2,0.1c-0.1,0-0.2,0-0.2-0.1C118.6,18.4,118.5,18.3,118.5,18.2z M119.1,22h-0.5v-3h0.5V22z"/>
	<path d="M121.1,21.6c0.2,0,0.3-0.1,0.5-0.2c0.1-0.1,0.2-0.3,0.2-0.4h0.5c0,0.2-0.1,0.3-0.2,0.5c-0.1,0.2-0.3,0.3-0.4,0.4
		c-0.2,0.1-0.4,0.1-0.6,0.1c-0.4,0-0.7-0.1-1-0.4s-0.3-0.6-0.3-1.1v-0.1c0-0.3,0.1-0.5,0.2-0.8c0.1-0.3,0.3-0.4,0.5-0.5
		s0.4-0.2,0.7-0.2c0.3,0,0.6,0.1,0.8,0.3c0.2,0.2,0.3,0.5,0.3,0.8h-0.5c0-0.2-0.1-0.3-0.2-0.5s-0.3-0.2-0.5-0.2
		c-0.3,0-0.5,0.1-0.6,0.3c-0.1,0.2-0.2,0.5-0.2,0.8v0.1c0,0.3,0.1,0.6,0.2,0.8C120.6,21.6,120.8,21.6,121.1,21.6z"/>
	<path d="M123.4,22h-0.5v-4.2h0.5V22z"/>
	<path d="M125.5,22c-0.4,0-0.7-0.1-1-0.4c-0.3-0.3-0.4-0.6-0.4-1.1v-0.1c0-0.3,0.1-0.6,0.2-0.8c0.1-0.2,0.3-0.4,0.5-0.5
		s0.4-0.2,0.7-0.2c0.4,0,0.7,0.1,0.9,0.4c0.2,0.3,0.3,0.6,0.3,1.1v0.2h-2c0,0.3,0.1,0.5,0.3,0.7c0.2,0.2,0.4,0.3,0.6,0.3
		c0.2,0,0.3,0,0.5-0.1c0.1-0.1,0.2-0.2,0.3-0.3l0.3,0.3C126.3,21.8,125.9,22,125.5,22z M125.4,19.4c-0.2,0-0.4,0.1-0.5,0.2
		c-0.2,0.2-0.2,0.3-0.3,0.6h1.5v0c0-0.3-0.1-0.5-0.2-0.6C125.8,19.5,125.6,19.4,125.4,19.4z"/>
	<path d="M129.3,18.3V19h0.6v0.4h-0.6v1.8c0,0.1,0,0.2,0.1,0.3c0.1,0.1,0.1,0.1,0.3,0.1c0.1,0,0.1,0,0.3,0V22
		c-0.1,0-0.3,0.1-0.4,0.1c-0.2,0-0.4-0.1-0.5-0.2c-0.1-0.2-0.2-0.3-0.2-0.6v-1.8h-0.5V19h0.5v-0.7C128.8,18.3,129.3,18.3,129.3,18.3
		z"/>
	<path d="M130.3,20.5c0-0.3,0.1-0.6,0.2-0.8c0.1-0.2,0.3-0.4,0.5-0.5c0.2-0.1,0.4-0.2,0.7-0.2c0.4,0,0.7,0.1,1,0.4
		c0.3,0.3,0.4,0.7,0.4,1.1v0c0,0.3-0.1,0.6-0.2,0.8c-0.1,0.2-0.3,0.4-0.5,0.5c-0.2,0.1-0.4,0.2-0.7,0.2c-0.4,0-0.7-0.1-1-0.4
		C130.3,21.3,130.2,21,130.3,20.5L130.3,20.5L130.3,20.5z M130.8,20.5c0,0.3,0.1,0.6,0.2,0.8c0.2,0.2,0.3,0.3,0.6,0.3
		c0.3,0,0.5-0.1,0.6-0.3c0.2-0.2,0.2-0.5,0.2-0.8c0-0.3-0.1-0.6-0.2-0.8c-0.2-0.2-0.4-0.3-0.6-0.3c-0.3,0-0.5,0.1-0.6,0.3
		S130.8,20.1,130.8,20.5z"/>
	<path d="M136.4,19.5c-0.1,0-0.2,0-0.3,0c-0.3,0-0.6,0.2-0.7,0.4V22H135v-3h0.5v0.3c0.2-0.3,0.4-0.4,0.7-0.4c0.1,0,0.2,0,0.2,0V19.5
		z"/>
	<path d="M138.1,22c-0.4,0-0.7-0.1-1-0.4c-0.3-0.3-0.4-0.6-0.4-1.1v-0.1c0-0.3,0.1-0.6,0.2-0.8c0.1-0.2,0.3-0.4,0.5-0.5
		s0.4-0.2,0.7-0.2c0.4,0,0.7,0.1,0.9,0.4c0.2,0.3,0.3,0.6,0.3,1.1v0.2h-2c0,0.3,0.1,0.5,0.3,0.7c0.2,0.2,0.4,0.3,0.6,0.3
		c0.2,0,0.3,0,0.5-0.1c0.1-0.1,0.2-0.2,0.3-0.3l0.3,0.3C139,21.8,138.6,22,138.1,22z M138,19.4c-0.2,0-0.4,0.1-0.5,0.2
		c-0.2,0.2-0.2,0.3-0.3,0.6h1.5v0c0-0.3-0.1-0.5-0.2-0.6C138.4,19.5,138.2,19.4,138,19.4z"/>
	<path d="M140.1,22v-2.6h-0.5V19h0.5v-0.3c0-0.3,0.1-0.6,0.3-0.8c0.2-0.2,0.4-0.3,0.7-0.3c0.1,0,0.2,0,0.3,0l0,0.4
		c-0.1,0-0.2,0-0.3,0c-0.2,0-0.3,0.1-0.4,0.2s-0.1,0.3-0.1,0.4V19h0.6v0.4h-0.6V22L140.1,22L140.1,22z"/>
	<path d="M142.3,22h-0.5v-4.2h0.5V22z"/>
	<path d="M144.4,22c-0.4,0-0.7-0.1-1-0.4c-0.3-0.3-0.4-0.6-0.4-1.1v-0.1c0-0.3,0.1-0.6,0.2-0.8c0.1-0.2,0.3-0.4,0.5-0.5
		s0.4-0.2,0.7-0.2c0.4,0,0.7,0.1,0.9,0.4c0.2,0.3,0.3,0.6,0.3,1.1v0.2h-2c0,0.3,0.1,0.5,0.3,0.7c0.2,0.2,0.4,0.3,0.6,0.3
		c0.2,0,0.3,0,0.5-0.1c0.1-0.1,0.2-0.2,0.3-0.3l0.3,0.3C145.3,21.8,144.9,22,144.4,22z M144.3,19.4c-0.2,0-0.4,0.1-0.5,0.2
		c-0.2,0.2-0.2,0.3-0.3,0.6h1.5v0c0-0.3-0.1-0.5-0.2-0.6C144.7,19.5,144.5,19.4,144.3,19.4z"/>
	<path d="M147.4,21.6c0.2,0,0.3-0.1,0.5-0.2c0.1-0.1,0.2-0.3,0.2-0.4h0.5c0,0.2-0.1,0.3-0.2,0.5c-0.1,0.2-0.3,0.3-0.4,0.4
		c-0.2,0.1-0.4,0.1-0.6,0.1c-0.4,0-0.7-0.1-1-0.4S146,21,146,20.6v-0.1c0-0.3,0.1-0.5,0.2-0.8c0.1-0.3,0.3-0.4,0.5-0.5
		c0.2-0.1,0.4-0.2,0.7-0.2c0.3,0,0.6,0.1,0.8,0.3c0.2,0.2,0.3,0.5,0.3,0.8h-0.5c0-0.2-0.1-0.3-0.2-0.5s-0.3-0.2-0.5-0.2
		c-0.3,0-0.5,0.1-0.6,0.3c-0.1,0.2-0.2,0.5-0.2,0.8v0.1c0,0.3,0.1,0.6,0.2,0.8C146.9,21.6,147.1,21.6,147.4,21.6z"/>
	<path d="M149.8,18.3V19h0.6v0.4h-0.6v1.8c0,0.1,0,0.2,0.1,0.3c0.1,0.1,0.1,0.1,0.3,0.1c0.1,0,0.1,0,0.3,0V22
		c-0.1,0-0.3,0.1-0.4,0.1c-0.2,0-0.4-0.1-0.5-0.2s-0.2-0.3-0.2-0.6v-1.8h-0.5V19h0.5v-0.7C149.3,18.3,149.8,18.3,149.8,18.3z"/>
	<path d="M153.8,19.5c-0.1,0-0.2,0-0.3,0c-0.3,0-0.6,0.2-0.7,0.4V22h-0.5v-3h0.5v0.3c0.2-0.3,0.4-0.4,0.7-0.4c0.1,0,0.2,0,0.2,0
		V19.5z"/>
	<path d="M155.4,22c-0.4,0-0.7-0.1-1-0.4c-0.3-0.3-0.4-0.6-0.4-1.1v-0.1c0-0.3,0.1-0.6,0.2-0.8c0.1-0.2,0.3-0.4,0.5-0.5
		s0.4-0.2,0.7-0.2c0.4,0,0.7,0.1,0.9,0.4c0.2,0.3,0.3,0.6,0.3,1.1v0.2h-2c0,0.3,0.1,0.5,0.3,0.7c0.2,0.2,0.4,0.3,0.6,0.3
		c0.2,0,0.3,0,0.5-0.1c0.1-0.1,0.2-0.2,0.3-0.3l0.3,0.3C156.3,21.8,155.9,22,155.4,22z M155.4,19.4c-0.2,0-0.4,0.1-0.5,0.2
		c-0.2,0.2-0.2,0.3-0.3,0.6h1.5v0c0-0.3-0.1-0.5-0.2-0.6S155.6,19.4,155.4,19.4z"/>
	<path d="M158.4,21.6c0.2,0,0.3-0.1,0.5-0.2c0.1-0.1,0.2-0.3,0.2-0.4h0.5c0,0.2-0.1,0.3-0.2,0.5c-0.1,0.2-0.3,0.3-0.4,0.4
		c-0.2,0.1-0.4,0.1-0.6,0.1c-0.4,0-0.7-0.1-1-0.4c-0.3-0.3-0.3-0.6-0.3-1.1v-0.1c0-0.3,0.1-0.5,0.2-0.8c0.1-0.3,0.3-0.4,0.5-0.5
		c0.2-0.1,0.4-0.2,0.7-0.2c0.3,0,0.6,0.1,0.8,0.3c0.2,0.2,0.3,0.5,0.3,0.8h-0.5c0-0.2-0.1-0.3-0.2-0.5s-0.3-0.2-0.5-0.2
		c-0.3,0-0.5,0.1-0.6,0.3c-0.1,0.2-0.2,0.5-0.2,0.8v0.1c0,0.3,0.1,0.6,0.2,0.8S158.1,21.6,158.4,21.6z"/>
	<path d="M161.4,22c-0.4,0-0.7-0.1-1-0.4c-0.3-0.3-0.4-0.6-0.4-1.1v-0.1c0-0.3,0.1-0.6,0.2-0.8c0.1-0.2,0.3-0.4,0.5-0.5
		c0.2-0.1,0.4-0.2,0.7-0.2c0.4,0,0.7,0.1,0.9,0.4c0.2,0.3,0.3,0.6,0.3,1.1v0.2h-2c0,0.3,0.1,0.5,0.3,0.7c0.2,0.2,0.4,0.3,0.6,0.3
		c0.2,0,0.3,0,0.5-0.1c0.1-0.1,0.2-0.2,0.3-0.3l0.3,0.3C162.2,21.8,161.9,22,161.4,22z M161.3,19.4c-0.2,0-0.4,0.1-0.5,0.2
		c-0.2,0.2-0.2,0.3-0.3,0.6h1.5v0c0-0.3-0.1-0.5-0.2-0.6S161.5,19.4,161.3,19.4z"/>
	<path d="M163.6,19l0,0.4c0.2-0.3,0.5-0.4,0.9-0.4c0.6,0,0.9,0.3,0.9,1.1v2H165v-2c0-0.2-0.1-0.4-0.2-0.5s-0.3-0.2-0.4-0.2
		c-0.2,0-0.3,0-0.4,0.1c-0.1,0.1-0.2,0.2-0.3,0.3V22h-0.5v-3C163.2,19,163.6,19,163.6,19z"/>
	<path d="M166.9,18.3V19h0.6v0.4h-0.6v1.8c0,0.1,0,0.2,0.1,0.3c0.1,0.1,0.1,0.1,0.3,0.1c0.1,0,0.1,0,0.3,0V22
		c-0.1,0-0.3,0.1-0.4,0.1c-0.2,0-0.4-0.1-0.5-0.2c-0.1-0.2-0.2-0.3-0.2-0.6v-1.8h-0.5V19h0.5v-0.7C166.4,18.3,166.9,18.3,166.9,18.3
		z"/>
	<path d="M170.7,22c-0.4,0-0.7-0.1-1-0.4c-0.3-0.3-0.4-0.6-0.4-1.1v-0.1c0-0.3,0.1-0.6,0.2-0.8c0.1-0.2,0.3-0.4,0.5-0.5
		s0.4-0.2,0.7-0.2c0.4,0,0.7,0.1,0.9,0.4c0.2,0.3,0.3,0.6,0.3,1.1v0.2h-2c0,0.3,0.1,0.5,0.3,0.7c0.2,0.2,0.4,0.3,0.6,0.3
		c0.2,0,0.3,0,0.5-0.1c0.1-0.1,0.2-0.2,0.3-0.3l0.3,0.3C171.6,21.8,171.2,22,170.7,22z M170.6,19.4c-0.2,0-0.4,0.1-0.5,0.2
		c-0.2,0.2-0.2,0.3-0.3,0.6h1.5v0c0-0.3-0.1-0.5-0.2-0.6S170.9,19.4,170.6,19.4z"/>
	<path d="M173.4,21.3l0.8-2.3h0.5l-1.1,3h-0.4l-1.1-3h0.5L173.4,21.3z"/>
	<path d="M176.4,22c-0.4,0-0.7-0.1-1-0.4c-0.3-0.3-0.4-0.6-0.4-1.1v-0.1c0-0.3,0.1-0.6,0.2-0.8c0.1-0.2,0.3-0.4,0.5-0.5
		s0.4-0.2,0.7-0.2c0.4,0,0.7,0.1,0.9,0.4c0.2,0.3,0.3,0.6,0.3,1.1v0.2h-2c0,0.3,0.1,0.5,0.3,0.7c0.2,0.2,0.4,0.3,0.6,0.3
		c0.2,0,0.3,0,0.5-0.1c0.1-0.1,0.2-0.2,0.3-0.3l0.3,0.3C177.2,21.8,176.9,22,176.4,22z M176.3,19.4c-0.2,0-0.4,0.1-0.5,0.2
		c-0.2,0.2-0.2,0.3-0.3,0.6h1.5v0c0-0.3-0.1-0.5-0.2-0.6C176.7,19.5,176.5,19.4,176.3,19.4z"/>
	<path d="M178.6,19l0,0.4c0.2-0.3,0.5-0.4,0.9-0.4c0.6,0,0.9,0.3,0.9,1.1v2h-0.5v-2c0-0.2-0.1-0.4-0.2-0.5s-0.3-0.2-0.4-0.2
		c-0.2,0-0.3,0-0.4,0.1c-0.1,0.1-0.2,0.2-0.3,0.3V22h-0.5v-3C178.1,19,178.6,19,178.6,19z"/>
	<path d="M181.9,18.3V19h0.6v0.4h-0.6v1.8c0,0.1,0,0.2,0.1,0.3c0.1,0.1,0.1,0.1,0.3,0.1c0.1,0,0.1,0,0.3,0V22
		c-0.1,0-0.3,0.1-0.4,0.1c-0.2,0-0.4-0.1-0.5-0.2c-0.1-0.2-0.2-0.3-0.2-0.6v-1.8h-0.5V19h0.5v-0.7C181.4,18.3,181.9,18.3,181.9,18.3
		z"/>
	<path d="M184.8,21.2c0-0.1-0.1-0.3-0.2-0.3c-0.1-0.1-0.3-0.2-0.5-0.2c-0.3,0-0.5-0.1-0.6-0.2s-0.3-0.2-0.3-0.3
		c-0.1-0.1-0.1-0.2-0.1-0.4c0-0.3,0.1-0.4,0.3-0.6c0.2-0.2,0.5-0.3,0.8-0.3c0.3,0,0.6,0.1,0.8,0.3c0.2,0.2,0.3,0.4,0.3,0.7h-0.5
		c0-0.1-0.1-0.3-0.2-0.4c-0.1-0.1-0.3-0.2-0.4-0.2c-0.2,0-0.3,0-0.4,0.1c-0.1,0.1-0.2,0.2-0.2,0.3s0.1,0.2,0.2,0.3
		c0.1,0.1,0.3,0.1,0.5,0.2c0.3,0.1,0.5,0.1,0.6,0.2c0.2,0.1,0.3,0.2,0.3,0.3c0.1,0.1,0.1,0.3,0.1,0.4c0,0.3-0.1,0.5-0.3,0.6
		c-0.2,0.2-0.5,0.3-0.8,0.3c-0.3,0-0.4,0-0.6-0.1c-0.2-0.1-0.3-0.2-0.4-0.3c-0.1-0.2-0.2-0.3-0.2-0.5h0.5c0,0.2,0.1,0.3,0.2,0.4
		c0.2,0.1,0.3,0.2,0.5,0.2c0.2,0,0.3,0,0.5-0.1C184.8,21.4,184.8,21.3,184.8,21.2z"/>
	<path d="M187.2,20.5c0-0.3,0.1-0.6,0.2-0.8c0.1-0.2,0.3-0.4,0.5-0.5c0.2-0.1,0.4-0.2,0.7-0.2c0.4,0,0.7,0.1,1,0.4
		c0.3,0.3,0.4,0.7,0.4,1.1v0c0,0.3-0.1,0.6-0.2,0.8c-0.1,0.2-0.3,0.4-0.5,0.5c-0.2,0.1-0.4,0.2-0.7,0.2c-0.4,0-0.7-0.1-1-0.4
		C187.3,21.3,187.2,21,187.2,20.5L187.2,20.5L187.2,20.5z M187.7,20.5c0,0.3,0.1,0.6,0.2,0.8s0.3,0.3,0.6,0.3c0.3,0,0.5-0.1,0.6-0.3
		c0.2-0.2,0.2-0.5,0.2-0.8c0-0.3-0.1-0.6-0.2-0.8c-0.2-0.2-0.4-0.3-0.6-0.3c-0.3,0-0.5,0.1-0.6,0.3S187.7,20.1,187.7,20.5z"/>
	<path d="M192,19.5c-0.1,0-0.2,0-0.3,0c-0.3,0-0.6,0.2-0.7,0.4V22h-0.5v-3h0.5v0.3c0.2-0.3,0.4-0.4,0.7-0.4c0.1,0,0.2,0,0.2,0V19.5z
		"/>
	<path d="M194.4,19l0,0.4c0.2-0.3,0.5-0.4,0.9-0.4c0.6,0,0.9,0.3,0.9,1.1v2h-0.5v-2c0-0.2-0.1-0.4-0.2-0.5c-0.1-0.1-0.3-0.2-0.4-0.2
		c-0.2,0-0.3,0-0.4,0.1c-0.1,0.1-0.2,0.2-0.3,0.3V22h-0.5v-3C193.9,19,194.4,19,194.4,19z"/>
	<path d="M198.2,22c-0.4,0-0.7-0.1-1-0.4c-0.3-0.3-0.4-0.6-0.4-1.1v-0.1c0-0.3,0.1-0.6,0.2-0.8c0.1-0.2,0.3-0.4,0.5-0.5
		c0.2-0.1,0.4-0.2,0.7-0.2c0.4,0,0.7,0.1,0.9,0.4c0.2,0.3,0.3,0.6,0.3,1.1v0.2h-2c0,0.3,0.1,0.5,0.3,0.7c0.2,0.2,0.4,0.3,0.6,0.3
		c0.2,0,0.3,0,0.5-0.1c0.1-0.1,0.2-0.2,0.3-0.3l0.3,0.3C199.1,21.8,198.7,22,198.2,22z M198.2,19.4c-0.2,0-0.4,0.1-0.5,0.2
		c-0.2,0.2-0.2,0.3-0.3,0.6h1.5v0c0-0.3-0.1-0.5-0.2-0.6C198.6,19.5,198.4,19.4,198.2,19.4z"/>
	<path d="M202.6,21.3l0.6-2.3h0.5l-0.9,3h-0.4l-0.7-2.3L201,22h-0.4l-0.9-3h0.5l0.6,2.2l0.7-2.2h0.4L202.6,21.3z"/>
	<path d="M204.8,22h-0.5v-4.2h0.5V22z"/>
	<path d="M206.6,21.2l0.7-2.2h0.5l-1.2,3.4c-0.2,0.5-0.5,0.8-0.9,0.8h-0.1l-0.2,0v-0.4h0.1c0.2,0,0.3,0,0.4-0.1
		c0.1-0.1,0.2-0.2,0.3-0.4l0.1-0.3l-1.1-2.9h0.6L206.6,21.2z"/>
	<path d="M211.5,22c0-0.1-0.1-0.2-0.1-0.3c-0.3,0.3-0.5,0.4-0.8,0.4c-0.3,0-0.5-0.1-0.7-0.3c-0.2-0.2-0.3-0.4-0.3-0.6
		c0-0.3,0.1-0.6,0.3-0.7c0.3-0.2,0.6-0.3,1-0.3h0.5V20c0-0.2-0.1-0.3-0.2-0.4s-0.3-0.2-0.5-0.2c-0.2,0-0.3,0-0.5,0.1
		c-0.1,0.1-0.2,0.2-0.2,0.3h-0.5c0-0.2,0.1-0.3,0.2-0.4c0.1-0.2,0.3-0.3,0.4-0.3c0.2-0.1,0.4-0.1,0.6-0.1c0.3,0,0.6,0.1,0.8,0.3
		c0.2,0.2,0.3,0.4,0.3,0.7v1.4c0,0.3,0,0.5,0.1,0.7v0L211.5,22L211.5,22z M210.7,21.6c0.2,0,0.3,0,0.5-0.1c0.2-0.1,0.3-0.2,0.3-0.3
		v-0.6H211c-0.6,0-0.9,0.2-0.9,0.5c0,0.2,0.1,0.3,0.2,0.4C210.3,21.5,210.5,21.6,210.7,21.6z"/>
	<path d="M213.7,21.3l0.8-2.3h0.5l-1.1,3h-0.4l-1.1-3h0.5L213.7,21.3z"/>
	<path d="M217.2,22c0-0.1-0.1-0.2-0.1-0.3c-0.3,0.3-0.5,0.4-0.8,0.4c-0.3,0-0.5-0.1-0.7-0.3c-0.2-0.2-0.3-0.4-0.3-0.6
		c0-0.3,0.1-0.6,0.3-0.7c0.3-0.2,0.6-0.3,1-0.3h0.5V20c0-0.2-0.1-0.3-0.2-0.4s-0.3-0.2-0.5-0.2c-0.2,0-0.3,0-0.5,0.1
		c-0.1,0.1-0.2,0.2-0.2,0.3h-0.5c0-0.2,0.1-0.3,0.2-0.4c0.1-0.2,0.3-0.3,0.4-0.3c0.2-0.1,0.4-0.1,0.6-0.1c0.3,0,0.6,0.1,0.8,0.3
		c0.2,0.2,0.3,0.4,0.3,0.7v1.4c0,0.3,0,0.5,0.1,0.7v0L217.2,22L217.2,22z M216.4,21.6c0.2,0,0.3,0,0.5-0.1c0.2-0.1,0.3-0.2,0.3-0.3
		v-0.6h-0.4c-0.6,0-0.9,0.2-0.9,0.5c0,0.2,0.1,0.3,0.2,0.4C216.1,21.5,216.2,21.6,216.4,21.6z"/>
	<path d="M218.5,18.2c0-0.1,0-0.2,0.1-0.2c0-0.1,0.1-0.1,0.2-0.1s0.2,0,0.2,0.1c0,0.1,0.1,0.1,0.1,0.2s0,0.2-0.1,0.2
		c0,0.1-0.1,0.1-0.2,0.1s-0.2,0-0.2-0.1C218.5,18.4,218.5,18.3,218.5,18.2z M219,22h-0.5v-3h0.5V22z"/>
	<path d="M220.4,22h-0.5v-4.2h0.5V22z"/>
	<path d="M223,22c0-0.1-0.1-0.2-0.1-0.3c-0.3,0.3-0.5,0.4-0.8,0.4c-0.3,0-0.5-0.1-0.7-0.3c-0.2-0.2-0.3-0.4-0.3-0.6
		c0-0.3,0.1-0.6,0.3-0.7c0.3-0.2,0.6-0.3,1-0.3h0.5V20c0-0.2-0.1-0.3-0.2-0.4s-0.3-0.2-0.5-0.2c-0.2,0-0.3,0-0.5,0.1
		c-0.1,0.1-0.2,0.2-0.2,0.3h-0.5c0-0.2,0.1-0.3,0.2-0.4c0.1-0.2,0.3-0.3,0.4-0.3c0.2-0.1,0.4-0.1,0.6-0.1c0.3,0,0.6,0.1,0.8,0.3
		c0.2,0.2,0.3,0.4,0.3,0.7v1.4c0,0.3,0,0.5,0.1,0.7v0L223,22L223,22z M222.2,21.6c0.2,0,0.3,0,0.5-0.1c0.2-0.1,0.3-0.2,0.3-0.3v-0.6
		h-0.4c-0.6,0-0.9,0.2-0.9,0.5c0,0.2,0.1,0.3,0.2,0.4C221.9,21.5,222,21.6,222.2,21.6z"/>
	<path d="M226.8,20.5c0,0.5-0.1,0.8-0.3,1.1c-0.2,0.3-0.5,0.4-0.8,0.4c-0.4,0-0.7-0.1-0.9-0.4l0,0.3h-0.5v-4.2h0.5v1.6
		c0.2-0.3,0.5-0.4,0.8-0.4s0.7,0.1,0.8,0.4C226.7,19.6,226.8,20,226.8,20.5L226.8,20.5L226.8,20.5z M226.3,20.5
		c0-0.3-0.1-0.6-0.2-0.8s-0.3-0.3-0.6-0.3c-0.3,0-0.6,0.2-0.7,0.5v1.3c0.2,0.3,0.4,0.5,0.7,0.5c0.3,0,0.4-0.1,0.6-0.3
		S226.3,20.8,226.3,20.5z"/>
	<path d="M228,22h-0.5v-4.2h0.5V22z"/>
	<path d="M230,22c-0.4,0-0.7-0.1-1-0.4c-0.3-0.3-0.4-0.6-0.4-1.1v-0.1c0-0.3,0.1-0.6,0.2-0.8c0.1-0.2,0.3-0.4,0.5-0.5
		s0.4-0.2,0.7-0.2c0.4,0,0.7,0.1,0.9,0.4c0.2,0.3,0.3,0.6,0.3,1.1v0.2h-2c0,0.3,0.1,0.5,0.3,0.7c0.2,0.2,0.4,0.3,0.6,0.3
		c0.2,0,0.3,0,0.5-0.1c0.1-0.1,0.2-0.2,0.3-0.3l0.3,0.3C230.9,21.8,230.5,22,230,22z M230,19.4c-0.2,0-0.4,0.1-0.5,0.2
		c-0.2,0.2-0.2,0.3-0.3,0.6h1.5v0c0-0.3-0.1-0.5-0.2-0.6C230.3,19.5,230.2,19.4,230,19.4z"/>
	<path d="M233.2,18.2c0-0.1,0-0.2,0.1-0.2c0-0.1,0.1-0.1,0.2-0.1c0.1,0,0.2,0,0.2,0.1c0,0.1,0.1,0.1,0.1,0.2s0,0.2-0.1,0.2
		c0,0.1-0.1,0.1-0.2,0.1c-0.1,0-0.2,0-0.2-0.1C233.2,18.4,233.2,18.3,233.2,18.2z M233.7,22h-0.5v-3h0.5V22z"/>
	<path d="M235,19l0,0.4c0.2-0.3,0.5-0.4,0.9-0.4c0.6,0,0.9,0.3,0.9,1.1v2h-0.5v-2c0-0.2-0.1-0.4-0.2-0.5c-0.1-0.1-0.3-0.2-0.4-0.2
		c-0.2,0-0.3,0-0.4,0.1c-0.1,0.1-0.2,0.2-0.3,0.3V22h-0.5v-3C234.6,19,235,19,235,19z"/>
	<path d="M237.9,22v-2.6h-0.5V19h0.5v-0.3c0-0.3,0.1-0.6,0.3-0.8c0.2-0.2,0.4-0.3,0.7-0.3c0.1,0,0.2,0,0.3,0l0,0.4
		c-0.1,0-0.2,0-0.3,0c-0.2,0-0.3,0.1-0.4,0.2s-0.1,0.3-0.1,0.4V19h0.6v0.4h-0.6V22L237.9,22L237.9,22z"/>
	<path d="M239.5,20.5c0-0.3,0.1-0.6,0.2-0.8c0.1-0.2,0.3-0.4,0.5-0.5c0.2-0.1,0.4-0.2,0.7-0.2c0.4,0,0.7,0.1,1,0.4
		c0.3,0.3,0.4,0.7,0.4,1.1v0c0,0.3-0.1,0.6-0.2,0.8c-0.1,0.2-0.3,0.4-0.5,0.5c-0.2,0.1-0.4,0.2-0.7,0.2c-0.4,0-0.7-0.1-1-0.4
		C239.6,21.3,239.4,21,239.5,20.5L239.5,20.5L239.5,20.5z M240,20.5c0,0.3,0.1,0.6,0.2,0.8c0.2,0.2,0.3,0.3,0.6,0.3
		c0.3,0,0.5-0.1,0.6-0.3s0.2-0.5,0.2-0.8c0-0.3-0.1-0.6-0.2-0.8s-0.4-0.3-0.6-0.3c-0.3,0-0.5,0.1-0.6,0.3
		C240.1,19.9,240,20.1,240,20.5z"/>
	<path d="M244.3,19.5c-0.1,0-0.2,0-0.3,0c-0.3,0-0.6,0.2-0.7,0.4V22h-0.5v-3h0.5v0.3c0.2-0.3,0.4-0.4,0.7-0.4c0.1,0,0.2,0,0.2,0
		V19.5z"/>
	<path d="M245.2,19v0.3c0.2-0.3,0.5-0.4,0.9-0.4c0.4,0,0.7,0.2,0.8,0.5c0.1-0.2,0.2-0.3,0.4-0.3s0.3-0.1,0.6-0.1c0.7,0,1,0.3,1,1v2
		h-0.5v-2c0-0.2-0.1-0.4-0.2-0.5c-0.1-0.1-0.3-0.2-0.5-0.2c-0.2,0-0.3,0.1-0.5,0.2c-0.1,0.1-0.2,0.3-0.2,0.5v2h-0.5v-1.9
		c0-0.4-0.2-0.7-0.6-0.7c-0.3,0-0.6,0.2-0.7,0.4V22h-0.5v-3L245.2,19L245.2,19z"/>
	<path d="M251.5,22c0-0.1-0.1-0.2-0.1-0.3c-0.3,0.3-0.5,0.4-0.8,0.4c-0.3,0-0.5-0.1-0.7-0.3c-0.2-0.2-0.3-0.4-0.3-0.6
		c0-0.3,0.1-0.6,0.3-0.7c0.3-0.2,0.6-0.3,1-0.3h0.5V20c0-0.2-0.1-0.3-0.2-0.4c-0.1-0.1-0.3-0.2-0.5-0.2c-0.2,0-0.3,0-0.5,0.1
		c-0.1,0.1-0.2,0.2-0.2,0.3h-0.5c0-0.2,0.1-0.3,0.2-0.4c0.1-0.2,0.3-0.3,0.4-0.3c0.2-0.1,0.4-0.1,0.6-0.1c0.3,0,0.6,0.1,0.8,0.3
		c0.2,0.2,0.3,0.4,0.3,0.7v1.4c0,0.3,0,0.5,0.1,0.7v0L251.5,22L251.5,22z M250.7,21.6c0.2,0,0.3,0,0.5-0.1c0.2-0.1,0.3-0.2,0.3-0.3
		v-0.6H251c-0.6,0-0.9,0.2-0.9,0.5c0,0.2,0.1,0.3,0.2,0.4C250.4,21.5,250.5,21.6,250.7,21.6z"/>
	<path d="M253.4,18.3V19h0.6v0.4h-0.6v1.8c0,0.1,0,0.2,0.1,0.3c0.1,0.1,0.1,0.1,0.3,0.1c0.1,0,0.1,0,0.3,0V22
		c-0.1,0-0.3,0.1-0.4,0.1c-0.2,0-0.4-0.1-0.5-0.2s-0.2-0.3-0.2-0.6v-1.8h-0.5V19h0.5v-0.7C252.9,18.3,253.4,18.3,253.4,18.3z"/>
	<path d="M254.6,18.2c0-0.1,0-0.2,0.1-0.2c0-0.1,0.1-0.1,0.2-0.1s0.2,0,0.2,0.1c0,0.1,0.1,0.1,0.1,0.2s0,0.2-0.1,0.2
		c0,0.1-0.1,0.1-0.2,0.1s-0.2,0-0.2-0.1C254.6,18.4,254.6,18.3,254.6,18.2z M255.1,22h-0.5v-3h0.5V22z"/>
	<path d="M255.8,20.5c0-0.3,0.1-0.6,0.2-0.8c0.1-0.2,0.3-0.4,0.5-0.5c0.2-0.1,0.4-0.2,0.7-0.2c0.4,0,0.7,0.1,1,0.4s0.4,0.7,0.4,1.1
		v0c0,0.3-0.1,0.6-0.2,0.8c-0.1,0.2-0.3,0.4-0.5,0.5c-0.2,0.1-0.4,0.2-0.7,0.2c-0.4,0-0.7-0.1-1-0.4C255.9,21.3,255.8,21,255.8,20.5
		L255.8,20.5L255.8,20.5z M256.3,20.5c0,0.3,0.1,0.6,0.2,0.8c0.2,0.2,0.3,0.3,0.6,0.3c0.3,0,0.5-0.1,0.6-0.3
		c0.2-0.2,0.2-0.5,0.2-0.8c0-0.3-0.1-0.6-0.2-0.8c-0.2-0.2-0.4-0.3-0.6-0.3s-0.5,0.1-0.6,0.3S256.3,20.1,256.3,20.5z"/>
	<path d="M259.7,19l0,0.4c0.2-0.3,0.5-0.4,0.9-0.4c0.6,0,0.9,0.3,0.9,1.1v2H261v-2c0-0.2-0.1-0.4-0.2-0.5s-0.3-0.2-0.4-0.2
		c-0.2,0-0.3,0-0.4,0.1c-0.1,0.1-0.2,0.2-0.3,0.3V22h-0.5v-3C259.2,19,259.7,19,259.7,19z"/>
	<path d="M262.3,21.7c0-0.1,0-0.2,0.1-0.2c0.1-0.1,0.1-0.1,0.3-0.1c0.1,0,0.2,0,0.3,0.1c0.1,0.1,0.1,0.1,0.1,0.2
		c0,0.1,0,0.2-0.1,0.2c-0.1,0.1-0.1,0.1-0.3,0.1c-0.1,0-0.2,0-0.3-0.1C262.3,21.9,262.3,21.8,262.3,21.7z"/>
	<path d="M51.3,27.1c0.1-0.4,0.2-0.8,0.3-1.3s0.4-0.8,0.6-1c0.2-0.3,0.5-0.5,0.8-0.7l0.1,0.3c-0.3,0.2-0.5,0.5-0.8,0.8
		c-0.2,0.3-0.4,0.8-0.5,1.2c-0.1,0.5-0.2,0.9-0.2,1.4c0,0.4,0.1,0.7,0.2,1c0.1,0.3,0.3,0.5,0.4,0.7L52.1,30
		c-0.3-0.2-0.5-0.5-0.7-0.9c-0.2-0.4-0.3-0.9-0.2-1.4C51.2,27.5,51.2,27.3,51.3,27.1L51.3,27.1z"/>
	<path d="M54.4,28.8c-0.3,0-0.5-0.1-0.7-0.2c-0.2-0.1-0.3-0.3-0.4-0.5c-0.1-0.3-0.2-0.5-0.2-0.8c0-0.2,0-0.5,0.1-0.8
		c0.1-0.3,0.2-0.6,0.3-0.9c0.2-0.3,0.3-0.5,0.5-0.6c0.3-0.2,0.6-0.3,1-0.3c0.4,0,0.7,0.2,0.9,0.4s0.3,0.6,0.4,1.1
		c0,0.2,0,0.4-0.1,0.7c-0.1,0.3-0.1,0.6-0.3,0.8s-0.3,0.5-0.5,0.6C55.2,28.7,54.9,28.8,54.4,28.8z M55.8,26.3c0-0.4-0.1-0.6-0.2-0.8
		c-0.1-0.2-0.3-0.3-0.6-0.3c-0.3,0-0.5,0.1-0.7,0.2c-0.2,0.1-0.3,0.3-0.5,0.6s-0.2,0.6-0.3,1.1v0.2c0,0.3,0.1,0.6,0.2,0.8
		c0.1,0.2,0.3,0.3,0.6,0.3c0.3,0,0.6-0.1,0.9-0.4c0.3-0.3,0.4-0.6,0.5-1.1C55.8,26.7,55.8,26.4,55.8,26.3z"/>
	<path d="M57.9,28.4c0.2,0,0.3-0.1,0.5-0.2c0.1-0.1,0.3-0.3,0.3-0.4h0.5c0,0.2-0.1,0.3-0.2,0.5c-0.1,0.2-0.3,0.3-0.5,0.4
		c-0.2,0.1-0.4,0.1-0.6,0.1c-0.3,0-0.5-0.1-0.6-0.2c-0.2-0.1-0.3-0.3-0.4-0.5c-0.1-0.2-0.1-0.5-0.1-0.8v-0.1c0-0.3,0.1-0.5,0.3-0.8
		s0.3-0.4,0.5-0.5c0.2-0.1,0.4-0.2,0.7-0.2c0.3,0,0.6,0.1,0.8,0.3c0.2,0.2,0.3,0.5,0.3,0.8h-0.5c0-0.2-0.1-0.3-0.2-0.5
		c-0.1-0.1-0.3-0.2-0.4-0.2c-0.3,0-0.5,0.1-0.7,0.3c-0.2,0.2-0.3,0.5-0.3,0.8v0.1c0,0.1,0,0.3,0,0.4c0,0.2,0.1,0.4,0.2,0.5
		S57.7,28.4,57.9,28.4z"/>
	<path d="M60.9,25.1l-0.1,0.7h0.5l-0.1,0.4h-0.5L60.4,28c0,0.1,0,0.1,0,0.1c0,0.2,0.1,0.2,0.2,0.2c0.1,0,0.2,0,0.3,0l0,0.4
		c-0.1,0-0.3,0.1-0.4,0.1c-0.2,0-0.3-0.1-0.4-0.2c-0.1-0.2-0.1-0.3-0.1-0.6l0.3-1.8h-0.5l0.1-0.4h0.5l0.1-0.7H60.9z"/>
	<path d="M63,25.7c0.3,0,0.5,0.1,0.6,0.2c0.2,0.2,0.3,0.3,0.4,0.5s0.1,0.5,0.1,0.8v0.1c0,0.3-0.1,0.6-0.3,0.8
		c-0.1,0.2-0.3,0.4-0.5,0.5s-0.5,0.2-0.7,0.2s-0.5-0.1-0.6-0.2c-0.2-0.2-0.3-0.3-0.4-0.5c-0.1-0.2-0.1-0.5-0.1-0.8
		c0-0.3,0.1-0.6,0.3-0.8c0.1-0.3,0.3-0.4,0.5-0.6C62.5,25.8,62.7,25.7,63,25.7z M62,27.3c0,0.1,0,0.3,0,0.4c0,0.2,0.1,0.4,0.2,0.5
		c0.1,0.2,0.3,0.2,0.4,0.2c0.2,0,0.3,0,0.5-0.1s0.3-0.2,0.3-0.4c0.1-0.2,0.2-0.4,0.2-0.6c0-0.2,0-0.3,0-0.4c0-0.2-0.1-0.4-0.2-0.5
		c-0.1-0.1-0.3-0.2-0.4-0.2c-0.3,0-0.5,0.1-0.7,0.3C62.1,26.6,62,26.9,62,27.3L62,27.3z"/>
	<path d="M67.2,27.3c0,0.3-0.1,0.6-0.3,0.8c-0.1,0.3-0.3,0.4-0.5,0.5c-0.2,0.1-0.4,0.2-0.6,0.2c-0.3,0-0.6-0.2-0.8-0.4l-0.1,0.3
		h-0.5l0.7-4.2h0.5l-0.3,1.6c0.3-0.3,0.5-0.4,0.9-0.4c0.3,0,0.5,0.1,0.7,0.3c0.2,0.2,0.3,0.5,0.3,0.8C67.1,27,67.1,27.1,67.2,27.3
		L67.2,27.3z M66.7,27c0-0.3,0-0.5-0.1-0.6c-0.1-0.2-0.3-0.2-0.4-0.2c-0.3,0-0.6,0.2-0.8,0.5l-0.2,1.3c0.1,0.3,0.3,0.5,0.6,0.5
		c0.2,0,0.4-0.1,0.5-0.2c0.2-0.1,0.3-0.3,0.3-0.5C66.6,27.5,66.7,27.2,66.7,27z"/>
	<path d="M68.8,28.8c-0.4,0-0.7-0.2-0.9-0.4s-0.3-0.6-0.3-1v-0.1c0-0.3,0.1-0.6,0.3-0.8s0.3-0.4,0.5-0.6c0.2-0.1,0.4-0.2,0.7-0.2
		c0.3,0,0.5,0.1,0.7,0.3c0.2,0.2,0.3,0.5,0.3,0.8c0,0.1,0,0.3,0,0.3l0,0.2h-1.9c0,0.3,0,0.5,0.1,0.7c0.1,0.2,0.3,0.3,0.5,0.3
		c0.3,0,0.6-0.1,0.8-0.4l0.3,0.3c-0.1,0.2-0.3,0.3-0.5,0.4C69.3,28.6,69.1,28.8,68.8,28.8z M69.2,26.1c-0.2,0-0.4,0.1-0.5,0.2
		c-0.2,0.2-0.3,0.4-0.4,0.7h1.4v0c0-0.2,0-0.4-0.1-0.6C69.5,26.3,69.4,26.1,69.2,26.1z"/>
	<path d="M72.3,26.2l-0.2,0c-0.3,0-0.6,0.2-0.8,0.4L71,28.8h-0.5l0.5-3h0.5l-0.1,0.3c0.2-0.3,0.5-0.4,0.8-0.4c0.1,0,0.1,0,0.3,0
		L72.3,26.2z"/>
	<path d="M76.3,28.8h-2.5l0.1-0.4l1.5-1.4l0.3-0.3c0.3-0.3,0.5-0.6,0.5-0.8c0-0.2,0-0.4-0.1-0.5c-0.1-0.1-0.3-0.2-0.4-0.2
		c-0.3,0-0.4,0.1-0.6,0.2s-0.3,0.3-0.3,0.6h-0.5c0-0.3,0.1-0.5,0.2-0.7c0.1-0.2,0.3-0.3,0.5-0.4c0.2-0.1,0.4-0.2,0.7-0.2
		c0.3,0,0.6,0.1,0.8,0.3c0.2,0.2,0.3,0.4,0.3,0.8c0,0.3-0.2,0.7-0.6,1.1l-0.3,0.3l-1.3,1.2h1.9L76.3,28.8z"/>
	<path d="M78.1,28.8c-0.3,0-0.6-0.1-0.8-0.3c-0.2-0.2-0.3-0.6-0.2-1c0-0.1,0-0.3,0-0.4l0.1-0.7c0.1-0.6,0.3-1,0.5-1.3
		c0.3-0.3,0.6-0.4,1-0.4c0.3,0,0.6,0.1,0.8,0.3c0.2,0.2,0.3,0.6,0.2,1c0,0.1,0,0.3,0,0.4l-0.1,0.7c-0.1,0.6-0.3,1-0.5,1.3
		S78.5,28.8,78.1,28.8z M79.2,26.4c0-0.2,0-0.4,0-0.5c0-0.5-0.2-0.7-0.5-0.7c-0.3,0-0.5,0.1-0.6,0.3c-0.2,0.2-0.3,0.5-0.3,0.9
		l-0.1,0.8c0,0.2,0,0.4,0,0.5c0,0.5,0.2,0.7,0.5,0.8c0.3,0,0.4-0.1,0.6-0.3c0.2-0.2,0.3-0.5,0.3-0.9L79.2,26.4z"/>
	<path d="M82.5,28.8h-2.5l0.1-0.4l1.5-1.4l0.3-0.3c0.3-0.3,0.5-0.6,0.5-0.8c0-0.2,0-0.4-0.1-0.5s-0.3-0.2-0.4-0.2
		c-0.3,0-0.4,0.1-0.6,0.2s-0.3,0.3-0.3,0.6h-0.5c0-0.3,0.1-0.5,0.2-0.7s0.3-0.3,0.5-0.4c0.2-0.1,0.4-0.2,0.7-0.2
		c0.3,0,0.6,0.1,0.8,0.3c0.2,0.2,0.3,0.4,0.3,0.8c0,0.3-0.2,0.7-0.6,1.1l-0.3,0.3l-1.3,1.2h1.9L82.5,28.8z"/>
	<path d="M85.3,27.4h0.5l-0.1,0.4h-0.5l-0.2,0.9h-0.5l0.2-0.9H83l0.1-0.3l2.2-2.8h0.5L85.3,27.4z M83.6,27.4h1.2l0.3-2l-0.1,0.1
		L83.6,27.4z"/>
	<path d="M87.6,27.1c-0.1,0.4-0.2,0.9-0.3,1.3c-0.2,0.4-0.4,0.7-0.6,1c-0.2,0.3-0.5,0.5-0.8,0.6l-0.1-0.3c0.6-0.5,1.1-1.2,1.3-2.3
		c0.1-0.4,0.1-0.8,0.1-1.2c0-0.8-0.2-1.3-0.6-1.7l0.1-0.3c0.2,0.2,0.4,0.3,0.5,0.6c0.2,0.2,0.3,0.5,0.3,0.8s0.1,0.6,0.1,1
		C87.6,26.8,87.6,26.9,87.6,27.1L87.6,27.1z"/>
</g>
</svg>
